<?xml version="1.0" encoding="UTF-8"?>
<svg width="48px" height="48px" viewBox="0 0 48 48" version="1.1" xmlns="http://www.w3.org/2000/svg" xmlns:xlink="http://www.w3.org/1999/xlink">
    <!-- Generator: Sketch 48.2 (47327) - http://www.bohemiancoding.com/sketch -->
    <title>503_group</title>
    <desc>Created with Sketch.</desc>
    <defs></defs>
    <g id="Page-1" stroke="none" stroke-width="1" fill="none" fill-rule="evenodd" stroke-linecap="round" stroke-linejoin="round">
        <g id="503_group" stroke="#000000" stroke-width="1.44">
            <g id="Group" transform="translate(2.000000, 2.000000)">
                <path d="M36.9108872,0.288256453 L37.3411627,0.288256453 C38.804943,0.288256453 40.002965,1.48627839 40.002965,2.95005872 L40.002965,37.5675495 C40.002965,39.0327359 38.804943,40.2307579 37.3411627,40.2307579 L36.9108872,40.2307579 C35.4288272,40.2307579 26.2468046,26.6588004 16.4193688,26.6588004 L4.18464001,26.6588004 C2.20059194,26.6588004 0.576512905,25.0347214 0.576512905,23.0506733 L0.576512905,17.468341 C0.576512905,15.4828868 2.19918581,13.8602139 4.18464001,13.8602139 L16.4193688,13.8602139 C26.2496169,13.8602139 35.4288272,0.288256453 36.9108872,0.288256453 Z" id="Path"></path>
                <path d="M39.9621872,13.784283 C42.7688208,14.5998378 44.8203631,17.1899275 44.8203631,20.2595072 C44.8203631,23.3290869 42.7688208,25.9191765 39.9621872,26.7347314 L39.9621872,13.784283 Z" id="Path"></path>
                <path d="M16.6513801,13.8602139 L16.6513801,26.6588004 L16.6513801,13.8602139 Z" id="Path"></path>
                <path d="M13.7266317,26.6588004 C14.2229952,29.4893382 13.4960265,32.4436153 15.2185346,35.1518198 L18.1306278,39.7372066 C18.863221,40.8888263 17.6820726,42.8925602 16.3617175,42.8925602 L11.9900623,42.8925602 C10.668301,42.8925602 9.26498423,41.8196837 8.95001132,40.4880795 L5.67373067,26.6588004 L13.7266317,26.6588004 Z" id="Path"></path>
            </g>
        </g>
    </g>
</svg>