<?xml version="1.0" encoding="UTF-8"?>
<svg width="48px" height="48px" viewBox="0 0 48 48" version="1.1" xmlns="http://www.w3.org/2000/svg" xmlns:xlink="http://www.w3.org/1999/xlink">
    <!-- Generator: Sketch 48.2 (47327) - http://www.bohemiancoding.com/sketch -->
    <title>505_sightseeing</title>
    <desc>Created with Sketch.</desc>
    <defs></defs>
    <g id="Page-1" stroke="none" stroke-width="1" fill="none" fill-rule="evenodd" stroke-linecap="round" stroke-linejoin="round">
        <g id="505_sightseeing" stroke="#000000" stroke-width="1.44">
            <g id="Group" transform="translate(2.000000, 2.000000)">
                <path d="M0.80155194,32.4513642 L6.16370463,11.7907885 C6.92740926,8.84545682 9.12525657,6.32050063 12.7775219,6.32050063 C16.4311389,6.32050063 19.3859324,8.77246558 19.3926909,11.7907885 L19.4318899,34.2910138" id="Path"></path>
                <path d="M9.31043805,6.75844806 L10.1606508,3.48195244 C10.6053567,1.76801001 11.8070088,0.200050063 13.9345682,0.200050063 C16.060776,0.200050063 17.7814768,1.62878598 17.7841802,3.38463079 L17.7922904,7.67083855" id="Path"></path>
                <path d="M43.7987985,32.4513642 L38.4352941,11.7907885 C37.6715895,8.84545682 35.4737422,6.32050063 31.8214768,6.32050063 C28.1692115,6.32050063 25.2130663,8.77246558 25.2076596,11.7907885 L25.1671089,34.2910138" id="Path"></path>
                <path d="M35.2885607,6.75844806 L34.4383479,3.48195244 C33.9936421,1.76801001 32.7906383,0.200050063 30.6644305,0.200050063 C28.5395745,0.200050063 26.8175219,1.62878598 26.8148185,3.38463079 L26.8067084,7.67083855" id="Path"></path>
                <path d="M8.96305382,25.7172466 C14.179224,25.2441552 18.7925407,29.0883605 19.265632,34.3045307 C19.7400751,39.5207009 15.8958698,44.1326658 10.6783479,44.6071089 C5.46352941,45.0802003 0.850212766,41.235995 0.377121402,36.0198248 C-0.0973216521,30.8036546 3.7468836,26.1916896 8.96305382,25.7172466 Z" id="Path"></path>
                <path d="M9.28340426,29.2451564 C12.5517897,28.9477847 15.4417021,31.3564956 15.7390738,34.6248811 L9.28340426,29.2451564 Z" id="Path"></path>
                <path d="M33.972015,25.7172466 C39.1881852,25.2441552 43.8001502,29.0883605 44.2745932,34.3045307 C44.7476846,39.5207009 40.9034793,44.1326658 35.6873091,44.6071089 C30.4711389,45.0802003 25.8578223,41.235995 25.3847309,36.0198248 C24.9102879,30.8036546 28.7558448,26.1916896 33.972015,25.7172466 Z" id="Path"></path>
                <path d="M34.2923655,29.2451564 C37.5593992,28.9477847 40.4493116,31.3564956 40.7466834,34.6248811 L34.2923655,29.2451564 Z" id="Path"></path>
                <path d="M22.3258573,29.3411264 C23.8748936,29.3411264 25.1306133,30.5968461 25.1306133,32.1458824 C25.1306133,33.6949186 23.8748936,34.9506383 22.3258573,34.9506383 C20.7754693,34.9506383 19.5197497,33.6949186 19.5197497,32.1458824 C19.5197497,30.5968461 20.7754693,29.3411264 22.3258573,29.3411264 Z M19.5197497,16.6501126 C19.5197497,15.0997247 20.7754693,13.844005 22.3258573,13.844005 C23.8748936,13.844005 25.1306133,15.0997247 25.1306133,16.6501126 L19.5197497,16.6501126 Z" id="Stroke-28"></path>
            </g>
        </g>
    </g>
</svg>