<?xml version="1.0" encoding="UTF-8"?>
<svg width="48px" height="48px" viewBox="0 0 48 48" version="1.1" xmlns="http://www.w3.org/2000/svg" xmlns:xlink="http://www.w3.org/1999/xlink">
    <!-- Generator: Sketch 48.2 (47327) - http://www.bohemiancoding.com/sketch -->
    <title>507_extreme</title>
    <desc>Created with Sketch.</desc>
    <defs></defs>
    <g id="Page-1" stroke="none" stroke-width="1" fill="none" fill-rule="evenodd" stroke-linecap="round" stroke-linejoin="round">
        <g id="507_extreme" stroke="#000000" stroke-width="1.44">
            <g id="Group" transform="translate(2.000000, 4.000000)">
                <path d="M43.439131,36.589134 C41.0956849,36.589134 39.0611311,35.1395296 38.0323011,33.0125513 C37.0034712,35.1395296 28.2462553,35.1395296 27.2174253,33.0125513 C26.1898115,35.1395296 17.4313795,35.1395296 16.4037656,33.0125513 C15.3749357,35.1395296 6.61650368,35.1395296 5.58888982,33.0125513 C4.56005984,35.1395296 2.5242899,36.589134 0.180843856,36.589134" id="Path"></path>
                <polyline id="Path" points="6.50705368 28.8765575 18.367785 6.78589981 29.699508 29.0638386"></polyline>
                <polyline id="Path" points="26.360067 21.8498677 29.6082997 17.9303417 34.9312179 25.8958693 37.1518367 23.593771 42.2777449 32.4896235"></polyline>
                <path d="M33.8172601,5.68410317 C35.6998001,5.68410317 37.2248034,7.20910647 37.2248034,9.09164641 C37.2248034,10.9729702 35.6998001,12.4979735 33.8172601,12.4979735 C31.9359363,12.4979735 30.410933,10.9729702 30.410933,9.09164641 C30.410933,7.20910647 31.9359363,5.68410317 33.8172601,5.68410317 Z" id="Path"></path>
                <path d="M33.8732012,0.631161649 L33.8732012,3.02325214 L33.8732012,0.631161649 Z" id="Path"></path>
                <path d="M27.8753414,3.06946436 L29.5669519,4.76107487 L27.8753414,3.06946436 Z" id="Path"></path>
                <path d="M25.3579915,9.0357053 L27.750082,9.0357053 L25.3579915,9.0357053 Z" id="Path"></path>
                <path d="M27.7962942,15.0335651 L29.4879047,13.3419546 L27.7962942,15.0335651 Z" id="Path"></path>
                <path d="M33.761319,17.5509151 L33.761319,15.1588246 L33.761319,17.5509151 Z" id="Path"></path>
                <path d="M39.760395,15.1138285 L38.0687845,13.4210018 L39.760395,15.1138285 Z" id="Path"></path>
                <path d="M42.2777449,9.14758752 L39.8856544,9.14758752 L42.2777449,9.14758752 Z" id="Path"></path>
                <path d="M39.8394422,3.14851158 L38.1478317,4.84012209 L39.8394422,3.14851158 Z" id="Path"></path>
                <path d="M43.439131,39.589134 C41.0956849,39.589134 39.0611311,38.1395296 38.0323011,36.0125513 C37.0034712,38.1395296 28.2462553,38.1395296 27.2174253,36.0125513 C26.1898115,38.1395296 17.4313795,38.1395296 16.4037656,36.0125513 C15.3749357,38.1395296 6.61650368,38.1395296 5.58888982,36.0125513 C4.56005984,38.1395296 2.5242899,39.589134 0.180843856,39.589134" id="Path"></path>
            </g>
        </g>
    </g>
</svg>