<?xml version="1.0" encoding="UTF-8"?>
<svg width="48px" height="48px" viewBox="0 0 48 48" version="1.1" xmlns="http://www.w3.org/2000/svg" xmlns:xlink="http://www.w3.org/1999/xlink">
    <!-- Generator: Sketch 48.2 (47327) - http://www.bohemiancoding.com/sketch -->
    <title>511_pet-friendly</title>
    <desc>Created with Sketch.</desc>
    <defs></defs>
    <g id="Page-1" stroke="none" stroke-width="1" fill="none" fill-rule="evenodd">
        <g id="511_pet-friendly">
            <g id="Group" transform="translate(2.000000, 3.000000)">
                <path d="M22.51,34.22625 C22.51,34.2275 22.7675,31.84375 20.7875,30.6125 C19.09375,29.56125 15.4625,27.9 15.42375,25.7225 C15.35875,22.00875 18.54875,21.21375 22.43625,21.195 L22.5825,21.195 C26.47,21.21375 29.66125,22.00875 29.595,25.7225 C29.5575,27.89875 25.925,29.56125 24.2325,30.6125 C22.24875,31.845 22.51,34.22875 22.51,34.22625 Z" id="Path" stroke="#000000" stroke-width="1.44" stroke-linecap="round" stroke-linejoin="round"></path>
                <path d="M8.27375,29.19375 C8.27375,28.62375 8.3075,28.0225 8.37625,27.39 C8.87,22.86125 11.99625,11.9075 14.1625,8.165 L14.13125,8.09125 C13.20375,5.93625 11.925,4.6625 10.46875,6.05625 C6.89125,9.475 9.76125,14.9725 5.4675,19.07625 C3.5,20.9575 3.06,19.84625 1.65875,16.5925 C-0.4875,11.605 1.735,5.70375 5.185,2.40625 C8.555,-0.81375 14.04875,-0.44375 16.85375,4.8875 C16.92,4.8325 16.98875,4.78125 17.0575,4.73 C18.35375,3.79125 19.88125,3.59875 22.635,3.59875 C25.3475,3.59875 26.9475,3.83125 28.275,4.7525 C30.96,-0.0675 36.01125,-0.78625 39.33375,1.89375 C42.94,4.8 45.44875,10.44 43.5575,15.65 C42.32375,19.04875 41.9475,20.46125 39.88875,18.8025 C35.4025,15.185 38.64,9.78625 34.9025,6.77375 C33.58,5.70625 31.97375,6.19375 31.03875,7.81625 C33.4275,11.70125 36.29375,22.6325 36.685,27.41875 C36.725,27.9025 36.74375,28.37 36.74375,28.82 C36.74375,33.4425 35.4675,40.0975 29.54875,40.0975 C25.9575,40.0975 22.9875,36.88875 22.51,32.72375 C22.03125,36.88875 19.06125,40.0975 15.46875,40.0975 C9.61875,40.0975 8.27375,33.7725 8.27375,29.19375 Z" id="Path" stroke="#000000" stroke-width="1.44" stroke-linecap="round" stroke-linejoin="round"></path>
                <path d="M26.46875,39.235 C26.46875,40.28875 24.69625,41.1425 22.50875,41.1425 C20.3225,41.1425 18.55,40.28875 18.55,39.235 L26.46875,39.235 Z" id="Path" stroke="#000000" stroke-width="1.44" stroke-linecap="round" stroke-linejoin="round"></path>
                <path d="M19.32875,15.90125 C19.81375,15.90125 20.2075,16.29625 20.2075,16.78125 C20.2075,17.2675 19.81375,17.66125 19.32875,17.66125 C18.8425,17.66125 18.44875,17.2675 18.44875,16.78125 C18.44875,16.29625 18.8425,15.90125 19.32875,15.90125 Z" id="Stroke-47" stroke="#000000" stroke-width="1.44" stroke-linecap="round" stroke-linejoin="round"></path>
                <path d="M25.69125,15.90125 C26.17625,15.90125 26.57125,16.29625 26.57125,16.78125 C26.57125,17.2675 26.17625,17.66125 25.69125,17.66125 C25.205,17.66125 24.81125,17.2675 24.81125,16.78125 C24.81125,16.29625 25.205,15.90125 25.69125,15.90125 Z" id="Fill-48" fill="#000000"></path>
            </g>
        </g>
    </g>
</svg>