<?xml version="1.0" standalone="no"?>
<!DOCTYPE svg PUBLIC "-//W3C//DTD SVG 1.1//EN" "http://www.w3.org/Graphics/SVG/1.1/DTD/svg11.dtd" >
<svg>
<metadata>
Created by FontForge 20090622 at Wed Aug 24 06:39:55 2016
 By deploy user
Copyright (c) Alejandro Paul, 2007. All rights reserved.
</metadata>
<defs>
<font id="CandyScript" horiz-adv-x="437" >
  <font-face 
    font-family="Candy Script"
    font-weight="400"
    font-stretch="normal"
    units-per-em="1000"
    panose-1="2 0 5 3 0 0 0 2 0 3"
    ascent="800"
    descent="-200"
    x-height="440"
    cap-height="836"
    bbox="-719 -528 1749 1258"
    underline-thickness="50"
    underline-position="-50"
    unicode-range="U+0020-U+FB03"
  />
<missing-glyph horiz-adv-x="200" 
 />
    <glyph glyph-name=".notdef" horiz-adv-x="200" 
 />
    <glyph glyph-name=".null" horiz-adv-x="0" 
 />
    <glyph glyph-name="nonmarkingreturn" horiz-adv-x="200" 
 />
    <glyph glyph-name="space" unicode=" " horiz-adv-x="200" 
 />
    <glyph glyph-name="space" unicode="&#xa0;" horiz-adv-x="200" 
 />
    <glyph glyph-name="numbersign" unicode="#" horiz-adv-x="615" 
d="M456 574q0 -19 -2 -43t-2 -46v-14q26 2 44 2.5t29 2.5q13 1 22 3q17 -23 17 -44q0 -28 -31 -39t-80 -11v-27.5t1 -26.5q49 7 72 15q13 4 21 8q17 -23 17 -44q0 -28 -30 -43t-78 -16q1 -29 2 -52.5t2 -40.5q1 -20 2 -37q0 -17 -10.5 -24t-26.5 -7q-15 0 -32.5 4.5
t-32.5 9.5q-18 6 -35 14q8 28 13.5 61.5t8.5 71.5h-79q1 -29 2 -52.5t2 -40.5q1 -20 2 -37q0 -17 -10.5 -24t-26.5 -7q-15 0 -32.5 4.5t-32.5 9.5q-18 6 -35 14q8 28 13.5 61.5t8.5 71.5h-68q-32 0 -43.5 12t-11.5 27q0 8 2 14.5t4 10.5l6 8q62 -5 115 -6v34v19.5t-1 20.5
q-42 0 -67 2.5t-38 7t-17 10t-4 12.5q0 10 4.5 20t10.5 20h108q-4 48 -9.5 87.5t-12.5 65.5q37 23 71 23q26 0 42.5 -15t17.5 -43v-7q0 -19 -2 -43t-2 -46v-20q23 0 43.5 0.5t38.5 1.5q-3 47 -8.5 85t-12.5 64q37 23 71 23q26 0 42.5 -15t17.5 -43v-7zM266 317q23 1 44 1
t41 2v31v17.5t-1 19.5h-85z" />
    <glyph glyph-name="dollar" unicode="$" horiz-adv-x="444" 
d="M242 609q0 16 -9 23t-22 7q-19 0 -38 -13t-19 -33q0 -22 10.5 -36.5t26.5 -25t36 -19.5t39 -21q54 -32 77.5 -68t23.5 -71q0 -42 -30.5 -76.5t-83.5 -51.5q0 -10 3.5 -33l7.5 -48l7.5 -47t3.5 -29q0 -26 -25 -26q-15 0 -34.5 10t-37 25t-29.5 34t-12 37v29.5t1 32.5
q-54 5 -80 32.5t-26 65.5q0 43 30 87q16 -16 38.5 -24.5t43.5 -8.5q19 0 32 8t13 25q0 15 -21.5 33l-47 41t-47 53.5t-21.5 71.5q0 44 26.5 73.5t65.5 46.5q-8 38 -23.5 65.5t-41.5 39.5q19 7 38 12q17 5 37 9t40 4q25 0 43 -10t18 -37q0 -26 -3 -63q25 -1 47 -7t39 -17.5
t27 -27.5t10 -37q0 -20 -10.5 -40t-31 -36.5t-50 -26.5t-68.5 -10l13 27q5 11 9.5 24.5t4.5 26.5z" />
    <glyph glyph-name="percent" unicode="%" horiz-adv-x="1190" 
d="M191 -13q0 17 22.5 61.5t62.5 105.5t93.5 134t115 147t128.5 144t134 126q-77 4 -147.5 21t-118.5 34q11 -49 11 -98q0 -62 -15 -123.5t-44.5 -111t-72.5 -80t-99 -30.5q-60 0 -102 25t-69 66t-39 93t-12 106q0 51 10 98.5t28 85t43 60t56 22.5q16 0 36 -5q20 26 46 43
t56 17q45 0 78 -21.5t55 -58.5q63 -28 130.5 -38.5t131.5 -10.5q52 0 102.5 6.5t92 14.5t71 14.5t40.5 6.5q45 0 78.5 -25.5t55.5 -82.5q-43 0 -98.5 -22.5t-117.5 -61t-127.5 -91t-128.5 -113t-120.5 -126t-104 -130.5t-79 -126t-45.5 -113q-5 -1 -11 -1q-5 -1 -11.5 -1
h-14.5q-15 0 -32.5 1.5t-32.5 5.5t-25 12t-10 20zM910 529q45 0 78.5 -22t55.5 -59t33 -85t11 -100q0 -62 -15 -123.5t-44.5 -111t-72.5 -80t-99 -30.5q-60 0 -102 25t-69 66t-39 93t-12 106q0 51 10 98.5t28 85t43 60t56 22.5q16 0 36 -5q20 26 46 43t56 17zM290 440
q22 0 38.5 13t27 34t16 48.5t5.5 57.5q0 33 -6.5 66t-19.5 59t-31.5 42t-43.5 16q-23 0 -32.5 -8t-9.5 -20q0 -10 5 -21t12.5 -22t17 -20.5t17.5 -15.5q-27 -21 -48.5 -30t-37.5 -9t-26 7q-1 -9 -1 -18v-17q0 -41 10.5 -71.5t27 -50.5t37.5 -30t42 -10zM886 41q22 0 38.5 13
t27 34t16 48.5t5.5 57.5q0 33 -6.5 66t-19.5 59t-31.5 42t-43.5 16q-23 0 -32.5 -8t-9.5 -20q0 -10 5 -21t12.5 -22t17 -20.5t17.5 -15.5q-27 -21 -48.5 -30t-37.5 -9t-26 7q-1 -9 -1 -18v-17q0 -41 10.5 -71.5t27 -50.5t37.5 -30t42 -10z" />
    <glyph glyph-name="ampersand" unicode="&#x26;" horiz-adv-x="855" 
d="M863 537q0 -31 -12 -56t-33 -45.5t-49.5 -36t-62.5 -28.5q32 -32 32 -78q0 -52 -39 -111.5t-107 -110.5t-161 -84.5t-202 -33.5q-50 0 -90 15.5t-68 41.5t-42.5 61t-14.5 73q0 35 13.5 72t41 71.5t71 65.5t103.5 54v7q-37 16 -70 36.5t-57.5 44.5t-38.5 51.5t-14 59.5
q0 51 35 95.5t89.5 76.5t121 50.5t130.5 18.5q57 0 101.5 -13t74.5 -35t46 -50t16 -58q0 -39 -28.5 -77t-88.5 -64q-1 19 -13 34.5t-31 26t-43.5 16t-51.5 5.5q-32 0 -64.5 -8t-58 -25.5t-41.5 -44t-16 -62.5q0 -21 19.5 -39.5t60.5 -18.5q32 0 76 16q9 3 15 3q11 0 14.5 -6
t3.5 -14q0 -6 -1 -11.5t-3 -10.5t-4 -11q-78 -15 -124 -38.5t-70.5 -49t-32 -50t-7.5 -42.5q0 -38 34.5 -56t85.5 -18q46 0 100 14t101 40t81.5 63t42.5 84q-37 -11 -75 -19.5l-75 -16.5q-15 0 -21 8.5t-6 21.5q0 14 5 32t12 33q8 18 18 36q36 13 69.5 21.5t67 22.5t69 38
t76.5 69q19 -6 35.5 -10.5t28.5 -9.5t19 -13.5t7 -22.5z" />
    <glyph glyph-name="quoteright" unicode="&#x2019;" horiz-adv-x="245" 
d="M120 794q23 0 39 -8.5t26.5 -23t15.5 -34t5 -40.5q0 -30 -9 -62t-24.5 -57.5t-36.5 -42t-46 -16.5q-26 0 -47 18q33 21 43.5 41.5t10.5 36.5q0 14 -4 22q-32 1 -47.5 22t-15.5 49q0 17 6 34t17 30.5t28 22t39 8.5z" />
    <glyph glyph-name="parenleft" unicode="(" horiz-adv-x="274" 
d="M345 -135q-52 -31 -97 -31q-42 0 -77.5 23t-64.5 63t-51 93.5t-37 114t-22.5 125.5t-7.5 127q0 112 20 220t58.5 193.5t95.5 138t131 52.5q35 0 72.5 -12.5t79.5 -40.5q-85 -73 -143 -150.5t-94 -155.5t-52 -155.5t-16 -150.5q0 -81 17 -153.5t45.5 -131.5t65.5 -102.5
t77 -66.5z" />
    <glyph glyph-name="parenright" unicode=")" horiz-adv-x="360" 
d="M-37 952q52 31 97 31q42 0 77.5 -23t64.5 -63t51 -93.5t37 -114t22.5 -125.5t7.5 -127q0 -112 -20 -220t-58.5 -193.5t-95.5 -138t-131 -52.5q-35 0 -72.5 12.5t-79.5 40.5q85 73 143 150.5t94 155.5t52 155.5t16 150.5q0 81 -17 153t-45.5 131.5t-65.5 103t-77 66.5z
" />
    <glyph glyph-name="asterisk" unicode="*" horiz-adv-x="511" 
d="M337 458q-28 0 -51.5 20l-43.5 38q9 -36 19.5 -59t20.5 -37q11 -16 23 -24q-10 -14 -28 -22t-37 -8q-27 0 -46.5 15.5t-19.5 51.5q0 20 7.5 42.5t12.5 40.5q-27 -27 -41 -49t-21 -38q-8 -18 -8 -34q-13 0 -25.5 7t-22 18t-15.5 25t-6 28q0 16 7.5 27.5t19.5 20.5
t27.5 15.5t31.5 11.5h-36q-20 0 -33 -2.5t-22 -4.5q-11 -4 -17 -7q-9 15 -9 35q0 14 4.5 28t13 25t20.5 18t27 7q14 0 27.5 -6.5t25.5 -16t23 -20.5l21 -21q-9 38 -20.5 62t-21.5 38q-11 17 -23 25q10 14 28 22.5t38 8.5q26 0 46 -16t20 -52q0 -20 -6 -37.5t-11 -33.5
q24 24 37 44.5t20 34.5q7 17 9 30q13 -1 25.5 -8t22 -17.5t15.5 -24t6 -27.5q0 -18 -9.5 -30.5t-24.5 -21t-33.5 -14.5t-35.5 -10q10 -2 23 -2q15 0 33 1.5t33.5 4t26 5t9.5 5.5q9 -15 9 -34q0 -14 -4.5 -28t-13 -25t-20.5 -18t-27 -7z" />
    <glyph glyph-name="plus" unicode="+" horiz-adv-x="615" 
d="M351 403q55 2 92.5 3.5t60.5 3.5q27 2 43 5q17 -23 17 -44q0 -28 -30.5 -43.5t-80.5 -15.5h-100q1 -39 2 -74t3 -61q2 -31 3 -56q0 -17 -10.5 -24t-26.5 -7q-15 0 -32.5 4.5t-32.5 9.5q-18 6 -35 14q12 39 17.5 89.5t7.5 104.5h-158q-32 0 -43.5 12t-11.5 27q0 17 7 33
q4 8 8 15h106.5t91.5 1q-2 67 -9 124.5t-16 91.5q37 23 71 23q26 0 42.5 -15t17.5 -43z" />
    <glyph glyph-name="comma" unicode="," horiz-adv-x="265" 
d="M130 201q25 0 43.5 -9.5t29.5 -25.5t16.5 -37t5.5 -45q0 -33 -9.5 -68t-26.5 -63t-40.5 -46t-50.5 -18q-14 0 -27 4t-26 15q38 23 49 46t11 41q0 16 -4 24q-35 1 -52.5 24.5t-17.5 53.5q0 18 6.5 36.5t19 33.5t31 24.5t42.5 9.5z" />
    <glyph glyph-name="hyphen" unicode="-" horiz-adv-x="527" 
d="M113 301q33 0 67.5 -8t69 -17.5t67 -17.5t61.5 -8q32 0 56.5 13.5t39.5 48.5q20 -15 29.5 -40.5t9.5 -52.5q0 -20 -5.5 -39.5t-17.5 -34.5t-30.5 -24t-43.5 -9q-23 0 -53 9.5l-62.5 20.5t-66.5 20.5t-66 9.5q-35 0 -64 -15t-49 -56q-20 15 -29.5 40.5t-9.5 52.5
q0 20 5.5 39.5t17.5 34.5t30.5 24t43.5 9z" />
    <glyph glyph-name="period" unicode="." horiz-adv-x="237" 
d="M113 -25q-50 0 -72 25t-22 57q0 19 7 38t20 34.5t31 25t40 9.5q24 0 41.5 -7.5t29.5 -20t17.5 -29t5.5 -33.5q0 -18 -6.5 -36t-18.5 -32t-30.5 -22.5t-42.5 -8.5z" />
    <glyph glyph-name="slash" unicode="/" horiz-adv-x="290" 
d="M339 889q-21 -31 -39 -83t-35 -117l-22 -83.5l-30.5 -118.5l-34 -136l-34 -135.5l-30 -117l-20.5 -80.5q-26 -96 -52 -141.5t-61 -45.5q-18 0 -38 12t-44 35q13 11 26.5 36t26.5 59.5t26 77.5l26 90l28 110l36.5 144.5l39.5 159.5l38 154.5l31.5 128.5l20.5 83
q5 21 15 29.5t23 8.5q15 0 33 -11t33.5 -24t26 -24z" />
    <glyph glyph-name="zero" unicode="0" horiz-adv-x="702" 
d="M436 897q71 0 123 -34.5t86.5 -92t51.5 -132.5t17 -156q0 -64 -10.5 -129t-31 -124.5t-51 -111.5t-70.5 -90.5t-89.5 -60.5t-107.5 -22q-93 0 -159 39.5t-108 103t-61 144.5t-19 165q0 79 15.5 153.5t44 132.5t68 93.5t87.5 35.5q26 0 55 -8q32 42 72 68t87 26zM399 86
q36 0 62.5 25.5t44 67.5t26 96.5t8.5 111.5q0 61 -9.5 120.5t-29 106.5t-48 76t-65.5 29q-38 0 -53.5 -19.5t-15.5 -48.5q0 -21 7 -45t17.5 -46t24 -40t25.5 -27q-43 -32 -76 -46.5t-58 -14.5q-22 0 -38 11q-2 -18 -3 -35t-1 -34q0 -69 16 -122.5t42 -90.5t58.5 -56
t65.5 -19z" />
    <glyph glyph-name="one" unicode="1" horiz-adv-x="317" 
d="M69 551q-14 -8 -29 -14q-13 -5 -29.5 -9.5t-33.5 -4.5q-36 0 -55.5 23t-19.5 54q0 36 26 68q37 5 67.5 24t56 50t47 71t40.5 87q65 -41 91.5 -79.5t26.5 -73.5q0 -23 -9.5 -44.5t-25.5 -41.5q-2 -48 -3 -99t-1 -104q0 -66 3.5 -131t13 -121t26.5 -100t44 -68
q-27 -20 -57 -35q-26 -13 -57 -23.5t-60 -10.5q-25 0 -40 12t-22.5 34.5t-10 55.5t-2.5 74q0 43 2 94l4 104t4.5 106.5t2.5 101.5z" />
    <glyph glyph-name="two" unicode="2" horiz-adv-x="670" 
d="M99 -36q-24 16 -42 38.5t-30.5 45t-18.5 43t-6 34.5q0 29 37 67.5t94 81t125 86.5l131.5 84.5l113 74.5t68.5 57q-2 19 -20 27.5t-49 8.5q-28 0 -64.5 -7t-75 -19t-77 -28.5t-72 -36.5t-59.5 -42.5t-39 -45.5q-46 38 -67 76t-21 76q0 52 37 99t101.5 82.5t152 56.5
t187.5 21q19 0 45.5 -22.5t51 -57t42 -76.5t17.5 -80q0 -60 -62 -97q-94 -55 -154 -107t-94.5 -94.5t-48 -71.5t-14.5 -38q47 5 89.5 9t79.5 4q41 0 74 -6t56 -20.5t35.5 -39.5t12.5 -63q0 -42 -16 -100q-20 4 -51.5 9.5t-70 10t-81.5 7.5t-86 3q-69 0 -131 -10.5
t-100 -39.5z" />
    <glyph glyph-name="three" unicode="3" horiz-adv-x="612" 
d="M222 -47q-55 0 -96 20.5t-68.5 52.5t-41.5 70.5t-14 74.5q0 44 22 76t66 32q14 0 19.5 -2t5.5 -4q-10 -7 -10 -18q0 -17 18.5 -34t44.5 -17q64 0 114 13.5t84.5 34t52 44t17.5 44.5q0 23 -21.5 38.5t-66.5 15.5q-34 0 -80.5 -10.5t-108.5 -35.5q-15 2 -28 10t-13 19
q0 13 22 21q17 6 51 21.5l76 36t86.5 44.5t81 47.5t60 44t23.5 35.5q0 11 -16 17t-52 6q-38 0 -90 -10t-107.5 -31.5t-110.5 -55t-100 -80.5q-46 32 -66 64t-20 63q0 33 20.5 65t54 59.5t77.5 50.5t91.5 40t95 26t88.5 9q123 0 183 -36.5t60 -94.5q0 -54 -51 -120t-152 -132
q49 -12 84.5 -31.5t58 -45t33.5 -55.5t11 -62q0 -56 -29 -112.5t-81 -103t-123 -75.5t-155 -29z" />
    <glyph glyph-name="four" unicode="4" horiz-adv-x="660" 
d="M504 900q14 -13 25 -29q10 -14 18 -31t8 -34q0 -13 -4 -22q5 -12 5 -26q0 -32 -1.5 -73t-4 -88.5l-5 -99.5t-4.5 -104q53 -8 84 -28.5t31 -55.5q0 -25 -18 -58t-58 -75q-8 2 -18.5 3.5t-21.5 2.5q2 -72 11.5 -123t29.5 -73q-57 -9 -96 -9q-53 0 -75.5 23t-22.5 82
q0 33 0.5 58.5t2.5 49.5q-40 -1 -81 -5.5t-79.5 -13t-73 -22.5t-61.5 -35q-29 19 -47.5 44.5t-29.5 52t-15.5 49.5t-4.5 37q0 38 32 91t82 112.5t110.5 121l116.5 116l101 97t64 65.5zM402 551q0 28 -1 54t-3 50q-60 -57 -95 -103t-53 -81q-21 -40 -29 -73q-2 -6 -3 -10
q-2 -10 -2 -12q48 8 94 14.5t90 8.5q1 31 1.5 68t0.5 84z" />
    <glyph glyph-name="five" unicode="5" horiz-adv-x="645" 
d="M188 -41q-25 0 -58 6.5t-63 24.5t-50.5 50t-20.5 83q0 41 16 93q16 -4 33.5 -5.5t36.5 -1.5q43 0 90.5 8t93 21.5t87.5 31t73.5 37t50 39.5t18.5 39t-27.5 28.5t-69.5 9.5q-28 0 -59 -4.5t-62 -13.5t-59 -22.5t-49 -32.5q-51 17 -66.5 47t-15.5 78q0 23 1.5 49l3.5 58
q0 2 -8 8t-17.5 25.5t-18.5 56.5t-11 102q0 2 5.5 7.5t7.5 5.5q26 12 78.5 26t117.5 26t135.5 20.5t132.5 8.5q34 0 56 -13.5t34.5 -35t17.5 -48t5 -52.5t-3.5 -49t-7.5 -36q-75 -1 -134.5 -4.5t-106 -9.5t-81 -13t-58.5 -14q-57 -17 -80 -38q-2 -6 -4 -17t-2 -22
q0 -13 2.5 -24t10.5 -13q64 23 118 33.5t100 10.5q61 0 107 -17t76 -46t45 -67.5t15 -81.5q0 -59 -28 -121.5t-83 -113.5t-136.5 -84t-188.5 -33z" />
    <glyph glyph-name="six" unicode="6" horiz-adv-x="673" 
d="M503 720q-72 -33 -131.5 -92.5t-104.5 -129.5q56 21 103 30.5t87 9.5q55 0 94.5 -16t65.5 -44t38.5 -64.5t12.5 -78.5q0 -64 -27.5 -132t-78.5 -124.5t-124 -93t-164 -36.5q-72 0 -122.5 25t-82.5 67.5t-46.5 99.5t-14.5 122q0 66 13.5 135.5t38 135.5t58 125t73.5 103
t84.5 70t90.5 26q39 0 66 -12t43.5 -29.5t23.5 -37.5t7 -37q0 -13 -3 -22zM367 443q-59 0 -151 -35q-23 -49 -34.5 -95t-11.5 -83q0 -45 19 -72.5t61 -27.5q48 0 89.5 21t72 53.5t47.5 70.5t17 73q0 40 -25.5 67.5t-83.5 27.5z" />
    <glyph glyph-name="seven" unicode="7" horiz-adv-x="546" 
d="M165 -47q-40 10 -71 29q-27 17 -49 44.5t-22 72.5q0 36 19.5 83t68 107t130.5 135t207 166q-75 0 -149.5 -5t-134.5 -11q-70 -7 -134 -16q-26 51 -37.5 88.5t-11.5 64.5q0 39 22 59t62 29.5t96 11t124 2.5t145.5 4.5t160.5 16.5q19 -35 26.5 -63.5t7.5 -51.5
q0 -33 -12 -56t-26 -37q-17 -17 -37 -26l6 -50q-56 -80 -119.5 -155.5l-120 -149t-98.5 -146t-53 -146.5z" />
    <glyph glyph-name="eight" unicode="8" horiz-adv-x="658" 
d="M659 765q0 -12 -1 -25.5t-3 -28.5q3 2 5.5 2.5t4.5 1.5l4 2q20 -4 27.5 -14t7.5 -23q0 -11 -4 -23t-9 -22q-6 -11 -13 -22q-79 -35 -146.5 -69.5t-124.5 -66.5q67 -18 109.5 -41t66.5 -47t32.5 -47.5t8.5 -42.5q0 -60 -35 -122t-94.5 -113t-138.5 -83t-167 -32
q-47 0 -79.5 16.5t-53 44.5t-30 64.5t-9.5 76.5t16.5 80t44.5 78.5t66 75.5t81 71q-11 1 -23 1.5t-25 0.5q-24 0 -50 -1t-54 -4l-10 -21q-54 38 -78 75t-24 72q0 40 26.5 77t71 69t102 59t120.5 46t126 29.5t118 10.5q39 0 65 -6.5t41.5 -19.5t21.5 -33t6 -46zM458 363
q-1 21 -31 41.5t-84 34.5q-108 -67 -163.5 -121t-55.5 -86q0 -38 71 -38q24 0 67.5 11.5t87 33.5t75.5 53.5t33 70.5zM229 588q-38 -17 -65 -36t-46 -37q48 -2 89 -5.5t78 -8.5q72 51 142.5 92t127.5 70q-45 -4 -90 -11t-87 -17t-80 -22t-69 -25z" />
    <glyph glyph-name="nine" unicode="9" horiz-adv-x="598" 
d="M386 616q19 6 39 11q17 4 38 7.5t41 3.5q29 0 49.5 -10t20.5 -39q0 -37 -6 -82.5l-13 -95.5t-13 -102.5t-6 -102.5q0 -59 11.5 -111.5t41.5 -94.5q-42 -10 -84 -23.5t-76 -13.5q-32 0 -51.5 19.5t-19.5 72.5q0 28 4 64.5t9.5 77.5t12 84.5t11.5 86.5q-51 -52 -112 -78
t-119 -26q-37 0 -70 11t-57.5 33.5t-39 56t-14.5 79.5q0 64 33 133.5t95 127.5t150.5 95.5t199.5 37.5q41 0 85 -6q27 -4 48 -29.5t21 -60.5q0 -17 -6.5 -36t-21.5 -38q-27 5 -52 7.5t-48 2.5q-79 0 -137.5 -23.5t-97 -59t-57.5 -77t-19 -76.5t18.5 -59t54.5 -24q17 0 39 6
t44 22t41 44t31 72q0 33 -4 61.5t-14 51.5z" />
    <glyph glyph-name="colon" unicode=":" horiz-adv-x="237" 
d="M113 -25q-50 0 -72 25t-22 57q0 19 7 38t20 34.5t31 25t40 9.5q24 0 41.5 -7.5t29.5 -20t17.5 -29t5.5 -33.5q0 -18 -6.5 -36t-18.5 -32t-30.5 -22.5t-42.5 -8.5zM114 264q-50 0 -72 25t-22 57q0 19 7 38t20 34.5t31 25t40 9.5q24 0 41.5 -7.5t29.5 -20t17.5 -29
t5.5 -33.5q0 -18 -6.5 -36t-18.5 -32t-30.5 -22.5t-42.5 -8.5z" />
    <glyph glyph-name="semicolon" unicode=";" horiz-adv-x="279" 
d="M125 264q-50 0 -72 25t-22 57q0 19 7 38t20 34.5t31 25t40 9.5q24 0 41.5 -7.5t29.5 -20t17.5 -29t5.5 -33.5q0 -18 -6.5 -36t-18.5 -32t-30.5 -22.5t-42.5 -8.5zM130 201q25 0 43.5 -9.5t29.5 -25.5t16.5 -37t5.5 -45q0 -33 -9.5 -68t-26.5 -63t-40.5 -46t-50.5 -18
q-14 0 -27 4t-26 15q38 23 49 46t11 41q0 16 -4 24q-35 1 -52.5 24.5t-17.5 53.5q0 18 6.5 36.5t19 33.5t31 24.5t42.5 9.5z" />
    <glyph glyph-name="less" unicode="&#x3c;" horiz-adv-x="494" 
d="M135 398q43 -5 97.5 -22.5t103 -44.5t82 -60t33.5 -69q0 -23 -22.5 -47.5t-73.5 -47.5q-42 73 -88 120.5t-91.5 76.5t-89.5 43t-81 21q-3 2 -4 7t-1 13q0 10 1.5 22.5t4 23t5 18t5.5 7.5q49 5 106 19.5t111.5 35.5t102 45.5t76.5 48.5q9 -5 19 -15t18.5 -23t14.5 -27.5
t6 -28.5q0 -20 -15.5 -38t-54.5 -28q-75 -18 -125.5 -28t-81.5 -15q-36 -6 -58 -7z" />
    <glyph glyph-name="equal" unicode="=" horiz-adv-x="615" 
d="M91 241q-32 0 -43.5 12t-11.5 27q0 17 7 33q4 8 8 15q145 0 240 2.5t152 5.5q67 4 104 8q17 -23 17 -44q0 -28 -30.5 -43.5t-80.5 -15.5h-362zM91 381q-32 0 -43.5 12t-11.5 27q0 17 7 33q4 8 8 15q145 0 240 2.5t152 5.5q67 4 104 8q17 -23 17 -44q0 -28 -30.5 -43.5
t-80.5 -15.5h-362z" />
    <glyph glyph-name="greater" unicode="&#x3e;" horiz-adv-x="494" 
d="M335 390q-22 1 -58 7q-31 5 -81.5 15t-125.5 28q-39 10 -54.5 28t-15.5 38q0 14 6 28.5t14.5 27.5t18.5 23t19 15q29 -24 76.5 -48.5t102 -45.5t111.5 -35.5t106 -19.5q3 0 5.5 -7.5t5 -18t4 -23t1.5 -22.5q0 -8 -1 -13t-4 -7q-38 -7 -81.5 -21t-89 -43t-91.5 -76.5
t-88 -120.5q-51 23 -73.5 47.5t-22.5 47.5q0 36 33.5 69t82 60t103 44.5t97.5 22.5z" />
    <glyph glyph-name="question" unicode="?" horiz-adv-x="508" 
d="M254 287q-8 -3 -18 -6q-18 -5 -42 -5q-47 0 -78 23.5t-31 61.5q0 28 20.5 62t68.5 70.5t126.5 73.5t193.5 71q-35 20 -91 20q-36 0 -78.5 -8.5t-88 -26.5t-92.5 -45.5t-91 -64.5q-45 42 -65 78.5t-20 68.5q0 35 19.5 64.5t53 53.5t77 42.5t91.5 31t97.5 19t93.5 6.5
q38 0 74 -7.5t64 -28t45.5 -56.5t20.5 -94q21 -38 21 -62q0 -22 -13.5 -38.5t-36.5 -36.5q-8 -7 -35.5 -18.5l-64.5 -28t-77.5 -36.5t-74.5 -43.5t-56.5 -50t-22.5 -54.5q0 -19 10 -36zM163 -8q-25 0 -42.5 8.5t-29 22.5t-17 33t-5.5 39q0 24 7 48t20 43t31 31t40 12
q24 0 41.5 -9.5t29.5 -25.5t17.5 -36.5t5.5 -41.5q0 -23 -6.5 -45t-18.5 -39.5t-30.5 -28.5t-42.5 -11z" />
    <glyph glyph-name="at" unicode="@" horiz-adv-x="995" 
d="M669 74q32 0 58.5 18.5t45 49t28.5 71t10 85.5q0 58 -19 117.5t-60 107.5t-107 78.5t-159 30.5q-77 0 -139 -33t-105.5 -88t-66.5 -125t-23 -143q0 -76 26.5 -149.5t83 -131t145 -93t212.5 -35.5q51 0 107 6.5t119 20.5q39 -48 39 -93q0 -46 -45 -76.5t-140 -30.5
q-173 0 -296.5 47t-202.5 123.5t-116.5 173.5t-37.5 198q0 99 33.5 193t96 167.5t152 118t202.5 44.5q118 0 202.5 -31.5t138.5 -83.5t79.5 -119t25.5 -137q0 -72 -25 -141.5t-71.5 -124t-112.5 -88t-148 -33.5q-20 0 -32 10.5t-19.5 28.5t-11.5 43t-6 55q-23 -46 -44 -73
t-40.5 -41t-38 -18t-34.5 -4q-28 0 -49 14t-34.5 38t-20 56.5t-6.5 69.5q0 56 15 116.5t42.5 110t68 81.5t91.5 32q19 0 33.5 -8t24.5 -20.5t16.5 -27t10.5 -27.5q12 3 24.5 5t23.5 2q18 0 30 -6.5t12 -24.5q0 -60 -3.5 -106t-3.5 -84q0 -31 4.5 -59t16.5 -57zM516 266
q0 19 -3 42q-4 27 -14 56q-20 -18 -36 -48.5t-27 -64t-16.5 -67t-5.5 -57.5q0 -19 3.5 -30.5t11.5 -11.5q10 0 24.5 12t28.5 35.5t24 57t10 76.5z" />
    <glyph glyph-name="A" unicode="A" horiz-adv-x="724" 
d="M-73 306q34 2 64.5 3.5t59.5 3.5q17 62 40.5 127t49.5 126t54 115t55 94t51 63.5t43 23.5q12 0 34.5 -2t45.5 -9t41.5 -19t22.5 -32l32.5 -141l34.5 -151t38.5 -149.5t44.5 -137t52 -113t63 -77.5q-30 -35 -57 -50t-52 -15q-27 0 -51 16t-45.5 43.5t-40.5 65.5t-35 82
q-75 0 -146.5 2.5t-132.5 5.5q-20 -61 -33.5 -112t-20.5 -88q-66 5 -96.5 35t-30.5 73q0 22 2.5 47.5t7.5 53.5q-5 0 -8.5 0.5t-5.5 0.5q-3 0 -5 1q-11 0 -26 4t-28.5 13t-23 23t-9.5 33q0 20 11 41zM356 611q-30 -69 -58 -140.5l-54 -141.5q57 7 98 15t73 19
q-18 72 -31.5 137.5t-21.5 110.5h-6z" />
    <glyph glyph-name="B" unicode="B" horiz-adv-x="753" 
d="M198 -43q-27 0 -39 28.5t-16.5 75t-4 105.5t-1 119t-8 116.5t-23.5 98.5q-48 -53 -60 -120q-30 0 -49 8.5t-30 22.5t-15 33.5t-4 40.5q0 52 26.5 102.5t70.5 96t102.5 84t122 66.5t129 43.5t124.5 15.5q39 0 75.5 -13t64 -35.5t44 -53t16.5 -66.5q0 -28 -11.5 -57.5
t-36 -60t-64.5 -60.5t-97 -58q61 -2 103.5 -15t69.5 -34.5t39 -50t12 -61.5q0 -38 -14.5 -79.5t-39 -81.5t-57 -76t-69.5 -63.5t-75.5 -43.5t-74.5 -16q-52 0 -89 33q-8 -5 -21.5 -12t-30 -14.5t-34.5 -12.5t-35 -5zM266 192q0 -33 3 -61q69 22 122 49.5t88.5 55t53.5 54.5
t18 50q0 29 -30.5 47.5t-93.5 18.5q-30 0 -66.5 -4.5t-81.5 -15.5q-4 -51 -8.5 -100t-4.5 -94zM285 499q0 -14 -0.5 -27t-1.5 -26q131 52 199.5 102t68.5 80q0 31 -67 31q-34 0 -82.5 -9t-100.5 -28t-102.5 -47.5t-87.5 -68.5q7 4 21 10.5t31.5 13t36.5 11.5t36 5
q21 0 35 -10t14 -37z" />
    <glyph glyph-name="C" unicode="C" horiz-adv-x="605" 
d="M316 -60q-72 0 -130.5 29t-99.5 80t-63 121t-22 153q0 103 36.5 219t118.5 232q15 22 35 48t42.5 48.5t46 38t46.5 15.5q30 0 67.5 -16.5t71.5 -44.5t57 -65t23 -77q0 -19 -13.5 -35l-29 -36t-29 -47.5t-13.5 -69.5q0 -11 1 -24t4 -27q-29 1 -52 7.5t-39.5 20t-26 35.5
t-11.5 55q-15 0 -33 -15.5t-37.5 -42t-38 -61.5t-32.5 -73.5t-23 -78.5t-9 -75q0 -28 6.5 -52t21 -42t38 -28t57.5 -10q28 0 59 16.5t58.5 44t48 62.5t26.5 73q57 0 87 -28t30 -79q0 -39 -19.5 -86.5t-56 -88.5t-88 -68.5t-115.5 -27.5z" />
    <glyph glyph-name="D" unicode="D" horiz-adv-x="891" 
d="M566 903q65 0 122 -19.5t99 -59t66.5 -99t24.5 -140.5q0 -68 -16 -140t-45 -140.5t-70 -130t-92 -107t-110 -72.5t-123 -27q-23 2 -42.5 11.5t-36.5 25.5q-20 -10 -44 -18.5t-47 -8.5q-26 0 -38.5 28.5t-17 74.5t-4 104.5t-1 118.5t-7.5 116.5t-23 98.5q-28 -29 -47 -61
t-25 -68q-30 0 -49 8.5t-30 22.5t-15 33.5t-4 40.5q0 52 26.5 102.5t70.5 96t102.5 84t122 66.5t129 43.5t124.5 15.5zM320 213v-16t1 -16q88 21 159.5 67.5t122.5 103.5t78.5 117.5t27.5 111.5q0 52 -31.5 85.5t-99.5 33.5q-33 0 -84.5 -11t-108.5 -33t-113.5 -53.5
t-99.5 -71.5l23 10.5t30 12t33 9.5t32 4q21 0 35 -10t14 -37q0 -39 -3 -79t-6.5 -79t-6.5 -77t-3 -72z" />
    <glyph glyph-name="E" unicode="E" horiz-adv-x="718" 
d="M195 -47q-52 0 -93 15.5t-69.5 41t-43.5 59.5t-15 71q0 32 11.5 65.5t36.5 64.5t63 59t91 50v7q-37 16 -64.5 40.5t-46 54t-27.5 61.5t-9 64q0 54 39 102t99.5 83.5t133 56.5t140.5 21q42 0 79.5 -9.5t65.5 -29.5t44.5 -51.5t16.5 -75.5q0 -24 -6.5 -45.5t-19 -38
t-31.5 -26t-44 -9.5q2 4 2 11q0 22 -32 34t-78 12q-38 0 -78.5 -8.5t-74.5 -26.5t-56 -46.5t-22 -67.5q0 -23 17 -31.5t45 -8.5q23 0 51 5t57 12.5t58 17t54 18.5q9 3 15 3q11 0 14.5 -6t3.5 -14q0 -6 -1 -11.5t-3 -10.5t-4 -11q-66 -24 -131 -54.5t-116.5 -61.5t-84 -59.5
t-32.5 -47.5q0 -14 18 -21.5t60 -7.5q39 0 88 8.5t99.5 32t97.5 64t83 103.5q57 -15 82.5 -46t25.5 -72q0 -52 -39 -111.5t-107 -110.5t-161 -84.5t-202 -33.5z" />
    <glyph glyph-name="F" unicode="F" horiz-adv-x="515" 
d="M516 383q0 -36 -19 -63.5t-52.5 -49.5t-78.5 -38t-96 -29q4 -63 20.5 -113t56.5 -81q-30 -13 -59 -23q-25 -9 -52.5 -16t-48.5 -7q-20 0 -31.5 16.5t-18 45t-8.5 67t-2 81.5q-22 -5 -44 -8.5t-43 -7.5q-19 0 -26.5 8.5t-7.5 21.5q0 14 7 32t15 33q10 18 22 36l38 10.5
l38 11.5q-2 35 -4.5 68.5t-8.5 63.5l-28.5 -25.5l-28.5 -27.5q-32 32 -47 64.5t-15 64.5q0 47 27 92t72 85.5t103.5 74.5t121.5 58.5t125.5 38.5t115.5 14q56 0 80.5 -15t24.5 -44q0 -30 -23.5 -73t-64.5 -97q-42 -2 -93 -13q-44 -10 -102 -32t-126 -62q19 -10 19 -38
q0 -7 -0.5 -29.5t-1.5 -47.5q-1 -29 -2 -64q38 19 77 45t81 62q47 -13 67.5 -37t20.5 -53z" />
    <glyph glyph-name="G" unicode="G" horiz-adv-x="642" 
d="M325 411q74 1 126.5 19.5t86.5 41.5q40 26 65 59q30 -18 51.5 -49.5t21.5 -67.5q0 -34 -25.5 -67t-86.5 -56q19 -13 29.5 -32.5t10.5 -47.5q0 -39 -19.5 -86.5t-56 -88.5t-88 -68.5t-115.5 -27.5q-72 0 -130.5 29t-99.5 80t-63 121t-22 153q0 103 37 218.5t118 232.5
q16 19 36 45t42 49t45.5 39.5t46.5 16.5q30 0 67.5 -16.5t71.5 -44.5t57 -65t23 -77q0 -19 -13 -30.5l-28 -25t-28 -34.5t-13 -60q0 -11 1 -24t4 -27q-29 1 -52 7.5t-39.5 20t-26 35.5t-11.5 55q-14 0 -33 -17t-38.5 -46t-38 -67t-33 -79.5t-23.5 -84.5t-9 -81
q0 -30 6.5 -56t21 -44.5t37.5 -29.5t57 -11q23 0 48 11t48.5 30t43 44.5t31.5 55.5q-18 -3 -32 -4t-25 -1q-12 0 -33.5 13.5t-41.5 33.5t-35 41.5t-15 38.5q0 11 9.5 18.5t31.5 7.5z" />
    <glyph glyph-name="H" unicode="H" horiz-adv-x="682" 
d="M-46 405h60.5t56.5 2q1 30 1 66.5v82.5q0 83 -6.5 152.5t-26.5 113.5q24 10 49 19q21 8 45.5 14t46.5 6q24 0 40.5 -10.5t16.5 -38.5q0 -32 -1.5 -73.5t-3 -90l-3 -102t-1.5 -107.5v-23q51 5 94.5 11t79.5 14v27q0 11 0.5 23t0.5 20q0 51 -1 99.5t-4 90.5t-9 76t-16 57
q21 6 45 11q20 4 44.5 7.5t47.5 3.5q33 0 57.5 -10t24.5 -39q0 -24 -2.5 -59t-6.5 -76.5t-8 -88.5t-7 -96q15 6 25.5 11.5t17.5 9.5q8 4 13 9q38 -20 58 -51t20 -65q0 -43 -33 -80t-103 -49q5 -81 23.5 -145t59.5 -95l-75 -24q-31 -9 -63.5 -16.5t-53.5 -7.5q-17 0 -27.5 22
t-16.5 60.5t-8.5 90.5t-2.5 111q-46 2 -88.5 3.5t-81.5 3.5q7 -97 26 -173.5t57 -111.5q-20 -16 -43 -28q-20 -11 -46.5 -19t-55.5 -8q-30 0 -50 22.5t-32 61t-16.5 91t-4.5 112.5v16t1 22q1 12 2 27q-20 1 -30 3q-6 1 -10 1q-11 0 -26 4t-28.5 13t-23 23t-9.5 33
q0 20 11 41z" />
    <glyph glyph-name="I" unicode="I" horiz-adv-x="263" 
d="M213 762q-11 -57 -15 -116.5t-4 -119.5q0 -77 5.5 -152t11.5 -141l11.5 -121t5.5 -93q0 -27 -16.5 -37t-40.5 -10q-23 0 -49.5 6.5t-49.5 14.5q-26 10 -53 22q18 42 25 108.5t7 144.5q0 63 -3.5 128.5t-8.5 126t-10.5 111t-9.5 83.5t-11.5 62.5t-19.5 43.5q0 12 12 13h81
q26 0 50 -2.5t42 -10.5t29 -22.5t11 -38.5z" />
    <glyph glyph-name="J" unicode="J" horiz-adv-x="510" 
d="M513 660q-15 18 -35.5 25t-45.5 7q-28 0 -63 -8q22 -2 45.5 -7t42.5 -14t31 -22t12 -31q0 -41 -2.5 -81.5t-7 -88.5t-10.5 -106.5t-12 -135.5q-5 -60 -36.5 -106t-77 -77t-99 -46.5t-102.5 -15.5q-39 0 -68.5 11t-49.5 29t-30 42.5t-10 51.5q0 51 35.5 102t109.5 83
q4 -15 18.5 -42t34.5 -53.5t42 -45.5t42 -19q22 0 36.5 32.5t14.5 114.5q0 43 -1.5 101t-4.5 116.5t-8 109.5t-13 80l-83 -25t-69 -12q-26 0 -42 13.5t-16 48.5q0 27 10.5 68.5t34.5 101.5q32 -17 64.5 -23t65.5 -6q29 0 50 1.5t41 4t42.5 4t54.5 1.5q21 0 41.5 -4t37 -13
t26.5 -23t10 -34t-8.5 -39t-19.5 -35q-12 -18 -28 -35z" />
    <glyph glyph-name="K" unicode="K" horiz-adv-x="572" 
d="M455 877q99 -7 142 -38t43 -77q0 -35 -23.5 -76.5t-65 -84t-99 -83.5t-125.5 -77q18 -71 48.5 -133.5t68 -115.5t81 -97.5t87.5 -80.5q-48 -28 -87 -40.5t-72 -12.5q-46 0 -80.5 20.5t-60.5 54t-44 77t-30.5 89.5t-20.5 90.5l-14 80.5l-2 12l-8 -2q-3 -59 -3 -115
q0 -78 7 -144.5t25 -108.5q-30 -13 -59 -24q-25 -9 -53.5 -16t-51.5 -7q-24 0 -40.5 10t-16.5 37q0 25 4 50t9.5 54.5l12.5 67t12.5 88t9.5 116.5t4 153q0 30 -3 64.5t-6.5 67.5l-6.5 61t-3 43q0 42 27 58t66 16q14 0 31.5 -1.5t35 -5.5t33 -9.5t26.5 -14.5
q-12 -14 -19.5 -43.5t-11.5 -62.5q-5 -35 -11 -90.5t-11 -121.5q37 24 73.5 60.5t69.5 84.5t61.5 105t50.5 122z" />
    <glyph glyph-name="L" unicode="L" horiz-adv-x="514" 
d="M-62 102q70 0 126 4t101 11q-29 17 -51 39t-22 42q0 38 3 84l6.5 95t6.5 99.5t3 98.5q0 44 -3.5 83.5t-12 71.5t-23.5 54.5t-38 33.5q27 7 54 12q23 5 51.5 9t55.5 4q35 0 60 -10t25 -37q0 -32 -5 -84.5l-11.5 -116t-11.5 -133t-5 -136.5q0 -52 4 -99.5t15 -86.5
q48 15 74 32.5t40 32.5q15 18 19 34q26 -13 48.5 -30.5t39.5 -37t27 -40.5t10 -41q0 -29 -21 -50t-56 -34.5t-79.5 -21t-91 -11t-92 -4.5t-81.5 -1q-26 0 -56 2.5t-56 12t-43 27.5t-17 50q0 20 7 42z" />
    <glyph glyph-name="M" unicode="M" horiz-adv-x="816" 
d="M682 -86q-42 0 -70 37.5t-45.5 102t-27 150t-15.5 180.5q-12 -38 -24.5 -82.5t-24 -94t-21.5 -102t-16 -105.5q-7 -7 -28 -7q-14 0 -29.5 2.5t-29 6.5t-22.5 9t-9 10q-31 121 -62.5 229l-60.5 199q-6 -48 -11 -103t-5 -112q0 -69 10.5 -137t38.5 -126q-4 -1 -10 -1h-28
q-26 0 -63 3.5t-70.5 15t-57 33t-23.5 58.5q0 26 1 40.5t5 33t12.5 48.5l24.5 86.5l40.5 146.5l59.5 230q-17 41 -30 69.5t-24 45.5q17 23 47 33t62 10q23 0 45 -4.5t39 -13t28.5 -20t13.5 -26.5q15 -128 28.5 -204.5t24.5 -117.5q12 -48 23 -66q22 20 44 64q19 38 40.5 105
t41.5 176l-2 32t-3 32q5 17 21 24t38 7q21 0 45 -5.5t44.5 -14.5t34.5 -20t16 -21q1 -172 9 -307.5t26 -230t47.5 -145t72.5 -52.5q-35 -56 -78 -78.5t-93 -22.5z" />
    <glyph glyph-name="N" unicode="N" horiz-adv-x="637" 
d="M434 836q27 15 54 26q23 10 51 18t52 8q26 0 42.5 -12t16.5 -44q0 -44 -10 -116l-22 -157.5t-22 -177.5t-10 -174q0 -68 9 -124t32 -94q-29 -5 -55 -8t-57 -3q-51 0 -77.5 8.5t-27.5 17.5q-21 82 -49 160.5t-60 150.5t-65.5 137l-64.5 120q-2 -35 -3 -71.5t-1 -74.5
q0 -60 4.5 -120t17.5 -116.5t35 -108t57 -93.5q-77 -31 -126 -31q-41 0 -65.5 18.5t-38.5 50.5t-18.5 76.5t-4.5 97.5q0 58 4 122t9.5 127t9.5 122t4 107q0 38 -3 65t-18 50q17 22 46 31.5t61 9.5q24 0 48 -5t43.5 -14t32 -21.5t14.5 -27.5q11 -98 31 -177t41.5 -140
t43 -103.5t35.5 -66.5q9 77 17.5 168t8.5 180q0 59 -5 112.5t-17 96.5z" />
    <glyph glyph-name="O" unicode="O" horiz-adv-x="737" 
d="M439 897q71 0 123 -34.5t86.5 -92t51.5 -132.5t17 -156q0 -64 -10.5 -129t-31 -124.5t-51 -111.5t-70.5 -90.5t-89.5 -60.5t-107.5 -22q-93 0 -159 39.5t-108 103t-61 144.5t-19 165q0 79 15.5 153.5t44 132.5t68 93.5t87.5 35.5q16 0 34 -3.5t35 -8.5q30 44 66.5 71
t78.5 27zM413 64q36 0 63 28t45 74t27 105.5t9 121.5q0 64 -9.5 126.5t-28 111t-46.5 78.5t-65 30q-23 0 -40 -15t-28 -39.5t-16 -57t-5 -66.5q0 -37 5.5 -74t16.5 -68t26.5 -53.5t35.5 -29.5q-36 -27 -65 -39.5t-52 -12.5q-36 0 -59 28q7 -59 26 -105t44.5 -78t55.5 -48.5
t60 -16.5z" />
    <glyph glyph-name="P" unicode="P" horiz-adv-x="504" 
d="M674 695q0 -77 -33 -142.5t-83.5 -113.5t-110.5 -75.5t-114 -27.5q-22 0 -36 6.5t-22 15.5q-2 -35 -3.5 -68t-1.5 -65q0 -72 14 -131t58 -94q-37 -11 -71 -19q-29 -8 -60.5 -13.5t-52.5 -5.5q-27 0 -36.5 30t-9.5 79q0 57 6.5 128.5t6.5 141.5q0 46 -5 88t-19 74l46 21
q20 8 42.5 15t42.5 7q21 0 35 -10t14 -37q0 -20 -0.5 -40.5t-1.5 -40.5q59 21 98.5 44.5t63.5 47.5t34.5 47.5t10.5 43.5q0 32 -23 46.5t-61 14.5q-32 0 -71.5 -10t-79.5 -27.5t-78 -42t-67 -54t-47 -63t-18 -68.5v-8.5t1 -8.5q-30 0 -49 8.5t-30 22.5t-15 33.5t-4 40.5
q0 44 25.5 92t68 93.5t98.5 86t116.5 71t122 48.5t115.5 18q40 0 73.5 -11t58 -34.5t38.5 -61.5t14 -92z" />
    <glyph glyph-name="Q" unicode="Q" horiz-adv-x="728" 
d="M439 897q71 0 123 -34.5t86.5 -92t51.5 -132.5t17 -156q0 -58 -8.5 -116t-25 -113t-41 -104t-56.5 -88q45 -38 92.5 -60.5t95.5 -22.5q21 0 38 4q5 -23 5 -39q0 -33 -13.5 -54t-33 -33t-41 -16t-37.5 -4q-65 0 -124 34.5t-110 92.5q-49 -19 -101 -19q-93 0 -159 39.5
t-108 103t-61 144.5t-19 165q0 79 15.5 153.5t44 132.5t68 93.5t87.5 35.5q26 0 53 -8q25 44 64.5 69t96.5 25zM557 393q0 64 -9.5 126.5t-28 111t-46.5 78.5t-65 30q-23 0 -40 -15t-28 -39.5t-16 -57t-5 -66.5q0 -45 14 -98.5t39.5 -110t60 -112t75.5 -103.5
q25 48 37 115.5t12 140.5zM223 377q0 -66 13.5 -119t36 -92.5t51 -64t58.5 -33.5q-29 49 -53 103.5t-42.5 111.5t-31 114.5t-18.5 113.5q-8 -36 -11 -69.5t-3 -64.5z" />
    <glyph glyph-name="R" unicode="R" horiz-adv-x="675" 
d="M683 3q-26 -15 -52 -26q-23 -10 -49.5 -18t-52.5 -8q-17 0 -31.5 4.5t-25.5 15.5t-17.5 29.5t-6.5 46.5v10.5t1 10.5q3 39 3 71q0 61 -9.5 101.5t-25 65t-35 34.5t-39.5 10q-25 0 -43 20l-4 -74t-2 -71q0 -72 14 -131t58 -94q-37 -11 -71 -19q-29 -8 -60.5 -13.5
t-52.5 -5.5q-27 0 -36.5 30t-9.5 79q0 57 6.5 128.5t6.5 141.5q0 46 -5 88t-19 74l46 21q20 8 42.5 15t42.5 7q21 0 35 -10t14 -37q0 -16 -0.5 -27t-0.5 -20t-0.5 -18t-0.5 -20q48 10 86 31.5t65 47.5t41.5 54t14.5 52q0 27 -20 45t-64 18q-32 0 -71.5 -10t-79.5 -27.5
t-78 -42t-67 -54t-47 -63t-18 -68.5v-8.5t1 -8.5q-30 0 -49 8.5t-30 22.5t-15 33.5t-4 40.5q0 44 25.5 92t68 93.5t98.5 86t116.5 71t122 48.5t115.5 18q52 0 90.5 -13.5t64 -37t38.5 -55t13 -67.5q0 -45 -19 -93t-57.5 -93.5t-95.5 -84t-132 -63.5q54 -7 89 -34.5t57 -65.5
t35.5 -81.5l25 -84t25 -72.5t35.5 -46z" />
    <glyph glyph-name="S" unicode="S" horiz-adv-x="745" 
d="M213 513q19 -3 64 -6.5t102 -12t118 -23.5t112 -40t83.5 -62.5t32.5 -89.5q0 -58 -21.5 -105t-56.5 -84t-81 -64t-95 -45t-97.5 -26.5t-88.5 -8.5q-84 0 -142 13t-93.5 35t-51 50.5t-15.5 59.5q0 37 19 74t49.5 66.5t68.5 48t76 18.5q4 0 6 -3.5t3 -8.5t1 -11
q-24 0 -39.5 -14t-15.5 -31t19.5 -31.5t64.5 -14.5q33 0 70 6t73 16.5t68.5 25.5t57.5 32t40 35.5t15 37.5q0 24 -24 42.5t-77.5 31t-140 19.5t-212.5 7q-21 13 -37.5 32t-28 40t-18 42.5t-6.5 40.5q0 33 26 64.5t70 59.5t101 52t118 41.5t122.5 27t114.5 9.5q35 0 65 -4.5
t51.5 -15t34 -26.5t12.5 -38q0 -43 -50 -108q-66 0 -120.5 -6.5t-99.5 -17.5t-81 -25t-63 -28q-64 -34 -103 -77z" />
    <glyph glyph-name="T" unicode="T" horiz-adv-x="503" 
d="M630 570q-26 9 -58 18q-28 8 -65 15.5t-82 14.5q13 -11 13 -36q0 -41 -3.5 -87l-7.5 -94t-7.5 -96t-3.5 -93q0 -71 13 -127t49 -85q-40 -11 -77.5 -24t-67.5 -13q-16 0 -29.5 5.5t-23 19.5t-14.5 37.5t-5 58.5q0 32 2.5 71.5t6 83t6 88.5t2.5 88q0 51 -5 94t-19 74
q16 9 34 17q15 7 34 13.5t38 11.5q-38 3 -77 3q-69 0 -139.5 -12.5t-134.5 -45.5q-29 54 -29 101q0 56 38 95.5t99 64t138 36t155 11.5q26 0 61.5 -1.5t73 -6t73.5 -13t64.5 -23t46 -36t17.5 -50.5q0 -42 -30.5 -89t-85.5 -89z" />
    <glyph glyph-name="U" unicode="U" horiz-adv-x="669" 
d="M551 -63q-28 0 -49 17.5t-37 50t-27 77.5t-18 100q-67 -111 -122.5 -159t-98.5 -48q-45 0 -78.5 42.5t-55 110.5t-32.5 153.5t-11 172.5q0 79 5 152t20 129t42 89t70 33q26 0 57.5 -13.5t71.5 -42.5q-19 -48 -33 -120q-12 -63 -22 -159t-10 -233q0 -43 3 -79t9 -62.5
t15 -41t21 -14.5q22 0 55.5 52.5t80.5 176.5q-5 89 -6 196t-1 253q0 56 17 78t42 22q23 0 50.5 -13.5t50.5 -30.5q27 -19 53 -44q-18 -96 -26 -177.5t-8 -152.5q0 -101 14 -177.5t36 -129.5t48.5 -83.5t51.5 -40.5q-17 -28 -38 -44.5t-43.5 -25.5t-47 -11.5t-49.5 -2.5z" />
    <glyph glyph-name="V" unicode="V" horiz-adv-x="484" 
d="M310 301q6 48 21 112t37 131.5t51 133t63 117.5t71.5 83.5t77.5 31.5t81 -37t82 -124q-83 -47 -143.5 -98t-104 -107t-73 -118.5t-51 -133t-39 -150.5l-35.5 -170q-7 -7 -35 -7q-17 0 -38 2.5t-39 6.5t-30.5 9t-12.5 10q-36 143 -73 268.5t-71 225t-62 168t-47 97.5
q17 23 51 33t72 10q27 0 52.5 -4.5t46.5 -13t34.5 -20t15.5 -26.5q15 -128 32 -211t32 -132q17 -57 34 -87z" />
    <glyph glyph-name="W" unicode="W" horiz-adv-x="955" 
d="M673 -49q-45 0 -81.5 11t-65 31t-50.5 47.5t-38 60.5q-53 -74 -101.5 -106.5t-90.5 -32.5q-54 0 -97.5 44t-74.5 114t-47.5 156t-16.5 169q0 62 10 118.5t30.5 99.5t53 68.5t77.5 25.5q32 0 70.5 -14t83.5 -46q-27 -42 -47 -96.5t-33 -113t-19.5 -118t-6.5 -111.5
q0 -40 3.5 -74.5t11 -59.5t18.5 -39t25 -14q21 0 49.5 34t63.5 112q-11 48 -14.5 98t-3.5 98q0 49 2.5 92t6.5 75q4 38 10 69q9 35 26 49t39 14q26 0 54.5 -15t52.5 -33q28 -21 56 -47q-17 -20 -31.5 -55.5t-25.5 -80t-17.5 -93t-6.5 -94.5q0 -38 5 -71t16 -57.5t28 -39
t42 -14.5q28 0 48.5 20t33 54.5t18.5 80t6 95.5q0 65 -9 132.5t-24.5 126t-36.5 102t-46 58.5q47 40 85.5 58t70.5 18q41 0 70.5 -26.5t49 -71.5t29 -104.5t9.5 -126.5q0 -65 -8.5 -133t-24.5 -132t-39.5 -120.5t-53.5 -99t-66 -67.5t-78 -25z" />
    <glyph glyph-name="X" unicode="X" horiz-adv-x="559" 
d="M-43 62q0 28 11.5 66.5t32.5 83t49.5 93.5t62.5 100q-23 64 -40.5 124t-30 112t-19 93t-6.5 67t23.5 42t67.5 16q29 0 65.5 -8t79.5 -25q-1 -7 -1 -14v-15q0 -38 5 -85.5t15 -103.5q44 49 88.5 91t87 73t81 48.5t70.5 17.5q20 0 34.5 -11t24 -28t14 -38.5t4.5 -42.5
q0 -24 -5.5 -44.5t-15.5 -29.5q-103 -38 -184.5 -99.5t-147.5 -138.5q26 -81 61.5 -160t81 -147.5t102 -120.5t123.5 -78q-37 -49 -73.5 -71.5t-74.5 -22.5q-49 0 -97 33.5t-93 90t-87 131t-78 156.5q-36 -61 -66 -121.5l-56 -117.5q-23 1 -42.5 4t-34.5 11.5t-23.5 24.5
t-8.5 44z" />
    <glyph glyph-name="Y" unicode="Y" horiz-adv-x="567" 
d="M552 713q0 -27 -2.5 -78t-7 -116l-10 -139t-11.5 -147l-11.5 -140.5l-9.5 -118.5q-5 -60 -36.5 -106t-77 -77t-99 -46.5t-102.5 -15.5q-39 0 -68.5 11t-49.5 29t-30 42.5t-10 51.5q0 51 35.5 102t109.5 83q4 -15 18.5 -42t34.5 -53.5t42 -45.5t42 -19q22 0 36.5 32.5
t14.5 114.5v165q-21 -26 -51 -47.5t-63 -36.5t-66.5 -23.5t-61.5 -8.5q-31 0 -51 11.5t-20 36.5q0 7 2 14.5t5 16.5q17 42 25 94.5t8 108.5q0 63 -11.5 126t-36 116t-63.5 90.5t-94 51.5q25 38 61 68q31 26 78 47.5t111 21.5q40 0 67.5 -22t45 -59.5t25 -87.5t7.5 -107
q0 -48 -4.5 -98t-13 -99t-19.5 -95t-23 -86q-5 -18 -5 -27q0 -25 25 -25q13 0 31 6.5t35.5 16.5t32.5 21t23 19q0 76 -1.5 159t-4.5 154t-8 121.5t-12 61.5q21 6 45 11q20 4 44.5 7.5t47.5 3.5q33 0 57.5 -10t24.5 -39z" />
    <glyph glyph-name="Z" unicode="Z" horiz-adv-x="637" 
d="M62 -58q-29 19 -47.5 44.5t-29.5 52t-15.5 49.5t-4.5 37q0 38 25 78t64 79.5t86.5 78l93 73.5l83 64.5t56.5 52.5q-5 1 -10.5 1.5t-12.5 0.5q-29 0 -71 -7.5t-84 -19t-78 -23.5t-52 -21q-19 36 -27.5 66.5t-8.5 56.5q0 47 25.5 81t68 56.5t97.5 35.5t115 19.5t120 8.5
t112 2q7 0 13.5 -2.5t12 -12.5t8.5 -30t3 -55q14 -13 25 -29q10 -14 18 -31t8 -34q0 -18 -12 -33.5t-41 -30.5q-117 -60 -186 -109t-104.5 -87.5t-46 -65.5t-10.5 -43q0 -6 2 -14q34 10 69.5 15.5t70.5 5.5q44 0 84.5 -9.5t71.5 -30t49.5 -52.5t18.5 -78q0 -30 -9 -66
q-23 5 -62.5 8t-87.5 3q-51 0 -108.5 -4t-111.5 -14t-101.5 -26.5t-78.5 -40.5z" />
    <glyph glyph-name="bracketleft" unicode="[" horiz-adv-x="274" 
d="M40 706q0 49 24 90.5t59 72t76 47.5t75 17q32 0 53.5 -17t21.5 -55q0 -10 -2 -20.5t-5 -23.5q-53 0 -85 -17t-49.5 -53.5t-23.5 -94.5t-6 -142v-64t0.5 -68.5t0.5 -67v-59.5q0 -101 3 -161.5t19 -92.5t49 -42.5t93 -10.5q4 -17 4 -35q0 -48 -28 -70t-69 -22
q-34 0 -71 14.5t-68 41t-51 64.5t-20 86v683z" />
    <glyph glyph-name="backslash" unicode="\" horiz-adv-x="308" 
d="M-59 889l10.5 11t26 24t33.5 24t33 11q13 0 23 -8.5t15 -29.5l20.5 -83l31.5 -128.5l38 -154.5l39.5 -159.5l36 -144.5t28.5 -110l26 -90t26 -77.5t26 -59.5t27 -36q-24 -23 -44 -35t-38 -12q-35 0 -61 45.5t-52 141.5l-20.5 80.5l-30 117l-34 135.5l-34 136l-30.5 118.5
l-22 83.5q-17 65 -35 117t-39 83z" />
    <glyph glyph-name="bracketright" unicode="]" horiz-adv-x="334" 
d="M257 58q0 -49 -24 -90.5t-59 -72t-76 -47.5t-75 -17q-32 0 -53.5 17t-21.5 55q0 10 2 20.5t5 23.5q52 0 84.5 17t50 53.5t23.5 94.5t6 142v64t-0.5 68.5t-0.5 67v59.5q0 101 -3 161.5t-19 92.5t-49 42.5t-93 10.5q-4 17 -4 35q0 48 28 70t69 22q34 0 71 -14.5t68 -41
t51 -64.5t20 -86v-683z" />
    <glyph glyph-name="underscore" unicode="_" horiz-adv-x="590" 
d="M74 -105q-32 0 -43.5 12t-11.5 27q0 16 7 28q4 6 8 10q145 0 244.5 2.5t162.5 5.5q73 4 119 8q17 -23 17 -44q0 -28 -30.5 -38.5t-80.5 -10.5h-392z" />
    <glyph glyph-name="quoteleft" unicode="&#x2018;" horiz-adv-x="245" 
d="M146 510q-23 0 -39 8.5t-26.5 23t-15.5 34t-5 40.5q0 30 9 62t24.5 57.5t36.5 42t46 16.5q26 0 47 -18q-33 -21 -43.5 -41.5t-10.5 -36.5q0 -14 4 -22q32 -1 47.5 -22t15.5 -49q0 -17 -6 -34t-17 -30.5t-28 -22t-39 -8.5z" />
    <glyph glyph-name="a" unicode="a" 
d="M214 487q19 0 33.5 -8t24.5 -20.5t16.5 -27t10.5 -27.5q12 3 24.5 5t23.5 2q18 0 30 -6.5t12 -24.5q0 -68 -5 -115t-5 -86q0 -23 3 -43.5t11 -42t21.5 -44.5t35.5 -49q-19 -9 -38 -16q-17 -6 -37.5 -11t-41.5 -5q-20 0 -32 10.5t-19.5 28.5t-11.5 43t-6 55
q-23 -46 -44 -73t-40.5 -41t-38 -18t-34.5 -4q-28 0 -49 14t-34.5 38t-20 56.5t-6.5 69.5q0 56 15 116.5t42.5 110t68 81.5t91.5 32zM250 266q0 19 -3 42q-4 27 -14 56q-20 -18 -36 -48.5t-27 -64t-16.5 -67t-5.5 -57.5q0 -19 3.5 -30.5t11.5 -11.5q10 0 24.5 12t28.5 35.5
t24 57t10 76.5z" />
    <glyph glyph-name="b" unicode="b" horiz-adv-x="453" 
d="M0 761l46 21q20 8 42.5 15t42.5 7q21 0 35 -10t14 -37q0 -29 -1.5 -67t-3.5 -82t-4.5 -92.5t-3.5 -98.5q29 20 55.5 29.5t49.5 9.5q39 0 69 -22.5t50.5 -58.5t31.5 -81t11 -91q0 -39 -8.5 -75.5t-25.5 -64.5t-44 -45t-63 -17q-37 0 -61.5 10t-39.5 25q8 -27 18.5 -47.5
t24.5 -31.5q-10 -2 -22 -3q-11 -1 -24.5 -1.5t-29.5 -0.5q-51 0 -80 8t-43.5 31t-18 64t-3.5 107q0 43 1.5 91.5t4 99t4 100.5t1.5 97q0 67 -5 122t-20 89zM211 354q-21 0 -45 -12v-25q0 -62 2.5 -118.5t10.5 -104.5q27 6 47 22t33.5 37t20 46t6.5 49q0 42 -19 74t-56 32z
" />
    <glyph glyph-name="c" unicode="c" horiz-adv-x="346" 
d="M269 132q38 -4 55.5 -27t17.5 -46q0 -20 -13.5 -36.5t-35.5 -29t-50.5 -19.5t-58.5 -7q-35 0 -69.5 10.5t-61.5 33.5t-44 60.5t-17 91.5q0 58 17 118.5t47 110t70.5 81t86.5 31.5q31 0 55 -8.5t39.5 -22.5t23.5 -32.5t8 -38.5q0 -26 -12 -46t-26.5 -39.5t-28 -39.5
t-16.5 -45q-17 3 -29 9q-11 5 -19.5 14t-8.5 23q-20 -1 -35.5 -13t-26.5 -30.5t-17 -41.5t-6 -45q0 -35 15 -61.5t48 -26.5q26 0 51.5 18.5t40.5 53.5z" />
    <glyph glyph-name="d" unicode="d" horiz-adv-x="449" 
d="M181 457q23 0 41.5 -9t32.5 -22q3 64 3 126q0 66 -5.5 120.5t-19.5 88.5l46 21q20 8 42.5 15t42.5 7q21 0 35 -10t14 -37q0 -41 -4 -95.5t-9 -116t-9 -126.5t-4 -128q0 -93 13 -170t50 -121q-19 -9 -38 -16q-17 -6 -37.5 -11t-41.5 -5q-20 0 -32.5 10.5t-20 28.5t-11 43
t-5.5 54q-23 -45 -44 -72t-40.5 -41t-38 -18t-34.5 -4q-30 0 -52 15t-36 40.5t-21 59t-7 70.5q0 52 13 105.5t37 97.5t59.5 72t80.5 28zM163 85q10 0 23 10.5t25.5 33t22.5 58t15 85.5q1 24 2.5 48t1.5 49q-28 -5 -48.5 -29t-34 -57t-20 -70t-6.5 -67q0 -26 4.5 -43.5
t14.5 -17.5z" />
    <glyph glyph-name="e" unicode="e" horiz-adv-x="422" 
d="M223 161q-18 0 -38 2.5t-41 7.5q0 -26 4.5 -48.5t14.5 -40t26 -27.5t38 -10q26 0 50.5 19.5t37.5 55.5q38 -4 56 -21t18 -40q0 -19 -14.5 -36t-39 -30t-56.5 -21t-66 -8q-39 0 -77.5 12t-69.5 39.5t-50 73t-19 111.5q0 54 19.5 104.5t52.5 90.5t75 64t87 24
q44 0 76.5 -13.5t54.5 -35t32.5 -49.5t10.5 -58q0 -31 -11.5 -60.5t-34.5 -53t-57 -38t-79 -14.5zM246 367q-19 0 -35 -12t-28.5 -32t-21.5 -45.5t-13 -53.5q33 4 55.5 15.5t36 27t19.5 32.5t6 32q0 16 -5.5 26t-13.5 10z" />
    <glyph glyph-name="f" unicode="f" horiz-adv-x="268" 
d="M228 331q3 0 8.5 -6.5t11 -16t10 -21.5t4.5 -23q0 -15 -11 -26t-40 -11h-40q2 -61 5.5 -121.5t7 -114.5t6 -99.5t2.5 -76.5q0 -27 -14 -37t-35 -10q-20 0 -42.5 6.5t-42.5 14.5q-23 10 -46 22q21 50 29 131.5t8 173.5q0 26 -0.5 53t-1.5 53q-9 -1 -15 -1h-11t-9 -1
q-6 0 -13.5 4t-14 11t-11.5 16.5t-5 20.5t6 23q20 1 37 1.5t33 2.5q-2 43 -5 81t-5 68t-3.5 50t-1.5 28q0 44 29 66.5t73 30.5q14 9 35 17t47 8q31 0 54 -7t38 -19t22 -27t7 -31q0 -18 -8 -35t-23.5 -31t-37.5 -22.5t-50 -8.5q1 5 2 11q1 5 2 12.5t1 15.5q0 16 -4 33.5
t-16 32.5q-17 -43 -23.5 -111t-6.5 -148q17 3 31 7.5t27 10.5z" />
    <glyph glyph-name="g" unicode="g" horiz-adv-x="424" 
d="M214 487q19 0 33 -7.5t23.5 -19t16 -25.5t10.5 -26q15 5 29.5 8t27.5 3q15 0 25 -6t10 -22v-79.5t-1.5 -100t-4.5 -115.5t-8 -125q-4 -50 -30 -88t-64 -63.5t-82.5 -38.5t-85.5 -13q-26 0 -49 5.5t-40 16t-27 26.5t-10 38t19 41t62 38q3 -11 13.5 -24t25.5 -24.5
t33 -19.5t36 -8q16 0 31 8t26 27t18 51t7 79v31.5t-1 36.5q-21 -41 -41.5 -65t-39 -37t-36 -16.5t-33.5 -3.5q-28 0 -49 14t-34.5 38t-20 56.5t-6.5 69.5q0 56 15 116.5t42.5 110t68 81.5t91.5 32zM163 85q9 0 23.5 11.5t28 33t23.5 53t12 72.5q-3 35 -7 64t-9 46
q-21 -18 -37 -48.5t-27 -64.5t-16.5 -67.5t-5.5 -57.5q0 -19 3.5 -30.5t11.5 -11.5z" />
    <glyph glyph-name="h" unicode="h" horiz-adv-x="432" 
d="M-1 762l46 21q20 8 42.5 15t42.5 7q21 0 35 -10t14 -37q0 -30 -1.5 -68.5t-3.5 -83t-4.5 -93t-4.5 -98.5q34 33 72.5 45.5t62.5 12.5q32 0 52.5 -11.5t32.5 -32t16.5 -47.5t4.5 -58q0 -53 -7 -110t-7 -107q0 -36 6.5 -64t26.5 -43q-14 -10 -29 -18q-14 -7 -30.5 -12
t-34.5 -5q-24 0 -40.5 9t-26 24.5t-14 36.5t-4.5 44q0 24 3 51t6.5 53.5t6.5 52t3 47.5q0 38 -13 61.5t-50 23.5q-21 0 -39 -20q-1 -23 -1 -46v-45q0 -99 8.5 -171t33.5 -100q-57 -9 -96 -9q-53 0 -75.5 23t-22.5 82q0 37 1 65t3 54t3.5 55l3.5 68.5t3 94t1 132.5
q0 66 -5.5 121t-20.5 90z" />
    <glyph glyph-name="i" unicode="i" horiz-adv-x="228" 
d="M118 474q-42 0 -61 24t-19 54q0 17 5.5 34.5t16 31t25.5 22t33 8.5q20 0 35 -7t25 -19t15 -27.5t5 -31.5q0 -17 -5 -32.5t-15.5 -28.5t-25.5 -20.5t-34 -7.5zM24 408q20 8 41 15q18 5 39 10t39 5q27 0 37 -15t10 -41q0 -20 -4.5 -45.5t-10 -53t-10 -56t-4.5 -55.5
q0 -44 12 -87t47 -85q-18 -7 -41 -12q-20 -5 -47 -8t-59 -3q-27 0 -36.5 21.5t-9.5 56.5q0 45 8 105t8 122q0 33 -4 65t-15 61z" />
    <glyph glyph-name="j" unicode="j" horiz-adv-x="215" 
d="M0 417l54 21q23 8 48.5 15t46.5 7q17 0 27.5 -6t10.5 -21q0 -34 -2 -86t-5.5 -114t-8.5 -129.5l-10 -131.5q-4 -50 -30 -88t-64 -63.5t-82.5 -38.5t-85.5 -13q-26 0 -49 5.5t-40 16t-27 26.5t-10 38t19 41t62 38q3 -11 13.5 -24t25.5 -24.5t33 -19.5t36 -8q16 0 31 8
t26 27t18 51t7 79q0 27 -1 64t-2.5 77.5t-5 81.5t-8 76t-11.5 60t-16 35zM85 505q-48 0 -68.5 21.5t-20.5 50.5q0 18 7 36t19 33t28 24t35 9q47 0 68 -24t21 -55q0 -17 -6 -34t-17.5 -30.5t-28 -22t-37.5 -8.5z" />
    <glyph glyph-name="k" unicode="k" horiz-adv-x="436" 
d="M4 762l46 21q20 8 42.5 15t42.5 7q21 0 35 -10t14 -37q0 -71 -7 -166t-9 -205q10 26 27 46t37.5 34t42.5 21.5t43 7.5q39 0 68 -26.5t29 -85.5q0 -30 -13 -58t-37 -50.5t-58.5 -36t-76.5 -13.5h-16q34 -60 88.5 -90.5t112.5 -30.5h10.5t10.5 1q0 -29 -11.5 -53.5
t-28.5 -42.5t-37 -28.5t-38 -10.5q-31 0 -55.5 18.5t-44 49t-33 69.5t-21.5 80q0 -35 1 -67.5t4 -59.5t8.5 -47t14.5 -29q-57 -9 -93 -9q-50 0 -68.5 23t-18.5 83q0 37 1 65t3 54t3.5 55l3.5 68.5t3 94t1 132.5q0 66 -5.5 121t-20.5 90zM238 353q-11 0 -24 -12.5t-29 -43.5
q2 -7 3.5 -13t3.5 -11q5 -1 9 -1.5t9 -0.5q28 0 39.5 16t11.5 33q0 14 -6 23.5t-17 9.5z" />
    <glyph glyph-name="l" unicode="l" horiz-adv-x="213" 
d="M-2 762l46 21q20 8 42.5 15t42.5 7q21 0 35 -10t14 -37q0 -42 -2.5 -100.5t-6 -125.5t-6 -138t-2.5 -137q0 -49 2 -94t6.5 -82t13 -64t20.5 -41q-26 -5 -47.5 -7.5t-39.5 -2.5q-29 0 -49 9t-32 31t-17.5 60t-5.5 95q0 43 2 92l4 99.5l4 101t2 97.5q0 66 -5.5 121
t-20.5 90z" />
    <glyph glyph-name="m" unicode="m" horiz-adv-x="651" 
d="M5 433l46 21q20 8 42.5 15t42.5 7q21 0 35 -10t14 -37q0 -5 -0.5 -10t-0.5 -12q28 29 59.5 44t60.5 15q39 0 59 -19.5t28 -51.5q31 38 67.5 58.5t69.5 20.5q30 0 48.5 -14t29.5 -37t15 -54t4 -64q0 -28 -2 -56.5t-4.5 -54.5l-4.5 -48.5t-2 -38.5q0 -36 7 -64.5t26 -42.5
q-14 -10 -29 -18q-14 -7 -30.5 -12t-34.5 -5q-26 0 -42 9t-26 24t-13.5 36t-3.5 45q0 25 3 52t6.5 54l6.5 52t3 46q0 43 -15 63t-36 20q-18 0 -37 -14q1 -6 1 -12v-13l-12 -210q0 -39 7 -70.5t28 -48.5q-63 -24 -101 -24q-40 0 -57.5 26.5t-17.5 81.5q0 24 3 50.5l6 52.5
l6 51t3 47q0 39 -15.5 58t-37.5 19q-16 0 -31 -9q-5 -42 -8.5 -91.5t-3.5 -98.5q0 -29 2 -56.5t7 -50.5t13.5 -40.5t20.5 -27.5q-57 -9 -96 -9q-53 0 -75.5 23t-22.5 82q0 27 7.5 74.5t7.5 108.5q0 38 -5.5 80.5t-20.5 87.5z" />
    <glyph glyph-name="n" unicode="n" horiz-adv-x="436" 
d="M5 433l46 21q20 8 42.5 15t42.5 7q21 0 35 -10t14 -37v-8.5t-1 -9.5q32 32 65.5 47t55.5 15q33 0 54 -12t33 -32.5t16.5 -47.5t4.5 -58q0 -27 -2.5 -55.5t-5.5 -57t-5.5 -55t-2.5 -48.5q0 -36 6.5 -64t26.5 -43q-14 -10 -29 -18q-14 -7 -30.5 -12t-34.5 -5q-24 0 -40.5 9
t-26 24.5t-14 36.5t-4.5 44q0 24 3 51t6.5 53.5t6.5 52t3 47.5q0 38 -13 61.5t-50 23.5q-14 0 -27 -9q-5 -42 -9 -94t-4 -104q0 -29 2 -56.5t7 -50.5t13.5 -40.5t20.5 -27.5q-57 -9 -96 -9q-53 0 -75.5 23t-22.5 82q0 27 7.5 74.5t7.5 108.5q0 38 -5.5 80.5t-20.5 87.5z" />
    <glyph glyph-name="o" unicode="o" horiz-adv-x="434" 
d="M435 318q3 -5 3 -11q0 -13 -11 -30t-31 -33q-3 -49 -18.5 -97.5t-42.5 -87.5t-64 -63t-83 -24q-53 0 -89.5 19.5t-59.5 51.5t-33.5 73t-10.5 85q0 48 10.5 94.5t29.5 83t43.5 59.5t53.5 23q3 0 10 -3t16 -7.5t18 -11t16 -13.5q12 18 25.5 29.5t27.5 11.5q35 0 61.5 -13
t45 -35.5t29.5 -53t14 -64.5q10 3 19.5 7.5zM192 64q17 0 29.5 12.5t21 33.5t14 47.5t7.5 55.5q-48 6 -71.5 29.5t-29.5 54.5q-11 -36 -16.5 -72t-5.5 -67q0 -42 11.5 -68t39.5 -26zM227 353q0 -15 8 -32.5t30 -28.5q-2 37 -8.5 62t-17.5 25q-5 0 -8.5 -7.5t-3.5 -18.5z" />
    <glyph glyph-name="p" unicode="p" horiz-adv-x="416" 
d="M219 -20q-24 0 -43 9.5t-33 22.5q-1 -11 -1 -22.5v-22.5q0 -47 5 -86.5t20 -74.5q-23 -12 -46 -22q-20 -8 -42.5 -14.5t-42.5 -6.5q-21 0 -35 10t-14 37q0 41 4 75.5t9 71.5t9 81.5t4 107.5q0 43 2 84t2 78q0 43 -6 78.5t-26 58.5q42 14 71 22t49 8q31 0 41 -24t10 -81
q19 33 37.5 52t35.5 29.5t33 13.5t31 3q30 0 52 -15t36 -40.5t21 -59t7 -70.5q0 -52 -13 -105.5t-37 -97.5t-59.5 -72t-80.5 -28zM145 68q29 4 50 28t34.5 57.5t20 71t6.5 67.5q0 26 -5 43t-14 17q-12 0 -27.5 -14.5t-29.5 -45t-24 -79t-10 -117.5z" />
    <glyph glyph-name="q" unicode="q" 
d="M233 -189q0 52 7.5 113.5t16.5 126.5q-21 -27 -42 -43t-41 -25t-37.5 -11.5t-31.5 -2.5q-28 0 -48.5 13.5t-33.5 36t-19.5 53t-6.5 64.5q0 53 14.5 110t40.5 104t63.5 77.5t84.5 30.5q21 0 34 -5t21 -13t12 -18t6 -19q7 22 24.5 36.5t41 23.5t52.5 12.5t59 3.5
q12 0 12 -12q-19 -21 -32.5 -64.5t-22 -99t-12.5 -119t-4 -125.5v-33q7 5 11.5 9.5l8.5 8.5t7 8q15 -9 26 -25t11 -34q0 -17 -13.5 -34.5t-46.5 -28.5q2 -38 7 -69.5t11 -53.5q-23 -12 -46 -22q-20 -8 -42.5 -14.5t-42.5 -6.5q-21 0 -35 10t-14 37zM268 369q0 5 0.5 10
t1.5 10q-9 3 -16 3q-24 0 -41 -20.5t-28.5 -52t-16.5 -68.5t-5 -71q0 -40 6.5 -67.5t18.5 -27.5q8 0 19.5 8t23 23t22 37.5t16.5 51.5q0 49 -0.5 80.5t-0.5 50.5v33v0z" />
    <glyph glyph-name="r" unicode="r" horiz-adv-x="358" 
d="M258 461q23 0 42.5 -10t33 -26t21 -36t7.5 -41t-8 -41t-25.5 -36t-45.5 -26.5t-68 -11.5q2 6 4.5 24t2.5 38q0 23 -6 41.5t-24 19.5q-14 -1 -24 -10q-3 -69 -9 -126t-6 -109q0 -41 6.5 -72.5t23.5 -51.5q-20 -4 -40.5 -7t-40.5 -3q-19 0 -35.5 4t-29 14.5t-20 28
t-7.5 45.5q0 34 4 80t4 103q0 43 -6 77t-23 75l46 21q20 8 42.5 15t42.5 7q21 0 35 -10t14 -37v-15q17 30 39.5 52t49.5 24z" />
    <glyph glyph-name="s" unicode="s" horiz-adv-x="337" 
d="M193 366q0 16 -9 23t-22 7q-19 0 -38 -13t-19 -33q0 -22 10.5 -36.5t26.5 -25t36 -19.5t39 -21q54 -32 77.5 -68t23.5 -71q0 -29 -15.5 -55t-43.5 -45.5t-66 -31t-84 -11.5q-64 0 -95 28t-31 70q0 43 30 87q16 -16 38.5 -24.5t43.5 -8.5q19 0 32 8t13 25q0 15 -21.5 33
l-47 41t-47 53.5t-21.5 71.5q0 34 17 60.5t44.5 44t61.5 26.5t67 9q26 0 50 -5.5t42.5 -17t29.5 -28t11 -38.5q0 -20 -10.5 -40t-31 -36.5t-50 -26.5t-68.5 -10l13 27q5 11 9.5 24.5t4.5 26.5z" />
    <glyph glyph-name="t" unicode="t" horiz-adv-x="266" 
d="M235 511q3 0 13.5 -7.5t22 -19t20.5 -24.5t9 -25t-13 -20t-48 -8h-43q-2 -34 -3 -69.5t-1 -71.5q0 -75 8 -145t29 -120q-23 -12 -46 -22q-20 -8 -42.5 -14.5t-42.5 -6.5q-21 0 -35 10t-14 37q0 34 3 80.5t7 99l8 108.5t7 110q-16 -1 -28 -1t-21 -1q-11 -1 -18 -1
q-6 0 -13.5 4t-14 11t-11.5 16.5t-5 20.5t6 23q32 2 58 3t49 3v13q0 66 -7 115.5t-25 72.5q46 15 81 15q87 0 87 -97q0 -10 -2.5 -36t-6.5 -64q9 2 16.5 5z" />
    <glyph glyph-name="u" unicode="u" horiz-adv-x="435" 
d="M433 28q-1 -14 -8 -25q-6 -9 -18 -16.5t-33 -7.5q-34 0 -67.5 26.5t-53.5 89.5q-20 -67 -48.5 -99.5t-59.5 -32.5q-42 0 -69 21.5t-42.5 56.5t-21 79t-5.5 88q0 30 2 59t4.5 53.5t5 43t4.5 28.5q3 9 14 17q9 7 26.5 12.5t46.5 5.5q14 0 31.5 -1.5t38.5 -5.5
q-13 -54 -18.5 -99.5t-5.5 -81.5q0 -58 12 -89.5t30 -31.5q20 0 42 41q-2 16 -3 33.5t-1 37.5q0 39 3 75t7 65q4 33 10 63q2 11 21.5 17t45.5 6q28 0 54 -6.5t36 -20.5q-6 -7 -12 -30.5t-11 -56.5t-8.5 -72.5t-3.5 -78.5q0 -32 3 -61.5t9.5 -52t17 -36t25.5 -13.5z" />
    <glyph glyph-name="v" unicode="v" horiz-adv-x="367" 
d="M209 138q20 0 37.5 20.5t24.5 62.5q-29 19 -43.5 56t-14.5 76q0 23 5.5 44t16.5 37.5t29 26t42 9.5q19 0 28 -27.5t9 -71.5q0 -15 -2 -30.5t-2 -32.5q0 -37 14.5 -53t30.5 -21q3 0 3 -2q0 -4 -8 -8.5t-19 -8t-22.5 -6t-17.5 -2.5q-12 -46 -30 -90t-41.5 -78t-52 -54.5
t-62.5 -20.5q-38 0 -64 22t-41.5 57.5t-22 80.5t-6.5 92q0 49 6 94t15 77q5 17 19.5 32t33 26.5t38.5 18t37 6.5q8 0 14.5 -1.5t11.5 -5.5q-20 -57 -28.5 -103t-8.5 -83q0 -69 22.5 -104t48.5 -35z" />
    <glyph glyph-name="w" unicode="w" horiz-adv-x="573" 
d="M545 314q0 -37 14 -56t30 -24q0 -1 1 -1t2 -1q0 -4 -8 -8.5t-19 -8t-22.5 -6t-17.5 -2.5q-12 -45 -30.5 -87t-41.5 -75t-52 -52.5t-62 -19.5q-32 0 -58.5 33t-40.5 93q-25 -58 -54 -84t-58 -26q-26 0 -49 18.5t-40.5 51.5t-28 79t-10.5 101q0 57 12.5 109.5t38.5 90.5
q17 26 42.5 34t48.5 8q11 0 21 -1t18 -3q9 -2 16 -4q-27 -72 -38.5 -130t-11.5 -101q0 -50 12 -77t30 -27q9 0 19.5 8t20.5 25q-1 13 -1.5 26.5t-0.5 27.5q0 40 6 84.5t20 93.5q8 27 34.5 39t54.5 12q16 0 29.5 -3t22.5 -10q-17 -48 -24 -88t-7 -73q0 -66 21.5 -101.5
t45.5 -35.5q17 0 31.5 18.5t19.5 56.5q-30 18 -46 56t-16 79q0 23 5.5 44t16.5 37.5t29 26t42 9.5q19 0 28 -27t9 -70q0 -14 -1 -28.5t-3 -30.5z" />
    <glyph glyph-name="x" unicode="x" horiz-adv-x="401" 
d="M-5 4q0 28 19 71.5t50 93.5q-29 60 -44.5 118.5t-15.5 98.5q0 31 11.5 53.5t50.5 22.5q18 0 42.5 -5.5t58.5 -19.5q-1 -6 -1 -12v-13q0 -21 2 -45.5t6 -50.5q25 29 51.5 54t51.5 43t47.5 28.5t41.5 10.5q24 0 34.5 -22.5t10.5 -46.5q0 -14 -3 -25.5t-9 -16.5
q-62 -23 -110.5 -60t-87.5 -84q16 -51 38.5 -85t50.5 -34q25 0 49 30q17 -8 24.5 -21t7.5 -28q0 -14 -7 -28t-20.5 -25t-33.5 -18t-47 -7q-41 0 -77.5 27t-67.5 69l-32 -62t-28 -59q-13 0 -24.5 1.5t-20 6.5t-13.5 14.5t-5 25.5z" />
    <glyph glyph-name="y" unicode="y" horiz-adv-x="431" 
d="M239 413q19 6 39 11q17 4 37 7.5t39 3.5q23 0 39 -7.5t16 -27.5q0 -34 -3.5 -81t-8.5 -102.5l-11 -118t-11 -126.5q-4 -50 -30 -88t-64 -63.5t-82.5 -38.5t-85.5 -13q-26 0 -49 5.5t-40 16t-27 26.5t-10 38t19 41t62 38q3 -11 13.5 -24t25.5 -24.5t33 -19.5t36 -8
q16 0 31 8t26 27t18 51t7 79v84q-20 -66 -48.5 -98.5t-59.5 -32.5q-42 0 -69 21.5t-42.5 56.5t-21 79t-5.5 88q0 30 2 59t4.5 53.5t5 43t4.5 28.5q3 9 14 17q9 7 26.5 12.5t46.5 5.5q14 0 31.5 -1.5t38.5 -5.5q-13 -54 -18.5 -99.5t-5.5 -81.5q0 -58 12 -89.5t30 -31.5
q12 0 26.5 16.5t28.5 52.5q0 36 -1.5 71t-3.5 63.5t-5.5 49.5t-8.5 29z" />
    <glyph glyph-name="z" unicode="z" horiz-adv-x="413" 
d="M391 310q-5 0 -7 1q-68 -27 -106.5 -56.5t-58.5 -54.5q-23 -29 -30 -57h23q58 0 95 -3.5t58 -10.5t29 -17t8 -22q0 -17 -9.5 -38.5t-16.5 -47.5q-23 2 -45 3.5t-46 1.5q-48 0 -106 -8.5t-139 -34.5q-10 10 -18 24q-7 12 -12.5 29t-5.5 38q0 24 11.5 54t42 63.5t83.5 69.5
t137 73q-64 0 -124 -7.5t-101 -30.5q-26 27 -38 49t-12 41q0 30 25.5 50t63.5 32t83.5 17t85.5 5q36 0 65.5 -2.5t50.5 -13t32.5 -30.5t11.5 -54q0 -29 -6.5 -42.5t-20.5 -20.5h-3z" />
    <glyph glyph-name="braceleft" unicode="{" horiz-adv-x="345" 
d="M438 -120q-48 -30 -83.5 -43.5t-63.5 -13.5q-38 0 -61.5 22.5t-37 59t-19.5 83.5t-9.5 95.5l-7 95.5t-12 83.5t-24 59t-42.5 22.5q-19 0 -33 7.5t-14 27.5q0 13 5 25t11 21q7 11 16 20q26 1 40 23.5t21 59.5t9 83.5t4.5 95.5t8 95.5t19 83t38 58.5t64.5 22q29 0 67 -13.5
t89 -43.5q-52 -28 -85 -69t-53.5 -88.5t-32.5 -98t-22 -97.5t-21.5 -87t-30.5 -66q25 -22 38.5 -61t24 -87.5l22 -102t32 -104t54.5 -95t89 -73.5z" />
    <glyph glyph-name="bar" unicode="|" horiz-adv-x="201" 
d="M7 928l36 21q16 8 34 15t34 7q17 0 28.5 -10t11.5 -37q0 -28 -1 -86t-2.5 -132.5t-3.5 -158.5t-3.5 -164.5t-2.5 -149.5t-1 -113q0 -49 1.5 -94t5.5 -82t10.5 -64t16.5 -41q-47 -26 -77 -26q-42 0 -59 51t-17 160q0 29 0.5 83t1.5 120.5t2.5 139.5t2.5 140.5t1.5 123
t0.5 86.5q0 66 -4 121t-16 90z" />
    <glyph glyph-name="braceright" unicode="}" horiz-adv-x="345" 
d="M-84 908q48 30 83.5 43.5t63.5 13.5q38 0 61.5 -22.5t37 -59t19.5 -83.5t9.5 -95.5l7 -95.5t12 -83.5t24 -59t42.5 -22.5q19 0 33 -7.5t14 -27.5q0 -13 -5 -25t-11 -21q-7 -11 -16 -20q-26 -1 -40 -23.5t-21 -59.5t-9 -83.5t-4.5 -95.5t-8 -95.5t-19 -83t-38 -58.5
t-64.5 -22q-29 0 -67 13.5t-89 43.5q52 28 85 69t53.5 88.5t32.5 98t21.5 97t20.5 86.5t31 67q-25 22 -38.5 61t-24 87l-22 101.5t-32 104.5t-54 95t-88.5 74z" />
    <glyph glyph-name="exclamdown" unicode="&#xa1;" horiz-adv-x="326" 
d="M174 526q25 0 42.5 -8.5t28.5 -23t16.5 -33t5.5 -38.5q0 -24 -7 -48t-19.5 -43t-30.5 -31t-40 -12q-24 0 -42 9.5t-29.5 25t-17.5 36t-6 42.5q0 23 6.5 45t19 39.5t31 28.5t42.5 11zM282 -296q0 -41 -27.5 -58t-66.5 -17q-32 0 -65.5 9t-59.5 23q12 14 19 43.5t12 62.5
l9 69.5t9.5 79t7 81.5t2.5 79q0 40 -3.5 72.5t-12.5 54.5q13 8 27 14q12 5 27.5 9.5t31.5 4.5q17 0 32.5 -7.5t25.5 -27.5q9 -98 16 -190q3 -39 5.5 -80.5l5 -81.5t4 -76t1.5 -64z" />
    <glyph glyph-name="cent" unicode="&#xa2;" horiz-adv-x="452" 
d="M336 527q-21 21 -40.5 30t-36.5 9q-21 0 -38 -11.5t-29 -29.5t-18.5 -41t-6.5 -46q0 -19 5 -37t15 -31.5t26 -21.5t39 -8q26 0 47.5 12t36.5 47q38 -4 55.5 -27t17.5 -46q0 -22 -9.5 -40t-26 -31t-38.5 -21t-47 -11q8 -32 26 -63t44 -63q0 -3 -8.5 -8t-22.5 -9.5
t-32.5 -7.5t-38.5 -3q-23 0 -38.5 4t-24.5 15.5t-13 32t-4 52.5q0 15 1 31.5t3 33.5q-26 10 -49.5 27.5t-41 42.5t-27.5 58t-10 74q0 39 9 78.5t25.5 75.5t40 65.5t52.5 49.5q-3 62 -17 101l37 19q16 7 34.5 13t35.5 6q19 0 28 -8q6 -5 6 -21q0 -14 -3.5 -35t-6.5 -47
q27 -4 47 -16t33.5 -28.5t20.5 -36.5t7 -40q0 -31 -16.5 -56t-48.5 -33z" />
    <glyph glyph-name="sterling" unicode="&#xa3;" horiz-adv-x="657" 
d="M100 177q17 0 33.5 -1.5t32.5 -3.5q-8 14 -8 26v36.5t2 39.5h-30q-7 0 -12 1q-6 0 -14 4.5t-15.5 12.5t-12.5 18.5t-5 22.5q0 13 5 22q38 0 56.5 -0.5t33.5 -0.5q0 8 0.5 15t1.5 15q-12 -1 -21 -1h-16q-8 0 -13 -1q-6 0 -13.5 4t-14 11t-11.5 16.5t-5 20.5t6 23
q23 0 41 1q16 1 31 1.5t21 0.5q2 29 3 58t1 57q0 44 -3.5 83.5t-12 71.5t-23.5 54.5t-38 33.5q27 7 54 12q23 5 51.5 9t55.5 4q35 0 60 -10t25 -37q0 -24 -3 -59.5t-7.5 -78t-9 -91.5t-8.5 -100q42 4 76 11.5t56 21.5q3 0 10 -7t15 -17.5t14 -23t6 -24.5q0 -16 -14.5 -27.5
t-55.5 -11.5h-54.5t-57.5 -1v-34q68 2 123 10t79 28q3 0 7.5 -12t4.5 -29q0 -13 -4.5 -26.5t-15.5 -25t-30.5 -19t-50.5 -7.5h-112q2 -40 6.5 -75.5t13.5 -65.5q12 -5 29 -9q14 -4 33.5 -6.5t42.5 -2.5q37 0 78 10t92 34q45 -34 66.5 -65.5t21.5 -58.5q0 -42 -48 -68
t-138 -26q-47 0 -82 7t-64.5 17t-56 22.5t-56.5 22.5t-67 17t-86 7q-27 0 -59 -3t-70 -8q5 43 20 77q6 15 15.5 29t23 25t31 17.5t40.5 6.5z" />
    <glyph glyph-name="fraction" unicode="&#x2044;" horiz-adv-x="366" 
d="M-27 -125q0 34 12 97.5t33.5 145t52 174t68 184.5t80.5 176.5t89.5 149t96 103t99.5 38.5q60 0 117 -64q-39 -14 -81.5 -51t-85.5 -90.5t-84.5 -120.5t-79.5 -140.5t-70 -151t-55.5 -152.5t-36.5 -144t-13 -125q0 -11 0.5 -21t1.5 -20q-17 -14 -35 -25q-15 -10 -33 -17.5
t-34 -7.5q-17 0 -29.5 13.5t-12.5 48.5z" />
    <glyph glyph-name="yen" unicode="&#xa5;" horiz-adv-x="607" 
d="M561 324q3 0 7.5 -12t4.5 -29q0 -13 -4.5 -26.5t-15.5 -25t-30.5 -19t-50.5 -7.5h-60q2 -53 11.5 -107.5t26.5 -113.5q-18 -8 -35.5 -10.5t-34.5 -2.5q-26 0 -49 6t-40 14t-27 16.5t-10 13.5q6 49 6 96q0 23 -1.5 45t-3.5 44h-65q-14 0 -26 1q-6 0 -14 4.5t-15.5 12.5
t-12.5 18.5t-5 22.5q0 13 5 22q45 0 70.5 -0.5t48.5 -0.5q-2 8 -3.5 15t-3.5 15q-16 -1 -29 -1h-22q-11 0 -19 -1q-6 0 -13.5 4t-14 11t-11.5 16.5t-5 20.5t6 23q24 0 49.5 1t36.5 2q-24 73 -55.5 135.5t-62 112.5t-56 85.5t-37.5 54.5q17 23 48 33t66 10q24 0 47.5 -4.5
t42 -13t31 -20t14.5 -26.5q8 -63 21 -123t25 -108q14 -55 29 -105q4 54 12.5 111.5t21.5 110t29.5 95.5t36.5 68q14 17 31 24t36 7q23 0 46.5 -8.5t43 -20.5t32 -26t14.5 -25q-30 -24 -60 -58.5t-56.5 -79t-48.5 -98t-35 -115.5q43 8 68 24q3 0 10 -7t15 -17.5t14 -23
t6 -24.5q0 -16 -14.5 -27.5t-55.5 -11.5h-57q-2 -8 -1.5 -16t-0.5 -16q51 3 90.5 11t58.5 24z" />
    <glyph glyph-name="section" unicode="&#xa7;" horiz-adv-x="463" 
d="M66 435q0 26 10.5 47.5t27.5 38.5q-17 20 -27.5 40.5t-10.5 43.5q0 34 17 60.5t44.5 44t61.5 26.5t67 9q26 0 50 -5.5t42.5 -17t29.5 -28t11 -38.5q0 -20 -10.5 -40t-31 -36.5t-50 -26.5t-68.5 -10l13 27q5 11 9.5 24.5t4.5 26.5q0 16 -9 23t-22 7q-19 0 -38 -13t-19 -33
q0 -22 10.5 -36.5t26.5 -25t36 -19.5t39 -21q54 -32 77.5 -68t23.5 -71q0 -23 -10 -44t-27 -39q37 -43 37 -87q0 -29 -15.5 -55t-43.5 -45.5t-66 -31t-84 -11.5q-64 0 -95 28t-31 70q0 43 30 87q16 -16 38.5 -24.5t43.5 -8.5q19 0 32 8t13 25q0 15 -21.5 33l-47 41t-47 53.5
t-21.5 71.5zM168 435q0 -19 7.5 -32t19.5 -23t27.5 -18t32.5 -15q18 8 18 28q0 7 -8 16t-21.5 19.5t-31 22.5t-35.5 26q-9 -11 -9 -24z" />
    <glyph glyph-name="quotesingle" unicode="'" horiz-adv-x="205" 
d="M164 753q-1 -39 -4 -77t-7 -68q-4 -35 -11 -67q-3 -20 -12.5 -27t-22.5 -7q-11 0 -22 3.5t-20 8.5t-16 10t-8 7l4 53.5t2 56.5q0 34 -3 66t-10 58q11 17 31.5 26t41.5 9q23 0 40 -12t17 -40z" />
    <glyph glyph-name="quotedblleft" unicode="&#x201c;" horiz-adv-x="444" 
d="M146 510q-23 0 -39 8.5t-26.5 23t-15.5 34t-5 40.5q0 30 9 62t24.5 57.5t36.5 42t46 16.5q26 0 47 -18q-33 -21 -43.5 -41.5t-10.5 -36.5q0 -14 4 -22q32 -1 47.5 -22t15.5 -49q0 -17 -6 -34t-17 -30.5t-28 -22t-39 -8.5zM345 510q-23 0 -39 8.5t-26.5 23t-15.5 34
t-5 40.5q0 30 9 62t24.5 57.5t36.5 42t46 16.5q26 0 47 -18q-33 -21 -43.5 -41.5t-10.5 -36.5q0 -14 4 -22q32 -1 47.5 -22t15.5 -49q0 -17 -6 -34t-17 -30.5t-28 -22t-39 -8.5z" />
    <glyph glyph-name="guillemotleft" unicode="&#xab;" horiz-adv-x="707" 
d="M110 214q39 -4 90 -21.5t97 -43t78 -57t32 -63.5q0 -20 -20 -42.5t-66 -43.5q-38 66 -79 109t-82.5 68.5t-80.5 38.5t-73 19q-9 0 -15 4.5t-9 11.5t-4 15t-1 15v11q0 3 1 5q34 6 77.5 21t90 43.5t92 73.5t83.5 111q46 -21 66 -43.5t20 -42.5q0 -32 -32 -64t-78 -58.5
t-97 -44.5t-90 -22zM377 214q39 -4 90 -21.5t97 -43t78 -57t32 -63.5q0 -20 -20 -42.5t-66 -43.5q-38 66 -81.5 111t-87.5 73.5t-85.5 43.5t-75.5 21q-18 12 -18 25q0 8 7 22q34 6 77 21t89 44t91.5 74t83.5 111q46 -21 66 -43.5t20 -42.5q0 -32 -32 -64t-78 -58.5
t-97 -44.5t-90 -22z" />
    <glyph glyph-name="guilsinglleft" unicode="&#x2039;" horiz-adv-x="494" 
d="M135 230q43 -5 97.5 -22.5t103 -44.5t82 -60t33.5 -69q0 -23 -22.5 -47.5t-73.5 -47.5q-42 73 -88 120.5t-91.5 76.5t-89.5 43t-81 21q-3 2 -4 7t-1 13q0 10 1.5 22.5t4 23t5 18t5.5 7.5q49 5 106 19.5t111.5 35.5t102 45.5t76.5 48.5q9 -5 19 -15t18.5 -23t14.5 -27.5
t6 -28.5q0 -20 -15.5 -38t-54.5 -28q-75 -18 -125.5 -28t-81.5 -15q-36 -6 -58 -7z" />
    <glyph glyph-name="guilsinglright" unicode="&#x203a;" horiz-adv-x="494" 
d="M335 232q-22 1 -58 7q-31 5 -81.5 15t-125.5 28q-39 10 -54.5 28t-15.5 38q0 14 6 28.5t14.5 27.5t18.5 23t19 15q29 -24 76.5 -48.5t102 -45.5t111.5 -35.5t106 -19.5q3 0 5.5 -7.5t5 -18t4 -23t1.5 -22.5q0 -8 -1 -13t-4 -7q-38 -7 -81.5 -21t-89 -43t-91.5 -76.5
t-88 -120.5q-51 23 -73.5 47.5t-22.5 47.5q0 36 33.5 69t82 60t103 44.5t97.5 22.5z" />
    <glyph glyph-name="fi" unicode="&#xfb01;" horiz-adv-x="476" 
d="M271 529q0 14 7 23.5t16 15.5q11 7 24 11q0 5 -13.5 16t-33.5 11q-15 0 -32 -12t-31 -44t-24.5 -89t-12.5 -148q17 4 30.5 8.5t26.5 9.5q3 0 8.5 -6.5t11 -16t10 -21.5t4.5 -23q0 -15 -11 -26t-40 -11h-40q1 -62 4.5 -123.5t7 -116.5l6.5 -99.5t3 -72.5q0 -27 -14 -37
t-35 -10q-20 0 -42.5 6.5t-42.5 14.5q-23 10 -46 22q21 50 29 131.5t8 173.5q0 26 -0.5 53t-1.5 53q-9 -1 -15 -1h-11t-9 -1q-6 0 -13.5 4t-14 11t-11.5 16.5t-5 20.5t6 23q20 1 37 1.5t33 2.5q-2 43 -5 81t-5 68t-3.5 50t-1.5 28q0 27 20 48t52 35.5t72.5 22t81.5 7.5
q36 0 69.5 -6t60 -18.5t42 -31.5t15.5 -45q0 -16 -8 -28t-20.5 -20.5t-29 -12.5t-32.5 -4q-31 0 -56 14t-25 42zM282 408q20 8 41 15q18 5 39 10t39 5q27 0 37 -15t10 -41q0 -20 -4.5 -45.5t-10 -53t-10 -56t-4.5 -55.5q0 -44 12 -87t47 -85q-18 -7 -41 -12q-20 -5 -47 -8
t-59 -3q-27 0 -36.5 21.5t-9.5 56.5q0 45 8 105t8 122q0 33 -4 65t-15 61z" />
    <glyph glyph-name="fl" unicode="&#xfb02;" horiz-adv-x="481" 
d="M228 331q3 0 8.5 -6.5t11 -16t10 -21.5t4.5 -23q0 -15 -11 -26t-40 -11h-40q2 -61 5.5 -121.5t7 -114.5t6 -99.5t2.5 -76.5q0 -27 -14 -37t-35 -10q-20 0 -42.5 6.5t-42.5 14.5q-23 10 -46 22q21 50 29 131.5t8 173.5q0 26 -0.5 53t-1.5 53q-9 -1 -15 -1h-11t-9 -1
q-6 0 -13.5 4t-14 11t-11.5 16.5t-5 20.5t6 23q20 1 37 1.5t33 2.5q-2 43 -5 81t-5 68t-3.5 50t-1.5 28q0 44 29 66.5t73 30.5q14 9 35 17t47 8q47 0 77 -16q-2 40 -8 73.5t-16 56.5l46 21q20 8 42.5 15t42.5 7q21 0 35 -10t14 -37q0 -42 -2.5 -100.5t-6 -125.5t-6 -138
t-2.5 -137q0 -49 2 -94t6.5 -82t13 -64t20.5 -41q-26 -5 -47.5 -7.5t-39.5 -2.5q-29 0 -49 9t-32 31t-17.5 60t-5.5 95q0 73 4.5 159t6.5 169q-30 -22 -76 -22q1 5 2 11q1 5 2 12.5t1 15.5q0 16 -4 33.5t-16 32.5q-17 -43 -23.5 -111t-6.5 -148q17 3 31 7.5t27 10.5z" />
    <glyph glyph-name="endash" unicode="&#x2013;" horiz-adv-x="389" 
d="M87 291q25 0 50.5 -6.5t50.5 -14t49.5 -13.5t48.5 -6q22 0 42 7t39 26q5 -12 7.5 -28.5t2.5 -33.5q0 -20 -4 -39.5t-12.5 -35.5t-22 -25.5t-33.5 -9.5q-18 0 -40 5.5t-46 12.5t-48 12.5t-47 5.5t-44 -8t-38 -28q-14 13 -21 34t-7 44q0 19 4.5 37t13.5 32t23 23t32 9z" />
    <glyph glyph-name="dagger" unicode="&#x2020;" horiz-adv-x="665" 
d="M196 524q24 10 49 19q21 8 45.5 14t46.5 6q24 0 40.5 -10.5t16.5 -38.5q0 -30 -2.5 -63t-7.5 -68q51 9 85.5 22.5t54.5 25.5q24 14 37 29q20 -15 29.5 -40.5t9.5 -52.5q0 -20 -5.5 -39.5t-17.5 -34.5t-30.5 -24t-43.5 -9q-35 0 -68 10t-62 21q-5 -39 -7.5 -79.5
t-2.5 -84.5q0 -49 5 -101t17.5 -106.5t33.5 -111.5t53 -116q-20 -16 -43 -28q-20 -11 -46.5 -19t-55.5 -8q-25 0 -39.5 16.5t-22 45t-10 67.5t-2.5 84q-1 124 -1 238.5t-8 211.5q-57 -10 -94 -24t-59 -27q-26 -15 -40 -31q-20 15 -29.5 40.5t-9.5 52.5q0 20 5.5 39.5
t17.5 34.5t30.5 24t43.5 9q41 0 69 -10l56 -20q-7 41 -16 75t-22 61z" />
    <glyph glyph-name="daggerdbl" unicode="&#x2021;" horiz-adv-x="626" 
d="M173 524q24 10 49 19q21 8 45.5 14t46.5 6q24 0 40.5 -10.5t16.5 -38.5q0 -38 -3 -67t-7 -64q51 9 85.5 22.5t54.5 25.5q24 14 37 29q20 -15 29.5 -40.5t9.5 -52.5q0 -20 -5.5 -39.5t-17.5 -34.5t-30.5 -24t-43.5 -9q-35 0 -68 10t-62 21q-5 -39 -7.5 -79.5t-2.5 -84.5
q0 -25 1 -49.5t4 -50.5q60 8 100 21.5t64 27.5q28 16 43 33q20 -15 29.5 -40.5t9.5 -52.5q0 -20 -5.5 -39.5t-17.5 -34.5t-30.5 -24t-43.5 -9q-37 0 -72 11t-65 22q12 -60 34 -122t58 -128q-20 -16 -43 -28q-20 -11 -46.5 -19t-55.5 -8q-25 0 -39.5 16.5t-22 45t-10 67.5
t-2.5 84v99q-55 -10 -91 -24t-58 -27q-26 -15 -39 -31q-20 15 -29.5 40.5t-9.5 52.5q0 20 5.5 39.5t17.5 34.5t30.5 24t43.5 9q35 0 68 -10.5t62 -21.5q-1 72 -2.5 138.5t-6.5 126.5q-57 -10 -94 -24t-59 -27q-26 -15 -40 -31q-20 15 -29.5 40.5t-9.5 52.5q0 20 5.5 39.5
t17.5 34.5t30.5 24t43.5 9q34 0 65.5 -9.5t59.5 -20.5q-7 41 -16 75t-22 61z" />
    <glyph glyph-name="periodcentered" unicode="&#xb7;" horiz-adv-x="228" 
d="M118 175q-42 0 -61 24t-19 54q0 17 5.5 34.5t16 31t25.5 22t33 8.5q20 0 35 -7t25 -19t15 -27.5t5 -31.5q0 -17 -5 -32.5t-15.5 -28.5t-25.5 -20.5t-34 -7.5z" />
    <glyph glyph-name="paragraph" unicode="&#xb6;" horiz-adv-x="500" 
d="M316 -26q0 159 8 282t18.5 211t20.5 142t14 74q-2 5 -8 6t-10 1q-16 0 -26 -4q-20 -39 -35 -111q-14 -62 -24.5 -165t-10.5 -261q0 -92 8 -173.5t29 -131.5q-23 -12 -46 -22q-20 -8 -42.5 -14.5t-42.5 -6.5q-21 0 -35 10t-14 37q0 36 3.5 92.5l7.5 123.5t7.5 140t3.5 142
q-1 5 -5 7q-2 1 -3 2q-79 4 -116.5 44t-37.5 97q0 47 25 98t73 93.5t117 70t157 27.5q35 0 73 -2.5t76 -9.5q2 -1 5 -3q6 -4 7 -8q0 -1 0.5 -1.5t0.5 -2.5q0 -3 -2 -7q-22 -28 -42 -81t-35 -121.5t-23.5 -148t-8.5 -160.5q0 -104 17 -201t55 -167q-19 -11 -37 -19
q-16 -8 -35 -13.5t-36 -5.5q-16 0 -26 7.5t-15.5 24t-7.5 43t-2 65.5z" />
    <glyph glyph-name="bullet" unicode="&#x2022;" horiz-adv-x="324" 
d="M148 92q-31 0 -53 8.5t-36.5 22.5t-21 33t-6.5 39q0 24 9 48t25 43t38.5 31t49.5 12q30 0 52 -9.5t37 -25.5t22 -36.5t7 -41.5q0 -23 -8 -45t-23.5 -39.5t-38.5 -28.5t-53 -11z" />
    <glyph glyph-name="quotesinglbase" unicode="&#x201a;" horiz-adv-x="279" 
d="M130 201q25 0 43.5 -9.5t29.5 -25.5t16.5 -37t5.5 -45q0 -33 -9.5 -68t-26.5 -63t-40.5 -46t-50.5 -18q-14 0 -27 4t-26 15q38 23 49 46t11 41q0 16 -4 24q-35 1 -52.5 24.5t-17.5 53.5q0 18 6.5 36.5t19 33.5t31 24.5t42.5 9.5z" />
    <glyph glyph-name="quotedblbase" unicode="&#x201e;" horiz-adv-x="498" 
d="M130 201q25 0 43.5 -9.5t29.5 -25.5t16.5 -37t5.5 -45q0 -33 -9.5 -68t-26.5 -63t-40.5 -46t-50.5 -18q-14 0 -27 4t-26 15q38 23 49 46t11 41q0 16 -4 24q-35 1 -52.5 24.5t-17.5 53.5q0 18 6.5 36.5t19 33.5t31 24.5t42.5 9.5zM349 201q25 0 43.5 -9.5t29.5 -25.5
t16.5 -37t5.5 -45q0 -33 -9.5 -68t-26.5 -63t-40.5 -46t-50.5 -18q-14 0 -27 4t-26 15q38 23 49 46t11 41q0 16 -4 24q-35 1 -52.5 24.5t-17.5 53.5q0 18 6.5 36.5t19 33.5t31 24.5t42.5 9.5z" />
    <glyph glyph-name="quotedblright" unicode="&#x201d;" horiz-adv-x="444" 
d="M319 794q23 0 39 -8.5t26.5 -23t15.5 -34t5 -40.5q0 -30 -9 -62t-24.5 -57.5t-36.5 -42t-46 -16.5q-26 0 -47 18q33 21 43.5 41.5t10.5 36.5q0 14 -4 22q-32 1 -47.5 22t-15.5 49q0 17 6 34t17 30.5t28 22t39 8.5zM120 794q23 0 39 -8.5t26.5 -23t15.5 -34t5 -40.5
q0 -30 -9 -62t-24.5 -57.5t-36.5 -42t-46 -16.5q-26 0 -47 18q33 21 43.5 41.5t10.5 36.5q0 14 -4 22q-32 1 -47.5 22t-15.5 49q0 17 6 34t17 30.5t28 22t39 8.5z" />
    <glyph glyph-name="guillemotright" unicode="&#xbb;" horiz-adv-x="742" 
d="M580 214q-39 4 -90 22t-97 44.5t-78 58.5t-32 64q0 20 20 42.5t66 43.5q38 -66 83.5 -111t92 -73.5t90 -43.5t77.5 -21v-5q0 -2 0.5 -5t0.5 -6q0 -7 -1 -15t-4 -15t-9 -11.5t-15 -4.5q-34 -6 -73 -19t-80.5 -38.5t-82.5 -68.5t-79 -109q-46 21 -66 43.5t-20 42.5
q0 32 32 63.5t78 57t97 43t90 21.5zM313 214q-39 4 -90 22t-97 44.5t-78 58.5t-32 64q0 20 20 42.5t66 43.5q38 -66 83.5 -111t91.5 -74t89 -44t77 -21q7 -14 7 -22q0 -13 -18 -25q-34 -6 -75.5 -21t-85.5 -43.5t-87.5 -73.5t-81.5 -111q-46 21 -66 43.5t-20 42.5
q0 32 32 63.5t78 57t97 43t90 21.5z" />
    <glyph glyph-name="ellipsis" unicode="&#x2026;" horiz-adv-x="729" 
d="M113 -25q-50 0 -72 25t-22 57q0 19 7 38t20 34.5t31 25t40 9.5q24 0 41.5 -7.5t29.5 -20t17.5 -29t5.5 -33.5q0 -18 -6.5 -36t-18.5 -32t-30.5 -22.5t-42.5 -8.5zM359 -25q-50 0 -72 25t-22 57q0 19 7 38t20 34.5t31 25t40 9.5q24 0 41.5 -7.5t29.5 -20t17.5 -29
t5.5 -33.5q0 -18 -6.5 -36t-18.5 -32t-30.5 -22.5t-42.5 -8.5zM605 -25q-50 0 -72 25t-22 57q0 19 7 38t20 34.5t31 25t40 9.5q24 0 41.5 -7.5t29.5 -20t17.5 -29t5.5 -33.5q0 -18 -6.5 -36t-18.5 -32t-30.5 -22.5t-42.5 -8.5z" />
    <glyph glyph-name="perthousand" unicode="&#x2030;" horiz-adv-x="1629" 
d="M1213 449q27 25 59 25q16 0 36 -5q20 26 46 43t56 17q45 0 78.5 -22t55.5 -59t33 -85t11 -100q0 -62 -15 -123.5t-44.5 -111t-72.5 -80t-99 -30.5q-60 0 -102 25t-69 66t-39 93t-12 106q0 33 4 65t12 61q-16 -12 -31.5 -22.5l-31.5 -20.5v-12q0 -5 0.5 -9.5t0.5 -6.5
q0 -62 -15 -123.5t-44.5 -111t-72.5 -80t-99 -30.5q-60 0 -102 25t-69 66t-39 93t-12 106q0 51 10 98.5t28 85t43 60t56 22.5q8 0 16 -1t16 -3q17 26 43.5 42.5t62.5 16.5q63 0 103.5 -42t58.5 -105q63 22 140 67zM192 -13q0 17 22.5 61.5t62.5 105.5t93.5 134t115 147
t128.5 144t134 126q-77 4 -147.5 21t-118.5 34q11 -49 11 -98q0 -62 -15 -123.5t-44.5 -111t-72.5 -80t-99 -30.5q-60 0 -102 25t-69 66t-39 93t-12 106q0 51 10 98.5t28 85t43 60t56 22.5q16 0 36 -5q20 26 46 43t56 17q45 0 78 -21.5t55 -58.5q63 -28 130.5 -38.5
t131.5 -10.5q53 0 103.5 6.5t92 14.5t70.5 14.5t40 6.5q44 0 78 -25.5t56 -82.5q-43 0 -98.5 -22.5t-117.5 -61t-127.5 -91t-128.5 -113t-120.5 -126t-104 -130.5t-79 -126t-45.5 -113q-5 -1 -11 -1q-5 -1 -11.5 -1h-14.5q-15 0 -32.5 1.5t-32.5 5.5t-25 12t-10 20zM291 440
q22 0 38.5 13t27 34t16 48.5t5.5 57.5q0 33 -6.5 66t-19.5 59t-31.5 42t-43.5 16q-23 0 -32.5 -8t-9.5 -20q0 -10 5 -21t12.5 -22t17 -20.5t17.5 -15.5q-27 -21 -48.5 -30t-37.5 -9t-26 7q-1 -9 -1 -18v-17q0 -41 10.5 -71.5t27 -50.5t37.5 -30t42 -10zM1386 41
q22 0 38.5 13t27 34t16 48.5t5.5 57.5q0 33 -6.5 66t-19.5 59t-31.5 42t-43.5 16q-23 0 -32.5 -8t-9.5 -20q0 -10 5 -21t12.5 -22t17 -20.5t17.5 -15.5q-27 -21 -48.5 -30t-37.5 -9t-26 7q-1 -9 -1 -18v-17q0 -41 10.5 -71.5t27 -50.5t37.5 -30t42 -10zM887 41q22 0 38.5 13
t27 34t16 48.5t5.5 57.5q0 24 -3 48q-36 -9 -66 -9q-45 0 -76.5 17t-45.5 48q-13 -52 -13 -95q0 -41 10.5 -71.5t27 -50.5t37.5 -30t42 -10zM873 377q-22 0 -22 -7q0 -6 17.5 -12t51.5 -6h6q-11 11 -24 18t-29 7z" />
    <glyph glyph-name="questiondown" unicode="&#xbf;" horiz-adv-x="495" 
d="M245 229q8 2 18 5q8 2 19 4t23 2q47 0 78 -23.5t31 -61.5q0 -28 -20.5 -62t-68.5 -70.5t-126.5 -73.5t-193.5 -71q35 -20 91 -20q36 0 78.5 8.5t88 26.5t92.5 45.5t91 64.5q45 -42 65 -78.5t20 -68.5q0 -35 -19.5 -64.5t-53 -53.5t-77 -42.5t-91.5 -31t-97.5 -19
t-93.5 -6.5q-38 0 -74 7.5t-64 28t-45.5 56.5t-20.5 94q-21 37 -21 62q0 22 13.5 38.5t36.5 36.5q8 6 35.5 18l64.5 28.5t77.5 36.5t74.5 43.5t56.5 50t22.5 54.5q0 19 -10 36zM336 524q25 0 42.5 -8.5t29 -23t17 -33t5.5 -38.5q0 -24 -7 -48t-20 -43t-31 -31t-40 -12
q-24 0 -41.5 9.5t-29.5 25.5t-17.5 36.5t-5.5 41.5q0 23 6.5 45t18.5 39.5t30.5 28.5t42.5 11z" />
    <glyph glyph-name="grave" unicode="`" 
d="M250 714q27 -33 53 -58.5t53 -42.5t56.5 -26.5t63.5 -9.5q3 -6 7 -11q3 -5 5.5 -11t2.5 -11q0 -9 -8.5 -15.5t-32.5 -6.5q-53 0 -100.5 7.5t-83 21t-56.5 33t-21 43.5q0 19 14.5 41t46.5 46z" />
    <glyph glyph-name="acute" unicode="&#xb4;" 
d="M348 714q38 -17 55 -35.5t17 -37.5q0 -23 -22.5 -44.5t-60.5 -38t-87 -26.5t-102 -10q-24 0 -32.5 6.5t-8.5 15.5q0 11 7 22q4 5 8 11q56 0 115 37t111 100z" />
    <glyph glyph-name="circumflex" unicode="&#x2c6;" 
d="M150 692l15 12t22.5 15.5t26.5 13t27 5.5q12 0 22.5 -6t18.5 -20l25 -46.5t23.5 -35t28.5 -22.5t41 -8q0 -5 1 -9q1 -5 1.5 -10t0.5 -11q0 -10 -2 -20.5t-7.5 -19t-16 -14t-27.5 -5.5q-23 0 -40.5 6t-33 16.5t-30.5 25l-32 30.5l-30.5 -27t-32 -25t-35.5 -18.5t-42 -7.5
q-31 0 -41.5 10t-10.5 22q0 7 2 13.5t4 11.5q3 6 7 12q26 10 43.5 20.5t30 23.5t22 29.5t19.5 38.5z" />
    <glyph glyph-name="tilde" unicode="&#x2dc;" 
d="M383 666q19 -47 19 -78q0 -35 -19.5 -51t-47.5 -16q-16 0 -36.5 5t-43 11.5t-47 11.5t-48.5 5q-30 0 -58 -11.5t-52 -41.5q-4 5 -8 13q-7 14 -7 37q0 50 27 68.5t68 18.5q43 0 83.5 -3.5t63.5 -3.5q32 0 60 7t46 28z" />
    <glyph glyph-name="macron" unicode="&#xaf;" 
d="M397 627q7 -10 9.5 -19.5t2.5 -18.5q0 -26 -22.5 -42.5t-54.5 -16.5q-39 0 -82 6t-94 6q-25 0 -51 -2.5t-55 -8.5q-4 2 -7 7q-7 9 -7 31q0 20 11 32.5t30 20t44 10.5t53 3q50 0 101.5 -5t89.5 -5q9 0 17 0.5t15 1.5z" />
    <glyph glyph-name="breve" unicode="&#x2d8;" 
d="M265 609q0 11 10 15t22 4q7 0 14.5 -1t12.5 -2l12 -2q0 -20 -7 -41t-21 -38t-34.5 -28.5t-47.5 -11.5q-26 0 -44.5 8t-30.5 21t-18 29.5t-6 32.5q0 11 10 15t22 4q7 0 14.5 -1t12.5 -2l12 -2q0 -10 2 -20.5t6.5 -19.5t11.5 -15t17 -6q9 0 14.5 6.5t9 16t5 20t1.5 18.5z
" />
    <glyph glyph-name="dotaccent" unicode="&#x2d9;" horiz-adv-x="228" 
d="M118 474q-42 0 -61 24t-19 54q0 17 5.5 34.5t16 31t25.5 22t33 8.5q20 0 35 -7t25 -19t15 -27.5t5 -31.5q0 -17 -5 -32.5t-15.5 -28.5t-25.5 -20.5t-34 -7.5z" />
    <glyph glyph-name="dieresis" unicode="&#xa8;" horiz-adv-x="228" 
d="M18 474q-42 0 -61 24t-19 54q0 17 5.5 34.5t16 31t25.5 22t33 8.5q20 0 35 -7t25 -19t15 -27.5t5 -31.5q0 -17 -5 -32.5t-15.5 -28.5t-25.5 -20.5t-34 -7.5zM221 474q-42 0 -61 24t-19 54q0 17 5.5 34.5t16 31t25.5 22t33 8.5q20 0 35 -7t25 -19t15 -27.5t5 -31.5
q0 -17 -5 -32.5t-15.5 -28.5t-25.5 -20.5t-34 -7.5z" />
    <glyph glyph-name="ring" unicode="&#x2da;" 
d="M226 653q-13 0 -20.5 -17t-7.5 -37t8.5 -35.5t28.5 -15.5q17 0 24.5 12t7.5 29q0 22 -11 43t-30 21zM251 698q44 0 64.5 -26t20.5 -59q0 -20 -7 -39t-21 -35t-34.5 -25.5t-47.5 -9.5q-52 0 -75.5 24.5t-23.5 56.5q0 20 8.5 40t24.5 36.5t39 26.5t52 10z" />
    <glyph glyph-name="cedilla" unicode="&#xb8;" horiz-adv-x="287" 
d="M268 67q-33 -4 -55.5 -15t-37 -24.5t-20.5 -28.5t-6 -27q0 -18 9 -39t20.5 -43t20.5 -43.5t9 -42.5q0 -35 -22.5 -51t-51.5 -16q-17 0 -33.5 4.5t-30 12.5t-23 20t-11.5 26q48 26 65.5 45.5t17.5 35.5q0 11 -5.5 20.5t-12 19.5t-12 20t-5.5 22q0 19 21 44t80 60h83z" />
    <glyph glyph-name="hungarumlaut" unicode="&#x2dd;" 
d="M285 761q95 -6 95 -58q0 -15 -23 -45t-57.5 -60.5t-75.5 -53.5t-77 -23q-12 0 -17 6.5t-5 16.5q0 7 2 17q1 4 3 8q53 20 90 68t65 124zM441 761q95 -6 95 -58q0 -15 -23 -45t-57.5 -60.5t-75.5 -53.5t-77 -23q-12 0 -17 6.5t-5 16.5q0 7 2 17q1 4 3 8q53 20 90 68t65 124
z" />
    <glyph glyph-name="caron" unicode="&#x2c7;" 
d="M356 759q20 0 32.5 -5t20 -13.5t10.5 -18.5t3 -20q0 -9 -1.5 -16.5t-3.5 -13.5q-2 -7 -4 -13q-66 -23 -103 -46.5t-57 -42.5q-23 -23 -31 -43q-19 0 -53.5 8.5t-68.5 28.5t-59 53t-25 81q0 16 6.5 26t16 15.5t20.5 7t19 1.5q3 0 5 -0.5t4 -0.5h4q14 -33 32.5 -52
t35.5 -28q20 -11 41 -13q23 29 49 52q22 20 50 36.5t57 16.5z" />
    <glyph glyph-name="emdash" unicode="&#x2014;" horiz-adv-x="747" 
d="M157 291q46 0 96 -8t99.5 -17.5t96.5 -17.5t89 -8q45 0 80.5 13.5t57.5 48.5q28 -15 42.5 -40.5t14.5 -52.5q0 -41 -34 -69t-107 -28q-33 0 -76 9.5l-90 20.5t-95.5 20.5t-94.5 9.5q-51 0 -92.5 -15t-70.5 -56q-57 30 -57 83q0 20 8 39.5t25.5 34.5t44 24t63.5 9z" />
    <glyph glyph-name="AE" unicode="&#xc6;" horiz-adv-x="1057" 
d="M534 -47q-52 0 -93 15.5t-69.5 41t-43.5 59.5t-15 71t15.5 75t47.5 73l-83 -23l-79 -21q-28 -81 -47.5 -148.5t-27.5 -114.5q-66 5 -96.5 35t-30.5 73q0 23 3 50.5t8 57.5l-20 -5q-11 0 -26 4t-28.5 13t-23 23t-9.5 33q0 20 11 41q33 2 64 4.5t61 5.5q18 62 41 127
t49 125.5t53.5 114t54.5 93.5t51 63t43 23q13 0 37 -2.5t48 -10.5t42.5 -23.5t21.5 -42.5q62 40 138.5 63t148.5 23q42 0 79.5 -9.5t65.5 -29.5t44.5 -51.5t16.5 -75.5q0 -24 -6.5 -45.5t-19 -38t-31.5 -26t-44 -9.5q2 4 2 11q0 22 -32 34t-78 12q-38 0 -78.5 -8.5
t-74.5 -26.5t-56 -46.5t-22 -67.5q0 -23 17 -31.5t45 -8.5q23 0 51 5t57 12.5t58 17t54 18.5q9 3 15 3q11 0 14.5 -6t3.5 -14q0 -6 -1 -11.5t-3 -10.5t-4 -11q-66 -24 -131 -54.5t-116.5 -61.5t-84 -59.5t-32.5 -47.5q0 -14 18 -21.5t60 -7.5q39 0 88 8.5t99.5 32t97.5 64
t83 103.5q57 -15 82.5 -46t25.5 -72q0 -52 -39 -111.5t-107 -110.5t-161 -84.5t-202 -33.5zM251 349q68 15 122 31.5t96 31.5q-51 36 -76 88.5t-25 109.5l-12 1l-54.5 -130t-50.5 -132z" />
    <glyph glyph-name="ordfeminine" unicode="&#xaa;" horiz-adv-x="371" 
d="M166 741q13 0 23 -5.5t17 -14.5t11.5 -19t7.5 -19q18 5 33 5q13 0 21.5 -4.5t8.5 -17.5q0 -47 -3.5 -80t-3.5 -60q0 -32 10 -60t40 -66q-12 -7 -26 -11q-12 -5 -27 -8t-29 -3q-27 0 -36 27t-12 69q-16 -32 -31 -51t-28.5 -29t-26 -12.5t-24.5 -2.5q-20 0 -34.5 10t-24 27
t-14 39.5t-4.5 48.5q0 39 10 81t29.5 76.5t48 57t64.5 22.5zM321 381q8 -22 12.5 -39t4.5 -31q0 -32 -17.5 -46.5t-43.5 -14.5q-14 0 -32.5 4.5t-38.5 10.5t-42 10.5t-44 4.5q-27 0 -52 -10.5t-47 -37.5q-4 5 -7 12q-3 6 -5 14t-2 19q0 46 24.5 62.5t61.5 16.5
q38 0 74.5 -3.5t57.5 -3.5q29 0 54 6.5t42 25.5zM191 587v9t-1 9q-3 24 -11 50q-14 -13 -25 -34t-18.5 -44.5t-11.5 -47t-4 -40.5q0 -29 10 -29q7 0 17.5 8.5t20 25t16.5 40t7 53.5z" />
    <glyph glyph-name="Lslash" unicode="&#x141;" horiz-adv-x="514" 
d="M-62 102q70 0 126 4t101 11q-29 17 -51 39t-22 42q0 48 4 107t9 122h-35q-11 0 -23 15t-12 37q0 14 7 28q19 1 35.5 1.5t31.5 2.5q2 17 2 32.5v31.5q0 44 -3.5 83.5t-12 71.5t-23.5 54.5t-38 33.5q27 7 54 12q23 5 51.5 9t55.5 4q35 0 60 -10t25 -37q0 -41 -7.5 -110.5
t-15.5 -152.5q14 4 25.5 8t22.5 9q2 0 6.5 -5t9 -13.5t7.5 -19t3 -20.5q0 -24 -21.5 -36t-59.5 -17q-3 -57 -3 -113q0 -52 4 -99.5t15 -86.5q48 15 74 32.5t40 32.5q15 18 19 34q26 -13 48.5 -30.5t39.5 -37t27 -40.5t10 -41q0 -29 -21 -50t-56 -34.5t-79.5 -21t-91 -11
t-92 -4.5t-81.5 -1q-26 0 -56 2.5t-56 12t-43 27.5t-17 50q0 20 7 42z" />
    <glyph glyph-name="Oslash" unicode="&#xd8;" horiz-adv-x="737" 
d="M87 -111q5 17 13 39l16 45.5t22 59.5q-32 33 -55.5 74.5t-38.5 88.5t-22 98t-7 102q0 79 15.5 153.5t44 132.5t68 93.5t87.5 35.5q16 0 34 -3.5t34 -8.5q27 44 63.5 71t82.5 27t84 -15t68 -42q32 32 64 59.5t67 50.5q16 11 31 11q20 0 33.5 -17.5t21.5 -38.5
q9 -25 14 -55q-35 -20 -72.5 -52.5t-76.5 -75.5q23 -53 33.5 -114t10.5 -126q0 -64 -10.5 -129t-31 -124.5t-51 -111.5t-70.5 -90.5t-89.5 -60.5t-107.5 -22q-35 0 -66 6t-59 17q-14 -42 -22 -75t-9 -56q-14 -8 -28 -13q-12 -5 -26.5 -9t-28.5 -4q-17 0 -29 9t-12 35
q0 8 1.5 16zM418 64q36 0 63 28t45 74t27 105.5t9 121.5q0 42 -4 82t-12 77q-69 -101 -131.5 -211.5t-110.5 -213.5q52 -63 114 -63zM483 703q-31 36 -70 36q-23 0 -40 -15t-28 -39.5t-16 -57t-5 -66.5q0 -51 9 -97q34 62 71 122t79 117zM275 351q-17 19 -27 47t-15 62
q-3 -22 -4 -42.5t-1 -40.5q0 -29 2.5 -55t7.5 -49q8 19 17.5 38.5z" />
    <glyph glyph-name="OE" unicode="&#x152;" horiz-adv-x="1224" 
d="M701 -47q-53 0 -94 16t-70 42q-38 -32 -82.5 -49.5t-97.5 -17.5q-93 0 -159 39.5t-108 103t-61 144.5t-19 165q0 79 15.5 153.5t44 132.5t68 93.5t87.5 35.5q17 0 34.5 -3.5t34.5 -8.5q30 44 66.5 71t78.5 27q69 0 120.5 -33.5t86.5 -89.5q31 22 68 39.5t76.5 30t79 19
t77.5 6.5q43 0 80.5 -9.5t65.5 -29.5t44 -51.5t16 -75.5q0 -24 -6.5 -45.5t-19 -38t-31.5 -26t-44 -9.5q1 3 1.5 5.5t0.5 5.5q0 22 -32 34t-78 12q-38 0 -78.5 -8.5t-74.5 -27t-56 -46.5t-22 -67q0 -23 17 -31.5t45 -8.5q23 0 51 5t57 12.5t58 17t54 18.5q9 3 15 3
q11 0 14.5 -6t3.5 -14q0 -6 -1 -11.5t-3 -10.5t-4 -11q-66 -24 -131 -54.5t-116.5 -61.5t-84 -59.5t-32.5 -47.5q0 -14 18 -21.5t60 -7.5q39 0 88 8.5t99.5 32t97.5 64t83 103.5q57 -15 82.5 -46t25.5 -72q0 -52 -39 -111.5t-107 -110.5t-161 -84.5t-202 -33.5zM408 739
q-23 0 -40 -15t-28 -39.5t-16 -57t-5 -66.5q0 -37 5.5 -74t16.5 -68t26.5 -53.5t35.5 -29.5q-36 -27 -65 -39.5t-52 -12.5q-36 0 -59 28q7 -59 26 -105t44.5 -78t55.5 -48.5t60 -16.5q40 0 71 37q-4 16 -4 38q0 65 48 130t154 110v7q-47 14 -75.5 45.5t-47 70.5t-31 81
t-27.5 76.5t-36 57t-57 22.5z" />
    <glyph glyph-name="ordmasculine" unicode="&#xba;" horiz-adv-x="343" 
d="M123 717q4 0 18 -7t24 -18q8 13 18 21t19 8q49 0 74.5 -34t30.5 -82q6 2 13 5t15 7q-2 -15 -9.5 -26t-17.5 -20q-2 -35 -12.5 -70.5t-29 -63.5t-45 -45.5t-59.5 -17.5q-37 0 -63 13.5t-42 36t-23 51.5t-7 60q0 33 7.5 66t20.5 58.5t30.5 41.5t37.5 16zM313 381
q8 -22 12.5 -39t4.5 -31q0 -32 -17.5 -46.5t-43.5 -14.5q-14 0 -32.5 4.5t-38.5 10.5t-42 10.5t-44 4.5q-27 0 -52 -10.5t-47 -37.5q-4 5 -7 12q-3 6 -5 14t-2 19q0 46 24.5 62.5t61.5 16.5q38 0 74.5 -3.5t57.5 -3.5q29 0 54 6.5t42 25.5zM165 439q12 0 21 9t15 23.5
t9.5 33t5.5 38.5q-34 5 -50.5 21t-21.5 38q-8 -25 -11.5 -50t-3.5 -47q0 -29 8 -47.5t28 -18.5zM198 659q-4 0 -6 -5t-2 -13q0 -11 6 -23t20 -20q-2 26 -6.5 43.5t-11.5 17.5z" />
    <glyph glyph-name="ae" unicode="&#xe6;" horiz-adv-x="678" 
d="M214 487q19 0 33.5 -8t24.5 -20.5t16.5 -27t10.5 -27.5q19 5 40 7q31 33 69 52.5t79 19.5q44 0 76.5 -13.5t54.5 -35t32.5 -49.5t10.5 -58q0 -31 -11.5 -60.5t-34.5 -53t-57 -38t-79 -14.5q-18 0 -38 2.5t-41 7.5q0 -26 4.5 -48.5t14.5 -40t26 -27.5t38 -10
q26 0 50.5 19.5t37.5 55.5q38 -4 56 -21t18 -40q0 -19 -14.5 -36t-39 -30t-56.5 -21t-66 -8q-31 0 -62.5 7.5t-59 24.5t-49 44t-33.5 67q-23 -47 -44 -74t-41 -41.5t-38 -18.5t-35 -4q-28 0 -49 14t-34.5 38t-20 56.5t-6.5 69.5q0 56 15 116.5t42.5 110t68 81.5t91.5 32z
M250 266q0 15 -2 42.5t-14 56.5q-21 -18 -37 -48.5t-27 -64.5t-16.5 -67.5t-5.5 -57.5q0 -19 3.5 -30.5t11.5 -11.5q10 0 24.5 12t28.5 35.5t24 57t10 76.5zM502 367q-19 0 -35 -12t-28.5 -32t-21.5 -45.5t-13 -53.5q33 4 55.5 15.5t36 27t19.5 32.5t6 32q0 16 -5.5 26
t-13.5 10z" />
    <glyph glyph-name="dotlessi" unicode="&#x131;" horiz-adv-x="228" 
d="M24 408q20 8 41 15q18 5 39 10t39 5q27 0 37 -15t10 -41q0 -20 -4.5 -45.5t-10 -53t-10 -56t-4.5 -55.5q0 -44 12 -87t47 -85q-18 -7 -41 -12q-20 -5 -47 -8t-59 -3q-27 0 -36.5 21.5t-9.5 56.5q0 45 8 105t8 122q0 33 -4 65t-15 61z" />
    <glyph glyph-name="lslash" unicode="&#x142;" horiz-adv-x="213" 
d="M-2 762l46 21q20 8 42.5 15t42.5 7q21 0 35 -10t14 -37q0 -57 -4.5 -142.5t-8.5 -180.5q20 6 37 14q3 0 8.5 -6.5t11 -16t10 -21.5t4.5 -23q0 -15 -11 -26t-40 -11h-23q-1 -23 -1 -45v-43q0 -49 2 -94t6.5 -82t13 -64t20.5 -41q-26 -5 -47.5 -7.5t-39.5 -2.5q-29 0 -49 9
t-32 31t-17.5 60t-5.5 95q0 20 6 67t11 110q-8 -1 -13 -1t-9 -1t-7 -1q-11 0 -23 15t-12 37q0 14 7 28q18 1 33 1t29 2q1 18 1.5 37t0.5 38q0 69 -8 138.5t-30 130.5z" />
    <glyph glyph-name="oslash" unicode="&#xf8;" horiz-adv-x="434" 
d="M435 318q3 -5 3 -11q0 -13 -11 -30t-31 -33q-3 -49 -18.5 -97.5t-42.5 -87.5t-64 -63t-83 -24q-41 0 -71 12q-11 -29 -16.5 -51.5t-5.5 -37.5q-14 -5 -25 -7.5t-21 -2.5q-42 0 -42 41q0 19 10 45t32 58q-29 33 -41.5 78t-12.5 94q0 48 10.5 94.5t29.5 83t43.5 59.5
t53.5 23q3 0 10 -3t16 -7.5t18 -11t16 -13.5q12 18 25.5 29.5t27.5 11.5q23 0 43 -6l22.5 38.5t24 35.5t26 26t28.5 10t31 -13t34 -43q-25 -14 -48 -42.5t-48 -63.5q16 -22 25 -49.5t12 -58.5q10 3 19.5 7.5zM192 64q17 0 29.5 12.5t21 33.5t14 47.5t7.5 55.5
q-48 6 -71.5 29.5t-29.5 54.5q-11 -36 -16.5 -72t-5.5 -67q0 -42 11.5 -68t39.5 -26zM227 353q0 -15 8 -32.5t30 -28.5q-2 37 -8.5 62t-17.5 25q-5 0 -8.5 -7.5t-3.5 -18.5z" />
    <glyph glyph-name="oe" unicode="&#x153;" horiz-adv-x="693" 
d="M132 461q2 0 8.5 -2.5t14.5 -6.5t16.5 -10t15.5 -12q10 17 24.5 27t33.5 10q37 0 64.5 -14.5t46.5 -39.5q31 32 68.5 51t77.5 19q44 0 76.5 -13t54 -35t32 -49.5t10.5 -57.5q0 -31 -11.5 -61t-34.5 -53.5t-57 -38t-79 -14.5q-18 0 -37.5 3t-41.5 8q0 -26 5 -49t15 -40
t26 -27.5t38 -10.5q26 0 50.5 19.5t37.5 55.5q38 -4 56 -21t18 -40q0 -19 -14.5 -36t-39 -30t-56.5 -21t-66 -8q-46 0 -90 16.5t-76 55.5q-26 -29 -58.5 -46.5t-71.5 -17.5q-53 0 -89.5 19.5t-59.5 51.5t-33.5 73t-10.5 85q0 48 10.5 94.5t29.5 83t43.5 59.5t53.5 23z
M192 64q16 0 28 11t20.5 29.5t14 43t8.5 50.5q-41 20 -62.5 55.5t-27.5 73.5q-15 -43 -24 -87t-9 -82q0 -42 12 -68t40 -26zM517 367q-19 0 -35 -12t-28.5 -32t-21.5 -45.5t-13 -53.5q33 4 55.5 15.5t36 27t19.5 32.5t6 32q0 16 -5.5 26t-13.5 10zM239 379q-6 0 -6 -16
q0 -17 8 -44t25 -51q-1 45 -8.5 77.5t-18.5 33.5z" />
    <glyph glyph-name="germandbls" unicode="&#xdf;" horiz-adv-x="542" 
d="M188 537q-13 -42 -15.5 -96.5t-2.5 -127.5q0 -69 3.5 -142t7.5 -140l7.5 -123.5t3.5 -92.5q0 -27 -14 -37t-35 -10q-20 0 -42.5 6.5t-42.5 14.5q-23 10 -46 22q21 50 29 131.5t8 173.5q0 27 -0.5 54t-1.5 53l-35 -3q-6 0 -13.5 4t-14 11t-11.5 16.5t-5 20.5t6 23
q20 1 37 1.5t33 2.5q-2 43 -5 81t-5 68t-3.5 50t-1.5 28q0 43 28 65t70 31q20 11 47 17t56 6q20 0 39 -3t33.5 -9.5t23 -16.5t8.5 -23q0 -15 -5.5 -33.5t-12.5 -39.5t-12.5 -43.5t-5.5 -46.5q0 -21 6 -42.5t21 -43.5t40.5 -43.5t64.5 -42.5q57 -30 78.5 -69.5t21.5 -79.5
q0 -29 -15.5 -55t-43.5 -45.5t-66 -31t-84 -11.5q-64 0 -95 28t-31 70q0 43 30 87q16 -16 38.5 -24.5t43.5 -8.5q11 1 21 6q8 4 15 12.5t7 23.5q0 8 -12 24.5l-30 41t-39 56t-39 68.5t-30 79t-12 87v21z" />
    <glyph glyph-name="Eth" unicode="&#xd0;" horiz-adv-x="891" 
d="M566 903q65 0 122 -19.5t99 -59t66.5 -99t24.5 -140.5q0 -68 -16 -140t-45 -140.5t-70 -130t-92 -107t-110 -72.5t-123 -27q-23 2 -42.5 11.5t-36.5 25.5q-20 -10 -44 -18.5t-47 -8.5q-26 0 -38 26.5t-16.5 70t-4.5 99t-1 113.5h-28q-11 0 -23 15t-12 37q0 14 7 28
q14 1 27 1t25 2q-2 42 -8.5 80t-18.5 69q-28 -29 -47 -61t-25 -68q-30 0 -49 8.5t-30 22.5t-15 33.5t-4 40.5q0 52 26.5 102.5t70.5 96t102.5 84t122 66.5t129 43.5t124.5 15.5zM320 213v-16t1 -16q88 21 159.5 67.5t122.5 103.5t78.5 117.5t27.5 111.5q0 52 -31.5 85.5
t-99.5 33.5q-33 0 -84.5 -11t-108.5 -33t-113.5 -53.5t-99.5 -71.5l23 10.5t30 12t33 9.5t32 4q21 0 35 -10t14 -37q0 -33 -2 -66t-5 -66q40 10 67 22q2 0 6.5 -5t9 -13.5t7.5 -19t3 -20.5q0 -17 -11.5 -31t-43.5 -19q-12 -2 -24 -3.5t-23 -2.5q-3 -44 -3 -83z" />
    <glyph glyph-name="Thorn" unicode="&#xde;" horiz-adv-x="665" 
d="M745 556q0 -75 -33.5 -140.5t-84 -114t-110.5 -76.5t-113 -28q-21 0 -34.5 6t-21.5 15q7 -79 22 -137.5t43 -80.5q-37 -11 -71 -19q-29 -8 -60.5 -13.5t-52.5 -5.5q-14 0 -22.5 15t-14 42t-7.5 64.5t-2 81.5q0 53 2 113.5t5 123.5q-35 -32 -56.5 -68.5t-21.5 -75.5v-8.5
t1 -8.5q-30 0 -49 8.5t-30 22.5t-15 33.5t-4 40.5q0 32 13.5 66t38 68t57.5 66.5t72 62.5q0 87 -5 146.5t-19 91.5l46 21q20 8 42.5 15t42.5 7q21 0 35 -10t14 -37q0 -28 -1 -64t-3 -79q55 26 109.5 40.5t103.5 14.5q40 0 73.5 -11t58 -34.5t38.5 -61.5t14 -92zM341 412
q0 -70 3 -136q61 21 101.5 45t65.5 48.5t35.5 48.5t10.5 44q0 32 -23 46.5t-61 14.5q-29 0 -63 -7.5t-69 -21.5v-82v0z" />
    <glyph glyph-name="divide" unicode="&#xf7;" horiz-adv-x="615" 
d="M91 312q-32 0 -43.5 12t-11.5 27q0 17 7 33q4 8 8 15q145 0 240 2.5t152 5.5q67 4 104 8q17 -23 17 -44q0 -28 -30.5 -43.5t-80.5 -15.5h-362zM299 96q-42 0 -60.5 21t-18.5 49q0 16 6 32t17 29t26 21t34 8q41 0 60.5 -23.5t19.5 -52.5q0 -16 -5.5 -31t-16 -27t-26 -19
t-36.5 -7zM288 449q-42 0 -61 21t-19 48q0 16 6 32.5t17 29.5t26.5 21t34.5 8q41 0 60.5 -23.5t19.5 -52.5q0 -16 -5.5 -31t-16 -27t-26 -19t-36.5 -7z" />
    <glyph glyph-name="degree" unicode="&#xb0;" 
d="M226 669q-15 0 -24.5 -22.5t-9.5 -48.5t10.5 -46.5t34.5 -20.5q20 0 29.5 16t9.5 38q0 15 -3.5 30t-10 27t-16 19.5t-20.5 7.5zM256 729q26 0 45 -9.5t32 -25t19 -35.5t6 -42q0 -26 -8.5 -51.5t-25 -46t-41 -33.5t-57.5 -13q-31 0 -53.5 9t-37 23.5t-21.5 34t-7 40.5
q0 26 10 52.5t29.5 48t47 35t62.5 13.5z" />
    <glyph glyph-name="thorn" unicode="&#xfe;" horiz-adv-x="416" 
d="M153 500q-1 -31 -1.5 -66.5t-2.5 -74.5q21 36 40 58t37 33t35 14.5t32 3.5q30 0 52 -15t36 -40.5t21 -59t7 -70.5q0 -52 -13 -105.5t-37 -97.5t-59.5 -72t-80.5 -28q-25 0 -44 9.5t-33 23.5q1 -69 6.5 -123.5t18.5 -83.5q-23 -12 -46 -22q-20 -8 -42.5 -14.5t-42.5 -6.5
q-21 0 -35 10t-14 37q0 41 4 75.5t9 71.5t9 81.5t4 107.5q0 21 0.5 51t1.5 65t1.5 73.5t0.5 77.5q0 45 -1.5 89t-5 80.5t-9.5 63t-16 38.5q42 14 71 22t49 8q31 0 41 -23.5t10 -79.5q0 -44 -3 -111zM237 352q-11 0 -25.5 -11.5t-28.5 -37t-26 -65t-16 -95.5v-76
q30 3 51.5 27t36 58t21 72t6.5 68q0 26 -5 43t-14 17z" />
    <glyph glyph-name="registered" unicode="&#xae;" horiz-adv-x="677" 
d="M383 541q49 0 90.5 -19t71.5 -52t46.5 -78.5t16.5 -97.5q0 -68 -26 -129.5t-68.5 -108t-98 -74t-115.5 -27.5q-50 0 -91 19t-71 52t-46.5 78t-16.5 98q0 66 25.5 127t68 108.5t98.5 75.5t116 28zM375 482q-49 0 -93.5 -22.5t-78.5 -60t-54.5 -86.5t-20.5 -103
q0 -42 13.5 -78t37.5 -62t57 -41t72 -15q31 0 60.5 9t55.5 26q-5 -1 -10 -1.5t-9 -0.5q-14 0 -23.5 8.5t-9.5 30.5q0 11 1 20.5t1 17.5q0 50 -14 68.5t-31 18.5q-10 0 -17 8q-3 -32 -3 -59q0 -29 6 -54t24 -38l-29 -8q-12 -3 -25 -5.5t-22 -2.5q-11 0 -14.5 12t-3.5 32
q0 23 2 52.5t2 58.5q0 19 -1.5 36t-7.5 30q9 4 19 8q8 3 17.5 6t17.5 3t13.5 -3.5t5.5 -14.5v-35q39 9 61.5 32.5t22.5 43.5q0 25 -33 25q-20 0 -46 -8.5t-48.5 -23.5t-38 -35t-15.5 -42v-6q-25 0 -32.5 12.5t-7.5 30.5q0 27 22.5 57t56 54.5t72.5 40.5t73 16q42 0 67.5 -21
t25.5 -50q0 -18 -9.5 -38t-27 -38.5t-42 -34.5t-55.5 -26q27 -4 45 -20.5t30 -37.5t20.5 -43.5t17.5 -38.5q38 38 61 89t23 109q0 42 -13.5 78.5t-37.5 63t-57.5 41.5t-72.5 15z" />
    <glyph glyph-name="minus" unicode="&#x2212;" horiz-adv-x="615" 
d="M91 312q-32 0 -43.5 12t-11.5 27q0 17 7 33q4 8 8 15q145 0 240 2.5t152 5.5q67 4 104 8q17 -23 17 -44q0 -28 -30.5 -43.5t-80.5 -15.5h-362z" />
    <glyph glyph-name="eth" unicode="&#xf0;" horiz-adv-x="394" 
d="M432 651q2 0 6.5 -5t9 -13.5t7.5 -19t3 -20.5q0 -17 -11.5 -31t-43.5 -19l-20 -3q2 -26 3.5 -53.5t1.5 -56.5q0 -80 -16 -162t-50.5 -148.5t-87.5 -108.5t-127 -42q-30 0 -52 15t-36 40.5t-21 59t-7 70.5q0 52 13 105.5t37 97.5t59.5 72t80.5 28q29 0 50.5 -13.5
t35.5 -30.5q-2 29 -6 58.5t-11 57.5q-12 -1 -22 -1h-17h-14q-11 0 -23 15t-12 37q0 14 7 28l55 3q-21 49 -51.5 85.5t-72.5 53.5q73 46 126 46q57 0 91.5 -45t51.5 -121q20 5 35 10t28 11zM268 369q-32 0 -55.5 -23.5t-38.5 -58t-22.5 -73.5t-7.5 -70q0 -26 5 -42.5
t14 -16.5q25 5 44.5 30.5t33 64t20.5 87.5t7 102z" />
    <glyph glyph-name="copyright" unicode="&#xa9;" horiz-adv-x="677" 
d="M336 44q-30 0 -53.5 12t-40.5 33t-26 50t-9 62q0 42 15 89.5t49 95.5l14 20t17 20t19 15.5t19 6.5q12 0 28 -7t29.5 -18.5t23 -27t9.5 -31.5q0 -8 -5.5 -14t-12 -14.5t-12 -19.5t-5.5 -28q0 -5 0.5 -10.5t2.5 -10.5q-24 1 -38 10.5t-16 37.5q-9 0 -21 -14t-23 -35
t-18.5 -46t-7.5 -47q0 -23 11 -38t39 -15q12 0 24.5 6.5t24 17.5t19.5 25.5t11 30.5q48 0 48 -45q0 -16 -8 -35.5t-23 -36t-36.5 -28t-47.5 -11.5zM383 541q49 0 90.5 -19t71.5 -52t46.5 -78.5t16.5 -97.5q0 -68 -26 -129.5t-68.5 -108t-98 -74t-115.5 -27.5q-50 0 -91 19
t-71 52t-46.5 78t-16.5 98q0 66 25.5 127t68 108.5t98.5 75.5t116 28zM375 482q-49 0 -93.5 -22.5t-78.5 -60t-54.5 -86.5t-20.5 -103q0 -42 13.5 -78t37.5 -62t57 -41t72 -15q48 0 92.5 21.5t79 58.5t55.5 86t21 104q0 42 -13.5 78.5t-37.5 63t-57.5 41.5t-72.5 15z" />
    <glyph glyph-name="Aacute" unicode="&#xc1;" horiz-adv-x="724" 
d="M-73 306q34 2 64.5 3.5t59.5 3.5q17 62 40.5 127t49.5 126t54 115t55 94t51 63.5t43 23.5q12 0 34.5 -2t45.5 -9t41.5 -19t22.5 -32l32.5 -141l34.5 -151t38.5 -149.5t44.5 -137t52 -113t63 -77.5q-30 -35 -57 -50t-52 -15q-27 0 -51 16t-45.5 43.5t-40.5 65.5t-35 82
q-75 0 -146.5 2.5t-132.5 5.5q-20 -61 -33.5 -112t-20.5 -88q-66 5 -96.5 35t-30.5 73q0 22 2.5 47.5t7.5 53.5q-5 0 -8.5 0.5t-5.5 0.5q-3 0 -5 1q-11 0 -26 4t-28.5 13t-23 23t-9.5 33q0 20 11 41zM356 611q-30 -69 -58 -140.5l-54 -141.5q57 7 98 15t73 19
q-18 72 -31.5 137.5t-21.5 110.5h-6zM459 1081q38 -17 55 -35.5t17 -37.5q0 -23 -22.5 -44.5t-60.5 -38t-87 -26.5t-102 -10q-24 0 -32.5 6.5t-8.5 15.5q0 11 7 22q4 5 8 11q56 0 115 37t111 100z" />
    <glyph glyph-name="Acircumflex" unicode="&#xc2;" horiz-adv-x="724" 
d="M-73 306q34 2 64.5 3.5t59.5 3.5q17 62 40.5 127t49.5 126t54 115t55 94t51 63.5t43 23.5q12 0 34.5 -2t45.5 -9t41.5 -19t22.5 -32l32.5 -141l34.5 -151t38.5 -149.5t44.5 -137t52 -113t63 -77.5q-30 -35 -57 -50t-52 -15q-27 0 -51 16t-45.5 43.5t-40.5 65.5t-35 82
q-75 0 -146.5 2.5t-132.5 5.5q-20 -61 -33.5 -112t-20.5 -88q-66 5 -96.5 35t-30.5 73q0 22 2.5 47.5t7.5 53.5q-5 0 -8.5 0.5t-5.5 0.5q-3 0 -5 1q-11 0 -26 4t-28.5 13t-23 23t-9.5 33q0 20 11 41zM356 611q-30 -69 -58 -140.5l-54 -141.5q57 7 98 15t73 19
q-18 72 -31.5 137.5t-21.5 110.5h-6zM308 1046l15 12t22.5 15.5t26.5 13t27 5.5q12 0 22.5 -6t18.5 -20l25 -46.5t23.5 -35t28.5 -22.5t41 -8q0 -5 1 -9q1 -5 1.5 -10t0.5 -11q0 -10 -2 -20.5t-7.5 -19t-16 -14t-27.5 -5.5q-23 0 -40.5 6t-33 16.5t-30.5 25l-32 30.5
l-30.5 -27t-32 -25t-35.5 -18.5t-42 -7.5q-31 0 -41.5 10t-10.5 22q0 7 2 13.5t4 11.5q3 6 7 12q26 10 43.5 20.5t30 23.5t22 29.5t19.5 38.5z" />
    <glyph glyph-name="Adieresis" unicode="&#xc4;" horiz-adv-x="724" 
d="M-73 306q34 2 64.5 3.5t59.5 3.5q17 62 40.5 127t49.5 126t54 115t55 94t51 63.5t43 23.5q12 0 34.5 -2t45.5 -9t41.5 -19t22.5 -32l32.5 -141l34.5 -151t38.5 -149.5t44.5 -137t52 -113t63 -77.5q-30 -35 -57 -50t-52 -15q-27 0 -51 16t-45.5 43.5t-40.5 65.5t-35 82
q-75 0 -146.5 2.5t-132.5 5.5q-20 -61 -33.5 -112t-20.5 -88q-66 5 -96.5 35t-30.5 73q0 22 2.5 47.5t7.5 53.5q-5 0 -8.5 0.5t-5.5 0.5q-3 0 -5 1q-11 0 -26 4t-28.5 13t-23 23t-9.5 33q0 20 11 41zM356 611q-30 -69 -58 -140.5l-54 -141.5q57 7 98 15t73 19
q-18 72 -31.5 137.5t-21.5 110.5h-6zM257 889q-42 0 -61 24t-19 54q0 17 5.5 34.5t16 31t25.5 22t33 8.5q20 0 35 -7t25 -19t15 -27.5t5 -31.5q0 -17 -5 -32.5t-15.5 -28.5t-25.5 -20.5t-34 -7.5zM460 889q-42 0 -61 24t-19 54q0 17 5.5 34.5t16 31t25.5 22t33 8.5
q20 0 35 -7t25 -19t15 -27.5t5 -31.5q0 -17 -5 -32.5t-15.5 -28.5t-25.5 -20.5t-34 -7.5z" />
    <glyph glyph-name="Agrave" unicode="&#xc0;" horiz-adv-x="724" 
d="M-73 306q34 2 64.5 3.5t59.5 3.5q17 62 40.5 127t49.5 126t54 115t55 94t51 63.5t43 23.5q12 0 34.5 -2t45.5 -9t41.5 -19t22.5 -32l32.5 -141l34.5 -151t38.5 -149.5t44.5 -137t52 -113t63 -77.5q-30 -35 -57 -50t-52 -15q-27 0 -51 16t-45.5 43.5t-40.5 65.5t-35 82
q-75 0 -146.5 2.5t-132.5 5.5q-20 -61 -33.5 -112t-20.5 -88q-66 5 -96.5 35t-30.5 73q0 22 2.5 47.5t7.5 53.5q-5 0 -8.5 0.5t-5.5 0.5q-3 0 -5 1q-11 0 -26 4t-28.5 13t-23 23t-9.5 33q0 20 11 41zM356 611q-30 -69 -58 -140.5l-54 -141.5q57 7 98 15t73 19
q-18 72 -31.5 137.5t-21.5 110.5h-6zM264 1078q27 -33 53 -58.5t53 -42.5t56.5 -26.5t63.5 -9.5q3 -6 7 -11q3 -5 5.5 -11t2.5 -11q0 -9 -8.5 -15.5t-32.5 -6.5q-53 0 -100.5 7.5t-83 21t-56.5 33t-21 43.5q0 19 14.5 41t46.5 46z" />
    <glyph glyph-name="Aring" unicode="&#xc5;" horiz-adv-x="724" 
d="M-73 306q34 2 64.5 3.5t59.5 3.5q17 62 40.5 127t49.5 126t54 115t55 94t51 63.5t43 23.5q12 0 34.5 -2t45.5 -9t41.5 -19t22.5 -32l32.5 -141l34.5 -151t38.5 -149.5t44.5 -137t52 -113t63 -77.5q-30 -35 -57 -50t-52 -15q-27 0 -51 16t-45.5 43.5t-40.5 65.5t-35 82
q-75 0 -146.5 2.5t-132.5 5.5q-20 -61 -33.5 -112t-20.5 -88q-66 5 -96.5 35t-30.5 73q0 22 2.5 47.5t7.5 53.5q-5 0 -8.5 0.5t-5.5 0.5q-3 0 -5 1q-11 0 -26 4t-28.5 13t-23 23t-9.5 33q0 20 11 41zM356 611q-30 -69 -58 -140.5l-54 -141.5q57 7 98 15t73 19
q-18 72 -31.5 137.5t-21.5 110.5h-6zM384 1036q-13 0 -20.5 -17t-7.5 -37t8.5 -35.5t28.5 -15.5q17 0 24.5 12t7.5 29q0 22 -11 43t-30 21zM409 1081q44 0 64.5 -26t20.5 -59q0 -20 -7 -39t-21 -35t-34.5 -25.5t-47.5 -9.5q-52 0 -75.5 24.5t-23.5 56.5q0 20 8.5 40
t24.5 36.5t39 26.5t52 10z" />
    <glyph glyph-name="Atilde" unicode="&#xc3;" horiz-adv-x="724" 
d="M-73 306q34 2 64.5 3.5t59.5 3.5q17 62 40.5 127t49.5 126t54 115t55 94t51 63.5t43 23.5q12 0 34.5 -2t45.5 -9t41.5 -19t22.5 -32l32.5 -141l34.5 -151t38.5 -149.5t44.5 -137t52 -113t63 -77.5q-30 -35 -57 -50t-52 -15q-27 0 -51 16t-45.5 43.5t-40.5 65.5t-35 82
q-75 0 -146.5 2.5t-132.5 5.5q-20 -61 -33.5 -112t-20.5 -88q-66 5 -96.5 35t-30.5 73q0 22 2.5 47.5t7.5 53.5q-5 0 -8.5 0.5t-5.5 0.5q-3 0 -5 1q-11 0 -26 4t-28.5 13t-23 23t-9.5 33q0 20 11 41zM356 611q-30 -69 -58 -140.5l-54 -141.5q57 7 98 15t73 19
q-18 72 -31.5 137.5t-21.5 110.5h-6zM530 1041q19 -47 19 -78q0 -35 -19.5 -51t-47.5 -16q-16 0 -36.5 5t-43 11.5t-47 11.5t-48.5 5q-30 0 -58 -11.5t-52 -41.5q-4 5 -8 13q-7 14 -7 37q0 50 27 68.5t68 18.5q43 0 83.5 -3.5t63.5 -3.5q32 0 60 7t46 28z" />
    <glyph glyph-name="Ccedilla" unicode="&#xc7;" horiz-adv-x="605" 
d="M219 -200q48 27 65.5 46t17.5 35q0 17 -12 31t-19 31q-63 9 -113 41t-85 82t-53.5 115.5t-18.5 141.5q0 103 36.5 219t118.5 232q15 22 35 48t42.5 48.5t46 38t46.5 15.5q30 0 67.5 -16.5t71.5 -44.5t57 -65t23 -77q0 -19 -13.5 -35l-29 -36t-29 -47.5t-13.5 -69.5
q0 -11 1 -24t4 -27q-29 1 -52 7.5t-39.5 20t-26 35.5t-11.5 55q-15 0 -33 -15.5t-37.5 -42t-38 -61.5t-32.5 -73.5t-23 -78.5t-9 -75q0 -28 6.5 -52t21 -42t38 -28t57.5 -10q28 0 59 16.5t58.5 44t48 62.5t26.5 73q57 0 87 -28t30 -79q0 -38 -18 -83t-51.5 -84.5t-81 -68.5
t-106.5 -34q6 -16 15 -33.5l17.5 -35t14.5 -35t6 -33.5q0 -35 -22.5 -51t-51.5 -16q-17 0 -33.5 4.5t-30 12.5t-23 20t-11.5 26z" />
    <glyph glyph-name="Eacute" unicode="&#xc9;" horiz-adv-x="718" 
d="M195 -47q-52 0 -93 15.5t-69.5 41t-43.5 59.5t-15 71q0 32 11.5 65.5t36.5 64.5t63 59t91 50v7q-37 16 -64.5 40.5t-46 54t-27.5 61.5t-9 64q0 54 39 102t99.5 83.5t133 56.5t140.5 21q42 0 79.5 -9.5t65.5 -29.5t44.5 -51.5t16.5 -75.5q0 -24 -6.5 -45.5t-19 -38
t-31.5 -26t-44 -9.5q2 4 2 11q0 22 -32 34t-78 12q-38 0 -78.5 -8.5t-74.5 -26.5t-56 -46.5t-22 -67.5q0 -23 17 -31.5t45 -8.5q23 0 51 5t57 12.5t58 17t54 18.5q9 3 15 3q11 0 14.5 -6t3.5 -14q0 -6 -1 -11.5t-3 -10.5t-4 -11q-66 -24 -131 -54.5t-116.5 -61.5t-84 -59.5
t-32.5 -47.5q0 -14 18 -21.5t60 -7.5q39 0 88 8.5t99.5 32t97.5 64t83 103.5q57 -15 82.5 -46t25.5 -72q0 -52 -39 -111.5t-107 -110.5t-161 -84.5t-202 -33.5zM396 1065q38 -17 55 -35.5t17 -37.5q0 -23 -22.5 -44.5t-60.5 -38t-87 -26.5t-102 -10q-24 0 -32.5 6.5
t-8.5 15.5q0 11 7 22q4 5 8 11q56 0 115 37t111 100z" />
    <glyph glyph-name="Ecircumflex" unicode="&#xca;" horiz-adv-x="718" 
d="M195 -47q-52 0 -93 15.5t-69.5 41t-43.5 59.5t-15 71q0 32 11.5 65.5t36.5 64.5t63 59t91 50v7q-37 16 -64.5 40.5t-46 54t-27.5 61.5t-9 64q0 54 39 102t99.5 83.5t133 56.5t140.5 21q42 0 79.5 -9.5t65.5 -29.5t44.5 -51.5t16.5 -75.5q0 -24 -6.5 -45.5t-19 -38
t-31.5 -26t-44 -9.5q2 4 2 11q0 22 -32 34t-78 12q-38 0 -78.5 -8.5t-74.5 -26.5t-56 -46.5t-22 -67.5q0 -23 17 -31.5t45 -8.5q23 0 51 5t57 12.5t58 17t54 18.5q9 3 15 3q11 0 14.5 -6t3.5 -14q0 -6 -1 -11.5t-3 -10.5t-4 -11q-66 -24 -131 -54.5t-116.5 -61.5t-84 -59.5
t-32.5 -47.5q0 -14 18 -21.5t60 -7.5q39 0 88 8.5t99.5 32t97.5 64t83 103.5q57 -15 82.5 -46t25.5 -72q0 -52 -39 -111.5t-107 -110.5t-161 -84.5t-202 -33.5zM291 1066l15 12t22.5 15.5t26.5 13t27 5.5q12 0 22.5 -6t18.5 -20l25 -46.5t23.5 -35t28.5 -22.5t41 -8
q0 -5 1 -9q1 -5 1.5 -10t0.5 -11q0 -10 -2 -20.5t-7.5 -19t-16 -14t-27.5 -5.5q-23 0 -40.5 6t-33 16.5t-30.5 25l-32 30.5l-30.5 -27t-32 -25t-35.5 -18.5t-42 -7.5q-31 0 -41.5 10t-10.5 22q0 7 2 13.5t4 11.5q3 6 7 12q26 10 43.5 20.5t30 23.5t22 29.5t19.5 38.5z" />
    <glyph glyph-name="Edieresis" unicode="&#xcb;" horiz-adv-x="718" 
d="M195 -47q-52 0 -93 15.5t-69.5 41t-43.5 59.5t-15 71q0 32 11.5 65.5t36.5 64.5t63 59t91 50v7q-37 16 -64.5 40.5t-46 54t-27.5 61.5t-9 64q0 54 39 102t99.5 83.5t133 56.5t140.5 21q42 0 79.5 -9.5t65.5 -29.5t44.5 -51.5t16.5 -75.5q0 -24 -6.5 -45.5t-19 -38
t-31.5 -26t-44 -9.5q2 4 2 11q0 22 -32 34t-78 12q-38 0 -78.5 -8.5t-74.5 -26.5t-56 -46.5t-22 -67.5q0 -23 17 -31.5t45 -8.5q23 0 51 5t57 12.5t58 17t54 18.5q9 3 15 3q11 0 14.5 -6t3.5 -14q0 -6 -1 -11.5t-3 -10.5t-4 -11q-66 -24 -131 -54.5t-116.5 -61.5t-84 -59.5
t-32.5 -47.5q0 -14 18 -21.5t60 -7.5q39 0 88 8.5t99.5 32t97.5 64t83 103.5q57 -15 82.5 -46t25.5 -72q0 -52 -39 -111.5t-107 -110.5t-161 -84.5t-202 -33.5zM250 892q-42 0 -61 24t-19 54q0 17 5.5 34.5t16 31t25.5 22t33 8.5q20 0 35 -7t25 -19t15 -27.5t5 -31.5
q0 -17 -5 -32.5t-15.5 -28.5t-25.5 -20.5t-34 -7.5zM453 892q-42 0 -61 24t-19 54q0 17 5.5 34.5t16 31t25.5 22t33 8.5q20 0 35 -7t25 -19t15 -27.5t5 -31.5q0 -17 -5 -32.5t-15.5 -28.5t-25.5 -20.5t-34 -7.5z" />
    <glyph glyph-name="Egrave" unicode="&#xc8;" horiz-adv-x="718" 
d="M195 -47q-52 0 -93 15.5t-69.5 41t-43.5 59.5t-15 71q0 32 11.5 65.5t36.5 64.5t63 59t91 50v7q-37 16 -64.5 40.5t-46 54t-27.5 61.5t-9 64q0 54 39 102t99.5 83.5t133 56.5t140.5 21q42 0 79.5 -9.5t65.5 -29.5t44.5 -51.5t16.5 -75.5q0 -24 -6.5 -45.5t-19 -38
t-31.5 -26t-44 -9.5q2 4 2 11q0 22 -32 34t-78 12q-38 0 -78.5 -8.5t-74.5 -26.5t-56 -46.5t-22 -67.5q0 -23 17 -31.5t45 -8.5q23 0 51 5t57 12.5t58 17t54 18.5q9 3 15 3q11 0 14.5 -6t3.5 -14q0 -6 -1 -11.5t-3 -10.5t-4 -11q-66 -24 -131 -54.5t-116.5 -61.5t-84 -59.5
t-32.5 -47.5q0 -14 18 -21.5t60 -7.5q39 0 88 8.5t99.5 32t97.5 64t83 103.5q57 -15 82.5 -46t25.5 -72q0 -52 -39 -111.5t-107 -110.5t-161 -84.5t-202 -33.5zM221 1083q27 -33 53 -58.5t53 -42.5t56.5 -26.5t63.5 -9.5q3 -6 7 -11q3 -5 5.5 -11t2.5 -11q0 -9 -8.5 -15.5
t-32.5 -6.5q-53 0 -100.5 7.5t-83 21t-56.5 33t-21 43.5q0 19 14.5 41t46.5 46z" />
    <glyph glyph-name="Iacute" unicode="&#xcd;" horiz-adv-x="263" 
d="M213 762q-11 -57 -15 -116.5t-4 -119.5q0 -77 5.5 -152t11.5 -141l11.5 -121t5.5 -93q0 -27 -16.5 -37t-40.5 -10q-23 0 -49.5 6.5t-49.5 14.5q-26 10 -53 22q18 42 25 108.5t7 144.5q0 63 -3.5 128.5t-8.5 126t-10.5 111t-9.5 83.5t-11.5 62.5t-19.5 43.5q0 12 12 13h81
q26 0 50 -2.5t42 -10.5t29 -22.5t11 -38.5zM190 1068q38 -17 55 -35.5t17 -37.5q0 -23 -22.5 -44.5t-60.5 -38t-87 -26.5t-102 -10q-24 0 -32.5 6.5t-8.5 15.5q0 11 7 22q4 5 8 11q56 0 115 37t111 100z" />
    <glyph glyph-name="Icircumflex" unicode="&#xce;" horiz-adv-x="263" 
d="M213 762q-11 -57 -15 -116.5t-4 -119.5q0 -77 5.5 -152t11.5 -141l11.5 -121t5.5 -93q0 -27 -16.5 -37t-40.5 -10q-23 0 -49.5 6.5t-49.5 14.5q-26 10 -53 22q18 42 25 108.5t7 144.5q0 63 -3.5 128.5t-8.5 126t-10.5 111t-9.5 83.5t-11.5 62.5t-19.5 43.5q0 12 12 13h81
q26 0 50 -2.5t42 -10.5t29 -22.5t11 -38.5zM40 1050l15 12t22.5 15.5t26.5 13t27 5.5q12 0 22.5 -6t18.5 -20l25 -46.5t23.5 -35t28.5 -22.5t41 -8q0 -5 1 -9q1 -5 1.5 -10t0.5 -11q0 -10 -2 -20.5t-7.5 -19t-16 -14t-27.5 -5.5q-23 0 -40.5 6t-33 16.5t-30.5 25l-32 30.5
l-30.5 -27t-32 -25t-35.5 -18.5t-42 -7.5q-31 0 -41.5 10t-10.5 22q0 7 2 13.5t4 11.5q3 6 7 12q26 10 43.5 20.5t30 23.5t22 29.5t19.5 38.5z" />
    <glyph glyph-name="Idieresis" unicode="&#xcf;" horiz-adv-x="263" 
d="M213 762q-11 -57 -15 -116.5t-4 -119.5q0 -77 5.5 -152t11.5 -141l11.5 -121t5.5 -93q0 -27 -16.5 -37t-40.5 -10q-23 0 -49.5 6.5t-49.5 14.5q-26 10 -53 22q18 42 25 108.5t7 144.5q0 63 -3.5 128.5t-8.5 126t-10.5 111t-9.5 83.5t-11.5 62.5t-19.5 43.5q0 12 12 13h81
q26 0 50 -2.5t42 -10.5t29 -22.5t11 -38.5zM-5 864q-42 0 -61 24t-19 54q0 17 5.5 34.5t16 31t25.5 22t33 8.5q20 0 35 -7t25 -19t15 -27.5t5 -31.5q0 -17 -5 -32.5t-15.5 -28.5t-25.5 -20.5t-34 -7.5zM198 864q-42 0 -61 24t-19 54q0 17 5.5 34.5t16 31t25.5 22t33 8.5
q20 0 35 -7t25 -19t15 -27.5t5 -31.5q0 -17 -5 -32.5t-15.5 -28.5t-25.5 -20.5t-34 -7.5z" />
    <glyph glyph-name="Igrave" unicode="&#xcc;" horiz-adv-x="263" 
d="M213 762q-11 -57 -15 -116.5t-4 -119.5q0 -77 5.5 -152t11.5 -141l11.5 -121t5.5 -93q0 -27 -16.5 -37t-40.5 -10q-23 0 -49.5 6.5t-49.5 14.5q-26 10 -53 22q18 42 25 108.5t7 144.5q0 63 -3.5 128.5t-8.5 126t-10.5 111t-9.5 83.5t-11.5 62.5t-19.5 43.5q0 12 12 13h81
q26 0 50 -2.5t42 -10.5t29 -22.5t11 -38.5zM1 1060q27 -33 53 -58.5t53 -42.5t56.5 -26.5t63.5 -9.5q3 -6 7 -11q3 -5 5.5 -11t2.5 -11q0 -9 -8.5 -15.5t-32.5 -6.5q-53 0 -100.5 7.5t-83 21t-56.5 33t-21 43.5q0 19 14.5 41t46.5 46z" />
    <glyph glyph-name="Ntilde" unicode="&#xd1;" horiz-adv-x="637" 
d="M434 836q27 15 54 26q23 10 51 18t52 8q26 0 42.5 -12t16.5 -44q0 -44 -10 -116l-22 -157.5t-22 -177.5t-10 -174q0 -68 9 -124t32 -94q-29 -5 -55 -8t-57 -3q-51 0 -77.5 8.5t-27.5 17.5q-21 82 -49 160.5t-60 150.5t-65.5 137l-64.5 120q-2 -35 -3 -71.5t-1 -74.5
q0 -60 4.5 -120t17.5 -116.5t35 -108t57 -93.5q-77 -31 -126 -31q-41 0 -65.5 18.5t-38.5 50.5t-18.5 76.5t-4.5 97.5q0 58 4 122t9.5 127t9.5 122t4 107q0 38 -3 65t-18 50q17 22 46 31.5t61 9.5q24 0 48 -5t43.5 -14t32 -21.5t14.5 -27.5q11 -98 31 -177t41.5 -140
t43 -103.5t35.5 -66.5q9 77 17.5 168t8.5 180q0 59 -5 112.5t-17 96.5zM507 1035q19 -47 19 -78q0 -35 -19.5 -51t-47.5 -16q-16 0 -36.5 5t-43 11.5t-47 11.5t-48.5 5q-30 0 -58 -11.5t-52 -41.5q-4 5 -8 13q-7 14 -7 37q0 50 27 68.5t68 18.5q43 0 83.5 -3.5t63.5 -3.5
q32 0 60 7t46 28z" />
    <glyph glyph-name="Oacute" unicode="&#xd3;" horiz-adv-x="737" 
d="M439 897q71 0 123 -34.5t86.5 -92t51.5 -132.5t17 -156q0 -64 -10.5 -129t-31 -124.5t-51 -111.5t-70.5 -90.5t-89.5 -60.5t-107.5 -22q-93 0 -159 39.5t-108 103t-61 144.5t-19 165q0 79 15.5 153.5t44 132.5t68 93.5t87.5 35.5q16 0 34 -3.5t35 -8.5q30 44 66.5 71
t78.5 27zM413 64q36 0 63 28t45 74t27 105.5t9 121.5q0 64 -9.5 126.5t-28 111t-46.5 78.5t-65 30q-23 0 -40 -15t-28 -39.5t-16 -57t-5 -66.5q0 -37 5.5 -74t16.5 -68t26.5 -53.5t35.5 -29.5q-36 -27 -65 -39.5t-52 -12.5q-36 0 -59 28q7 -59 26 -105t44.5 -78t55.5 -48.5
t60 -16.5zM455 1105q38 -17 55 -35.5t17 -37.5q0 -23 -22.5 -44.5t-60.5 -38t-87 -26.5t-102 -10q-24 0 -32.5 6.5t-8.5 15.5q0 11 7 22q4 5 8 11q56 0 115 37t111 100z" />
    <glyph glyph-name="Ocircumflex" unicode="&#xd4;" horiz-adv-x="737" 
d="M439 897q71 0 123 -34.5t86.5 -92t51.5 -132.5t17 -156q0 -64 -10.5 -129t-31 -124.5t-51 -111.5t-70.5 -90.5t-89.5 -60.5t-107.5 -22q-93 0 -159 39.5t-108 103t-61 144.5t-19 165q0 79 15.5 153.5t44 132.5t68 93.5t87.5 35.5q16 0 34 -3.5t35 -8.5q30 44 66.5 71
t78.5 27zM413 64q36 0 63 28t45 74t27 105.5t9 121.5q0 64 -9.5 126.5t-28 111t-46.5 78.5t-65 30q-23 0 -40 -15t-28 -39.5t-16 -57t-5 -66.5q0 -37 5.5 -74t16.5 -68t26.5 -53.5t35.5 -29.5q-36 -27 -65 -39.5t-52 -12.5q-36 0 -59 28q7 -59 26 -105t44.5 -78t55.5 -48.5
t60 -16.5zM314 1102l15 12t22.5 15.5t26.5 13t27 5.5q12 0 22.5 -6t18.5 -20l25 -46.5t23.5 -35t28.5 -22.5t41 -8q0 -5 1 -9q1 -5 1.5 -10t0.5 -11q0 -10 -2 -20.5t-7.5 -19t-16 -14t-27.5 -5.5q-23 0 -40.5 6t-33 16.5t-30.5 25l-32 30.5l-30.5 -27t-32 -25t-35.5 -18.5
t-42 -7.5q-31 0 -41.5 10t-10.5 22q0 7 2 13.5t4 11.5q3 6 7 12q26 10 43.5 20.5t30 23.5t22 29.5t19.5 38.5z" />
    <glyph glyph-name="Odieresis" unicode="&#xd6;" horiz-adv-x="737" 
d="M439 897q71 0 123 -34.5t86.5 -92t51.5 -132.5t17 -156q0 -64 -10.5 -129t-31 -124.5t-51 -111.5t-70.5 -90.5t-89.5 -60.5t-107.5 -22q-93 0 -159 39.5t-108 103t-61 144.5t-19 165q0 79 15.5 153.5t44 132.5t68 93.5t87.5 35.5q16 0 34 -3.5t35 -8.5q30 44 66.5 71
t78.5 27zM413 64q36 0 63 28t45 74t27 105.5t9 121.5q0 64 -9.5 126.5t-28 111t-46.5 78.5t-65 30q-23 0 -40 -15t-28 -39.5t-16 -57t-5 -66.5q0 -37 5.5 -74t16.5 -68t26.5 -53.5t35.5 -29.5q-36 -27 -65 -39.5t-52 -12.5q-36 0 -59 28q7 -59 26 -105t44.5 -78t55.5 -48.5
t60 -16.5zM237 935q-42 0 -61 24t-19 54q0 17 5.5 34.5t16 31t25.5 22t33 8.5q20 0 35 -7t25 -19t15 -27.5t5 -31.5q0 -17 -5 -32.5t-15.5 -28.5t-25.5 -20.5t-34 -7.5zM440 935q-42 0 -61 24t-19 54q0 17 5.5 34.5t16 31t25.5 22t33 8.5q20 0 35 -7t25 -19t15 -27.5
t5 -31.5q0 -17 -5 -32.5t-15.5 -28.5t-25.5 -20.5t-34 -7.5z" />
    <glyph glyph-name="Ograve" unicode="&#xd2;" horiz-adv-x="737" 
d="M439 897q71 0 123 -34.5t86.5 -92t51.5 -132.5t17 -156q0 -64 -10.5 -129t-31 -124.5t-51 -111.5t-70.5 -90.5t-89.5 -60.5t-107.5 -22q-93 0 -159 39.5t-108 103t-61 144.5t-19 165q0 79 15.5 153.5t44 132.5t68 93.5t87.5 35.5q16 0 34 -3.5t35 -8.5q30 44 66.5 71
t78.5 27zM413 64q36 0 63 28t45 74t27 105.5t9 121.5q0 64 -9.5 126.5t-28 111t-46.5 78.5t-65 30q-23 0 -40 -15t-28 -39.5t-16 -57t-5 -66.5q0 -37 5.5 -74t16.5 -68t26.5 -53.5t35.5 -29.5q-36 -27 -65 -39.5t-52 -12.5q-36 0 -59 28q7 -59 26 -105t44.5 -78t55.5 -48.5
t60 -16.5zM250 1121q27 -33 53 -58.5t53 -42.5t56.5 -26.5t63.5 -9.5q3 -6 7 -11q3 -5 5.5 -11t2.5 -11q0 -9 -8.5 -15.5t-32.5 -6.5q-53 0 -100.5 7.5t-83 21t-56.5 33t-21 43.5q0 19 14.5 41t46.5 46z" />
    <glyph glyph-name="Otilde" unicode="&#xd5;" horiz-adv-x="737" 
d="M439 897q71 0 123 -34.5t86.5 -92t51.5 -132.5t17 -156q0 -64 -10.5 -129t-31 -124.5t-51 -111.5t-70.5 -90.5t-89.5 -60.5t-107.5 -22q-93 0 -159 39.5t-108 103t-61 144.5t-19 165q0 79 15.5 153.5t44 132.5t68 93.5t87.5 35.5q16 0 34 -3.5t35 -8.5q30 44 66.5 71
t78.5 27zM413 64q36 0 63 28t45 74t27 105.5t9 121.5q0 64 -9.5 126.5t-28 111t-46.5 78.5t-65 30q-23 0 -40 -15t-28 -39.5t-16 -57t-5 -66.5q0 -37 5.5 -74t16.5 -68t26.5 -53.5t35.5 -29.5q-36 -27 -65 -39.5t-52 -12.5q-36 0 -59 28q7 -59 26 -105t44.5 -78t55.5 -48.5
t60 -16.5zM546 1063q19 -47 19 -78q0 -35 -19.5 -51t-47.5 -16q-16 0 -36.5 5t-43 11.5t-47 11.5t-48.5 5q-30 0 -58 -11.5t-52 -41.5q-4 5 -8 13q-7 14 -7 37q0 50 27 68.5t68 18.5q43 0 83.5 -3.5t63.5 -3.5q32 0 60 7t46 28z" />
    <glyph glyph-name="Scaron" unicode="&#x160;" horiz-adv-x="745" 
d="M213 513q19 -3 64 -6.5t102 -12t118 -23.5t112 -40t83.5 -62.5t32.5 -89.5q0 -58 -21.5 -105t-56.5 -84t-81 -64t-95 -45t-97.5 -26.5t-88.5 -8.5q-84 0 -142 13t-93.5 35t-51 50.5t-15.5 59.5q0 37 19 74t49.5 66.5t68.5 48t76 18.5q4 0 6 -3.5t3 -8.5t1 -11
q-24 0 -39.5 -14t-15.5 -31t19.5 -31.5t64.5 -14.5q33 0 70 6t73 16.5t68.5 25.5t57.5 32t40 35.5t15 37.5q0 24 -24 42.5t-77.5 31t-140 19.5t-212.5 7q-21 13 -37.5 32t-28 40t-18 42.5t-6.5 40.5q0 33 26 64.5t70 59.5t101 52t118 41.5t122.5 27t114.5 9.5q35 0 65 -4.5
t51.5 -15t34 -26.5t12.5 -38q0 -43 -50 -108q-66 0 -120.5 -6.5t-99.5 -17.5t-81 -25t-63 -28q-64 -34 -103 -77zM521 1111q20 0 32.5 -5t20 -13.5t10.5 -18.5t3 -20q0 -9 -1.5 -16.5t-3.5 -13.5q-2 -7 -4 -13q-66 -23 -103 -46.5t-57 -42.5q-23 -23 -31 -43
q-19 0 -53.5 8.5t-68.5 28.5t-59 53t-25 81q0 16 6.5 26t16 15.5t20.5 7t19 1.5q3 0 5 -0.5t4 -0.5h4q14 -33 32.5 -52t35.5 -28q20 -11 41 -13q23 29 49 52q22 20 50 36.5t57 16.5z" />
    <glyph glyph-name="Uacute" unicode="&#xda;" horiz-adv-x="669" 
d="M551 -63q-28 0 -49 17.5t-37 50t-27 77.5t-18 100q-67 -111 -122.5 -159t-98.5 -48q-45 0 -78.5 42.5t-55 110.5t-32.5 153.5t-11 172.5q0 79 5 152t20 129t42 89t70 33q26 0 57.5 -13.5t71.5 -42.5q-19 -48 -33 -120q-12 -63 -22 -159t-10 -233q0 -43 3 -79t9 -62.5
t15 -41t21 -14.5q22 0 55.5 52.5t80.5 176.5q-5 89 -6 196t-1 253q0 56 17 78t42 22q23 0 50.5 -13.5t50.5 -30.5q27 -19 53 -44q-18 -96 -26 -177.5t-8 -152.5q0 -101 14 -177.5t36 -129.5t48.5 -83.5t51.5 -40.5q-17 -28 -38 -44.5t-43.5 -25.5t-47 -11.5t-49.5 -2.5z
M462 1085q38 -17 55 -35.5t17 -37.5q0 -23 -22.5 -44.5t-60.5 -38t-87 -26.5t-102 -10q-24 0 -32.5 6.5t-8.5 15.5q0 11 7 22q4 5 8 11q56 0 115 37t111 100z" />
    <glyph glyph-name="Ucircumflex" unicode="&#xdb;" horiz-adv-x="669" 
d="M551 -63q-28 0 -49 17.5t-37 50t-27 77.5t-18 100q-67 -111 -122.5 -159t-98.5 -48q-45 0 -78.5 42.5t-55 110.5t-32.5 153.5t-11 172.5q0 79 5 152t20 129t42 89t70 33q26 0 57.5 -13.5t71.5 -42.5q-19 -48 -33 -120q-12 -63 -22 -159t-10 -233q0 -43 3 -79t9 -62.5
t15 -41t21 -14.5q22 0 55.5 52.5t80.5 176.5q-5 89 -6 196t-1 253q0 56 17 78t42 22q23 0 50.5 -13.5t50.5 -30.5q27 -19 53 -44q-18 -96 -26 -177.5t-8 -152.5q0 -101 14 -177.5t36 -129.5t48.5 -83.5t51.5 -40.5q-17 -28 -38 -44.5t-43.5 -25.5t-47 -11.5t-49.5 -2.5z
M260 1086l15 12t22.5 15.5t26.5 13t27 5.5q12 0 22.5 -6t18.5 -20l25 -46.5t23.5 -35t28.5 -22.5t41 -8q0 -5 1 -9q1 -5 1.5 -10t0.5 -11q0 -10 -2 -20.5t-7.5 -19t-16 -14t-27.5 -5.5q-23 0 -40.5 6t-33 16.5t-30.5 25l-32 30.5l-30.5 -27t-32 -25t-35.5 -18.5t-42 -7.5
q-31 0 -41.5 10t-10.5 22q0 7 2 13.5t4 11.5q3 6 7 12q26 10 43.5 20.5t30 23.5t22 29.5t19.5 38.5z" />
    <glyph glyph-name="Udieresis" unicode="&#xdc;" horiz-adv-x="669" 
d="M551 -63q-28 0 -49 17.5t-37 50t-27 77.5t-18 100q-67 -111 -122.5 -159t-98.5 -48q-45 0 -78.5 42.5t-55 110.5t-32.5 153.5t-11 172.5q0 79 5 152t20 129t42 89t70 33q26 0 57.5 -13.5t71.5 -42.5q-19 -48 -33 -120q-12 -63 -22 -159t-10 -233q0 -43 3 -79t9 -62.5
t15 -41t21 -14.5q22 0 55.5 52.5t80.5 176.5q-5 89 -6 196t-1 253q0 56 17 78t42 22q23 0 50.5 -13.5t50.5 -30.5q27 -19 53 -44q-18 -96 -26 -177.5t-8 -152.5q0 -101 14 -177.5t36 -129.5t48.5 -83.5t51.5 -40.5q-17 -28 -38 -44.5t-43.5 -25.5t-47 -11.5t-49.5 -2.5z
M247 906q-42 0 -61 24t-19 54q0 17 5.5 34.5t16 31t25.5 22t33 8.5q20 0 35 -7t25 -19t15 -27.5t5 -31.5q0 -17 -5 -32.5t-15.5 -28.5t-25.5 -20.5t-34 -7.5zM450 906q-42 0 -61 24t-19 54q0 17 5.5 34.5t16 31t25.5 22t33 8.5q20 0 35 -7t25 -19t15 -27.5t5 -31.5
q0 -17 -5 -32.5t-15.5 -28.5t-25.5 -20.5t-34 -7.5z" />
    <glyph glyph-name="Ugrave" unicode="&#xd9;" horiz-adv-x="669" 
d="M551 -63q-28 0 -49 17.5t-37 50t-27 77.5t-18 100q-67 -111 -122.5 -159t-98.5 -48q-45 0 -78.5 42.5t-55 110.5t-32.5 153.5t-11 172.5q0 79 5 152t20 129t42 89t70 33q26 0 57.5 -13.5t71.5 -42.5q-19 -48 -33 -120q-12 -63 -22 -159t-10 -233q0 -43 3 -79t9 -62.5
t15 -41t21 -14.5q22 0 55.5 52.5t80.5 176.5q-5 89 -6 196t-1 253q0 56 17 78t42 22q23 0 50.5 -13.5t50.5 -30.5q27 -19 53 -44q-18 -96 -26 -177.5t-8 -152.5q0 -101 14 -177.5t36 -129.5t48.5 -83.5t51.5 -40.5q-17 -28 -38 -44.5t-43.5 -25.5t-47 -11.5t-49.5 -2.5z
M254 1092q27 -33 53 -58.5t53 -42.5t56.5 -26.5t63.5 -9.5q3 -6 7 -11q3 -5 5.5 -11t2.5 -11q0 -9 -8.5 -15.5t-32.5 -6.5q-53 0 -100.5 7.5t-83 21t-56.5 33t-21 43.5q0 19 14.5 41t46.5 46z" />
    <glyph glyph-name="Yacute" unicode="&#xdd;" horiz-adv-x="567" 
d="M552 713q0 -27 -2.5 -78t-7 -116l-10 -139t-11.5 -147l-11.5 -140.5l-9.5 -118.5q-5 -60 -36.5 -106t-77 -77t-99 -46.5t-102.5 -15.5q-39 0 -68.5 11t-49.5 29t-30 42.5t-10 51.5q0 51 35.5 102t109.5 83q4 -15 18.5 -42t34.5 -53.5t42 -45.5t42 -19q22 0 36.5 32.5
t14.5 114.5v165q-21 -26 -51 -47.5t-63 -36.5t-66.5 -23.5t-61.5 -8.5q-31 0 -51 11.5t-20 36.5q0 7 2 14.5t5 16.5q17 42 25 94.5t8 108.5q0 63 -11.5 126t-36 116t-63.5 90.5t-94 51.5q25 38 61 68q31 26 78 47.5t111 21.5q40 0 67.5 -22t45 -59.5t25 -87.5t7.5 -107
q0 -48 -4.5 -98t-13 -99t-19.5 -95t-23 -86q-5 -18 -5 -27q0 -25 25 -25q13 0 31 6.5t35.5 16.5t32.5 21t23 19q0 76 -1.5 159t-4.5 154t-8 121.5t-12 61.5q21 6 45 11q20 4 44.5 7.5t47.5 3.5q33 0 57.5 -10t24.5 -39zM463 1079q38 -17 55 -35.5t17 -37.5
q0 -23 -22.5 -44.5t-60.5 -38t-87 -26.5t-102 -10q-24 0 -32.5 6.5t-8.5 15.5q0 11 7 22q4 5 8 11q56 0 115 37t111 100z" />
    <glyph glyph-name="Ydieresis" unicode="&#x178;" horiz-adv-x="567" 
d="M552 713q0 -27 -2.5 -78t-7 -116l-10 -139t-11.5 -147l-11.5 -140.5l-9.5 -118.5q-5 -60 -36.5 -106t-77 -77t-99 -46.5t-102.5 -15.5q-39 0 -68.5 11t-49.5 29t-30 42.5t-10 51.5q0 51 35.5 102t109.5 83q4 -15 18.5 -42t34.5 -53.5t42 -45.5t42 -19q22 0 36.5 32.5
t14.5 114.5v165q-21 -26 -51 -47.5t-63 -36.5t-66.5 -23.5t-61.5 -8.5q-31 0 -51 11.5t-20 36.5q0 7 2 14.5t5 16.5q17 42 25 94.5t8 108.5q0 63 -11.5 126t-36 116t-63.5 90.5t-94 51.5q25 38 61 68q31 26 78 47.5t111 21.5q40 0 67.5 -22t45 -59.5t25 -87.5t7.5 -107
q0 -48 -4.5 -98t-13 -99t-19.5 -95t-23 -86q-5 -18 -5 -27q0 -25 25 -25q13 0 31 6.5t35.5 16.5t32.5 21t23 19q0 76 -1.5 159t-4.5 154t-8 121.5t-12 61.5q21 6 45 11q20 4 44.5 7.5t47.5 3.5q33 0 57.5 -10t24.5 -39zM264 864q-42 0 -61 24t-19 54q0 17 5.5 34.5t16 31
t25.5 22t33 8.5q20 0 35 -7t25 -19t15 -27.5t5 -31.5q0 -17 -5 -32.5t-15.5 -28.5t-25.5 -20.5t-34 -7.5zM467 864q-42 0 -61 24t-19 54q0 17 5.5 34.5t16 31t25.5 22t33 8.5q20 0 35 -7t25 -19t15 -27.5t5 -31.5q0 -17 -5 -32.5t-15.5 -28.5t-25.5 -20.5t-34 -7.5z" />
    <glyph glyph-name="Zcaron" unicode="&#x17d;" horiz-adv-x="637" 
d="M62 -58q-29 19 -47.5 44.5t-29.5 52t-15.5 49.5t-4.5 37q0 38 25 78t64 79.5t86.5 78l93 73.5l83 64.5t56.5 52.5q-5 1 -10.5 1.5t-12.5 0.5q-29 0 -71 -7.5t-84 -19t-78 -23.5t-52 -21q-19 36 -27.5 66.5t-8.5 56.5q0 47 25.5 81t68 56.5t97.5 35.5t115 19.5t120 8.5
t112 2q7 0 13.5 -2.5t12 -12.5t8.5 -30t3 -55q14 -13 25 -29q10 -14 18 -31t8 -34q0 -18 -12 -33.5t-41 -30.5q-117 -60 -186 -109t-104.5 -87.5t-46 -65.5t-10.5 -43q0 -6 2 -14q34 10 69.5 15.5t70.5 5.5q44 0 84.5 -9.5t71.5 -30t49.5 -52.5t18.5 -78q0 -30 -9 -66
q-23 5 -62.5 8t-87.5 3q-51 0 -108.5 -4t-111.5 -14t-101.5 -26.5t-78.5 -40.5zM496 1066q20 0 32.5 -5t20 -13.5t10.5 -18.5t3 -20q0 -9 -1.5 -16.5t-3.5 -13.5q-2 -7 -4 -13q-66 -23 -103 -46.5t-57 -42.5q-23 -23 -31 -43q-19 0 -53.5 8.5t-68.5 28.5t-59 53t-25 81
q0 16 6.5 26t16 15.5t20.5 7t19 1.5q3 0 5 -0.5t4 -0.5h4q14 -33 32.5 -52t35.5 -28q20 -11 41 -13q23 29 49 52q22 20 50 36.5t57 16.5z" />
    <glyph glyph-name="aacute" unicode="&#xe1;" 
d="M214 487q19 0 33.5 -8t24.5 -20.5t16.5 -27t10.5 -27.5q12 3 24.5 5t23.5 2q18 0 30 -6.5t12 -24.5q0 -68 -5 -115t-5 -86q0 -23 3 -43.5t11 -42t21.5 -44.5t35.5 -49q-19 -9 -38 -16q-17 -6 -37.5 -11t-41.5 -5q-20 0 -32 10.5t-19.5 28.5t-11.5 43t-6 55
q-23 -46 -44 -73t-40.5 -41t-38 -18t-34.5 -4q-28 0 -49 14t-34.5 38t-20 56.5t-6.5 69.5q0 56 15 116.5t42.5 110t68 81.5t91.5 32zM250 266q0 19 -3 42q-4 27 -14 56q-20 -18 -36 -48.5t-27 -64t-16.5 -67t-5.5 -57.5q0 -19 3.5 -30.5t11.5 -11.5q10 0 24.5 12t28.5 35.5
t24 57t10 76.5zM348 714q38 -17 55 -35.5t17 -37.5q0 -23 -22.5 -44.5t-60.5 -38t-87 -26.5t-102 -10q-24 0 -32.5 6.5t-8.5 15.5q0 11 7 22q4 5 8 11q56 0 115 37t111 100z" />
    <glyph glyph-name="acircumflex" unicode="&#xe2;" 
d="M214 487q19 0 33.5 -8t24.5 -20.5t16.5 -27t10.5 -27.5q12 3 24.5 5t23.5 2q18 0 30 -6.5t12 -24.5q0 -68 -5 -115t-5 -86q0 -23 3 -43.5t11 -42t21.5 -44.5t35.5 -49q-19 -9 -38 -16q-17 -6 -37.5 -11t-41.5 -5q-20 0 -32 10.5t-19.5 28.5t-11.5 43t-6 55
q-23 -46 -44 -73t-40.5 -41t-38 -18t-34.5 -4q-28 0 -49 14t-34.5 38t-20 56.5t-6.5 69.5q0 56 15 116.5t42.5 110t68 81.5t91.5 32zM250 266q0 19 -3 42q-4 27 -14 56q-20 -18 -36 -48.5t-27 -64t-16.5 -67t-5.5 -57.5q0 -19 3.5 -30.5t11.5 -11.5q10 0 24.5 12t28.5 35.5
t24 57t10 76.5zM163 692l15 12t22.5 15.5t26.5 13t27 5.5q12 0 22.5 -6t18.5 -20l25 -46.5t23.5 -35t28.5 -22.5t41 -8q0 -5 1 -9q1 -5 1.5 -10t0.5 -11q0 -10 -2 -20.5t-7.5 -19t-16 -14t-27.5 -5.5q-23 0 -40.5 6t-33 16.5t-30.5 25l-32 30.5l-30.5 -27t-32 -25
t-35.5 -18.5t-42 -7.5q-31 0 -41.5 10t-10.5 22q0 7 2 13.5t4 11.5q3 6 7 12q26 10 43.5 20.5t30 23.5t22 29.5t19.5 38.5z" />
    <glyph glyph-name="adieresis" unicode="&#xe4;" 
d="M216 487q19 0 33.5 -8t24.5 -20.5t16.5 -27t10.5 -27.5q12 3 24.5 5t23.5 2q18 0 30 -6.5t12 -24.5q0 -68 -5 -115t-5 -86q0 -23 3 -43.5t11 -42t21.5 -44.5t35.5 -49q-19 -9 -38 -16q-17 -6 -37.5 -11t-41.5 -5q-20 0 -32 10.5t-19.5 28.5t-11.5 43t-6 55
q-23 -46 -44 -73t-40.5 -41t-38 -18t-34.5 -4q-28 0 -49 14t-34.5 38t-20 56.5t-6.5 69.5q0 56 15 116.5t42.5 110t68 81.5t91.5 32zM252 266q0 19 -3 42q-4 27 -14 56q-20 -18 -36 -48.5t-27 -64t-16.5 -67t-5.5 -57.5q0 -19 3.5 -30.5t11.5 -11.5q10 0 24.5 12t28.5 35.5
t24 57t10 76.5zM122 507q-42 0 -61 24t-19 54q0 17 5.5 34.5t16 31t25.5 22t33 8.5q20 0 35 -7t25 -19t15 -27.5t5 -31.5q0 -17 -5 -32.5t-15.5 -28.5t-25.5 -20.5t-34 -7.5zM325 507q-42 0 -61 24t-19 54q0 17 5.5 34.5t16 31t25.5 22t33 8.5q20 0 35 -7t25 -19t15 -27.5
t5 -31.5q0 -17 -5 -32.5t-15.5 -28.5t-25.5 -20.5t-34 -7.5z" />
    <glyph glyph-name="agrave" unicode="&#xe0;" 
d="M214 487q19 0 33.5 -8t24.5 -20.5t16.5 -27t10.5 -27.5q12 3 24.5 5t23.5 2q18 0 30 -6.5t12 -24.5q0 -68 -5 -115t-5 -86q0 -23 3 -43.5t11 -42t21.5 -44.5t35.5 -49q-19 -9 -38 -16q-17 -6 -37.5 -11t-41.5 -5q-20 0 -32 10.5t-19.5 28.5t-11.5 43t-6 55
q-23 -46 -44 -73t-40.5 -41t-38 -18t-34.5 -4q-28 0 -49 14t-34.5 38t-20 56.5t-6.5 69.5q0 56 15 116.5t42.5 110t68 81.5t91.5 32zM250 266q0 19 -3 42q-4 27 -14 56q-20 -18 -36 -48.5t-27 -64t-16.5 -67t-5.5 -57.5q0 -19 3.5 -30.5t11.5 -11.5q10 0 24.5 12t28.5 35.5
t24 57t10 76.5zM170 714q27 -33 53 -58.5t53 -42.5t56.5 -26.5t63.5 -9.5q3 -6 7 -11q3 -5 5.5 -11t2.5 -11q0 -9 -8.5 -15.5t-32.5 -6.5q-53 0 -100.5 7.5t-83 21t-56.5 33t-21 43.5q0 19 14.5 41t46.5 46z" />
    <glyph glyph-name="aring" unicode="&#xe5;" 
d="M214 487q19 0 33.5 -8t24.5 -20.5t16.5 -27t10.5 -27.5q12 3 24.5 5t23.5 2q18 0 30 -6.5t12 -24.5q0 -68 -5 -115t-5 -86q0 -23 3 -43.5t11 -42t21.5 -44.5t35.5 -49q-19 -9 -38 -16q-17 -6 -37.5 -11t-41.5 -5q-20 0 -32 10.5t-19.5 28.5t-11.5 43t-6 55
q-23 -46 -44 -73t-40.5 -41t-38 -18t-34.5 -4q-28 0 -49 14t-34.5 38t-20 56.5t-6.5 69.5q0 56 15 116.5t42.5 110t68 81.5t91.5 32zM250 266q0 19 -3 42q-4 27 -14 56q-20 -18 -36 -48.5t-27 -64t-16.5 -67t-5.5 -57.5q0 -19 3.5 -30.5t11.5 -11.5q10 0 24.5 12t28.5 35.5
t24 57t10 76.5zM220 653q-13 0 -20.5 -17t-7.5 -37t8.5 -35.5t28.5 -15.5q17 0 24.5 12t7.5 29q0 22 -11 43t-30 21zM245 698q44 0 64.5 -26t20.5 -59q0 -20 -7 -39t-21 -35t-34.5 -25.5t-47.5 -9.5q-52 0 -75.5 24.5t-23.5 56.5q0 20 8.5 40t24.5 36.5t39 26.5t52 10z" />
    <glyph glyph-name="atilde" unicode="&#xe3;" 
d="M214 487q19 0 33.5 -8t24.5 -20.5t16.5 -27t10.5 -27.5q12 3 24.5 5t23.5 2q18 0 30 -6.5t12 -24.5q0 -68 -5 -115t-5 -86q0 -23 3 -43.5t11 -42t21.5 -44.5t35.5 -49q-19 -9 -38 -16q-17 -6 -37.5 -11t-41.5 -5q-20 0 -32 10.5t-19.5 28.5t-11.5 43t-6 55
q-23 -46 -44 -73t-40.5 -41t-38 -18t-34.5 -4q-28 0 -49 14t-34.5 38t-20 56.5t-6.5 69.5q0 56 15 116.5t42.5 110t68 81.5t91.5 32zM250 266q0 19 -3 42q-4 27 -14 56q-20 -18 -36 -48.5t-27 -64t-16.5 -67t-5.5 -57.5q0 -19 3.5 -30.5t11.5 -11.5q10 0 24.5 12t28.5 35.5
t24 57t10 76.5zM383 666q19 -47 19 -78q0 -35 -19.5 -51t-47.5 -16q-16 0 -36.5 5t-43 11.5t-47 11.5t-48.5 5q-30 0 -58 -11.5t-52 -41.5q-4 5 -8 13q-7 14 -7 37q0 50 27 68.5t68 18.5q43 0 83.5 -3.5t63.5 -3.5q32 0 60 7t46 28z" />
    <glyph glyph-name="ccedilla" unicode="&#xe7;" horiz-adv-x="346" 
d="M269 132q38 -4 55.5 -27t17.5 -46q0 -19 -12.5 -35t-33 -28.5t-47.5 -20t-56 -8.5q6 -11 14.5 -23t17 -25.5t14 -28t5.5 -30.5q0 -35 -22.5 -51t-51.5 -16q-17 0 -33.5 4.5t-30 12.5t-23 20t-11.5 26q27 15 45 27t28 21t14 15.5t4 12.5q0 11 -8 19t-8 19q-30 4 -58 17.5
t-49.5 36.5t-34.5 57.5t-13 81.5q0 58 17 118.5t47 110t70.5 81t86.5 31.5q31 0 55 -8.5t39.5 -22.5t23.5 -32.5t8 -38.5q0 -26 -12 -46t-26.5 -39.5t-28 -39.5t-16.5 -45q-17 3 -29 9q-11 5 -19.5 14t-8.5 23q-20 -1 -35.5 -13t-26.5 -30.5t-17 -41.5t-6 -45
q0 -35 15 -61.5t48 -26.5q26 0 51.5 18.5t40.5 53.5z" />
    <glyph glyph-name="eacute" unicode="&#xe9;" horiz-adv-x="422" 
d="M223 161q-18 0 -38 2.5t-41 7.5q0 -26 4.5 -48.5t14.5 -40t26 -27.5t38 -10q26 0 50.5 19.5t37.5 55.5q38 -4 56 -21t18 -40q0 -19 -14.5 -36t-39 -30t-56.5 -21t-66 -8q-39 0 -77.5 12t-69.5 39.5t-50 73t-19 111.5q0 54 19.5 104.5t52.5 90.5t75 64t87 24
q44 0 76.5 -13.5t54.5 -35t32.5 -49.5t10.5 -58q0 -31 -11.5 -60.5t-34.5 -53t-57 -38t-79 -14.5zM246 367q-19 0 -35 -12t-28.5 -32t-21.5 -45.5t-13 -53.5q33 4 55.5 15.5t36 27t19.5 32.5t6 32q0 16 -5.5 26t-13.5 10zM315 714q38 -17 55 -35.5t17 -37.5
q0 -23 -22.5 -44.5t-60.5 -38t-87 -26.5t-102 -10q-24 0 -32.5 6.5t-8.5 15.5q0 11 7 22q4 5 8 11q56 0 115 37t111 100z" />
    <glyph glyph-name="ecircumflex" unicode="&#xea;" horiz-adv-x="422" 
d="M223 161q-18 0 -38 2.5t-41 7.5q0 -26 4.5 -48.5t14.5 -40t26 -27.5t38 -10q26 0 50.5 19.5t37.5 55.5q38 -4 56 -21t18 -40q0 -19 -14.5 -36t-39 -30t-56.5 -21t-66 -8q-39 0 -77.5 12t-69.5 39.5t-50 73t-19 111.5q0 54 19.5 104.5t52.5 90.5t75 64t87 24
q44 0 76.5 -13.5t54.5 -35t32.5 -49.5t10.5 -58q0 -31 -11.5 -60.5t-34.5 -53t-57 -38t-79 -14.5zM246 367q-19 0 -35 -12t-28.5 -32t-21.5 -45.5t-13 -53.5q33 4 55.5 15.5t36 27t19.5 32.5t6 32q0 16 -5.5 26t-13.5 10zM168 692l15 12t22.5 15.5t26.5 13t27 5.5
q12 0 22.5 -6t18.5 -20l25 -46.5t23.5 -35t28.5 -22.5t41 -8q0 -5 1 -9q1 -5 1.5 -10t0.5 -11q0 -10 -2 -20.5t-7.5 -19t-16 -14t-27.5 -5.5q-23 0 -40.5 6t-33 16.5t-30.5 25l-32 30.5l-30.5 -27t-32 -25t-35.5 -18.5t-42 -7.5q-31 0 -41.5 10t-10.5 22q0 7 2 13.5t4 11.5
q3 6 7 12q26 10 43.5 20.5t30 23.5t22 29.5t19.5 38.5z" />
    <glyph glyph-name="edieresis" unicode="&#xeb;" horiz-adv-x="422" 
d="M223 161q-18 0 -38 2.5t-41 7.5q0 -26 4.5 -48.5t14.5 -40t26 -27.5t38 -10q26 0 50.5 19.5t37.5 55.5q38 -4 56 -21t18 -40q0 -19 -14.5 -36t-39 -30t-56.5 -21t-66 -8q-39 0 -77.5 12t-69.5 39.5t-50 73t-19 111.5q0 54 19.5 104.5t52.5 90.5t75 64t87 24
q44 0 76.5 -13.5t54.5 -35t32.5 -49.5t10.5 -58q0 -31 -11.5 -60.5t-34.5 -53t-57 -38t-79 -14.5zM246 367q-19 0 -35 -12t-28.5 -32t-21.5 -45.5t-13 -53.5q33 4 55.5 15.5t36 27t19.5 32.5t6 32q0 16 -5.5 26t-13.5 10zM135 510q-42 0 -61 24t-19 54q0 17 5.5 34.5t16 31
t25.5 22t33 8.5q20 0 35 -7t25 -19t15 -27.5t5 -31.5q0 -17 -5 -32.5t-15.5 -28.5t-25.5 -20.5t-34 -7.5zM338 510q-42 0 -61 24t-19 54q0 17 5.5 34.5t16 31t25.5 22t33 8.5q20 0 35 -7t25 -19t15 -27.5t5 -31.5q0 -17 -5 -32.5t-15.5 -28.5t-25.5 -20.5t-34 -7.5z" />
    <glyph glyph-name="egrave" unicode="&#xe8;" horiz-adv-x="422" 
d="M223 161q-18 0 -38 2.5t-41 7.5q0 -26 4.5 -48.5t14.5 -40t26 -27.5t38 -10q26 0 50.5 19.5t37.5 55.5q38 -4 56 -21t18 -40q0 -19 -14.5 -36t-39 -30t-56.5 -21t-66 -8q-39 0 -77.5 12t-69.5 39.5t-50 73t-19 111.5q0 54 19.5 104.5t52.5 90.5t75 64t87 24
q44 0 76.5 -13.5t54.5 -35t32.5 -49.5t10.5 -58q0 -31 -11.5 -60.5t-34.5 -53t-57 -38t-79 -14.5zM246 367q-19 0 -35 -12t-28.5 -32t-21.5 -45.5t-13 -53.5q33 4 55.5 15.5t36 27t19.5 32.5t6 32q0 16 -5.5 26t-13.5 10zM150 714q27 -33 53 -58.5t53 -42.5t56.5 -26.5
t63.5 -9.5q3 -6 7 -11q3 -5 5.5 -11t2.5 -11q0 -9 -8.5 -15.5t-32.5 -6.5q-53 0 -100.5 7.5t-83 21t-56.5 33t-21 43.5q0 19 14.5 41t46.5 46z" />
    <glyph glyph-name="iacute" unicode="&#xed;" horiz-adv-x="228" 
d="M24 408q20 8 41 15q18 5 39 10t39 5q27 0 37 -15t10 -41q0 -20 -4.5 -45.5t-10 -53t-10 -56t-4.5 -55.5q0 -44 12 -87t47 -85q-18 -7 -41 -12q-20 -5 -47 -8t-59 -3q-27 0 -36.5 21.5t-9.5 56.5q0 45 8 105t8 122q0 33 -4 65t-15 61zM236 714q38 -17 55 -35.5t17 -37.5
q0 -23 -22.5 -44.5t-60.5 -38t-87 -26.5t-102 -10q-24 0 -32.5 6.5t-8.5 15.5q0 11 7 22q4 5 8 11q56 0 115 37t111 100z" />
    <glyph glyph-name="icircumflex" unicode="&#xee;" horiz-adv-x="228" 
d="M24 408q20 8 41 15q18 5 39 10t39 5q27 0 37 -15t10 -41q0 -20 -4.5 -45.5t-10 -53t-10 -56t-4.5 -55.5q0 -44 12 -87t47 -85q-18 -7 -41 -12q-20 -5 -47 -8t-59 -3q-27 0 -36.5 21.5t-9.5 56.5q0 45 8 105t8 122q0 33 -4 65t-15 61zM50 677l15 12t22.5 15.5t26.5 13
t27 5.5q12 0 22.5 -6t18.5 -20l25 -46.5t23.5 -35t28.5 -22.5t41 -8q0 -5 1 -9q1 -5 1.5 -10t0.5 -11q0 -10 -2 -20.5t-7.5 -19t-16 -14t-27.5 -5.5q-23 0 -40.5 6t-33 16.5t-30.5 25l-32 30.5l-30.5 -27t-32 -25t-35.5 -18.5t-42 -7.5q-31 0 -41.5 10t-10.5 22q0 7 2 13.5
t4 11.5q3 6 7 12q26 10 43.5 20.5t30 23.5t22 29.5t19.5 38.5z" />
    <glyph glyph-name="idieresis" unicode="&#xef;" horiz-adv-x="228" 
d="M24 408q20 8 41 15q18 5 39 10t39 5q27 0 37 -15t10 -41q0 -20 -4.5 -45.5t-10 -53t-10 -56t-4.5 -55.5q0 -44 12 -87t47 -85q-18 -7 -41 -12q-20 -5 -47 -8t-59 -3q-27 0 -36.5 21.5t-9.5 56.5q0 45 8 105t8 122q0 33 -4 65t-15 61zM18 474q-42 0 -61 24t-19 54
q0 17 5.5 34.5t16 31t25.5 22t33 8.5q20 0 35 -7t25 -19t15 -27.5t5 -31.5q0 -17 -5 -32.5t-15.5 -28.5t-25.5 -20.5t-34 -7.5zM221 474q-42 0 -61 24t-19 54q0 17 5.5 34.5t16 31t25.5 22t33 8.5q20 0 35 -7t25 -19t15 -27.5t5 -31.5q0 -17 -5 -32.5t-15.5 -28.5
t-25.5 -20.5t-34 -7.5z" />
    <glyph glyph-name="igrave" unicode="&#xec;" horiz-adv-x="228" 
d="M24 408q20 8 41 15q18 5 39 10t39 5q27 0 37 -15t10 -41q0 -20 -4.5 -45.5t-10 -53t-10 -56t-4.5 -55.5q0 -44 12 -87t47 -85q-18 -7 -41 -12q-20 -5 -47 -8t-59 -3q-27 0 -36.5 21.5t-9.5 56.5q0 45 8 105t8 122q0 33 -4 65t-15 61zM-9 714q27 -33 53 -58.5t53 -42.5
t56.5 -26.5t63.5 -9.5q3 -6 7 -11q3 -5 5.5 -11t2.5 -11q0 -9 -8.5 -15.5t-32.5 -6.5q-53 0 -100.5 7.5t-83 21t-56.5 33t-21 43.5q0 19 14.5 41t46.5 46z" />
    <glyph glyph-name="ntilde" unicode="&#xf1;" horiz-adv-x="436" 
d="M5 433l46 21q20 8 42.5 15t42.5 7q21 0 35 -10t14 -37v-8.5t-1 -9.5q32 32 65.5 47t55.5 15q33 0 54 -12t33 -32.5t16.5 -47.5t4.5 -58q0 -27 -2.5 -55.5t-5.5 -57t-5.5 -55t-2.5 -48.5q0 -36 6.5 -64t26.5 -43q-14 -10 -29 -18q-14 -7 -30.5 -12t-34.5 -5q-24 0 -40.5 9
t-26 24.5t-14 36.5t-4.5 44q0 24 3 51t6.5 53.5t6.5 52t3 47.5q0 38 -13 61.5t-50 23.5q-14 0 -27 -9q-5 -42 -9 -94t-4 -104q0 -29 2 -56.5t7 -50.5t13.5 -40.5t20.5 -27.5q-57 -9 -96 -9q-53 0 -75.5 23t-22.5 82q0 27 7.5 74.5t7.5 108.5q0 38 -5.5 80.5t-20.5 87.5z
M373 666q19 -47 19 -78q0 -35 -19.5 -51t-47.5 -16q-16 0 -36.5 5t-43 11.5t-47 11.5t-48.5 5q-30 0 -58 -11.5t-52 -41.5q-4 5 -8 13q-7 14 -7 37q0 50 27 68.5t68 18.5q43 0 83.5 -3.5t63.5 -3.5q32 0 60 7t46 28z" />
    <glyph glyph-name="oacute" unicode="&#xf3;" horiz-adv-x="434" 
d="M435 318q3 -5 3 -11q0 -13 -11 -30t-31 -33q-3 -49 -18.5 -97.5t-42.5 -87.5t-64 -63t-83 -24q-53 0 -89.5 19.5t-59.5 51.5t-33.5 73t-10.5 85q0 48 10.5 94.5t29.5 83t43.5 59.5t53.5 23q3 0 10 -3t16 -7.5t18 -11t16 -13.5q12 18 25.5 29.5t27.5 11.5q35 0 61.5 -13
t45 -35.5t29.5 -53t14 -64.5q10 3 19.5 7.5zM192 64q17 0 29.5 12.5t21 33.5t14 47.5t7.5 55.5q-48 6 -71.5 29.5t-29.5 54.5q-11 -36 -16.5 -72t-5.5 -67q0 -42 11.5 -68t39.5 -26zM227 353q0 -15 8 -32.5t30 -28.5q-2 37 -8.5 62t-17.5 25q-5 0 -8.5 -7.5t-3.5 -18.5z
M326 708q38 -17 55 -35.5t17 -37.5q0 -23 -22.5 -44.5t-60.5 -38t-87 -26.5t-102 -10q-24 0 -32.5 6.5t-8.5 15.5q0 11 7 22q4 5 8 11q56 0 115 37t111 100z" />
    <glyph glyph-name="ocircumflex" unicode="&#xf4;" horiz-adv-x="434" 
d="M435 318q3 -5 3 -11q0 -13 -11 -30t-31 -33q-3 -49 -18.5 -97.5t-42.5 -87.5t-64 -63t-83 -24q-53 0 -89.5 19.5t-59.5 51.5t-33.5 73t-10.5 85q0 48 10.5 94.5t29.5 83t43.5 59.5t53.5 23q3 0 10 -3t16 -7.5t18 -11t16 -13.5q12 18 25.5 29.5t27.5 11.5q35 0 61.5 -13
t45 -35.5t29.5 -53t14 -64.5q10 3 19.5 7.5zM192 64q17 0 29.5 12.5t21 33.5t14 47.5t7.5 55.5q-48 6 -71.5 29.5t-29.5 54.5q-11 -36 -16.5 -72t-5.5 -67q0 -42 11.5 -68t39.5 -26zM227 353q0 -15 8 -32.5t30 -28.5q-2 37 -8.5 62t-17.5 25q-5 0 -8.5 -7.5t-3.5 -18.5z
M143 690l15 12t22.5 15.5t26.5 13t27 5.5q12 0 22.5 -6t18.5 -20l25 -46.5t23.5 -35t28.5 -22.5t41 -8q0 -5 1 -9q1 -5 1.5 -10t0.5 -11q0 -10 -2 -20.5t-7.5 -19t-16 -14t-27.5 -5.5q-23 0 -40.5 6t-33 16.5t-30.5 25l-32 30.5l-30.5 -27t-32 -25t-35.5 -18.5t-42 -7.5
q-31 0 -41.5 10t-10.5 22q0 7 2 13.5t4 11.5q3 6 7 12q26 10 43.5 20.5t30 23.5t22 29.5t19.5 38.5z" />
    <glyph glyph-name="odieresis" unicode="&#xf6;" horiz-adv-x="434" 
d="M435 318q3 -5 3 -11q0 -13 -11 -30t-31 -33q-3 -49 -18.5 -97.5t-42.5 -87.5t-64 -63t-83 -24q-53 0 -89.5 19.5t-59.5 51.5t-33.5 73t-10.5 85q0 48 10.5 94.5t29.5 83t43.5 59.5t53.5 23q3 0 10 -3t16 -7.5t18 -11t16 -13.5q12 18 25.5 29.5t27.5 11.5q35 0 61.5 -13
t45 -35.5t29.5 -53t14 -64.5q10 3 19.5 7.5zM192 64q17 0 29.5 12.5t21 33.5t14 47.5t7.5 55.5q-48 6 -71.5 29.5t-29.5 54.5q-11 -36 -16.5 -72t-5.5 -67q0 -42 11.5 -68t39.5 -26zM227 353q0 -15 8 -32.5t30 -28.5q-2 37 -8.5 62t-17.5 25q-5 0 -8.5 -7.5t-3.5 -18.5z
M103 490q-42 0 -61 24t-19 54q0 17 5.5 34.5t16 31t25.5 22t33 8.5q20 0 35 -7t25 -19t15 -27.5t5 -31.5q0 -17 -5 -32.5t-15.5 -28.5t-25.5 -20.5t-34 -7.5zM306 490q-42 0 -61 24t-19 54q0 17 5.5 34.5t16 31t25.5 22t33 8.5q20 0 35 -7t25 -19t15 -27.5t5 -31.5
q0 -17 -5 -32.5t-15.5 -28.5t-25.5 -20.5t-34 -7.5z" />
    <glyph glyph-name="ograve" unicode="&#xf2;" horiz-adv-x="434" 
d="M435 318q3 -5 3 -11q0 -13 -11 -30t-31 -33q-3 -49 -18.5 -97.5t-42.5 -87.5t-64 -63t-83 -24q-53 0 -89.5 19.5t-59.5 51.5t-33.5 73t-10.5 85q0 48 10.5 94.5t29.5 83t43.5 59.5t53.5 23q3 0 10 -3t16 -7.5t18 -11t16 -13.5q12 18 25.5 29.5t27.5 11.5q35 0 61.5 -13
t45 -35.5t29.5 -53t14 -64.5q10 3 19.5 7.5zM192 64q17 0 29.5 12.5t21 33.5t14 47.5t7.5 55.5q-48 6 -71.5 29.5t-29.5 54.5q-11 -36 -16.5 -72t-5.5 -67q0 -42 11.5 -68t39.5 -26zM227 353q0 -15 8 -32.5t30 -28.5q-2 37 -8.5 62t-17.5 25q-5 0 -8.5 -7.5t-3.5 -18.5z
M94 710q27 -33 53 -58.5t53 -42.5t56.5 -26.5t63.5 -9.5q3 -6 7 -11q3 -5 5.5 -11t2.5 -11q0 -9 -8.5 -15.5t-32.5 -6.5q-53 0 -100.5 7.5t-83 21t-56.5 33t-21 43.5q0 19 14.5 41t46.5 46z" />
    <glyph glyph-name="otilde" unicode="&#xf5;" horiz-adv-x="434" 
d="M435 318q3 -5 3 -11q0 -13 -11 -30t-31 -33q-3 -49 -18.5 -97.5t-42.5 -87.5t-64 -63t-83 -24q-53 0 -89.5 19.5t-59.5 51.5t-33.5 73t-10.5 85q0 48 10.5 94.5t29.5 83t43.5 59.5t53.5 23q3 0 10 -3t16 -7.5t18 -11t16 -13.5q12 18 25.5 29.5t27.5 11.5q35 0 61.5 -13
t45 -35.5t29.5 -53t14 -64.5q10 3 19.5 7.5zM192 64q17 0 29.5 12.5t21 33.5t14 47.5t7.5 55.5q-48 6 -71.5 29.5t-29.5 54.5q-11 -36 -16.5 -72t-5.5 -67q0 -42 11.5 -68t39.5 -26zM227 353q0 -15 8 -32.5t30 -28.5q-2 37 -8.5 62t-17.5 25q-5 0 -8.5 -7.5t-3.5 -18.5z
M371 666q19 -47 19 -78q0 -35 -19.5 -51t-47.5 -16q-16 0 -36.5 5t-43 11.5t-47 11.5t-48.5 5q-30 0 -58 -11.5t-52 -41.5q-4 5 -8 13q-7 14 -7 37q0 50 27 68.5t68 18.5q43 0 83.5 -3.5t63.5 -3.5q32 0 60 7t46 28z" />
    <glyph glyph-name="scaron" unicode="&#x161;" horiz-adv-x="337" 
d="M193 366q0 16 -9 23t-22 7q-19 0 -38 -13t-19 -33q0 -22 10.5 -36.5t26.5 -25t36 -19.5t39 -21q54 -32 77.5 -68t23.5 -71q0 -29 -15.5 -55t-43.5 -45.5t-66 -31t-84 -11.5q-64 0 -95 28t-31 70q0 43 30 87q16 -16 38.5 -24.5t43.5 -8.5q19 0 32 8t13 25q0 15 -21.5 33
l-47 41t-47 53.5t-21.5 71.5q0 34 17 60.5t44.5 44t61.5 26.5t67 9q26 0 50 -5.5t42.5 -17t29.5 -28t11 -38.5q0 -20 -10.5 -40t-31 -36.5t-50 -26.5t-68.5 -10l13 27q5 11 9.5 24.5t4.5 26.5zM313 754q20 0 32.5 -5t20 -13.5t10.5 -18.5t3 -20q0 -9 -1.5 -16.5t-3.5 -13.5
q-2 -7 -4 -13q-66 -23 -103 -46.5t-57 -42.5q-23 -23 -31 -43q-19 0 -53.5 8.5t-68.5 28.5t-59 53t-25 81q0 16 6.5 26t16 15.5t20.5 7t19 1.5q3 0 5 -0.5t4 -0.5h4q14 -33 32.5 -52t35.5 -28q20 -11 41 -13q23 29 49 52q22 20 50 36.5t57 16.5z" />
    <glyph glyph-name="uacute" unicode="&#xfa;" horiz-adv-x="435" 
d="M433 28q-1 -14 -8 -25q-6 -9 -18 -16.5t-33 -7.5q-34 0 -67.5 26.5t-53.5 89.5q-20 -67 -48.5 -99.5t-59.5 -32.5q-42 0 -69 21.5t-42.5 56.5t-21 79t-5.5 88q0 30 2 59t4.5 53.5t5 43t4.5 28.5q3 9 14 17q9 7 26.5 12.5t46.5 5.5q14 0 31.5 -1.5t38.5 -5.5
q-13 -54 -18.5 -99.5t-5.5 -81.5q0 -58 12 -89.5t30 -31.5q20 0 42 41q-2 16 -3 33.5t-1 37.5q0 39 3 75t7 65q4 33 10 63q2 11 21.5 17t45.5 6q28 0 54 -6.5t36 -20.5q-6 -7 -12 -30.5t-11 -56.5t-8.5 -72.5t-3.5 -78.5q0 -32 3 -61.5t9.5 -52t17 -36t25.5 -13.5zM336 714
q38 -17 55 -35.5t17 -37.5q0 -23 -22.5 -44.5t-60.5 -38t-87 -26.5t-102 -10q-24 0 -32.5 6.5t-8.5 15.5q0 11 7 22q4 5 8 11q56 0 115 37t111 100z" />
    <glyph glyph-name="ucircumflex" unicode="&#xfb;" horiz-adv-x="435" 
d="M433 28q-1 -14 -8 -25q-6 -9 -18 -16.5t-33 -7.5q-34 0 -67.5 26.5t-53.5 89.5q-20 -67 -48.5 -99.5t-59.5 -32.5q-42 0 -69 21.5t-42.5 56.5t-21 79t-5.5 88q0 30 2 59t4.5 53.5t5 43t4.5 28.5q3 9 14 17q9 7 26.5 12.5t46.5 5.5q14 0 31.5 -1.5t38.5 -5.5
q-13 -54 -18.5 -99.5t-5.5 -81.5q0 -58 12 -89.5t30 -31.5q20 0 42 41q-2 16 -3 33.5t-1 37.5q0 39 3 75t7 65q4 33 10 63q2 11 21.5 17t45.5 6q28 0 54 -6.5t36 -20.5q-6 -7 -12 -30.5t-11 -56.5t-8.5 -72.5t-3.5 -78.5q0 -32 3 -61.5t9.5 -52t17 -36t25.5 -13.5zM162 692
l15 12t22.5 15.5t26.5 13t27 5.5q12 0 22.5 -6t18.5 -20l25 -46.5t23.5 -35t28.5 -22.5t41 -8q0 -5 1 -9q1 -5 1.5 -10t0.5 -11q0 -10 -2 -20.5t-7.5 -19t-16 -14t-27.5 -5.5q-23 0 -40.5 6t-33 16.5t-30.5 25l-32 30.5l-30.5 -27t-32 -25t-35.5 -18.5t-42 -7.5
q-31 0 -41.5 10t-10.5 22q0 7 2 13.5t4 11.5q3 6 7 12q26 10 43.5 20.5t30 23.5t22 29.5t19.5 38.5z" />
    <glyph glyph-name="udieresis" unicode="&#xfc;" horiz-adv-x="435" 
d="M433 28q-1 -14 -8 -25q-6 -9 -18 -16.5t-33 -7.5q-34 0 -67.5 26.5t-53.5 89.5q-20 -67 -48.5 -99.5t-59.5 -32.5q-42 0 -69 21.5t-42.5 56.5t-21 79t-5.5 88q0 30 2 59t4.5 53.5t5 43t4.5 28.5q3 9 14 17q9 7 26.5 12.5t46.5 5.5q14 0 31.5 -1.5t38.5 -5.5
q-13 -54 -18.5 -99.5t-5.5 -81.5q0 -58 12 -89.5t30 -31.5q20 0 42 41q-2 16 -3 33.5t-1 37.5q0 39 3 75t7 65q4 33 10 63q2 11 21.5 17t45.5 6q28 0 54 -6.5t36 -20.5q-6 -7 -12 -30.5t-11 -56.5t-8.5 -72.5t-3.5 -78.5q0 -32 3 -61.5t9.5 -52t17 -36t25.5 -13.5zM108 488
q-42 0 -61 24t-19 54q0 17 5.5 34.5t16 31t25.5 22t33 8.5q20 0 35 -7t25 -19t15 -27.5t5 -31.5q0 -17 -5 -32.5t-15.5 -28.5t-25.5 -20.5t-34 -7.5zM311 488q-42 0 -61 24t-19 54q0 17 5.5 34.5t16 31t25.5 22t33 8.5q20 0 35 -7t25 -19t15 -27.5t5 -31.5q0 -17 -5 -32.5
t-15.5 -28.5t-25.5 -20.5t-34 -7.5z" />
    <glyph glyph-name="ugrave" unicode="&#xf9;" horiz-adv-x="435" 
d="M433 28q-1 -14 -8 -25q-6 -9 -18 -16.5t-33 -7.5q-34 0 -67.5 26.5t-53.5 89.5q-20 -67 -48.5 -99.5t-59.5 -32.5q-42 0 -69 21.5t-42.5 56.5t-21 79t-5.5 88q0 30 2 59t4.5 53.5t5 43t4.5 28.5q3 9 14 17q9 7 26.5 12.5t46.5 5.5q14 0 31.5 -1.5t38.5 -5.5
q-13 -54 -18.5 -99.5t-5.5 -81.5q0 -58 12 -89.5t30 -31.5q20 0 42 41q-2 16 -3 33.5t-1 37.5q0 39 3 75t7 65q4 33 10 63q2 11 21.5 17t45.5 6q28 0 54 -6.5t36 -20.5q-6 -7 -12 -30.5t-11 -56.5t-8.5 -72.5t-3.5 -78.5q0 -32 3 -61.5t9.5 -52t17 -36t25.5 -13.5zM148 714
q27 -33 53 -58.5t53 -42.5t56.5 -26.5t63.5 -9.5q3 -6 7 -11q3 -5 5.5 -11t2.5 -11q0 -9 -8.5 -15.5t-32.5 -6.5q-53 0 -100.5 7.5t-83 21t-56.5 33t-21 43.5q0 19 14.5 41t46.5 46z" />
    <glyph glyph-name="yacute" unicode="&#xfd;" horiz-adv-x="431" 
d="M239 413q19 6 39 11q17 4 37 7.5t39 3.5q23 0 39 -7.5t16 -27.5q0 -34 -3.5 -81t-8.5 -102.5l-11 -118t-11 -126.5q-4 -50 -30 -88t-64 -63.5t-82.5 -38.5t-85.5 -13q-26 0 -49 5.5t-40 16t-27 26.5t-10 38t19 41t62 38q3 -11 13.5 -24t25.5 -24.5t33 -19.5t36 -8
q16 0 31 8t26 27t18 51t7 79v84q-20 -66 -48.5 -98.5t-59.5 -32.5q-42 0 -69 21.5t-42.5 56.5t-21 79t-5.5 88q0 30 2 59t4.5 53.5t5 43t4.5 28.5q3 9 14 17q9 7 26.5 12.5t46.5 5.5q14 0 31.5 -1.5t38.5 -5.5q-13 -54 -18.5 -99.5t-5.5 -81.5q0 -58 12 -89.5t30 -31.5
q12 0 26.5 16.5t28.5 52.5q0 36 -1.5 71t-3.5 63.5t-5.5 49.5t-8.5 29zM329 680q38 -17 55 -35.5t17 -37.5q0 -23 -22.5 -44.5t-60.5 -38t-87 -26.5t-102 -10q-24 0 -32.5 6.5t-8.5 15.5q0 11 7 22q4 5 8 11q56 0 115 37t111 100z" />
    <glyph glyph-name="ydieresis" unicode="&#xff;" horiz-adv-x="431" 
d="M239 413q19 6 39 11q17 4 37 7.5t39 3.5q23 0 39 -7.5t16 -27.5q0 -34 -3.5 -81t-8.5 -102.5l-11 -118t-11 -126.5q-4 -50 -30 -88t-64 -63.5t-82.5 -38.5t-85.5 -13q-26 0 -49 5.5t-40 16t-27 26.5t-10 38t19 41t62 38q3 -11 13.5 -24t25.5 -24.5t33 -19.5t36 -8
q16 0 31 8t26 27t18 51t7 79v84q-20 -66 -48.5 -98.5t-59.5 -32.5q-42 0 -69 21.5t-42.5 56.5t-21 79t-5.5 88q0 30 2 59t4.5 53.5t5 43t4.5 28.5q3 9 14 17q9 7 26.5 12.5t46.5 5.5q14 0 31.5 -1.5t38.5 -5.5q-13 -54 -18.5 -99.5t-5.5 -81.5q0 -58 12 -89.5t30 -31.5
q12 0 26.5 16.5t28.5 52.5q0 36 -1.5 71t-3.5 63.5t-5.5 49.5t-8.5 29zM125 474q-42 0 -61 24t-19 54q0 17 5.5 34.5t16 31t25.5 22t33 8.5q20 0 35 -7t25 -19t15 -27.5t5 -31.5q0 -17 -5 -32.5t-15.5 -28.5t-25.5 -20.5t-34 -7.5zM328 474q-42 0 -61 24t-19 54
q0 17 5.5 34.5t16 31t25.5 22t33 8.5q20 0 35 -7t25 -19t15 -27.5t5 -31.5q0 -17 -5 -32.5t-15.5 -28.5t-25.5 -20.5t-34 -7.5z" />
    <glyph glyph-name="zcaron" unicode="&#x17e;" horiz-adv-x="413" 
d="M391 310q-5 0 -7 1q-68 -27 -106.5 -56.5t-58.5 -54.5q-23 -29 -30 -57h23q58 0 95 -3.5t58 -10.5t29 -17t8 -22q0 -17 -9.5 -38.5t-16.5 -47.5q-23 2 -45 3.5t-46 1.5q-48 0 -106 -8.5t-139 -34.5q-10 10 -18 24q-7 12 -12.5 29t-5.5 38q0 24 11.5 54t42 63.5t83.5 69.5
t137 73q-64 0 -124 -7.5t-101 -30.5q-26 27 -38 49t-12 41q0 30 25.5 50t63.5 32t83.5 17t85.5 5q36 0 65.5 -2.5t50.5 -13t32.5 -30.5t11.5 -54q0 -29 -6.5 -42.5t-20.5 -20.5h-3zM371 735q20 0 32.5 -5t20 -13.5t10.5 -18.5t3 -20q0 -9 -1.5 -16.5t-3.5 -13.5
q-2 -7 -4 -13q-66 -23 -103 -46.5t-57 -42.5q-23 -23 -31 -43q-19 0 -53.5 8.5t-68.5 28.5t-59 53t-25 81q0 16 6.5 26t16 15.5t20.5 7t19 1.5q3 0 5 -0.5t4 -0.5h4q14 -33 32.5 -52t35.5 -28q20 -11 41 -13q23 29 49 52q22 20 50 36.5t57 16.5z" />
    <glyph glyph-name="ff" unicode="&#xfb00;" horiz-adv-x="520" 
d="M464 331q3 0 8.5 -6.5t11 -16t10 -21.5t4.5 -23q0 -15 -11 -26t-40 -11h-42q2 -61 5.5 -121.5t7 -114.5t6 -99.5t2.5 -76.5q0 -29 -17 -39.5t-42 -10.5q-22 0 -45 5t-43 12q-23 8 -46 18q14 27 23 65.5t14.5 84t7.5 96.5t2 102q0 26 -0.5 42t-0.5 35q-28 0 -55.5 -0.5
t-53.5 -1.5q2 -57 5 -113t6 -106.5l5.5 -93t2.5 -72.5q0 -27 -14 -37t-35 -10q-20 0 -42.5 6.5t-42.5 14.5q-23 10 -46 22q11 25 18 59.5t11.5 75t6.5 85t2 89.5v25.5t-0.5 19t-0.5 16v17.5q-8 -1 -14 -1h-11h-9q-6 0 -13.5 4t-14 11t-11.5 16.5t-5 20.5t6 23l69 3
q-2 43 -4.5 81l-4.5 68t-3.5 50.5t-1.5 28.5q0 44 29 66.5t73 30.5q14 9 35 17t47 8q40 0 65.5 -11.5t39.5 -28.5q21 10 47 15q14 9 35 17t47 8q31 0 54 -7t38 -19t22 -27t7 -31q0 -18 -8 -35t-23.5 -31t-37.5 -22.5t-50 -8.5q1 5 2 11q1 5 2 12.5t1 15.5q0 16 -4 33.5
t-16 32.5q-17 -42 -23.5 -108.5t-6.5 -144.5q22 3 37 5.5t23 6.5zM169 303l107 6q-2 51 -5 94l-5 73q-23 -9 -51 -9q1 5 2 11q1 5 2 12.5t1 15.5q0 16 -4.5 33.5t-16.5 33.5q-17 -44 -23.5 -112.5t-6.5 -148.5v-9z" />
    <glyph glyph-name="ffi" unicode="&#xfb03;" horiz-adv-x="711" 
d="M213 648q41 0 67 -12t40 -30q32 16 74.5 24.5t85.5 8.5q36 0 69.5 -6t60 -18.5t42 -31.5t15.5 -45q0 -16 -8 -28t-20.5 -20.5t-29 -12.5t-32.5 -4q-31 0 -56 14t-25 42q0 14 7 23.5t16 15.5q11 7 24 11q0 5 -13.5 16t-33.5 11q-15 0 -32 -11.5t-31 -43.5t-24.5 -88
t-12.5 -145q25 3 42.5 6t25.5 7q3 0 8.5 -6.5t11 -16t10 -21.5t4.5 -23q0 -15 -11 -26t-40 -11h-51q1 -62 4.5 -123.5t7 -116.5l6.5 -99.5t3 -72.5q0 -27 -14 -37t-35 -10q-20 0 -42.5 6.5t-42.5 14.5q-23 10 -46 22q21 50 29 131.5t8 173.5q0 27 -0.5 54.5t-1.5 54.5
q-26 0 -51.5 -0.5t-50.5 -1.5q2 -57 5 -113t6 -106.5l5.5 -93t2.5 -72.5q0 -27 -14 -37t-35 -10q-20 0 -42.5 6.5t-42.5 14.5q-23 10 -46 22q11 25 18 59.5t11.5 75t6.5 85t2 89.5v28.5t-0.5 18.5t-0.5 14.5v16.5q-8 -1 -14 -1h-11h-9q-6 0 -13.5 4t-14 11t-11.5 16.5
t-5 20.5t6 23l69 3q-2 43 -4.5 81l-4.5 68t-3.5 50.5t-1.5 28.5q0 44 29 66.5t73 30.5q14 9 35 17t47 8zM507 408q20 8 41 15q18 5 39 10t39 5q27 0 37 -15t10 -41q0 -20 -4.5 -45.5t-10 -53t-10 -56t-4.5 -55.5q0 -44 12 -87t47 -85q-18 -7 -41 -12q-20 -5 -47 -8t-59 -3
q-27 0 -36.5 21.5t-9.5 56.5q0 45 8 105t8 122q0 33 -4 65t-15 61zM268 309q-2 50 -5.5 92t-5.5 72q-20 -6 -42 -6q1 5 2 11q1 5 2 12.5t1 15.5q0 16 -4.5 33.5t-16.5 33.5q-17 -44 -23.5 -113.5t-6.5 -156.5z" />
    <glyph glyph-name="A.alt" horiz-adv-x="724" 
d="M-73 306q34 2 64.5 3.5t59.5 3.5q17 62 40.5 127t49.5 126t54 115t55 94t51 63.5t43 23.5q12 0 34.5 -2t45.5 -9t41.5 -19t22.5 -32l41 -214t45 -207.5t53 -187t66 -153.5t82.5 -106.5t102.5 -45.5q-95 -105 -177 -105q-80 0 -143.5 98.5t-111.5 293.5q-69 1 -134 3
t-122 5q-19 -63 -32 -114t-19 -86q-66 5 -96.5 35t-30.5 73q0 22 2.5 47.5t7.5 53.5q-5 0 -8.5 0.5t-5.5 0.5q-3 0 -5 1q-11 0 -26 4t-28.5 13t-23 23t-9.5 33q0 20 11 41zM363 664q-33 -77 -65 -163.5l-61 -171.5q57 6 98 13.5t73 18.5q-23 136 -39 303h-6z" />
    <glyph glyph-name="A.end" horiz-adv-x="702" 
d="M450 647l46 21q20 8 42.5 15t42.5 7q21 0 35 -10t14 -37q0 -63 -5.5 -141.5t-5.5 -159.5q0 -54 4.5 -106t17 -96t34 -77.5t55.5 -52.5q-24 -19 -49 -33q-21 -13 -45.5 -23t-44.5 -10q-30 0 -50 19t-33 52t-20 77.5t-10 94.5q-47 -113 -104 -170.5t-123 -57.5
q-63 0 -110 28.5t-78.5 77t-47 112.5t-15.5 136q0 101 22.5 186.5t59.5 154.5t85 121.5t99.5 88t102.5 53.5t94 18q56 0 91 -30t35 -91q0 -40 -37 -102q-33 9 -66 9q-45 0 -86.5 -20.5t-76.5 -55t-63 -80t-48 -95t-30.5 -100.5t-10.5 -97q0 -36 7.5 -67.5t22.5 -54.5
t38.5 -36t56.5 -13q29 0 59 23.5t55.5 64.5t43 95.5t21.5 116.5q0 42 -0.5 81t-3 71t-7.5 56t-14 37z" />
    <glyph glyph-name="A.swsh" horiz-adv-x="724" 
d="M701 -219q-90 0 -159.5 124.5t-117.5 368.5q-63 -6 -118.5 -25.5t-108.5 -44.5q-21 -69 -36 -127t-22 -96q-66 5 -96.5 35t-30.5 73v11t1 13q-41 -18 -81 -29.5t-82 -11.5q-80 0 -117.5 28.5t-37.5 72.5q0 34 21 72.5t63 75.5q52 -35 103 -49t101 -14q14 0 27 1t27 3
q16 64 39 133.5t50.5 136t57.5 126.5t58.5 105.5t55 72t46.5 26.5q12 0 34.5 -2t45.5 -9t41.5 -19t22.5 -32l19 -94l27 -136.5t27 -126.5q55 -3 76.5 -26t21.5 -52q0 -17 -5 -33.5t-13 -30.5t-17.5 -25t-18.5 -15q22 -79 48.5 -144t59.5 -113t73.5 -78t91.5 -40
q-95 -105 -177 -105zM363 664q-34 -78 -66.5 -165.5t-61.5 -174.5q45 20 86 41t81 38q-20 120 -33 261h-6z" />
    <glyph glyph-name="Aacute.alt" horiz-adv-x="724" 
d="M459 1081q38 -17 55 -35.5t17 -37.5q0 -23 -22.5 -44.5t-60.5 -38t-87 -26.5t-102 -10q-24 0 -32.5 6.5t-8.5 15.5q0 11 7 22q4 5 8 11q56 0 115 37t111 100zM-73 306q34 2 64.5 3.5t59.5 3.5q17 62 40.5 127t49.5 126t54 115t55 94t51 63.5t43 23.5q12 0 34.5 -2
t45.5 -9t41.5 -19t22.5 -32l41 -214t45 -207.5t53 -187t66 -153.5t82.5 -106.5t102.5 -45.5q-95 -105 -177 -105q-80 0 -143.5 98.5t-111.5 293.5q-69 1 -134 3t-122 5q-19 -63 -32 -114t-19 -86q-66 5 -96.5 35t-30.5 73q0 22 2.5 47.5t7.5 53.5q-5 0 -8.5 0.5t-5.5 0.5
q-3 0 -5 1q-11 0 -26 4t-28.5 13t-23 23t-9.5 33q0 20 11 41zM363 664q-33 -77 -65 -163.5l-61 -171.5q57 6 98 13.5t73 18.5q-23 136 -39 303h-6z" />
    <glyph glyph-name="Aacute.end" horiz-adv-x="702" 
d="M476 1148q38 -17 55 -35.5t17 -37.5q0 -23 -22.5 -44.5t-60.5 -38t-87 -26.5t-102 -10q-24 0 -32.5 6.5t-8.5 15.5q0 11 7 22q4 5 8 11q56 0 115 37t111 100zM450 647l46 21q20 8 42.5 15t42.5 7q21 0 35 -10t14 -37q0 -63 -5.5 -141.5t-5.5 -159.5q0 -54 4.5 -106
t17 -96t34 -77.5t55.5 -52.5q-24 -19 -49 -33q-21 -13 -45.5 -23t-44.5 -10q-30 0 -50 19t-33 52t-20 77.5t-10 94.5q-47 -113 -104 -170.5t-123 -57.5q-63 0 -110 28.5t-78.5 77t-47 112.5t-15.5 136q0 101 22.5 186.5t59.5 154.5t85 121.5t99.5 88t102.5 53.5t94 18
q56 0 91 -30t35 -91q0 -40 -37 -102q-33 9 -66 9q-45 0 -86.5 -20.5t-76.5 -55t-63 -80t-48 -95t-30.5 -100.5t-10.5 -97q0 -36 7.5 -67.5t22.5 -54.5t38.5 -36t56.5 -13q29 0 59 23.5t55.5 64.5t43 95.5t21.5 116.5q0 42 -0.5 81t-3 71t-7.5 56t-14 37z" />
    <glyph glyph-name="Aacute.swsh" horiz-adv-x="724" 
d="M459 1081q38 -17 55 -35.5t17 -37.5q0 -23 -22.5 -44.5t-60.5 -38t-87 -26.5t-102 -10q-24 0 -32.5 6.5t-8.5 15.5q0 11 7 22q4 5 8 11q56 0 115 37t111 100zM701 -219q-90 0 -159.5 124.5t-117.5 368.5q-63 -6 -118.5 -25.5t-108.5 -44.5q-21 -69 -36 -127t-22 -96
q-66 5 -96.5 35t-30.5 73v11t1 13q-41 -18 -81 -29.5t-82 -11.5q-80 0 -117.5 28.5t-37.5 72.5q0 34 21 72.5t63 75.5q52 -35 103 -49t101 -14q14 0 27 1t27 3q16 64 39 133.5t50.5 136t57.5 126.5t58.5 105.5t55 72t46.5 26.5q12 0 34.5 -2t45.5 -9t41.5 -19t22.5 -32
l19 -94l27 -136.5t27 -126.5q55 -3 76.5 -26t21.5 -52q0 -17 -5 -33.5t-13 -30.5t-17.5 -25t-18.5 -15q22 -79 48.5 -144t59.5 -113t73.5 -78t91.5 -40q-95 -105 -177 -105zM363 664q-34 -78 -66.5 -165.5t-61.5 -174.5q45 20 86 41t81 38q-20 120 -33 261h-6z" />
    <glyph glyph-name="Acircumflex.alt" horiz-adv-x="724" 
d="M308 1046l15 12t22.5 15.5t26.5 13t27 5.5q12 0 22.5 -6t18.5 -20l25 -46.5t23.5 -35t28.5 -22.5t41 -8q0 -5 1 -9q1 -5 1.5 -10t0.5 -11q0 -10 -2 -20.5t-7.5 -19t-16 -14t-27.5 -5.5q-23 0 -40.5 6t-33 16.5t-30.5 25l-32 30.5l-30.5 -27t-32 -25t-35.5 -18.5t-42 -7.5
q-31 0 -41.5 10t-10.5 22q0 7 2 13.5t4 11.5q3 6 7 12q26 10 43.5 20.5t30 23.5t22 29.5t19.5 38.5zM-73 306q34 2 64.5 3.5t59.5 3.5q17 62 40.5 127t49.5 126t54 115t55 94t51 63.5t43 23.5q12 0 34.5 -2t45.5 -9t41.5 -19t22.5 -32l41 -214t45 -207.5t53 -187t66 -153.5
t82.5 -106.5t102.5 -45.5q-95 -105 -177 -105q-80 0 -143.5 98.5t-111.5 293.5q-69 1 -134 3t-122 5q-19 -63 -32 -114t-19 -86q-66 5 -96.5 35t-30.5 73q0 22 2.5 47.5t7.5 53.5q-5 0 -8.5 0.5t-5.5 0.5q-3 0 -5 1q-11 0 -26 4t-28.5 13t-23 23t-9.5 33q0 20 11 41z
M363 664q-33 -77 -65 -163.5l-61 -171.5q57 6 98 13.5t73 18.5q-23 136 -39 303h-6z" />
    <glyph glyph-name="Acircumflex.end" horiz-adv-x="702" 
d="M334 1140l15 12t22.5 15.5t26.5 13t27 5.5q12 0 22.5 -6t18.5 -20l25 -46.5t23.5 -35t28.5 -22.5t41 -8q0 -5 1 -9q1 -5 1.5 -10t0.5 -11q0 -10 -2 -20.5t-7.5 -19t-16 -14t-27.5 -5.5q-23 0 -40.5 6t-33 16.5t-30.5 25l-32 30.5l-30.5 -27t-32 -25t-35.5 -18.5t-42 -7.5
q-31 0 -41.5 10t-10.5 22q0 7 2 13.5t4 11.5q3 6 7 12q26 10 43.5 20.5t30 23.5t22 29.5t19.5 38.5zM450 647l46 21q20 8 42.5 15t42.5 7q21 0 35 -10t14 -37q0 -63 -5.5 -141.5t-5.5 -159.5q0 -54 4.5 -106t17 -96t34 -77.5t55.5 -52.5q-24 -19 -49 -33q-21 -13 -45.5 -23
t-44.5 -10q-30 0 -50 19t-33 52t-20 77.5t-10 94.5q-47 -113 -104 -170.5t-123 -57.5q-63 0 -110 28.5t-78.5 77t-47 112.5t-15.5 136q0 101 22.5 186.5t59.5 154.5t85 121.5t99.5 88t102.5 53.5t94 18q56 0 91 -30t35 -91q0 -40 -37 -102q-33 9 -66 9q-45 0 -86.5 -20.5
t-76.5 -55t-63 -80t-48 -95t-30.5 -100.5t-10.5 -97q0 -36 7.5 -67.5t22.5 -54.5t38.5 -36t56.5 -13q29 0 59 23.5t55.5 64.5t43 95.5t21.5 116.5q0 42 -0.5 81t-3 71t-7.5 56t-14 37z" />
    <glyph glyph-name="Acircumflex.swsh" horiz-adv-x="724" 
d="M308 1046l15 12t22.5 15.5t26.5 13t27 5.5q12 0 22.5 -6t18.5 -20l25 -46.5t23.5 -35t28.5 -22.5t41 -8q0 -5 1 -9q1 -5 1.5 -10t0.5 -11q0 -10 -2 -20.5t-7.5 -19t-16 -14t-27.5 -5.5q-23 0 -40.5 6t-33 16.5t-30.5 25l-32 30.5l-30.5 -27t-32 -25t-35.5 -18.5t-42 -7.5
q-31 0 -41.5 10t-10.5 22q0 7 2 13.5t4 11.5q3 6 7 12q26 10 43.5 20.5t30 23.5t22 29.5t19.5 38.5zM701 -219q-90 0 -159.5 124.5t-117.5 368.5q-63 -6 -118.5 -25.5t-108.5 -44.5q-21 -69 -36 -127t-22 -96q-66 5 -96.5 35t-30.5 73v11t1 13q-41 -18 -81 -29.5t-82 -11.5
q-80 0 -117.5 28.5t-37.5 72.5q0 34 21 72.5t63 75.5q52 -35 103 -49t101 -14q14 0 27 1t27 3q16 64 39 133.5t50.5 136t57.5 126.5t58.5 105.5t55 72t46.5 26.5q12 0 34.5 -2t45.5 -9t41.5 -19t22.5 -32l19 -94l27 -136.5t27 -126.5q55 -3 76.5 -26t21.5 -52
q0 -17 -5 -33.5t-13 -30.5t-17.5 -25t-18.5 -15q22 -79 48.5 -144t59.5 -113t73.5 -78t91.5 -40q-95 -105 -177 -105zM363 664q-34 -78 -66.5 -165.5t-61.5 -174.5q45 20 86 41t81 38q-20 120 -33 261h-6z" />
    <glyph glyph-name="Adieresis.alt" horiz-adv-x="724" 
d="M257 889q-42 0 -61 24t-19 54q0 17 5.5 34.5t16 31t25.5 22t33 8.5q20 0 35 -7t25 -19t15 -27.5t5 -31.5q0 -17 -5 -32.5t-15.5 -28.5t-25.5 -20.5t-34 -7.5zM460 889q-42 0 -61 24t-19 54q0 17 5.5 34.5t16 31t25.5 22t33 8.5q20 0 35 -7t25 -19t15 -27.5t5 -31.5
q0 -17 -5 -32.5t-15.5 -28.5t-25.5 -20.5t-34 -7.5zM-73 306q34 2 64.5 3.5t59.5 3.5q17 62 40.5 127t49.5 126t54 115t55 94t51 63.5t43 23.5q12 0 34.5 -2t45.5 -9t41.5 -19t22.5 -32l41 -214t45 -207.5t53 -187t66 -153.5t82.5 -106.5t102.5 -45.5q-95 -105 -177 -105
q-80 0 -143.5 98.5t-111.5 293.5q-69 1 -134 3t-122 5q-19 -63 -32 -114t-19 -86q-66 5 -96.5 35t-30.5 73q0 22 2.5 47.5t7.5 53.5q-5 0 -8.5 0.5t-5.5 0.5q-3 0 -5 1q-11 0 -26 4t-28.5 13t-23 23t-9.5 33q0 20 11 41zM363 664q-33 -77 -65 -163.5l-61 -171.5
q57 6 98 13.5t73 18.5q-23 136 -39 303h-6z" />
    <glyph glyph-name="Adieresis.end" horiz-adv-x="702" 
d="M302 955q-42 0 -61 24t-19 54q0 17 5.5 34.5t16 31t25.5 22t33 8.5q20 0 35 -7t25 -19t15 -27.5t5 -31.5q0 -17 -5 -32.5t-15.5 -28.5t-25.5 -20.5t-34 -7.5zM505 955q-42 0 -61 24t-19 54q0 17 5.5 34.5t16 31t25.5 22t33 8.5q20 0 35 -7t25 -19t15 -27.5t5 -31.5
q0 -17 -5 -32.5t-15.5 -28.5t-25.5 -20.5t-34 -7.5zM450 647l46 21q20 8 42.5 15t42.5 7q21 0 35 -10t14 -37q0 -63 -5.5 -141.5t-5.5 -159.5q0 -54 4.5 -106t17 -96t34 -77.5t55.5 -52.5q-24 -19 -49 -33q-21 -13 -45.5 -23t-44.5 -10q-30 0 -50 19t-33 52t-20 77.5
t-10 94.5q-47 -113 -104 -170.5t-123 -57.5q-63 0 -110 28.5t-78.5 77t-47 112.5t-15.5 136q0 101 22.5 186.5t59.5 154.5t85 121.5t99.5 88t102.5 53.5t94 18q56 0 91 -30t35 -91q0 -40 -37 -102q-33 9 -66 9q-45 0 -86.5 -20.5t-76.5 -55t-63 -80t-48 -95t-30.5 -100.5
t-10.5 -97q0 -36 7.5 -67.5t22.5 -54.5t38.5 -36t56.5 -13q29 0 59 23.5t55.5 64.5t43 95.5t21.5 116.5q0 42 -0.5 81t-3 71t-7.5 56t-14 37z" />
    <glyph glyph-name="Adieresis.swsh" horiz-adv-x="724" 
d="M257 889q-42 0 -61 24t-19 54q0 17 5.5 34.5t16 31t25.5 22t33 8.5q20 0 35 -7t25 -19t15 -27.5t5 -31.5q0 -17 -5 -32.5t-15.5 -28.5t-25.5 -20.5t-34 -7.5zM460 889q-42 0 -61 24t-19 54q0 17 5.5 34.5t16 31t25.5 22t33 8.5q20 0 35 -7t25 -19t15 -27.5t5 -31.5
q0 -17 -5 -32.5t-15.5 -28.5t-25.5 -20.5t-34 -7.5zM701 -219q-90 0 -159.5 124.5t-117.5 368.5q-63 -6 -118.5 -25.5t-108.5 -44.5q-21 -69 -36 -127t-22 -96q-66 5 -96.5 35t-30.5 73v11t1 13q-41 -18 -81 -29.5t-82 -11.5q-80 0 -117.5 28.5t-37.5 72.5q0 34 21 72.5
t63 75.5q52 -35 103 -49t101 -14q14 0 27 1t27 3q16 64 39 133.5t50.5 136t57.5 126.5t58.5 105.5t55 72t46.5 26.5q12 0 34.5 -2t45.5 -9t41.5 -19t22.5 -32l19 -94l27 -136.5t27 -126.5q55 -3 76.5 -26t21.5 -52q0 -17 -5 -33.5t-13 -30.5t-17.5 -25t-18.5 -15
q22 -79 48.5 -144t59.5 -113t73.5 -78t91.5 -40q-95 -105 -177 -105zM363 664q-34 -78 -66.5 -165.5t-61.5 -174.5q45 20 86 41t81 38q-20 120 -33 261h-6z" />
    <glyph glyph-name="Agrave.alt" horiz-adv-x="724" 
d="M264 1078q27 -33 53 -58.5t53 -42.5t56.5 -26.5t63.5 -9.5q3 -6 7 -11q3 -5 5.5 -11t2.5 -11q0 -9 -8.5 -15.5t-32.5 -6.5q-53 0 -100.5 7.5t-83 21t-56.5 33t-21 43.5q0 19 14.5 41t46.5 46zM-73 306q34 2 64.5 3.5t59.5 3.5q17 62 40.5 127t49.5 126t54 115t55 94
t51 63.5t43 23.5q12 0 34.5 -2t45.5 -9t41.5 -19t22.5 -32l41 -214t45 -207.5t53 -187t66 -153.5t82.5 -106.5t102.5 -45.5q-95 -105 -177 -105q-80 0 -143.5 98.5t-111.5 293.5q-69 1 -134 3t-122 5q-19 -63 -32 -114t-19 -86q-66 5 -96.5 35t-30.5 73q0 22 2.5 47.5
t7.5 53.5q-5 0 -8.5 0.5t-5.5 0.5q-3 0 -5 1q-11 0 -26 4t-28.5 13t-23 23t-9.5 33q0 20 11 41zM363 664q-33 -77 -65 -163.5l-61 -171.5q57 6 98 13.5t73 18.5q-23 136 -39 303h-6z" />
    <glyph glyph-name="Agrave.end" horiz-adv-x="702" 
d="M289 1175q27 -33 53 -58.5t53 -42.5t56.5 -26.5t63.5 -9.5q3 -6 7 -11q3 -5 5.5 -11t2.5 -11q0 -9 -8.5 -15.5t-32.5 -6.5q-53 0 -100.5 7.5t-83 21t-56.5 33t-21 43.5q0 19 14.5 41t46.5 46zM450 647l46 21q20 8 42.5 15t42.5 7q21 0 35 -10t14 -37q0 -63 -5.5 -141.5
t-5.5 -159.5q0 -54 4.5 -106t17 -96t34 -77.5t55.5 -52.5q-24 -19 -49 -33q-21 -13 -45.5 -23t-44.5 -10q-30 0 -50 19t-33 52t-20 77.5t-10 94.5q-47 -113 -104 -170.5t-123 -57.5q-63 0 -110 28.5t-78.5 77t-47 112.5t-15.5 136q0 101 22.5 186.5t59.5 154.5t85 121.5
t99.5 88t102.5 53.5t94 18q56 0 91 -30t35 -91q0 -40 -37 -102q-33 9 -66 9q-45 0 -86.5 -20.5t-76.5 -55t-63 -80t-48 -95t-30.5 -100.5t-10.5 -97q0 -36 7.5 -67.5t22.5 -54.5t38.5 -36t56.5 -13q29 0 59 23.5t55.5 64.5t43 95.5t21.5 116.5q0 42 -0.5 81t-3 71t-7.5 56
t-14 37z" />
    <glyph glyph-name="Agrave.swsh" horiz-adv-x="724" 
d="M264 1078q27 -33 53 -58.5t53 -42.5t56.5 -26.5t63.5 -9.5q3 -6 7 -11q3 -5 5.5 -11t2.5 -11q0 -9 -8.5 -15.5t-32.5 -6.5q-53 0 -100.5 7.5t-83 21t-56.5 33t-21 43.5q0 19 14.5 41t46.5 46zM701 -219q-90 0 -159.5 124.5t-117.5 368.5q-63 -6 -118.5 -25.5
t-108.5 -44.5q-21 -69 -36 -127t-22 -96q-66 5 -96.5 35t-30.5 73v11t1 13q-41 -18 -81 -29.5t-82 -11.5q-80 0 -117.5 28.5t-37.5 72.5q0 34 21 72.5t63 75.5q52 -35 103 -49t101 -14q14 0 27 1t27 3q16 64 39 133.5t50.5 136t57.5 126.5t58.5 105.5t55 72t46.5 26.5
q12 0 34.5 -2t45.5 -9t41.5 -19t22.5 -32l19 -94l27 -136.5t27 -126.5q55 -3 76.5 -26t21.5 -52q0 -17 -5 -33.5t-13 -30.5t-17.5 -25t-18.5 -15q22 -79 48.5 -144t59.5 -113t73.5 -78t91.5 -40q-95 -105 -177 -105zM363 664q-34 -78 -66.5 -165.5t-61.5 -174.5q45 20 86 41
t81 38q-20 120 -33 261h-6z" />
    <glyph glyph-name="Aring.alt" horiz-adv-x="724" 
d="M384 1036q-13 0 -20.5 -17t-7.5 -37t8.5 -35.5t28.5 -15.5q17 0 24.5 12t7.5 29q0 22 -11 43t-30 21zM409 1081q44 0 64.5 -26t20.5 -59q0 -20 -7 -39t-21 -35t-34.5 -25.5t-47.5 -9.5q-52 0 -75.5 24.5t-23.5 56.5q0 20 8.5 40t24.5 36.5t39 26.5t52 10zM-73 306
q34 2 64.5 3.5t59.5 3.5q17 62 40.5 127t49.5 126t54 115t55 94t51 63.5t43 23.5q12 0 34.5 -2t45.5 -9t41.5 -19t22.5 -32l41 -214t45 -207.5t53 -187t66 -153.5t82.5 -106.5t102.5 -45.5q-95 -105 -177 -105q-80 0 -143.5 98.5t-111.5 293.5q-69 1 -134 3t-122 5
q-19 -63 -32 -114t-19 -86q-66 5 -96.5 35t-30.5 73q0 22 2.5 47.5t7.5 53.5q-5 0 -8.5 0.5t-5.5 0.5q-3 0 -5 1q-11 0 -26 4t-28.5 13t-23 23t-9.5 33q0 20 11 41zM363 664q-33 -77 -65 -163.5l-61 -171.5q57 6 98 13.5t73 18.5q-23 136 -39 303h-6z" />
    <glyph glyph-name="Aring.end" horiz-adv-x="702" 
d="M414 1116q-13 0 -20.5 -17t-7.5 -37t8.5 -35.5t28.5 -15.5q17 0 24.5 12t7.5 29q0 22 -11 43t-30 21zM439 1161q44 0 64.5 -26t20.5 -59q0 -20 -7 -39t-21 -35t-34.5 -25.5t-47.5 -9.5q-52 0 -75.5 24.5t-23.5 56.5q0 20 8.5 40t24.5 36.5t39 26.5t52 10zM450 647l46 21
q20 8 42.5 15t42.5 7q21 0 35 -10t14 -37q0 -63 -5.5 -141.5t-5.5 -159.5q0 -54 4.5 -106t17 -96t34 -77.5t55.5 -52.5q-24 -19 -49 -33q-21 -13 -45.5 -23t-44.5 -10q-30 0 -50 19t-33 52t-20 77.5t-10 94.5q-47 -113 -104 -170.5t-123 -57.5q-63 0 -110 28.5t-78.5 77
t-47 112.5t-15.5 136q0 101 22.5 186.5t59.5 154.5t85 121.5t99.5 88t102.5 53.5t94 18q56 0 91 -30t35 -91q0 -40 -37 -102q-33 9 -66 9q-45 0 -86.5 -20.5t-76.5 -55t-63 -80t-48 -95t-30.5 -100.5t-10.5 -97q0 -36 7.5 -67.5t22.5 -54.5t38.5 -36t56.5 -13q29 0 59 23.5
t55.5 64.5t43 95.5t21.5 116.5q0 42 -0.5 81t-3 71t-7.5 56t-14 37z" />
    <glyph glyph-name="Aring.swsh" horiz-adv-x="724" 
d="M384 1036q-13 0 -20.5 -17t-7.5 -37t8.5 -35.5t28.5 -15.5q17 0 24.5 12t7.5 29q0 22 -11 43t-30 21zM409 1081q44 0 64.5 -26t20.5 -59q0 -20 -7 -39t-21 -35t-34.5 -25.5t-47.5 -9.5q-52 0 -75.5 24.5t-23.5 56.5q0 20 8.5 40t24.5 36.5t39 26.5t52 10zM701 -219
q-90 0 -159.5 124.5t-117.5 368.5q-63 -6 -118.5 -25.5t-108.5 -44.5q-21 -69 -36 -127t-22 -96q-66 5 -96.5 35t-30.5 73v11t1 13q-41 -18 -81 -29.5t-82 -11.5q-80 0 -117.5 28.5t-37.5 72.5q0 34 21 72.5t63 75.5q52 -35 103 -49t101 -14q14 0 27 1t27 3q16 64 39 133.5
t50.5 136t57.5 126.5t58.5 105.5t55 72t46.5 26.5q12 0 34.5 -2t45.5 -9t41.5 -19t22.5 -32l19 -94l27 -136.5t27 -126.5q55 -3 76.5 -26t21.5 -52q0 -17 -5 -33.5t-13 -30.5t-17.5 -25t-18.5 -15q22 -79 48.5 -144t59.5 -113t73.5 -78t91.5 -40q-95 -105 -177 -105z
M363 664q-34 -78 -66.5 -165.5t-61.5 -174.5q45 20 86 41t81 38q-20 120 -33 261h-6z" />
    <glyph glyph-name="Atilde.alt" horiz-adv-x="724" 
d="M530 1041q19 -47 19 -78q0 -35 -19.5 -51t-47.5 -16q-16 0 -36.5 5t-43 11.5t-47 11.5t-48.5 5q-30 0 -58 -11.5t-52 -41.5q-4 5 -8 13q-7 14 -7 37q0 50 27 68.5t68 18.5q43 0 83.5 -3.5t63.5 -3.5q32 0 60 7t46 28zM-73 306q34 2 64.5 3.5t59.5 3.5q17 62 40.5 127
t49.5 126t54 115t55 94t51 63.5t43 23.5q12 0 34.5 -2t45.5 -9t41.5 -19t22.5 -32l41 -214t45 -207.5t53 -187t66 -153.5t82.5 -106.5t102.5 -45.5q-95 -105 -177 -105q-80 0 -143.5 98.5t-111.5 293.5q-69 1 -134 3t-122 5q-19 -63 -32 -114t-19 -86q-66 5 -96.5 35
t-30.5 73q0 22 2.5 47.5t7.5 53.5q-5 0 -8.5 0.5t-5.5 0.5q-3 0 -5 1q-11 0 -26 4t-28.5 13t-23 23t-9.5 33q0 20 11 41zM363 664q-33 -77 -65 -163.5l-61 -171.5q57 6 98 13.5t73 18.5q-23 136 -39 303h-6z" />
    <glyph glyph-name="Atilde.end" horiz-adv-x="702" 
d="M570 1111q19 -47 19 -78q0 -35 -19.5 -51t-47.5 -16q-16 0 -36.5 5t-43 11.5t-47 11.5t-48.5 5q-30 0 -58 -11.5t-52 -41.5q-4 5 -8 13q-7 14 -7 37q0 50 27 68.5t68 18.5q43 0 83.5 -3.5t63.5 -3.5q32 0 60 7t46 28zM450 647l46 21q20 8 42.5 15t42.5 7q21 0 35 -10
t14 -37q0 -63 -5.5 -141.5t-5.5 -159.5q0 -54 4.5 -106t17 -96t34 -77.5t55.5 -52.5q-24 -19 -49 -33q-21 -13 -45.5 -23t-44.5 -10q-30 0 -50 19t-33 52t-20 77.5t-10 94.5q-47 -113 -104 -170.5t-123 -57.5q-63 0 -110 28.5t-78.5 77t-47 112.5t-15.5 136
q0 101 22.5 186.5t59.5 154.5t85 121.5t99.5 88t102.5 53.5t94 18q56 0 91 -30t35 -91q0 -40 -37 -102q-33 9 -66 9q-45 0 -86.5 -20.5t-76.5 -55t-63 -80t-48 -95t-30.5 -100.5t-10.5 -97q0 -36 7.5 -67.5t22.5 -54.5t38.5 -36t56.5 -13q29 0 59 23.5t55.5 64.5t43 95.5
t21.5 116.5q0 42 -0.5 81t-3 71t-7.5 56t-14 37z" />
    <glyph glyph-name="Atilde.swsh" horiz-adv-x="724" 
d="M530 1041q19 -47 19 -78q0 -35 -19.5 -51t-47.5 -16q-16 0 -36.5 5t-43 11.5t-47 11.5t-48.5 5q-30 0 -58 -11.5t-52 -41.5q-4 5 -8 13q-7 14 -7 37q0 50 27 68.5t68 18.5q43 0 83.5 -3.5t63.5 -3.5q32 0 60 7t46 28zM701 -219q-90 0 -159.5 124.5t-117.5 368.5
q-63 -6 -118.5 -25.5t-108.5 -44.5q-21 -69 -36 -127t-22 -96q-66 5 -96.5 35t-30.5 73v11t1 13q-41 -18 -81 -29.5t-82 -11.5q-80 0 -117.5 28.5t-37.5 72.5q0 34 21 72.5t63 75.5q52 -35 103 -49t101 -14q14 0 27 1t27 3q16 64 39 133.5t50.5 136t57.5 126.5t58.5 105.5
t55 72t46.5 26.5q12 0 34.5 -2t45.5 -9t41.5 -19t22.5 -32l19 -94l27 -136.5t27 -126.5q55 -3 76.5 -26t21.5 -52q0 -17 -5 -33.5t-13 -30.5t-17.5 -25t-18.5 -15q22 -79 48.5 -144t59.5 -113t73.5 -78t91.5 -40q-95 -105 -177 -105zM363 664q-34 -78 -66.5 -165.5
t-61.5 -174.5q45 20 86 41t81 38q-20 120 -33 261h-6z" />
    <glyph glyph-name="B.alt" horiz-adv-x="753" 
d="M195 -43q-27 0 -39 28.5t-16.5 75t-4 105.5t-1 119t-8 116.5t-23.5 98.5q-48 -53 -60 -120q-30 0 -49 8.5t-30 22.5t-15 33.5t-4 40.5q0 52 26.5 102.5t70.5 96t102.5 84t122 66.5t129 43.5t124.5 15.5q39 0 75.5 -13t64 -35.5t44 -53t16.5 -66.5q0 -29 -12.5 -60.5
t-41 -64t-73.5 -64t-110 -60.5q70 -1 119 -16.5t80 -43t45 -65t14 -80.5q0 -57 -22 -121.5t-60 -128t-89.5 -121t-110.5 -102t-122.5 -70.5t-125.5 -26t-118.5 29.5t-104.5 96.5q144 42 248 96.5t170.5 112t98.5 114t32 104.5q0 60 -46.5 98.5t-134.5 38.5q-19 0 -38.5 -2
t-41.5 -6q-4 -51 -8.5 -99t-4.5 -93q0 -59 13 -106.5t51 -77.5q-22 -15 -45 -26q-20 -10 -43 -17.5t-44 -7.5zM282 499q0 -14 -0.5 -27t-1.5 -26q131 52 199.5 102t68.5 80q0 31 -67 31q-34 0 -82.5 -9t-100.5 -28t-102.5 -47.5t-87.5 -68.5q7 4 21 10.5t31.5 13t36.5 11.5
t36 5q21 0 35 -10t14 -37z" />
    <glyph glyph-name="B.end" horiz-adv-x="779" 
d="M395 443q-52 0 -111 -10q-1 -38 -1.5 -70t-0.5 -60q0 -57 7 -94t30 -58q-22 -15 -45 -26q-20 -10 -43 -17.5t-44 -7.5q-33 0 -43.5 28.5t-10.5 73.5q0 1 0.5 4t0.5 14t0.5 34t0.5 64q0 46 -5.5 92.5t-23.5 89.5q-48 -53 -60 -120q-30 0 -49 8.5t-30 22.5t-15 33.5
t-4 40.5q0 52 26.5 102.5t70.5 96t102.5 84t122 66.5t129 43.5t124.5 15.5q48 0 85 -11t61.5 -30.5t37 -46t12.5 -56.5q0 -32 -14.5 -67t-44 -69t-73.5 -66t-103 -57q69 -5 120.5 -26.5t85 -55.5t50 -77.5t16.5 -90.5q0 -63 -29 -127.5t-84.5 -116.5t-137.5 -85t-187 -33
q-66 0 -126.5 15t-107.5 43t-75 68.5t-28 92.5q0 41 19 85q0 -21 22.5 -39t60 -31.5t86 -21.5t99.5 -8q75 0 136 21.5t104.5 55.5t67 74.5t23.5 79.5q0 27 -12 50.5t-37 41t-63.5 28t-91.5 10.5zM285 474q68 18 119 38.5t85 40.5t51 39t17 34t-18 24t-55 9q-34 0 -82.5 -9
t-100.5 -28t-102.5 -47.5t-87.5 -68.5q7 4 21 10.5t31.5 13t36.5 11.5t36 5q21 0 35 -10t14 -37v-25z" />
    <glyph glyph-name="B.swsh" horiz-adv-x="753" 
d="M103 527l46 21q20 8 42.5 15t42.5 7q21 0 35 -10t14 -37q0 -20 -1 -39.5l-2 -39.5q53 22 95.5 47.5t72.5 51t46 49t16 42.5q0 22 -22.5 34.5t-71.5 12.5q-67 0 -125 -16.5t-106 -43.5t-86 -63t-64 -74.5t-39.5 -78t-13.5 -73.5q0 -48 27.5 -80.5t87.5 -34.5q0 -4 1 -9
t1.5 -10.5t0.5 -12.5q0 -13 -3 -27.5t-11 -27t-23 -21t-40 -8.5q-41 0 -71 12.5t-49.5 35t-29 54t-9.5 68.5q0 59 22 128.5t62.5 140t98 136t128.5 116t154.5 81t175.5 30.5q100 0 158 -43t58 -135q0 -55 -51.5 -117t-167.5 -119q64 0 108.5 -13t72.5 -34.5t40.5 -51
t12.5 -62.5q0 -38 -14.5 -79.5t-39 -81.5t-57 -76t-69.5 -63.5t-75.5 -43.5t-74.5 -16q-52 0 -89 33q-8 -5 -21.5 -12t-30 -14.5t-34.5 -12.5t-35 -5q-27 0 -39 30.5t-16.5 80t-4 112t-1 126t-8 121.5t-24.5 100zM264 202q0 -19 1 -36.5t3 -34.5q68 22 119.5 48.5t86 53.5
t51.5 53.5t17 49.5q0 31 -32 50t-98 19q-28 0 -62 -4t-74 -13q-5 -48 -8.5 -95t-3.5 -91z" />
    <glyph glyph-name="C.alt" horiz-adv-x="605" 
d="M294 121q27 0 58 17t58.5 44.5t48 62.5t26.5 73q57 0 87 -28t30 -79q0 -39 -19.5 -86.5t-56 -88.5t-88 -68.5t-115.5 -27.5q-87 0 -148.5 33t-100 88t-56.5 127t-18 151q0 66 11.5 133t32.5 129t51 116t67 94t80 63.5t91 23.5q53 0 94.5 -14t70 -37.5t43.5 -53.5t15 -63
q0 -36 -18.5 -72t-59.5 -66q-19 35 -41.5 50t-45.5 15q-40 0 -80.5 -37.5t-73 -94.5t-53 -124t-20.5 -127q0 -32 7 -60t22.5 -48.5t40.5 -32.5t60 -12z" />
    <glyph glyph-name="C.end" horiz-adv-x="297" 
d="M1174 -400q-17 68 -60.5 110.5t-105.5 68.5t-138 39.5t-158.5 23l-167.5 19t-164 27.5t-148 48.5t-120.5 81.5t-81.5 127.5t-30 186.5q0 71 21 143t54 137.5t74.5 122.5t83.5 99t79.5 66t63.5 24q30 0 67.5 -16.5t71.5 -44.5t57 -65t23 -77q0 -14 -11 -28.5l-24.5 -32.5
t-24.5 -39.5t-11 -49.5q0 -24 10 -50q-29 1 -54 5t-44 12.5t-31.5 23t-18.5 38.5q-13 0 -35.5 -16t-49 -43.5t-53 -63.5t-48.5 -76.5t-36 -82.5t-14 -81q0 -84 29.5 -139.5t80.5 -90t120 -51.5t149 -24t166.5 -7.5t173 -2t168.5 -8t152 -24.5q30 -8 66.5 -22t68.5 -34.5
t53.5 -47.5t21.5 -60q0 -19 -10 -34.5t-25.5 -28t-36 -22t-41.5 -16.5q-49 -17 -112 -25z" />
    <glyph glyph-name="C.swsh" horiz-adv-x="609" 
d="M157 275q0 -33 7 -61t22.5 -48.5t40.5 -32.5t60 -12q27 0 58 16.5t58.5 44.5t48 63t26.5 73q57 0 87 -28t30 -79q0 -39 -19.5 -86.5t-56 -88.5t-88 -68.5t-115.5 -27.5q-86 0 -148.5 32.5t-103 87t-59.5 126t-19 149.5q0 40 5 81t14 81q-98 8 -181.5 26t-144 44.5t-95 60
t-34.5 71.5q0 40 41.5 83.5t135.5 88.5q2 -63 25.5 -114t62.5 -90t92 -66t115 -42q23 69 59.5 131t85 108t108.5 73t130 27q52 0 91 -11.5t65 -31t39 -46t13 -55.5q0 -40 -24.5 -82.5t-74.5 -79t-125 -63t-175 -34.5q-26 -53 -41.5 -110.5t-15.5 -109.5zM384 657
q-37 0 -74 -31.5t-68 -81.5q50 4 84.5 13t56 20.5t31 24.5t9.5 24q0 13 -11 22t-28 9z" />
    <glyph glyph-name="Ccedilla.alt" horiz-adv-x="605" 
d="M294 121q27 0 58 17t58.5 44.5t48 62.5t26.5 73q57 0 87 -28t30 -79q0 -38 -18.5 -84t-53 -86t-83.5 -68.5t-109 -31.5q6 -16 15 -33.5l17.5 -35t14.5 -35t6 -33.5q0 -35 -22.5 -51t-51.5 -16q-17 0 -33.5 4.5t-30 12.5t-23 20t-11.5 26q48 27 65.5 46t17.5 35
q0 17 -11.5 31t-16.5 31q-74 9 -126 45t-85 89.5t-48 121t-15 140.5q0 66 11.5 133t32.5 129t51 116t67 94t80 63.5t91 23.5q53 0 94.5 -14t70 -37.5t43.5 -53.5t15 -63q0 -36 -18.5 -72t-59.5 -66q-19 35 -41.5 50t-45.5 15q-40 0 -80.5 -37.5t-73 -94.5t-53 -124
t-20.5 -127q0 -32 7 -60t22.5 -48.5t40.5 -32.5t60 -12z" />
    <glyph glyph-name="D.alt" horiz-adv-x="891" 
d="M562 903q84 0 142.5 -24t96 -66.5t54.5 -100.5t17 -126q0 -89 -26.5 -189t-73 -198.5t-110 -189t-136.5 -159t-152.5 -109.5t-158.5 -41q-39 0 -73 12.5t-59 34t-39 51t-14 62.5q0 10 1 19.5t4 20.5q9 -1 17.5 -1h16.5q81 0 158.5 25.5t146.5 68.5q-22 -7 -58 -16t-67 -9
q-26 0 -38 28t-17 74t-5 104t-1.5 118t-7 117t-20.5 100q-26 -29 -45.5 -59.5t-29.5 -59.5q-30 0 -49 8.5t-30 22.5t-15 33.5t-4 40.5q0 52 26.5 102.5t70.5 96t102.5 84t122 66.5t129 43.5t124.5 15.5zM324 234q0 -37 2.5 -71t10 -64t20.5 -54t33 -42q74 49 135.5 113
t105.5 134t68.5 140.5t24.5 132.5q0 51 -12.5 87t-35 58.5t-52.5 33t-66 10.5q-43 0 -91 -13t-96 -36t-93.5 -54t-83.5 -67q21 9 46 17t48 8q20 0 33.5 -9.5t13.5 -34.5l-1 -19.5t-2 -49t-2.5 -64.5t-2.5 -67t-2 -56.5t-1 -32.5z" />
    <glyph glyph-name="D.end" horiz-adv-x="787" 
d="M293 -31q-14 0 -29.5 9.5t-30.5 25.5q-20 -10 -43 -18t-46 -8q-26 0 -38.5 29t-17 76t-4 106t-1 119.5t-8 117t-24.5 98.5l46 21q20 8 42.5 15t42.5 7q21 0 35 -10t14 -37q0 -39 -3 -79t-6.5 -79t-6.5 -77t-3 -72v-30q97 25 169 65.5t120 90t71.5 103.5t23.5 107
q0 59 -12 104t-32 79q-72 -20 -139 -46.5l-126 -50.5t-108 -41t-84 -17q-38 0 -58 23.5t-20 83.5q0 48 28 86.5t74 66.5t106 43t124 15q60 0 119 -14t112 -45l79 36t70.5 30t57 21t38.5 8q35 0 59 -10t38.5 -27t20.5 -39t6 -46q0 -20 -3.5 -40t-9.5 -38q-45 17 -89.5 24
t-89.5 7q-43 0 -83 -6q38 -47 60.5 -110t22.5 -146q0 -61 -17 -124t-47.5 -122t-73 -111t-94 -90.5t-110.5 -61t-122 -22.5zM224 700q19 0 48 8t64.5 21.5t76 31l82.5 36.5q-31 23 -66 34t-70 11q-33 0 -62.5 -9t-52.5 -24.5t-36.5 -38t-13.5 -49.5q0 -21 30 -21z" />
    <glyph glyph-name="D.swsh" horiz-adv-x="891" 
d="M561 712q-75 0 -141.5 -19t-122.5 -51t-100.5 -73t-76 -85t-48 -87.5t-16.5 -79.5q0 -43 24 -70.5t77 -29.5q0 -4 1 -9t1.5 -10.5t0.5 -12.5q0 -13 -3 -27.5t-11 -27t-23 -21t-40 -8.5q-41 0 -71 12.5t-49.5 35t-29 54t-9.5 68.5q0 59 22 128.5t62.5 140t98 136
t128.5 116t154.5 81t175.5 30.5q84 0 142.5 -24t96 -66.5t54.5 -100.5t17 -126q0 -89 -26.5 -189t-73 -198.5t-110 -189t-136.5 -159t-152.5 -109.5t-158.5 -41q-39 0 -73 12.5t-59 34t-39 51t-14 62.5q0 10 1 19.5t4 20.5q9 -1 17.5 -1h16.5q81 0 158.5 25.5t146.5 68.5
q-22 -7 -58 -16t-67 -9q-27 0 -39 29.5t-16.5 77.5t-4.5 108.5t-1.5 122.5t-8 119t-24.5 99q23 11 47 21q20 8 43 15t43 7t33.5 -9.5t13.5 -34.5q0 -14 -1.5 -54t-4 -86.5t-4 -88.5t-1.5 -60q0 -37 2.5 -71t10 -64t20.5 -54t33 -42q74 49 135.5 113t105.5 134t68.5 140.5
t24.5 132.5q0 51 -12.5 87t-35 58.5t-52.5 33t-66 10.5z" />
    <glyph glyph-name="E.alt" horiz-adv-x="699" 
d="M596 184q51 -38 76.5 -67t25.5 -52q0 -22 -19 -38t-48.5 -27t-66 -18.5t-71.5 -11.5t-65 -5.5t-46 -1.5q-65 0 -126.5 9.5t-108.5 28t-75.5 46t-28.5 63.5q0 28 17 56q20 -21 52.5 -33t73.5 -17q-15 51 -15 120v36h-43q-26 4 -26 24q0 13 8.5 29t19.5 30q12 17 29 33
q7 0 11 1q-2 36 -7.5 70.5t-17.5 68.5q-45 -25 -88 -55q-21 29 -30.5 57.5t-9.5 54.5q0 44 24 83t64.5 71.5t93.5 58t112.5 43.5t120.5 27.5t117 9.5q30 0 64.5 -4t64.5 -15t50 -30t20 -48q0 -33 -26 -74t-75 -86q-12 2 -29 4q-14 2 -34 3.5t-45 1.5q-51 0 -119 -9t-147 -37
q15 -8 29 -24t14 -47q0 -14 -1.5 -44l-3.5 -70q52 5 106.5 20.5t114.5 51.5q12 0 27.5 -17t15.5 -42q0 -18 -11.5 -37.5t-41 -37.5t-80.5 -33t-130 -23q2 -45 7.5 -87t16.5 -77q48 4 93 12.5t80.5 18.5t59 19.5t27.5 16.5z" />
    <glyph glyph-name="E.end" horiz-adv-x="718" 
d="M167 200q0 -16 7 -29q39 38 79.5 73.5t85 63t93.5 44t105 16.5q83 0 122 -31.5t39 -78.5t-35 -101.5t-98.5 -101t-153.5 -77.5t-200 -31q-70 0 -122 18l-57.5 -75t-56.5 -63.5t-54 -44t-51 -16.5q-36 0 -61 11t-40.5 29.5t-22.5 42.5t-7 49q0 18 3.5 36t8.5 35
q48 -20 89 -20q47 0 88.5 19.5t82.5 50.5q-17 23 -26 52.5t-9 68.5q0 32 11.5 65.5t36.5 64.5t63 59t91 50v7q-37 16 -64.5 40.5t-46 54t-27.5 61.5t-9 64q0 54 39 102t99.5 83.5t133 56.5t140.5 21q42 0 79.5 -9.5t65.5 -29.5t44.5 -51.5t16.5 -75.5q0 -24 -6.5 -45.5
t-19 -38t-31.5 -26t-44 -9.5q2 4 2 11q0 22 -32 34t-78 12q-38 0 -78.5 -8.5t-74.5 -26.5t-56 -46.5t-22 -67.5q0 -23 17 -31.5t45 -8.5q23 0 51 5t57 12.5t58 17t54 18.5q9 3 15 3q11 0 14.5 -6t3.5 -14q0 -6 -1 -11.5t-3 -10.5t-4 -11q-88 -32 -153.5 -66t-109 -67.5
t-65 -65t-21.5 -56.5zM386 248q-40 0 -81 -31.5t-83 -79.5q39 -15 106 -15q32 0 58 7.5t44.5 19.5t28.5 26t10 28q0 18 -19.5 31.5t-63.5 13.5z" />
    <glyph glyph-name="E.swsh" horiz-adv-x="681" 
d="M617 882q30 0 50 -8.5t32 -23t17 -33.5t5 -40q0 -29 -8 -59.5t-19.5 -55t-24 -40t-21.5 -15.5q-32 18 -67 25.5t-72 7.5q-66 0 -133 -18t-132 -40q6 -2 16.5 -6.5t20.5 -13.5t17.5 -23.5t7.5 -35.5q0 -13 -2 -40t-4 -63q51 6 103.5 21t110.5 50q12 0 27.5 -17t15.5 -42
q0 -18 -11.5 -37.5t-41 -37.5t-79.5 -32.5t-127 -23.5q1 -55 8.5 -107.5t24.5 -88.5q11 -1 20.5 -1h18.5q45 0 81 9t63.5 24t47.5 35.5t34 44.5q18 -3 35.5 -18t31.5 -36t23 -46t9 -50q0 -20 -7 -38.5t-23 -32.5t-42.5 -22.5t-64.5 -8.5t-80 5.5t-85 12t-85.5 12t-81.5 5.5
q-42 0 -77.5 -9.5t-60.5 -33.5q-18 22 -28 46t-10 47q0 33 24 56t80 23h7.5t8.5 -1q-9 27 -13 59t-4 69v36h-43q-26 4 -26 24q0 13 8.5 29t19.5 30q12 17 29 33q5 0 9.5 0.5t9.5 1.5v9q0 35 -7 68.5t-27 73.5q-33 -11 -61.5 -17t-51.5 -6q-21 0 -36 8.5t-25 23t-15 33
t-5 39.5q0 34 12.5 67.5t35.5 56.5q38 -26 75 -36.5t73 -10.5q44 0 86.5 13.5t84 34t81.5 44t79.5 44t79 34t78.5 13.5z" />
    <glyph glyph-name="Eacute.alt" horiz-adv-x="699" 
d="M432 1065q38 -17 55 -35.5t17 -37.5q0 -23 -22.5 -44.5t-60.5 -38t-87 -26.5t-102 -10q-24 0 -32.5 6.5t-8.5 15.5q0 11 7 22q4 5 8 11q56 0 115 37t111 100zM596 184q51 -38 76.5 -67t25.5 -52q0 -22 -19 -38t-48.5 -27t-66 -18.5t-71.5 -11.5t-65 -5.5t-46 -1.5
q-65 0 -126.5 9.5t-108.5 28t-75.5 46t-28.5 63.5q0 28 17 56q20 -21 52.5 -33t73.5 -17q-15 51 -15 120v36h-43q-26 4 -26 24q0 13 8.5 29t19.5 30q12 17 29 33q7 0 11 1q-2 36 -7.5 70.5t-17.5 68.5q-45 -25 -88 -55q-21 29 -30.5 57.5t-9.5 54.5q0 44 24 83t64.5 71.5
t93.5 58t112.5 43.5t120.5 27.5t117 9.5q30 0 64.5 -4t64.5 -15t50 -30t20 -48q0 -33 -26 -74t-75 -86q-12 2 -29 4q-14 2 -34 3.5t-45 1.5q-51 0 -119 -9t-147 -37q15 -8 29 -24t14 -47q0 -14 -1.5 -44l-3.5 -70q52 5 106.5 20.5t114.5 51.5q12 0 27.5 -17t15.5 -42
q0 -18 -11.5 -37.5t-41 -37.5t-80.5 -33t-130 -23q2 -45 7.5 -87t16.5 -77q48 4 93 12.5t80.5 18.5t59 19.5t27.5 16.5z" />
    <glyph glyph-name="Eacute.end" horiz-adv-x="718" 
d="M396 1065q38 -17 55 -35.5t17 -37.5q0 -23 -22.5 -44.5t-60.5 -38t-87 -26.5t-102 -10q-24 0 -32.5 6.5t-8.5 15.5q0 11 7 22q4 5 8 11q56 0 115 37t111 100zM167 200q0 -16 7 -29q39 38 79.5 73.5t85 63t93.5 44t105 16.5q83 0 122 -31.5t39 -78.5t-35 -101.5
t-98.5 -101t-153.5 -77.5t-200 -31q-70 0 -122 18l-57.5 -75t-56.5 -63.5t-54 -44t-51 -16.5q-36 0 -61 11t-40.5 29.5t-22.5 42.5t-7 49q0 18 3.5 36t8.5 35q48 -20 89 -20q47 0 88.5 19.5t82.5 50.5q-17 23 -26 52.5t-9 68.5q0 32 11.5 65.5t36.5 64.5t63 59t91 50v7
q-37 16 -64.5 40.5t-46 54t-27.5 61.5t-9 64q0 54 39 102t99.5 83.5t133 56.5t140.5 21q42 0 79.5 -9.5t65.5 -29.5t44.5 -51.5t16.5 -75.5q0 -24 -6.5 -45.5t-19 -38t-31.5 -26t-44 -9.5q2 4 2 11q0 22 -32 34t-78 12q-38 0 -78.5 -8.5t-74.5 -26.5t-56 -46.5t-22 -67.5
q0 -23 17 -31.5t45 -8.5q23 0 51 5t57 12.5t58 17t54 18.5q9 3 15 3q11 0 14.5 -6t3.5 -14q0 -6 -1 -11.5t-3 -10.5t-4 -11q-88 -32 -153.5 -66t-109 -67.5t-65 -65t-21.5 -56.5zM386 248q-40 0 -81 -31.5t-83 -79.5q39 -15 106 -15q32 0 58 7.5t44.5 19.5t28.5 26t10 28
q0 18 -19.5 31.5t-63.5 13.5z" />
    <glyph glyph-name="Eacute.swsh" horiz-adv-x="681" 
d="M396 1065q38 -17 55 -35.5t17 -37.5q0 -23 -22.5 -44.5t-60.5 -38t-87 -26.5t-102 -10q-24 0 -32.5 6.5t-8.5 15.5q0 11 7 22q4 5 8 11q56 0 115 37t111 100zM617 882q30 0 50 -8.5t32 -23t17 -33.5t5 -40q0 -29 -8 -59.5t-19.5 -55t-24 -40t-21.5 -15.5q-32 18 -67 25.5
t-72 7.5q-66 0 -133 -18t-132 -40q6 -2 16.5 -6.5t20.5 -13.5t17.5 -23.5t7.5 -35.5q0 -13 -2 -40t-4 -63q51 6 103.5 21t110.5 50q12 0 27.5 -17t15.5 -42q0 -18 -11.5 -37.5t-41 -37.5t-79.5 -32.5t-127 -23.5q1 -55 8.5 -107.5t24.5 -88.5q11 -1 20.5 -1h18.5q45 0 81 9
t63.5 24t47.5 35.5t34 44.5q18 -3 35.5 -18t31.5 -36t23 -46t9 -50q0 -20 -7 -38.5t-23 -32.5t-42.5 -22.5t-64.5 -8.5t-80 5.5t-85 12t-85.5 12t-81.5 5.5q-42 0 -77.5 -9.5t-60.5 -33.5q-18 22 -28 46t-10 47q0 33 24 56t80 23h7.5t8.5 -1q-9 27 -13 59t-4 69v36h-43
q-26 4 -26 24q0 13 8.5 29t19.5 30q12 17 29 33q5 0 9.5 0.5t9.5 1.5v9q0 35 -7 68.5t-27 73.5q-33 -11 -61.5 -17t-51.5 -6q-21 0 -36 8.5t-25 23t-15 33t-5 39.5q0 34 12.5 67.5t35.5 56.5q38 -26 75 -36.5t73 -10.5q44 0 86.5 13.5t84 34t81.5 44t79.5 44t79 34
t78.5 13.5z" />
    <glyph glyph-name="Ecircumflex.alt" horiz-adv-x="699" 
d="M319 1096l15 12t22.5 15.5t26.5 13t27 5.5q12 0 22.5 -6t18.5 -20l25 -46.5t23.5 -35t28.5 -22.5t41 -8q0 -5 1 -9q1 -5 1.5 -10t0.5 -11q0 -10 -2 -20.5t-7.5 -19t-16 -14t-27.5 -5.5q-23 0 -40.5 6t-33 16.5t-30.5 25l-32 30.5l-30.5 -27t-32 -25t-35.5 -18.5t-42 -7.5
q-31 0 -41.5 10t-10.5 22q0 7 2 13.5t4 11.5q3 6 7 12q26 10 43.5 20.5t30 23.5t22 29.5t19.5 38.5zM596 184q51 -38 76.5 -67t25.5 -52q0 -22 -19 -38t-48.5 -27t-66 -18.5t-71.5 -11.5t-65 -5.5t-46 -1.5q-65 0 -126.5 9.5t-108.5 28t-75.5 46t-28.5 63.5q0 28 17 56
q20 -21 52.5 -33t73.5 -17q-15 51 -15 120v36h-43q-26 4 -26 24q0 13 8.5 29t19.5 30q12 17 29 33q7 0 11 1q-2 36 -7.5 70.5t-17.5 68.5q-45 -25 -88 -55q-21 29 -30.5 57.5t-9.5 54.5q0 44 24 83t64.5 71.5t93.5 58t112.5 43.5t120.5 27.5t117 9.5q30 0 64.5 -4t64.5 -15
t50 -30t20 -48q0 -33 -26 -74t-75 -86q-12 2 -29 4q-14 2 -34 3.5t-45 1.5q-51 0 -119 -9t-147 -37q15 -8 29 -24t14 -47q0 -14 -1.5 -44l-3.5 -70q52 5 106.5 20.5t114.5 51.5q12 0 27.5 -17t15.5 -42q0 -18 -11.5 -37.5t-41 -37.5t-80.5 -33t-130 -23q2 -45 7.5 -87
t16.5 -77q48 4 93 12.5t80.5 18.5t59 19.5t27.5 16.5z" />
    <glyph glyph-name="Ecircumflex.end" horiz-adv-x="718" 
d="M291 1066l15 12t22.5 15.5t26.5 13t27 5.5q12 0 22.5 -6t18.5 -20l25 -46.5t23.5 -35t28.5 -22.5t41 -8q0 -5 1 -9q1 -5 1.5 -10t0.5 -11q0 -10 -2 -20.5t-7.5 -19t-16 -14t-27.5 -5.5q-23 0 -40.5 6t-33 16.5t-30.5 25l-32 30.5l-30.5 -27t-32 -25t-35.5 -18.5t-42 -7.5
q-31 0 -41.5 10t-10.5 22q0 7 2 13.5t4 11.5q3 6 7 12q26 10 43.5 20.5t30 23.5t22 29.5t19.5 38.5zM167 200q0 -16 7 -29q39 38 79.5 73.5t85 63t93.5 44t105 16.5q83 0 122 -31.5t39 -78.5t-35 -101.5t-98.5 -101t-153.5 -77.5t-200 -31q-70 0 -122 18l-57.5 -75
t-56.5 -63.5t-54 -44t-51 -16.5q-36 0 -61 11t-40.5 29.5t-22.5 42.5t-7 49q0 18 3.5 36t8.5 35q48 -20 89 -20q47 0 88.5 19.5t82.5 50.5q-17 23 -26 52.5t-9 68.5q0 32 11.5 65.5t36.5 64.5t63 59t91 50v7q-37 16 -64.5 40.5t-46 54t-27.5 61.5t-9 64q0 54 39 102
t99.5 83.5t133 56.5t140.5 21q42 0 79.5 -9.5t65.5 -29.5t44.5 -51.5t16.5 -75.5q0 -24 -6.5 -45.5t-19 -38t-31.5 -26t-44 -9.5q2 4 2 11q0 22 -32 34t-78 12q-38 0 -78.5 -8.5t-74.5 -26.5t-56 -46.5t-22 -67.5q0 -23 17 -31.5t45 -8.5q23 0 51 5t57 12.5t58 17t54 18.5
q9 3 15 3q11 0 14.5 -6t3.5 -14q0 -6 -1 -11.5t-3 -10.5t-4 -11q-88 -32 -153.5 -66t-109 -67.5t-65 -65t-21.5 -56.5zM386 248q-40 0 -81 -31.5t-83 -79.5q39 -15 106 -15q32 0 58 7.5t44.5 19.5t28.5 26t10 28q0 18 -19.5 31.5t-63.5 13.5z" />
    <glyph glyph-name="Ecircumflex.swsh" horiz-adv-x="681" 
d="M198 1029l15 12t22.5 15.5t26.5 13t27 5.5q12 0 22.5 -6t18.5 -20l25 -46.5t23.5 -35t28.5 -22.5t41 -8q0 -5 1 -9q1 -5 1.5 -10t0.5 -11q0 -10 -2 -20.5t-7.5 -19t-16 -14t-27.5 -5.5q-23 0 -40.5 6t-33 16.5t-30.5 25l-32 30.5l-30.5 -27t-32 -25t-35.5 -18.5t-42 -7.5
q-31 0 -41.5 10t-10.5 22q0 7 2 13.5t4 11.5q3 6 7 12q26 10 43.5 20.5t30 23.5t22 29.5t19.5 38.5zM617 882q30 0 50 -8.5t32 -23t17 -33.5t5 -40q0 -29 -8 -59.5t-19.5 -55t-24 -40t-21.5 -15.5q-32 18 -67 25.5t-72 7.5q-66 0 -133 -18t-132 -40q6 -2 16.5 -6.5
t20.5 -13.5t17.5 -23.5t7.5 -35.5q0 -13 -2 -40t-4 -63q51 6 103.5 21t110.5 50q12 0 27.5 -17t15.5 -42q0 -18 -11.5 -37.5t-41 -37.5t-79.5 -32.5t-127 -23.5q1 -55 8.5 -107.5t24.5 -88.5q11 -1 20.5 -1h18.5q45 0 81 9t63.5 24t47.5 35.5t34 44.5q18 -3 35.5 -18
t31.5 -36t23 -46t9 -50q0 -20 -7 -38.5t-23 -32.5t-42.5 -22.5t-64.5 -8.5t-80 5.5t-85 12t-85.5 12t-81.5 5.5q-42 0 -77.5 -9.5t-60.5 -33.5q-18 22 -28 46t-10 47q0 33 24 56t80 23h7.5t8.5 -1q-9 27 -13 59t-4 69v36h-43q-26 4 -26 24q0 13 8.5 29t19.5 30q12 17 29 33
q5 0 9.5 0.5t9.5 1.5v9q0 35 -7 68.5t-27 73.5q-33 -11 -61.5 -17t-51.5 -6q-21 0 -36 8.5t-25 23t-15 33t-5 39.5q0 34 12.5 67.5t35.5 56.5q38 -26 75 -36.5t73 -10.5q44 0 86.5 13.5t84 34t81.5 44t79.5 44t79 34t78.5 13.5z" />
    <glyph glyph-name="Edieresis.alt" horiz-adv-x="699" 
d="M250 892q-42 0 -61 24t-19 54q0 17 5.5 34.5t16 31t25.5 22t33 8.5q20 0 35 -7t25 -19t15 -27.5t5 -31.5q0 -17 -5 -32.5t-15.5 -28.5t-25.5 -20.5t-34 -7.5zM453 892q-42 0 -61 24t-19 54q0 17 5.5 34.5t16 31t25.5 22t33 8.5q20 0 35 -7t25 -19t15 -27.5t5 -31.5
q0 -17 -5 -32.5t-15.5 -28.5t-25.5 -20.5t-34 -7.5zM596 184q51 -38 76.5 -67t25.5 -52q0 -22 -19 -38t-48.5 -27t-66 -18.5t-71.5 -11.5t-65 -5.5t-46 -1.5q-65 0 -126.5 9.5t-108.5 28t-75.5 46t-28.5 63.5q0 28 17 56q20 -21 52.5 -33t73.5 -17q-15 51 -15 120v36h-43
q-26 4 -26 24q0 13 8.5 29t19.5 30q12 17 29 33q7 0 11 1q-2 36 -7.5 70.5t-17.5 68.5q-45 -25 -88 -55q-21 29 -30.5 57.5t-9.5 54.5q0 44 24 83t64.5 71.5t93.5 58t112.5 43.5t120.5 27.5t117 9.5q30 0 64.5 -4t64.5 -15t50 -30t20 -48q0 -33 -26 -74t-75 -86q-12 2 -29 4
q-14 2 -34 3.5t-45 1.5q-51 0 -119 -9t-147 -37q15 -8 29 -24t14 -47q0 -14 -1.5 -44l-3.5 -70q52 5 106.5 20.5t114.5 51.5q12 0 27.5 -17t15.5 -42q0 -18 -11.5 -37.5t-41 -37.5t-80.5 -33t-130 -23q2 -45 7.5 -87t16.5 -77q48 4 93 12.5t80.5 18.5t59 19.5t27.5 16.5z
" />
    <glyph glyph-name="Edieresis.end" horiz-adv-x="718" 
d="M250 892q-42 0 -61 24t-19 54q0 17 5.5 34.5t16 31t25.5 22t33 8.5q20 0 35 -7t25 -19t15 -27.5t5 -31.5q0 -17 -5 -32.5t-15.5 -28.5t-25.5 -20.5t-34 -7.5zM453 892q-42 0 -61 24t-19 54q0 17 5.5 34.5t16 31t25.5 22t33 8.5q20 0 35 -7t25 -19t15 -27.5t5 -31.5
q0 -17 -5 -32.5t-15.5 -28.5t-25.5 -20.5t-34 -7.5zM167 200q0 -16 7 -29q39 38 79.5 73.5t85 63t93.5 44t105 16.5q83 0 122 -31.5t39 -78.5t-35 -101.5t-98.5 -101t-153.5 -77.5t-200 -31q-70 0 -122 18l-57.5 -75t-56.5 -63.5t-54 -44t-51 -16.5q-36 0 -61 11t-40.5 29.5
t-22.5 42.5t-7 49q0 18 3.5 36t8.5 35q48 -20 89 -20q47 0 88.5 19.5t82.5 50.5q-17 23 -26 52.5t-9 68.5q0 32 11.5 65.5t36.5 64.5t63 59t91 50v7q-37 16 -64.5 40.5t-46 54t-27.5 61.5t-9 64q0 54 39 102t99.5 83.5t133 56.5t140.5 21q42 0 79.5 -9.5t65.5 -29.5
t44.5 -51.5t16.5 -75.5q0 -24 -6.5 -45.5t-19 -38t-31.5 -26t-44 -9.5q2 4 2 11q0 22 -32 34t-78 12q-38 0 -78.5 -8.5t-74.5 -26.5t-56 -46.5t-22 -67.5q0 -23 17 -31.5t45 -8.5q23 0 51 5t57 12.5t58 17t54 18.5q9 3 15 3q11 0 14.5 -6t3.5 -14q0 -6 -1 -11.5t-3 -10.5
t-4 -11q-88 -32 -153.5 -66t-109 -67.5t-65 -65t-21.5 -56.5zM386 248q-40 0 -81 -31.5t-83 -79.5q39 -15 106 -15q32 0 58 7.5t44.5 19.5t28.5 26t10 28q0 18 -19.5 31.5t-63.5 13.5z" />
    <glyph glyph-name="Edieresis.swsh" horiz-adv-x="681" 
d="M250 892q-42 0 -61 24t-19 54q0 17 5.5 34.5t16 31t25.5 22t33 8.5q20 0 35 -7t25 -19t15 -27.5t5 -31.5q0 -17 -5 -32.5t-15.5 -28.5t-25.5 -20.5t-34 -7.5zM453 892q-42 0 -61 24t-19 54q0 17 5.5 34.5t16 31t25.5 22t33 8.5q20 0 35 -7t25 -19t15 -27.5t5 -31.5
q0 -17 -5 -32.5t-15.5 -28.5t-25.5 -20.5t-34 -7.5zM617 882q30 0 50 -8.5t32 -23t17 -33.5t5 -40q0 -29 -8 -59.5t-19.5 -55t-24 -40t-21.5 -15.5q-32 18 -67 25.5t-72 7.5q-66 0 -133 -18t-132 -40q6 -2 16.5 -6.5t20.5 -13.5t17.5 -23.5t7.5 -35.5q0 -13 -2 -40t-4 -63
q51 6 103.5 21t110.5 50q12 0 27.5 -17t15.5 -42q0 -18 -11.5 -37.5t-41 -37.5t-79.5 -32.5t-127 -23.5q1 -55 8.5 -107.5t24.5 -88.5q11 -1 20.5 -1h18.5q45 0 81 9t63.5 24t47.5 35.5t34 44.5q18 -3 35.5 -18t31.5 -36t23 -46t9 -50q0 -20 -7 -38.5t-23 -32.5t-42.5 -22.5
t-64.5 -8.5t-80 5.5t-85 12t-85.5 12t-81.5 5.5q-42 0 -77.5 -9.5t-60.5 -33.5q-18 22 -28 46t-10 47q0 33 24 56t80 23h7.5t8.5 -1q-9 27 -13 59t-4 69v36h-43q-26 4 -26 24q0 13 8.5 29t19.5 30q12 17 29 33q5 0 9.5 0.5t9.5 1.5v9q0 35 -7 68.5t-27 73.5
q-33 -11 -61.5 -17t-51.5 -6q-21 0 -36 8.5t-25 23t-15 33t-5 39.5q0 34 12.5 67.5t35.5 56.5q38 -26 75 -36.5t73 -10.5q44 0 86.5 13.5t84 34t81.5 44t79.5 44t79 34t78.5 13.5z" />
    <glyph glyph-name="Egrave.alt" horiz-adv-x="699" 
d="M285 1083q27 -33 53 -58.5t53 -42.5t56.5 -26.5t63.5 -9.5q3 -6 7 -11q3 -5 5.5 -11t2.5 -11q0 -9 -8.5 -15.5t-32.5 -6.5q-53 0 -100.5 7.5t-83 21t-56.5 33t-21 43.5q0 19 14.5 41t46.5 46zM596 184q51 -38 76.5 -67t25.5 -52q0 -22 -19 -38t-48.5 -27t-66 -18.5
t-71.5 -11.5t-65 -5.5t-46 -1.5q-65 0 -126.5 9.5t-108.5 28t-75.5 46t-28.5 63.5q0 28 17 56q20 -21 52.5 -33t73.5 -17q-15 51 -15 120v36h-43q-26 4 -26 24q0 13 8.5 29t19.5 30q12 17 29 33q7 0 11 1q-2 36 -7.5 70.5t-17.5 68.5q-45 -25 -88 -55q-21 29 -30.5 57.5
t-9.5 54.5q0 44 24 83t64.5 71.5t93.5 58t112.5 43.5t120.5 27.5t117 9.5q30 0 64.5 -4t64.5 -15t50 -30t20 -48q0 -33 -26 -74t-75 -86q-12 2 -29 4q-14 2 -34 3.5t-45 1.5q-51 0 -119 -9t-147 -37q15 -8 29 -24t14 -47q0 -14 -1.5 -44l-3.5 -70q52 5 106.5 20.5
t114.5 51.5q12 0 27.5 -17t15.5 -42q0 -18 -11.5 -37.5t-41 -37.5t-80.5 -33t-130 -23q2 -45 7.5 -87t16.5 -77q48 4 93 12.5t80.5 18.5t59 19.5t27.5 16.5z" />
    <glyph glyph-name="Egrave.end" horiz-adv-x="718" 
d="M221 1083q27 -33 53 -58.5t53 -42.5t56.5 -26.5t63.5 -9.5q3 -6 7 -11q3 -5 5.5 -11t2.5 -11q0 -9 -8.5 -15.5t-32.5 -6.5q-53 0 -100.5 7.5t-83 21t-56.5 33t-21 43.5q0 19 14.5 41t46.5 46zM167 200q0 -16 7 -29q39 38 79.5 73.5t85 63t93.5 44t105 16.5
q83 0 122 -31.5t39 -78.5t-35 -101.5t-98.5 -101t-153.5 -77.5t-200 -31q-70 0 -122 18l-57.5 -75t-56.5 -63.5t-54 -44t-51 -16.5q-36 0 -61 11t-40.5 29.5t-22.5 42.5t-7 49q0 18 3.5 36t8.5 35q48 -20 89 -20q47 0 88.5 19.5t82.5 50.5q-17 23 -26 52.5t-9 68.5
q0 32 11.5 65.5t36.5 64.5t63 59t91 50v7q-37 16 -64.5 40.5t-46 54t-27.5 61.5t-9 64q0 54 39 102t99.5 83.5t133 56.5t140.5 21q42 0 79.5 -9.5t65.5 -29.5t44.5 -51.5t16.5 -75.5q0 -24 -6.5 -45.5t-19 -38t-31.5 -26t-44 -9.5q2 4 2 11q0 22 -32 34t-78 12
q-38 0 -78.5 -8.5t-74.5 -26.5t-56 -46.5t-22 -67.5q0 -23 17 -31.5t45 -8.5q23 0 51 5t57 12.5t58 17t54 18.5q9 3 15 3q11 0 14.5 -6t3.5 -14q0 -6 -1 -11.5t-3 -10.5t-4 -11q-88 -32 -153.5 -66t-109 -67.5t-65 -65t-21.5 -56.5zM386 248q-40 0 -81 -31.5t-83 -79.5
q39 -15 106 -15q32 0 58 7.5t44.5 19.5t28.5 26t10 28q0 18 -19.5 31.5t-63.5 13.5z" />
    <glyph glyph-name="Egrave.swsh" horiz-adv-x="681" 
d="M221 1083q27 -33 53 -58.5t53 -42.5t56.5 -26.5t63.5 -9.5q3 -6 7 -11q3 -5 5.5 -11t2.5 -11q0 -9 -8.5 -15.5t-32.5 -6.5q-53 0 -100.5 7.5t-83 21t-56.5 33t-21 43.5q0 19 14.5 41t46.5 46zM617 882q30 0 50 -8.5t32 -23t17 -33.5t5 -40q0 -29 -8 -59.5t-19.5 -55
t-24 -40t-21.5 -15.5q-32 18 -67 25.5t-72 7.5q-66 0 -133 -18t-132 -40q6 -2 16.5 -6.5t20.5 -13.5t17.5 -23.5t7.5 -35.5q0 -13 -2 -40t-4 -63q51 6 103.5 21t110.5 50q12 0 27.5 -17t15.5 -42q0 -18 -11.5 -37.5t-41 -37.5t-79.5 -32.5t-127 -23.5q1 -55 8.5 -107.5
t24.5 -88.5q11 -1 20.5 -1h18.5q45 0 81 9t63.5 24t47.5 35.5t34 44.5q18 -3 35.5 -18t31.5 -36t23 -46t9 -50q0 -20 -7 -38.5t-23 -32.5t-42.5 -22.5t-64.5 -8.5t-80 5.5t-85 12t-85.5 12t-81.5 5.5q-42 0 -77.5 -9.5t-60.5 -33.5q-18 22 -28 46t-10 47q0 33 24 56t80 23
h7.5t8.5 -1q-9 27 -13 59t-4 69v36h-43q-26 4 -26 24q0 13 8.5 29t19.5 30q12 17 29 33q5 0 9.5 0.5t9.5 1.5v9q0 35 -7 68.5t-27 73.5q-33 -11 -61.5 -17t-51.5 -6q-21 0 -36 8.5t-25 23t-15 33t-5 39.5q0 34 12.5 67.5t35.5 56.5q38 -26 75 -36.5t73 -10.5q44 0 86.5 13.5
t84 34t81.5 44t79.5 44t79 34t78.5 13.5z" />
    <glyph glyph-name="Euro" unicode="&#x20ac;" horiz-adv-x="706" 
d="M473 350q3 0 7.5 -12t4.5 -29q0 -13 -4.5 -26.5t-15.5 -25t-30.5 -19t-50.5 -7.5h-104q5 -48 32.5 -78.5t89.5 -30.5q28 0 59 16.5t58.5 44t48 62.5t26.5 73q57 0 87 -28t30 -79q0 -39 -19.5 -86.5t-56 -88.5t-88 -68.5t-115.5 -27.5q-62 0 -114 21.5t-91.5 60t-65.5 92
t-37 118.5q-11 0 -20 0.5t-15 0.5h-13q-6 0 -14 4.5t-15.5 12.5t-12.5 18.5t-5 22.5q0 13 5 22q36 0 52.5 -0.5t30.5 -0.5v29q-10 -1 -17.5 -1h-12.5h-11q-6 0 -13.5 4t-14 11t-11.5 16.5t-5 20.5t6 23l86 4q13 85 49 174.5t99 180.5q16 19 36 45t42 49t45.5 39.5t46.5 16.5
q30 0 67.5 -16.5t71.5 -44.5t57 -65t23 -77q0 -19 -13.5 -35l-29 -36t-29 -47.5t-13.5 -69.5q0 -11 1 -24t4 -27q-29 1 -52 7.5t-39.5 20t-26 35.5t-11.5 55q-13 0 -29.5 -13t-34 -35t-34.5 -51.5t-31 -63.5q18 3 32.5 6t23.5 8q3 0 13.5 -7.5t22 -19t20.5 -24.5t9 -25
t-13 -20.5t-48 -8.5h-91l-4 -16.5l-4 -16.5q64 2 115 9.5t74 27.5z" />
    <glyph glyph-name="Euro.alt" horiz-adv-x="717" 
d="M414 121q27 0 58 17t58.5 44.5t48 62.5t26.5 73q57 0 87 -28t30 -79q0 -39 -19.5 -86.5t-56 -88.5t-88 -68.5t-115.5 -27.5q-72 0 -126.5 22.5t-92.5 62t-62 93t-34 114.5q-11 0 -20 0.5t-16 0.5h-15q-6 0 -14 4.5t-15.5 12.5t-12.5 18.5t-5 22.5q0 13 5 22q37 0 54 -0.5
t31 -0.5v29q-10 -1 -18 -1h-13h-12q-6 0 -13.5 4t-14 11t-11.5 16.5t-5 20.5t6 23l85 4q9 90 37.5 175.5t72 153t99.5 109t120 41.5q53 0 94.5 -14t70 -37.5t43.5 -53.5t15 -63q0 -36 -18.5 -72t-59.5 -66q-19 35 -41.5 50t-45.5 15q-27 0 -55 -18t-53.5 -49t-48 -71
t-38.5 -83q43 6 64 15q3 0 13.5 -7.5t22 -19t20.5 -24.5t9 -25t-13 -20t-48 -8h-32.5t-22 -0.5t-18 -0.5h-20.5q-2 -8 -3 -16.5l-2 -16.5q63 2 114 10t74 27q3 0 7.5 -12t4.5 -29q0 -13 -4.5 -26.5t-15.5 -25t-30.5 -19t-50.5 -7.5h-98q8 -49 38 -79.5t89 -30.5z" />
    <glyph glyph-name="F.alt" horiz-adv-x="469" 
d="M618 562q-36 10 -78 18q-36 7 -84.5 13t-105.5 6q-43 0 -89 -4.5t-92.5 -16t-92 -30.5t-88.5 -48q-18 34 -18 67q0 41 24.5 79t65.5 71.5t96 61t115.5 47t123.5 30.5t121 11q68 0 124 -17q45 -14 66 -42.5t21 -65.5q0 -44 -28 -92t-81 -88zM99 509l46 21q20 8 43 15t43 7
t34 -9.5t14 -35.5q0 -6 -1 -37.5t-2 -67.5q-1 -42 -2 -94q35 8 64 22.5t66 37.5q28 -27 40.5 -49t12.5 -39q0 -20 -14.5 -34.5t-39.5 -25t-57.5 -17.5t-69.5 -11q5 -59 21.5 -106.5t54.5 -76.5q-30 -13 -59 -23q-25 -9 -52.5 -16t-48.5 -7t-32.5 17.5t-17.5 47.5t-8 69.5
t-2 84.5q-18 0 -37 -0.5t-45 -0.5q-17 0 -23.5 5.5t-6.5 13.5q0 11 9 26t20 29q12 16 29 32q15 1 28 1t26 2q-2 62 -8.5 119.5t-24.5 99.5z" />
    <glyph glyph-name="F.swsh" horiz-adv-x="469" 
d="M600 882q30 0 50 -8.5t32 -23t17 -33.5t5 -40q0 -29 -8 -59.5t-19.5 -55t-24 -40t-21.5 -15.5q-32 18 -67 25.5t-72 7.5q-65 0 -132 -18t-131 -40q20 -5 33.5 -17.5t13.5 -37.5v-14t-0.5 -26.5t-0.5 -35v-39.5q-1 -47 -1 -104q35 8 64 22.5t66 37.5q28 -27 40.5 -49
t12.5 -39q0 -20 -14.5 -34.5t-39.5 -25t-57.5 -17.5t-69.5 -11q5 -59 21.5 -106.5t54.5 -76.5q-30 -13 -59 -23q-25 -9 -52.5 -16t-48.5 -7t-32.5 17.5t-17.5 47.5t-8 69.5t-2 84.5q-18 0 -37 -0.5t-45 -0.5q-17 0 -23.5 5.5t-6.5 13.5q0 11 9 26t20 29q12 16 29 32
q15 1 28 1t26 2q-1 26 -2.5 59t-4.5 67.5t-8 66.5t-11 57q-32 -10 -59.5 -16t-50.5 -6q-21 0 -36 8.5t-25 23t-15 33t-5 39.5q0 34 12.5 67.5t35.5 56.5q38 -26 75 -36.5t73 -10.5q44 0 86.5 13.5t84 34t81.5 44t79.5 44t79 34t78.5 13.5z" />
    <glyph glyph-name="Fl" horiz-adv-x="746" 
d="M531 610l46 21q20 8 42.5 15t42.5 7q21 0 35 -10t14 -37q0 -42 -2.5 -92t-6 -103t-6 -107.5t-2.5 -105.5q0 -75 8.5 -134.5t33.5 -87.5q-26 -5 -47.5 -7.5t-39.5 -2.5q-29 0 -49 9t-32 31t-17.5 60t-5.5 95q0 88 6 160.5t6 134.5q0 44 -5.5 81.5t-20.5 72.5zM516 383
q0 -36 -19 -63.5t-52.5 -49.5t-78.5 -38t-96 -29q4 -63 20.5 -113t56.5 -81q-30 -13 -59 -23q-25 -9 -52.5 -16t-48.5 -7q-20 0 -31.5 16.5t-18 45t-8.5 67t-2 81.5q-22 -5 -44 -8.5t-43 -7.5q-19 0 -26.5 8.5t-7.5 21.5q0 14 7 32t15 33q10 18 22 36l38 10.5l38 11.5
q-2 35 -4.5 68.5t-8.5 63.5l-28.5 -25.5l-28.5 -27.5q-32 32 -47 64.5t-15 64.5q0 47 27 92t72 85.5t103.5 74.5t121.5 58.5t125.5 38.5t115.5 14q56 0 80.5 -15t24.5 -44q0 -30 -23.5 -73t-64.5 -97q-42 -2 -93 -13q-44 -10 -102 -32t-126 -62q19 -10 19 -38
q0 -7 -0.5 -29.5t-1.5 -47.5q-1 -29 -2 -64q38 19 77 45t81 62q47 -13 67.5 -37t20.5 -53z" />
    <glyph glyph-name="Fl.swsh" horiz-adv-x="689" 
d="M471 610l46 21q20 8 42.5 15t42.5 7q21 0 35 -10t14 -37q0 -42 -2.5 -92t-6 -103t-6 -107.5t-2.5 -105.5q0 -75 8.5 -134.5t33.5 -87.5q-26 -5 -47.5 -7.5t-39.5 -2.5q-29 0 -49 9t-32 31t-17.5 60t-5.5 95q0 88 6 160.5t6 134.5q0 44 -5.5 81.5t-20.5 72.5zM642 941
q30 0 50 -8.5t32 -23t17 -33.5t5 -40q0 -29 -8 -59.5t-19.5 -55t-24 -40t-21.5 -15.5q-32 18 -67 25.5t-72 7.5q-32 0 -72 -14t-81 -33.5l-80.5 -39t-71.5 -30.5q20 -5 33.5 -17.5t13.5 -37.5v-14t-0.5 -26.5t-0.5 -35v-39.5q-1 -47 -1 -104q35 8 64 22.5t66 37.5
q28 -27 40.5 -49t12.5 -39q0 -20 -14.5 -34.5t-39.5 -25t-57.5 -17.5t-69.5 -11q5 -59 21.5 -106.5t54.5 -76.5q-30 -13 -59 -23q-25 -9 -52.5 -16t-48.5 -7t-32.5 17.5t-17.5 47.5t-8 69.5t-2 84.5q-18 0 -37 -0.5t-45 -0.5q-17 0 -23.5 5.5t-6.5 13.5q0 11 9 26t20 29
q12 16 29 32q15 1 28 1t26 2q-1 26 -2.5 59t-4.5 67.5t-8 66.5t-11 57q-32 -10 -59.5 -16t-50.5 -6q-21 0 -36 8.5t-25 23t-15 33t-5 39.5q0 34 12.5 67.5t35.5 56.5q38 -26 75 -36.5t73 -10.5q44 0 90 18t91.5 45t91.5 58l90 58t86.5 45t81.5 18z" />
    <glyph glyph-name="G.alt" horiz-adv-x="656" 
d="M651 621q0 -18 -3 -39.5t-8 -53.5t-10.5 -78t-11 -112t-10 -155.5t-6.5 -208.5q-1 -60 -32 -106t-77.5 -77t-101.5 -46.5t-104 -15.5q-39 0 -68.5 11t-49.5 29t-30 42.5t-10 51.5q0 51 35.5 102t109.5 83q4 -15 18.5 -42t34.5 -53.5t42 -45.5t42 -19q22 0 36.5 32.5
t14.5 114.5v91.5t-1 106.5q-34 -69 -92.5 -111t-149.5 -42q-50 0 -86.5 21t-60.5 57.5t-36 85.5t-12 105q0 60 13 124.5t39 126t63.5 116.5t86 96.5t108 66t129.5 24.5q42 0 72 -10.5t49 -28t27.5 -39.5t8.5 -46q0 -33 -16 -67q-33 9 -66 9q-51 0 -96.5 -18.5t-84 -49
t-68.5 -71t-51.5 -85t-32.5 -90t-11 -86.5q0 -32 7.5 -60t22.5 -48t38.5 -31.5t56.5 -11.5q38 0 63.5 24.5t41.5 60t23.5 75t10.5 70.5q-1 48 -3 91.5t-5 78.5t-6.5 58.5t-8.5 31.5q15 2 33 4q15 2 34 3.5t39 1.5q21 0 40.5 -2t35 -7.5t25 -14.5t9.5 -24z" />
    <glyph glyph-name="G.end" horiz-adv-x="582" 
d="M527 614q9 -63 16.5 -144t7.5 -169q0 -92 -11 -184t-40 -172l65.5 -25t67 -23t72 -16.5t79.5 -6.5q43 0 91.5 8t105.5 28q5 -14 7.5 -29.5t2.5 -30.5q0 -26 -8 -51.5t-25.5 -45t-44.5 -31.5t-65 -12t-83.5 15t-96 37t-103 48t-104.5 48q-45 -79 -120 -127.5t-188 -48.5
q-31 0 -57.5 7.5t-46 21.5t-30.5 35.5t-11 50.5q0 49 25.5 86t64.5 62t85.5 37t89.5 12q45 0 83 -7q6 42 9 88t4 94q-32 -58 -74 -86.5t-87 -28.5q-57 0 -101 36t-75 95.5t-47 135t-16 154.5q0 77 16.5 150.5t50.5 131t86.5 92.5t125.5 35q28 0 52.5 -9.5t43 -30t29 -51
t10.5 -72.5q0 -19 -13 -30.5l-28 -25t-28 -34.5t-13 -60q0 -11 1 -24t4 -27q-59 3 -90.5 34t-36.5 98q-18 -51 -26.5 -104.5t-8.5 -104.5q0 -59 10 -112.5t27 -94t40 -64t49 -23.5t51.5 16t48.5 49q0 69 -5 135t-12 118.5t-15.5 87.5t-15.5 43q2 6 17 17.5t36 22.5t45.5 19
t46.5 8q23 0 39.5 -11.5t20.5 -39.5zM220 -235q43 0 72 37.5t46 98.5q-38 9 -69 9q-29 0 -48.5 -6.5t-31.5 -16.5t-17.5 -23.5t-5.5 -26.5q0 -27 16.5 -49.5t37.5 -22.5z" />
    <glyph glyph-name="G.swsh" horiz-adv-x="581" 
d="M514 711q10 -68 18.5 -161t8.5 -196q0 -104 -12 -208.5t-44 -194.5l69.5 -26.5t70.5 -25t75.5 -18.5t83.5 -7q43 0 91.5 8t105.5 28q5 -14 7.5 -29.5t2.5 -30.5q0 -26 -8 -51.5t-25.5 -45t-44.5 -31.5t-65 -12q-39 0 -86.5 16t-99.5 39t-106.5 50t-107.5 49
q-44 -82 -116 -132t-179 -50q-31 0 -57.5 7.5t-46 21.5t-30.5 35.5t-11 50.5q0 49 25.5 86t64.5 62t85.5 37t89.5 12q44 0 87 -8q7 44 10 91.5t3 97.5q-32 -61 -75.5 -91t-89.5 -30q-56 0 -100.5 36.5t-75.5 96t-47 135t-16 154.5q0 63 10.5 123t33.5 112
q-56 -23 -107.5 -50.5t-101.5 -51.5t-99 -40t-99 -16q-80 0 -117.5 31.5t-37.5 78.5q0 36 21 76.5t63 77.5q71 -50 133 -70.5t119 -20.5q51 0 97.5 13t90.5 32.5t86.5 42.5t84 42.5t83.5 32.5t86 13q53 0 71.5 -16.5t18.5 -38.5q0 -14 -5 -27t-10 -24q-6 -12 -14 -24
q-65 -6 -109 -35.5t-71 -73t-38.5 -97.5t-11.5 -109q0 -58 11 -113.5t28.5 -98.5t39.5 -69.5t45 -26.5q26 0 52.5 17t49.5 52q-2 82 -10 161.5t-20.5 145.5t-27.5 111.5t-30 59.5q2 6 18.5 17.5t40.5 22t51.5 18.5t52.5 8q26 0 44.5 -11t22.5 -40zM220 -235q45 0 74.5 37
t47.5 98q-37 10 -73 10q-29 0 -48.5 -6.5t-31.5 -16.5t-17.5 -23.5t-5.5 -26.5q0 -27 16.5 -49.5t37.5 -22.5z" />
    <glyph glyph-name="H.alt" horiz-adv-x="686" 
d="M-43 405q31 0 59.5 0.5t55.5 1.5q0 2 0.5 11t1 22.5t1 29.5t0.5 32v85q0 73 -7.5 134.5t-25.5 100.5q24 10 49 19q21 8 45.5 14t46.5 6q24 0 40.5 -10.5t16.5 -38.5q0 -32 -1.5 -73.5t-3 -90l-3 -102t-1.5 -107.5v-23q63 6 113.5 14t90.5 17q-4 60 -9 117.5t-12.5 108.5
t-16.5 92.5t-21 68.5q21 6 45 11q20 4 44.5 7.5t47.5 3.5q33 0 57.5 -10t24.5 -39q0 -21 -1.5 -53.5l-3.5 -73t-4 -88.5t-2 -99q11 5 19.5 9.5t13.5 7.5q6 4 10 7q38 -20 58 -51t20 -65q0 -39 -28 -74.5t-87 -50.5q5 -69 16 -135t30.5 -122.5t48 -100t68.5 -68.5
q-1 -3 -10 -7t-24 -7t-34.5 -5.5t-40.5 -2.5q-31 0 -64 6.5t-60 23t-45.5 45t-21.5 73.5q-1 15 -2 43.5t-2 67t-2 84.5t-3 96l-109 4l-100 4q7 -97 26 -173.5t57 -111.5q-20 -16 -43 -28q-20 -11 -46.5 -19t-55.5 -8q-30 0 -50 22.5t-32 61t-16.5 91t-4.5 112.5v65
q-20 2 -28 3q-5 1 -9 1q-11 0 -26 4t-28.5 13t-23 23t-9.5 33q0 20 11 41z" />
    <glyph glyph-name="H.alt4" horiz-adv-x="682" 
d="M599 488q31 0 52.5 -6.5t34 -17t18 -25t5.5 -29.5q0 -19 -6.5 -38t-16.5 -34t-20.5 -24.5t-19.5 -9.5q-16 4 -30.5 7t-29.5 5q4 -75 14.5 -147t29.5 -134t49 -110t73 -75q-1 -3 -10 -7t-24 -7t-34.5 -5.5t-40.5 -2.5q-31 0 -64 6.5t-60 23t-45.5 45t-21.5 73.5
q-1 17 -2 50.5t-2 78t-2.5 98.5t-4.5 112q-56 -9 -106 -28.5t-98 -42.5q8 -87 26.5 -154.5t53.5 -99.5q-20 -16 -43 -28q-20 -11 -46.5 -19t-55.5 -8q-27 0 -45.5 17t-30.5 47t-18 71.5t-8 90.5q-43 -20 -84.5 -32t-85.5 -12q-80 0 -117.5 28.5t-37.5 72.5q0 34 21 72.5
t63 75.5q52 -35 103 -49t101 -14q9 0 18.5 0.5t18.5 1.5q1 61 2 113q0 22 0.5 44t1 41t0.5 33v20q0 59 -2 109.5t-10 91.5q-65 -23 -136 -61.5l-140 -75.5t-131.5 -63.5t-110.5 -26.5q-80 0 -117.5 31.5t-37.5 78.5q0 36 21 76.5t63 77.5q73 -50 135.5 -70t117.5 -20
q47 0 89 11.5t80 29t74 38t71 38t70 29t72 11.5q24 0 40.5 -10.5t16.5 -38.5q0 -32 -1.5 -73.5t-3 -90l-3 -102t-1.5 -107.5v-46.5t1 -46.5q54 22 105 47.5l99 47.5q-4 60 -9 118.5t-12.5 110.5t-17 94t-21.5 70q21 6 45 11q20 4 44.5 7.5t47.5 3.5q33 0 57.5 -10t24.5 -39
q0 -21 -1.5 -54l-3.5 -74.5t-4 -90t-2 -100.5h16z" />
    <glyph glyph-name="H.end" horiz-adv-x="702" 
d="M599 488q31 0 52.5 -6.5t34 -17t18 -25t5.5 -29.5q0 -19 -6.5 -38t-16.5 -34t-20.5 -24.5t-19.5 -9.5q-31 7 -62 12q4 -119 23.5 -216.5t48.5 -173.5q45 16 92.5 27t104.5 11q72 0 125 -15t87.5 -39.5t51 -55.5t16.5 -62q0 -44 -17 -76t-46.5 -52t-69 -29.5t-83.5 -9.5
q-50 0 -102.5 11t-101.5 31t-91 47.5t-70 61.5l-75.5 -35.5t-72.5 -31t-67 -21.5t-59 -8q-38 0 -65.5 12t-44.5 31.5t-25 45t-8 51.5q0 15 2.5 30.5t7.5 29.5q57 -20 105.5 -28t91.5 -8q45 0 84 7.5t75 18.5q-18 50 -27.5 104.5t-15 111t-8 114.5t-7.5 115
q-57 -9 -107.5 -28.5t-98.5 -42.5q8 -87 26.5 -154.5t53.5 -99.5q-20 -16 -43 -28q-20 -11 -46.5 -19t-55.5 -8q-27 0 -45.5 17t-30.5 47t-18 71.5t-8 90.5q-43 -20 -84.5 -32t-85.5 -12q-80 0 -117.5 28.5t-37.5 72.5q0 34 21 72.5t63 75.5q52 -35 103 -49t101 -14
q9 0 18.5 0.5t18.5 1.5q1 63 2 116q0 22 0.5 44t1 40.5t0.5 32v18.5q0 78 -5.5 129t-11.5 82q-7 35 -16 55q24 10 49 19q21 8 45.5 14t46.5 6q24 0 40.5 -10.5t16.5 -38.5q0 -32 -1.5 -73.5t-3 -90l-3 -102t-1.5 -107.5v-46.5t1 -46.5q54 22 104.5 47.5l98.5 47.5
q-4 60 -9 118.5t-12 110.5t-16.5 94t-21.5 70q21 6 45 11q20 4 44.5 7.5t47.5 3.5q33 0 57.5 -10t24.5 -39q0 -21 -1 -54t-2.5 -74.5t-3 -90.5t-2.5 -101q4 1 14 1zM857 -120q-35 0 -75 -10.5t-83 -27.5q18 -21 42 -38t50.5 -28.5t53.5 -17.5t51 -6q32 0 53.5 11.5
t21.5 37.5q0 14 -6.5 28t-20 25.5t-35.5 18.5t-52 7z" />
    <glyph glyph-name="H.swsh" horiz-adv-x="682" 
d="M599 488q31 0 52.5 -6.5t34 -17t18 -25t5.5 -29.5q0 -19 -6.5 -38t-16.5 -34t-20.5 -24.5t-19.5 -9.5q-16 4 -30.5 7t-29.5 5q4 -75 14.5 -147t29.5 -134t49 -110t73 -75q-1 -3 -10 -7t-24 -7t-34.5 -5.5t-40.5 -2.5q-31 0 -64 6.5t-60 23t-45.5 45t-21.5 73.5
q-1 17 -2 50.5t-2 78t-2.5 98.5t-4.5 112q-56 -9 -106 -28.5t-98 -42.5q8 -87 26.5 -154.5t53.5 -99.5q-20 -16 -43 -28q-20 -11 -46.5 -19t-55.5 -8q-27 0 -45.5 17t-30.5 47t-18 71.5t-8 90.5q-43 -20 -84.5 -32t-85.5 -12q-80 0 -117.5 28.5t-37.5 72.5q0 34 21 72.5
t63 75.5q52 -35 103 -49t101 -14q9 0 18.5 0.5t18.5 1.5q1 61 2 113q0 22 0.5 44t1 41t0.5 33v20q0 83 -6.5 152.5t-26.5 113.5q24 10 49 19q21 8 45.5 14t46.5 6q24 0 40.5 -10.5t16.5 -38.5q0 -32 -1.5 -73.5t-3 -90l-3 -102t-1.5 -107.5v-46.5t1 -46.5q54 22 105 47.5
l99 47.5q-4 60 -9 118.5t-12.5 110.5t-17 94t-21.5 70q21 6 45 11q20 4 44.5 7.5t47.5 3.5q33 0 57.5 -10t24.5 -39q0 -21 -1.5 -54l-3.5 -74.5t-4 -90t-2 -100.5h16z" />
    <glyph glyph-name="I.alt" horiz-adv-x="309" 
d="M-12 116q10 -19 23 -27t28 -9q9 40 12.5 86.5t3.5 95.5q0 58 -3 116.5t-8 111t-11.5 95.5t-13.5 71q-26 -8 -42 -8q-20 0 -31.5 13.5t-11.5 48.5q0 27 8 68.5t26 101.5q23 -17 47 -23t49 -6t39 1.5t27 4t29 4t45 1.5q36 0 62.5 -20.5t26.5 -53.5q0 -20 -6.5 -39
t-14.5 -35q-10 -18 -21 -35q-11 18 -26.5 25.5t-34.5 7.5q-16 0 -31 -4q29 -6 47 -21.5t18 -46.5q-12 -66 -16.5 -125.5t-4.5 -114.5q0 -75 5.5 -139t11.5 -120q5 1 8.5 1.5t8.5 0.5q15 0 27.5 -7t21 -24t13.5 -46t5 -73v-23t-1 -25q-20 15 -42.5 20.5t-46.5 5.5
q-45 0 -90 -10.5t-87 -10.5q-22 0 -38 4q-29 11 -40.5 28t-11.5 37q0 17 6 34.5t14 31.5q9 16 21 31z" />
    <glyph glyph-name="I.swsh" horiz-adv-x="263" 
d="M214 783q0 -6 -3 -29t-7 -57.5t-7 -78.5t-3 -92q0 -77 5.5 -152t11.5 -141l11.5 -121t5.5 -93q0 -27 -16.5 -37t-40.5 -10q-23 0 -49.5 6.5t-49.5 14.5q-26 10 -53 22q18 42 25 108.5t7 144.5q0 63 -3.5 128.5t-8.5 126t-10.5 111t-9.5 83.5l-4 27.5t-5 26.5
q-54 -15 -99.5 -37l-88.5 -43t-86.5 -36t-93.5 -15q-47 0 -70 21t-23 55q0 26 13.5 57t41.5 64q14 -17 35 -29q18 -11 46 -20t67 -9q45 0 96.5 13.5t103.5 30l100 30.5t84 14t57 -18t21 -66z" />
    <glyph glyph-name="Iacute.alt" horiz-adv-x="309" 
d="M190 1088q38 -17 55 -35.5t17 -37.5q0 -23 -22.5 -44.5t-60.5 -38t-87 -26.5t-102 -10q-24 0 -32.5 6.5t-8.5 15.5q0 11 7 22q4 5 8 11q56 0 115 37t111 100zM-12 116q10 -19 23 -27t28 -9q9 40 12.5 86.5t3.5 95.5q0 58 -3 116.5t-8 111t-11.5 95.5t-13.5 71
q-26 -8 -42 -8q-20 0 -31.5 13.5t-11.5 48.5q0 27 8 68.5t26 101.5q23 -17 47 -23t49 -6t39 1.5t27 4t29 4t45 1.5q36 0 62.5 -20.5t26.5 -53.5q0 -20 -6.5 -39t-14.5 -35q-10 -18 -21 -35q-11 18 -26.5 25.5t-34.5 7.5q-16 0 -31 -4q29 -6 47 -21.5t18 -46.5
q-12 -66 -16.5 -125.5t-4.5 -114.5q0 -75 5.5 -139t11.5 -120q5 1 8.5 1.5t8.5 0.5q15 0 27.5 -7t21 -24t13.5 -46t5 -73v-23t-1 -25q-20 15 -42.5 20.5t-46.5 5.5q-45 0 -90 -10.5t-87 -10.5q-22 0 -38 4q-29 11 -40.5 28t-11.5 37q0 17 6 34.5t14 31.5q9 16 21 31z" />
    <glyph glyph-name="Iacute.swsh" horiz-adv-x="263" 
d="M190 1088q38 -17 55 -35.5t17 -37.5q0 -23 -22.5 -44.5t-60.5 -38t-87 -26.5t-102 -10q-24 0 -32.5 6.5t-8.5 15.5q0 11 7 22q4 5 8 11q56 0 115 37t111 100zM214 783q0 -6 -3 -29t-7 -57.5t-7 -78.5t-3 -92q0 -77 5.5 -152t11.5 -141l11.5 -121t5.5 -93q0 -27 -16.5 -37
t-40.5 -10q-23 0 -49.5 6.5t-49.5 14.5q-26 10 -53 22q18 42 25 108.5t7 144.5q0 63 -3.5 128.5t-8.5 126t-10.5 111t-9.5 83.5l-4 27.5t-5 26.5q-54 -15 -99.5 -37l-88.5 -43t-86.5 -36t-93.5 -15q-47 0 -70 21t-23 55q0 26 13.5 57t41.5 64q14 -17 35 -29q18 -11 46 -20
t67 -9q45 0 96.5 13.5t103.5 30l100 30.5t84 14t57 -18t21 -66z" />
    <glyph glyph-name="Icircumflex.alt" horiz-adv-x="309" 
d="M40 1090l15 12t22.5 15.5t26.5 13t27 5.5q12 0 22.5 -6t18.5 -20l25 -46.5t23.5 -35t28.5 -22.5t41 -8q0 -5 1 -9q1 -5 1.5 -10t0.5 -11q0 -10 -2 -20.5t-7.5 -19t-16 -14t-27.5 -5.5q-23 0 -40.5 6t-33 16.5t-30.5 25l-32 30.5l-30.5 -27t-32 -25t-35.5 -18.5t-42 -7.5
q-31 0 -41.5 10t-10.5 22q0 7 2 13.5t4 11.5q3 6 7 12q26 10 43.5 20.5t30 23.5t22 29.5t19.5 38.5zM-12 116q10 -19 23 -27t28 -9q9 40 12.5 86.5t3.5 95.5q0 58 -3 116.5t-8 111t-11.5 95.5t-13.5 71q-26 -8 -42 -8q-20 0 -31.5 13.5t-11.5 48.5q0 27 8 68.5t26 101.5
q23 -17 47 -23t49 -6t39 1.5t27 4t29 4t45 1.5q36 0 62.5 -20.5t26.5 -53.5q0 -20 -6.5 -39t-14.5 -35q-10 -18 -21 -35q-11 18 -26.5 25.5t-34.5 7.5q-16 0 -31 -4q29 -6 47 -21.5t18 -46.5q-12 -66 -16.5 -125.5t-4.5 -114.5q0 -75 5.5 -139t11.5 -120q5 1 8.5 1.5
t8.5 0.5q15 0 27.5 -7t21 -24t13.5 -46t5 -73v-23t-1 -25q-20 15 -42.5 20.5t-46.5 5.5q-45 0 -90 -10.5t-87 -10.5q-22 0 -38 4q-29 11 -40.5 28t-11.5 37q0 17 6 34.5t14 31.5q9 16 21 31z" />
    <glyph glyph-name="Icircumflex.swsh" horiz-adv-x="263" 
d="M40 1090l15 12t22.5 15.5t26.5 13t27 5.5q12 0 22.5 -6t18.5 -20l25 -46.5t23.5 -35t28.5 -22.5t41 -8q0 -5 1 -9q1 -5 1.5 -10t0.5 -11q0 -10 -2 -20.5t-7.5 -19t-16 -14t-27.5 -5.5q-23 0 -40.5 6t-33 16.5t-30.5 25l-32 30.5l-30.5 -27t-32 -25t-35.5 -18.5t-42 -7.5
q-31 0 -41.5 10t-10.5 22q0 7 2 13.5t4 11.5q3 6 7 12q26 10 43.5 20.5t30 23.5t22 29.5t19.5 38.5zM214 783q0 -6 -3 -29t-7 -57.5t-7 -78.5t-3 -92q0 -77 5.5 -152t11.5 -141l11.5 -121t5.5 -93q0 -27 -16.5 -37t-40.5 -10q-23 0 -49.5 6.5t-49.5 14.5q-26 10 -53 22
q18 42 25 108.5t7 144.5q0 63 -3.5 128.5t-8.5 126t-10.5 111t-9.5 83.5l-4 27.5t-5 26.5q-54 -15 -99.5 -37l-88.5 -43t-86.5 -36t-93.5 -15q-47 0 -70 21t-23 55q0 26 13.5 57t41.5 64q14 -17 35 -29q18 -11 46 -20t67 -9q45 0 96.5 13.5t103.5 30l100 30.5t84 14t57 -18
t21 -66z" />
    <glyph glyph-name="Idieresis.alt" horiz-adv-x="309" 
d="M-5 904q-42 0 -61 24t-19 54q0 17 5.5 34.5t16 31t25.5 22t33 8.5q20 0 35 -7t25 -19t15 -27.5t5 -31.5q0 -17 -5 -32.5t-15.5 -28.5t-25.5 -20.5t-34 -7.5zM198 904q-42 0 -61 24t-19 54q0 17 5.5 34.5t16 31t25.5 22t33 8.5q20 0 35 -7t25 -19t15 -27.5t5 -31.5
q0 -17 -5 -32.5t-15.5 -28.5t-25.5 -20.5t-34 -7.5zM-12 116q10 -19 23 -27t28 -9q9 40 12.5 86.5t3.5 95.5q0 58 -3 116.5t-8 111t-11.5 95.5t-13.5 71q-26 -8 -42 -8q-20 0 -31.5 13.5t-11.5 48.5q0 27 8 68.5t26 101.5q23 -17 47 -23t49 -6t39 1.5t27 4t29 4t45 1.5
q36 0 62.5 -20.5t26.5 -53.5q0 -20 -6.5 -39t-14.5 -35q-10 -18 -21 -35q-11 18 -26.5 25.5t-34.5 7.5q-16 0 -31 -4q29 -6 47 -21.5t18 -46.5q-12 -66 -16.5 -125.5t-4.5 -114.5q0 -75 5.5 -139t11.5 -120q5 1 8.5 1.5t8.5 0.5q15 0 27.5 -7t21 -24t13.5 -46t5 -73v-23
t-1 -25q-20 15 -42.5 20.5t-46.5 5.5q-45 0 -90 -10.5t-87 -10.5q-22 0 -38 4q-29 11 -40.5 28t-11.5 37q0 17 6 34.5t14 31.5q9 16 21 31z" />
    <glyph glyph-name="Idieresis.swsh" horiz-adv-x="263" 
d="M-5 904q-42 0 -61 24t-19 54q0 17 5.5 34.5t16 31t25.5 22t33 8.5q20 0 35 -7t25 -19t15 -27.5t5 -31.5q0 -17 -5 -32.5t-15.5 -28.5t-25.5 -20.5t-34 -7.5zM198 904q-42 0 -61 24t-19 54q0 17 5.5 34.5t16 31t25.5 22t33 8.5q20 0 35 -7t25 -19t15 -27.5t5 -31.5
q0 -17 -5 -32.5t-15.5 -28.5t-25.5 -20.5t-34 -7.5zM214 783q0 -6 -3 -29t-7 -57.5t-7 -78.5t-3 -92q0 -77 5.5 -152t11.5 -141l11.5 -121t5.5 -93q0 -27 -16.5 -37t-40.5 -10q-23 0 -49.5 6.5t-49.5 14.5q-26 10 -53 22q18 42 25 108.5t7 144.5q0 63 -3.5 128.5t-8.5 126
t-10.5 111t-9.5 83.5l-4 27.5t-5 26.5q-54 -15 -99.5 -37l-88.5 -43t-86.5 -36t-93.5 -15q-47 0 -70 21t-23 55q0 26 13.5 57t41.5 64q14 -17 35 -29q18 -11 46 -20t67 -9q45 0 96.5 13.5t103.5 30l100 30.5t84 14t57 -18t21 -66z" />
    <glyph glyph-name="Igrave.alt" horiz-adv-x="309" 
d="M1 1100q27 -33 53 -58.5t53 -42.5t56.5 -26.5t63.5 -9.5q3 -6 7 -11q3 -5 5.5 -11t2.5 -11q0 -9 -8.5 -15.5t-32.5 -6.5q-53 0 -100.5 7.5t-83 21t-56.5 33t-21 43.5q0 19 14.5 41t46.5 46zM-12 116q10 -19 23 -27t28 -9q9 40 12.5 86.5t3.5 95.5q0 58 -3 116.5t-8 111
t-11.5 95.5t-13.5 71q-26 -8 -42 -8q-20 0 -31.5 13.5t-11.5 48.5q0 27 8 68.5t26 101.5q23 -17 47 -23t49 -6t39 1.5t27 4t29 4t45 1.5q36 0 62.5 -20.5t26.5 -53.5q0 -20 -6.5 -39t-14.5 -35q-10 -18 -21 -35q-11 18 -26.5 25.5t-34.5 7.5q-16 0 -31 -4q29 -6 47 -21.5
t18 -46.5q-12 -66 -16.5 -125.5t-4.5 -114.5q0 -75 5.5 -139t11.5 -120q5 1 8.5 1.5t8.5 0.5q15 0 27.5 -7t21 -24t13.5 -46t5 -73v-23t-1 -25q-20 15 -42.5 20.5t-46.5 5.5q-45 0 -90 -10.5t-87 -10.5q-22 0 -38 4q-29 11 -40.5 28t-11.5 37q0 17 6 34.5t14 31.5
q9 16 21 31z" />
    <glyph glyph-name="Igrave.swsh" horiz-adv-x="263" 
d="M1 1100q27 -33 53 -58.5t53 -42.5t56.5 -26.5t63.5 -9.5q3 -6 7 -11q3 -5 5.5 -11t2.5 -11q0 -9 -8.5 -15.5t-32.5 -6.5q-53 0 -100.5 7.5t-83 21t-56.5 33t-21 43.5q0 19 14.5 41t46.5 46zM214 783q0 -6 -3 -29t-7 -57.5t-7 -78.5t-3 -92q0 -77 5.5 -152t11.5 -141
l11.5 -121t5.5 -93q0 -27 -16.5 -37t-40.5 -10q-23 0 -49.5 6.5t-49.5 14.5q-26 10 -53 22q18 42 25 108.5t7 144.5q0 63 -3.5 128.5t-8.5 126t-10.5 111t-9.5 83.5l-4 27.5t-5 26.5q-54 -15 -99.5 -37l-88.5 -43t-86.5 -36t-93.5 -15q-47 0 -70 21t-23 55q0 26 13.5 57
t41.5 64q14 -17 35 -29q18 -11 46 -20t67 -9q45 0 96.5 13.5t103.5 30l100 30.5t84 14t57 -18t21 -66z" />
    <glyph glyph-name="J.alt" horiz-adv-x="504" 
d="M513 660q-15 18 -35.5 25t-45.5 7q-24 0 -51 -5.5t-55 -13.5q10 1 21 1.5t25 0.5q22 0 44.5 -2.5t41.5 -8.5t31 -16.5t12 -26.5q0 -18 -3 -39.5t-8 -53.5t-10.5 -78t-11 -112t-10 -155.5t-6.5 -208.5q-1 -60 -32 -106t-77.5 -77t-101.5 -46.5t-104 -15.5q-39 0 -68.5 11
t-49.5 29t-30 42.5t-10 51.5q0 51 35.5 102t109.5 83q4 -15 19.5 -42t36 -53.5t44 -45.5t44.5 -19q23 0 38.5 32.5t15.5 114.5v85.5t-1 119.5t-2.5 133.5t-4 128t-7 103.5t-10.5 60l-80.5 -24.5t-67.5 -11.5q-26 0 -42 13.5t-16 48.5q0 27 10.5 68.5t34.5 101.5
q32 -17 64.5 -23t65.5 -6q35 0 57 2t41 4l39.5 4t52.5 2q54 0 83.5 -21.5t29.5 -53.5q0 -20 -8.5 -39t-19.5 -35q-12 -18 -28 -35z" />
    <glyph glyph-name="J.end" horiz-adv-x="546" 
d="M513 660q-15 18 -35.5 25t-45.5 7q-23 0 -48 -5t-50 -12q21 0 50 -6t54.5 -17.5t43.5 -28.5t18 -40v-24t-0.5 -35.5t-0.5 -57.5v-89q0 -53 -1.5 -108.5t-6 -111t-13.5 -108.5t-24 -102l67.5 -25t68.5 -23.5t73 -17.5t81 -7t91.5 8t105.5 28q5 -14 7.5 -29.5t2.5 -30.5
q0 -26 -8 -51.5t-25.5 -45t-44.5 -31.5t-65 -12t-84 15t-96.5 37.5l-104 48.5l-105.5 49q-21 -40 -49.5 -72.5t-65.5 -56t-84.5 -36.5t-105.5 -13q-31 0 -57.5 7.5t-46 21.5t-30.5 35.5t-11 50.5q0 49 25.5 86t64.5 62t85.5 37t89.5 12q23 0 43.5 -2t40.5 -5
q13 69 18.5 148.5t5.5 158.5q0 69 -3.5 133t-9 114.5t-13 83.5t-14.5 41l-83 -25t-69 -12q-26 0 -42 13.5t-16 48.5q0 27 10.5 68.5t34.5 101.5q32 -17 64.5 -23t65.5 -6l174 11q15 0 30 -1t30 -4q39 -11 54 -29.5t15 -39.5q0 -20 -8.5 -39t-19.5 -35q-12 -18 -28 -35z
M180 -235q41 0 69.5 37t47.5 99q-36 9 -68 9q-29 0 -48.5 -6.5t-31.5 -16.5t-17.5 -23.5t-5.5 -26.5q0 -27 16.5 -49.5t37.5 -22.5z" />
    <glyph glyph-name="K.alt" horiz-adv-x="499" 
d="M455 877q99 -7 142 -38t43 -77q0 -36 -25 -79t-69 -87t-105 -86t-133 -78q32 -33 54 -83.5t41.5 -108l39.5 -116t49.5 -108.5t70.5 -85.5t103 -46.5q-45 -73 -85.5 -104.5t-76.5 -31.5q-38 0 -70.5 29.5t-57 77.5t-41.5 107.5t-25 119.5q-10 75 -23 128.5t-28 89.5
t-31.5 56t-34.5 27q-3 -59 -3 -115q0 -78 7 -144.5t25 -108.5q-30 -13 -59 -24q-25 -9 -53.5 -16t-51.5 -7q-24 0 -40.5 10t-16.5 37q0 25 4 50t9.5 54.5l12.5 67t12.5 88t9.5 116.5t4 153q0 30 -3 64.5t-6.5 67.5l-6.5 61t-3 43q0 42 27 58t66 16q14 0 31.5 -1.5t35 -5.5
t33 -9.5t26.5 -14.5q-12 -14 -19.5 -43.5t-11.5 -62.5q-5 -35 -11 -90.5t-11 -121.5q37 24 73.5 60.5t69.5 84.5t61.5 105t50.5 122z" />
    <glyph glyph-name="K.end" horiz-adv-x="546" 
d="M455 877q99 -7 142 -38t43 -77q0 -40 -30 -87.5t-82.5 -95.5t-124 -93t-153.5 -81q66 -26 116.5 -80t91 -122t74 -143l65.5 -142q33 10 69 15.5t76 5.5q64 0 110.5 -12.5t76 -32.5t43.5 -46t14 -54q0 -30 -15.5 -60t-45 -54t-70.5 -38.5t-92 -14.5q-106 0 -177.5 38
t-119.5 98l-82.5 -39t-79 -34.5t-73 -25t-64.5 -9.5q-38 0 -65.5 12t-44.5 31.5t-25 45t-8 51.5q0 15 2.5 30.5t7.5 29.5q57 -20 105.5 -28t91.5 -8q51 0 94 9t85 23q-36 70 -60 148l-46 148.5t-47.5 125.5t-64.5 80q-1 -21 -1.5 -42.5t-0.5 -42.5q0 -78 7 -144.5t25 -108.5
q-30 -13 -59 -24q-25 -9 -53.5 -16t-51.5 -7q-24 0 -40.5 10t-16.5 37q0 25 4 50t9.5 54.5l12.5 67t12.5 88t9.5 116.5t4 153q0 30 -3 64.5t-6.5 67.5l-6.5 61t-3 43q0 42 27 58t66 16q14 0 31.5 -1.5t35 -5.5t33 -9.5t26.5 -14.5q-12 -14 -19.5 -43.5t-11.5 -62.5
q-5 -35 -11 -90.5t-11 -121.5q37 24 73.5 60.5t69.5 84.5t61.5 105t50.5 122zM746 -145q-25 0 -51.5 -5t-54.5 -14q32 -57 69.5 -91.5t85.5 -34.5q30 0 47.5 20t17.5 46q0 14 -6.5 28t-20 25.5t-35.5 18.5t-52 7z" />
    <glyph glyph-name="K.swsh" horiz-adv-x="499" 
d="M455 877q89 -7 127.5 -29.5t38.5 -56.5q0 -30 -26 -65.5t-71 -73t-105.5 -75.5t-130.5 -73q37 -15 60 -46t38 -72.5t26 -90.5l22.5 -99.5t27.5 -99.5t42 -90.5t65 -73.5t97 -48q-45 -73 -85.5 -104.5t-76.5 -31.5q-47 0 -78.5 30t-51.5 78.5t-32 111.5t-21 128.5
l-17.5 128.5t-22 113.5t-34 82t-53.5 34.5q-2 -44 -3 -90t-1 -97q0 -78 7 -144.5t25 -108.5q-30 -13 -59 -24q-25 -9 -53.5 -16t-51.5 -7q-24 0 -40.5 10t-16.5 37q0 5 5 29.5t12 64.5l16 92t16 110t12 119.5t5 121.5q0 43 -3 84t-11 77q-76 -12 -148.5 -43l-142 -63.5
t-136.5 -57.5t-132 -25q-80 0 -117.5 31.5t-37.5 78.5q0 36 21 76.5t63 77.5q72 -48 138.5 -67.5t128.5 -19.5q81 0 152 25t132.5 55l113 55t92.5 25q21 0 39.5 -9t33.5 -29q-17 -58 -29 -119.5t-20 -130.5q37 17 72.5 43t68 62.5t60.5 85.5t50 113z" />
    <glyph glyph-name="L.alt" horiz-adv-x="320" 
d="M45 822q24 10 49 19q21 8 45.5 14t46.5 6q28 0 47 -10.5t30 -30t16 -47t5 -61.5q0 -51 -8.5 -114.5l-18 -132t-18 -140t-8.5 -138.5q0 -50 6 -96t20 -87l111 -52t118 -50t120.5 -38t120.5 -15q51 0 100 13t96 44q38 -34 57 -72.5t19 -74.5q0 -27 -10.5 -51t-32 -41.5
t-53.5 -28t-74 -10.5q-49 0 -105 19.5t-117 49l-127 63.5t-134.5 63.5t-140 49t-143.5 19.5q-28 0 -56 -3t-56 -11q-2 8 -3 18q-1 8 -1.5 19.5t-0.5 25.5q0 22 3.5 46t13 44.5t27 33.5t46.5 13q23 0 50 -6.5t57 -17.5q-24 48 -32 106.5t-8 122.5q0 100 5.5 178t5.5 135
q0 69 -15.5 126.5t-52.5 99.5z" />
    <glyph glyph-name="L.swsh" horiz-adv-x="556" 
d="M161 675q23 -19 51 -27t59 -8q32 0 69 8q-2 28 -3 51.5t-1 42.5q0 27 17 49.5t43 39t58 25.5t62 9q41 0 70.5 -18.5t29.5 -60.5q0 -52 -27 -94.5t-69 -76.5v-52q0 -75 -3.5 -153t-14 -154.5t-30.5 -147.5t-53 -131q22 -11 54 -22t67.5 -20.5t73 -15.5t72.5 -6
q43 0 91.5 8t105.5 28q5 -14 7.5 -29.5t2.5 -30.5q0 -26 -8 -51.5t-25.5 -45t-44.5 -31.5t-65 -12t-83.5 15t-96 37t-103 48t-104.5 48q-51 -57 -123.5 -90t-175.5 -33q-42 0 -74.5 9.5t-55 25.5t-34 37t-11.5 43q0 26 16.5 51.5t51.5 46t89 33.5t129 13q40 0 75.5 -6
t69.5 -16q22 63 30 140.5t8 159.5q0 54 -2.5 107.5t-6.5 104.5q-51 -19 -94.5 -28t-69.5 -9q-45 0 -74 14.5t-29 46.5q0 23 18.5 54.5t60.5 73.5zM131 -143q49 0 85 19t62 54q-29 9 -56 14t-51 5q-56 0 -77.5 -13t-21.5 -30q0 -18 18 -33.5t41 -15.5zM519 728q18 14 29 26.5
t11 22.5q0 14 -4.5 19t-10.5 5q-8 0 -16.5 -9t-8.5 -22v-42z" />
    </font>
</defs>
</svg>
