<?xml version="1.0" encoding="UTF-8"?>
<svg width="16px" height="16px" viewBox="0 0 16 16" version="1.1" xmlns="http://www.w3.org/2000/svg" xmlns:xlink="http://www.w3.org/1999/xlink">
    <!-- Generator: Sketch 49.3 (51167) - http://www.bohemiancoding.com/sketch -->
    <title>duration</title>
    <desc>Created with Sketch.</desc>
    <defs></defs>
    <g id="Symbols" stroke="none" stroke-width="1" fill="none" fill-rule="evenodd">
        <g id="product_square" transform="translate(-252.000000, -344.000000)" fill="#979797">
            <g id="duration" transform="translate(253.000000, 343.000000)">
                <g transform="translate(0.000000, 2.000000)">
                    <g>
                        <path d="M7,14.9032258 C2.63516891,14.9032258 -0.903225806,11.3648311 -0.903225806,7 C-0.903225806,2.63516891 2.63516891,-0.903225806 7,-0.903225806 C11.3648311,-0.903225806 14.9032258,2.63516891 14.9032258,7 C14.9032258,11.3648311 11.3648311,14.9032258 7,14.9032258 Z M7,13.0967742 C10.3671554,13.0967742 13.0967742,10.3671554 13.0967742,7 C13.0967742,3.63284459 10.3671554,0.903225806 7,0.903225806 C3.63284459,0.903225806 0.903225806,3.63284459 0.903225806,7 C0.903225806,10.3671554 3.63284459,13.0967742 7,13.0967742 Z" id="Oval" fill-rule="nonzero"></path>
                        <polygon id="Line" fill-rule="nonzero" points="6.09677419 2.14516129 7.90322581 2.14516129 7.90322581 7.79032258 6.09677419 7.79032258"></polygon>
                        <polygon id="Line" fill-rule="nonzero" points="11.9051792 8.4112344 11.1417398 10.0484356 6.02548615 7.66268731 6.78892559 6.02548615"></polygon>
                    </g>
                </g>
            </g>
        </g>
    </g>
</svg>