<?xml version="1.0" standalone="no"?>
<!DOCTYPE svg PUBLIC "-//W3C//DTD SVG 1.1//EN" "http://www.w3.org/Graphics/SVG/1.1/DTD/svg11.dtd" >
<svg>
<metadata>
Created by FontForge 20090622 at Sat Aug 27 12:51:01 2016
 By deploy user
</metadata>
<defs>
<font id="MoulinRouge" horiz-adv-x="957" >
  <font-face 
    font-family="Moulin Rouge"
    font-weight="400"
    font-stretch="normal"
    units-per-em="1000"
    panose-1="2 0 4 0 0 0 0 0 0 0"
    ascent="800"
    descent="-200"
    x-height="800"
    cap-height="800"
    bbox="-2.7037 -301 1346.08 1011"
    underline-thickness="20"
    underline-position="-123"
    unicode-range="U+0020-U+2212"
  />
<missing-glyph horiz-adv-x="500" 
d="M63 0v800h375v-800h-375zM125 63h250v675h-250v-675z" />
    <glyph glyph-name=".notdef" horiz-adv-x="500" 
d="M63 0v800h375v-800h-375zM125 63h250v675h-250v-675z" />
    <glyph glyph-name="NULL" horiz-adv-x="0" 
 />
    <glyph glyph-name="nonmarkingreturn" horiz-adv-x="459" 
 />
    <glyph glyph-name="space" unicode=" " horiz-adv-x="459" 
 />
    <glyph glyph-name="exclam" unicode="!" horiz-adv-x="175" 
d="M108 287l43 364q7 52 7 85q0 93 -79 93q-30 0 -53 -23q-26 -25 -26 -67q0 -24 6 -70l53 -382q7 -48 24 -48q15 0 20 14q1 6 5 34zM79 152q29 0 49 -20.5t20 -48.5q0 -29 -20 -49.5t-49 -20.5t-49 20.5t-20 49.5q0 28 20 48.5t49 20.5z" />
    <glyph glyph-name="quotedbl" unicode="&#x22;" horiz-adv-x="318" 
d="M18 687q4 -8 16 -5q36 9 71 47q45 50 45 115q0 44 -21.5 72t-55.5 28q-30 0 -50 -22.5t-20 -54.5q0 -27 16 -43t40 -16q2 0 9.5 1.5t9.5 1.5q13 0 13 -18q0 -43 -51 -80l-16 -10q-10 -8 -6 -16zM188 687q4 -8 16 -5q36 9 71 47q45 50 45 115q0 44 -21.5 72t-55.5 28
q-30 0 -50 -22.5t-20 -54.5q0 -27 16 -43t40 -16q2 0 9.5 1.5t9.5 1.5q13 0 13 -18q0 -43 -51 -80l-16 -10q-10 -8 -6 -16z" />
    <glyph glyph-name="dollar" unicode="$" horiz-adv-x="785" 
d="M762 291q-6 -118 -87 -199q-84 -83 -225 -98v-96q0 -21 -21 -21t-21 21v93q-4 -1 -12 -1h-25v-92q0 -21 -20 -21q-21 0 -21 21v95q-154 15 -252 107q-85 80 -77 187q3 53 42 87q35 30 75 30q42 0 71.5 -29.5t29.5 -70.5q0 -47 -43 -73q-9 -6 -16 -6q-12 0 -17 19
q-9 33 -33 33q-36 0 -38 -38q-1 -34 34 -71q21 -22 60 -40q57 -26 123 -26q20 0 41 2v276q-6 -3 -13 -3q-23 -2 -23 27q0 31 22 61q-8 -1 -17 -1q-57 0 -102 36q-50 40 -50 105q0 75 54 131q52 53 129 64v68q0 21 21 21q20 0 20 -21v-66q19 0 37 -4v70q0 21 21 21t21 -21
v-80q21 -7 58 -23q-6 15 -6 29q0 34 25 29q19 -4 15 -24q-7 -35 86 -100v0v0q8 -6 8 -16q0 -12 -11 -18q-10 -6 -20 1l-1 1v0l-47 35q-57 37 -107 51l-2 -211q56 13 113 3q88 -17 149 -99q56 -76 52 -155zM408 537v224q-7 1 -13 1q-11 0 -24 -1v-244q18 12 37 20zM330 498
v253q-43 -15 -70 -47t-30 -70q-3 -46 25.5 -86t74.5 -50zM558 283q6 72 -32 118q-29 36 -76 46v-310q100 50 108 146zM408 120v328q-20 -3 -37 -14v-324q20 4 37 10z" />
    <glyph glyph-name="percent" unicode="%" horiz-adv-x="721" 
d="M364 615q0 -79 -53.5 -131.5t-133.5 -52.5q-78 0 -127.5 48.5t-49.5 124.5q0 79 54 131.5t134 52.5q77 0 126.5 -49t49.5 -124zM90 650q0 -64 30 -121q32 -63 78 -63q33 0 56 28t23 75q0 79 -32.5 136.5t-76.5 57.5q-78 0 -78 -113zM555 349q77 0 127 -49t50 -124
q0 -79 -53.5 -132t-134.5 -53q-77 0 -126.5 49t-49.5 125q0 79 53.5 131.5t133.5 52.5zM565 27q34 0 57 28t23 75q0 79 -33 136.5t-76 57.5q-78 0 -78 -113q0 -64 29 -121q33 -63 78 -63zM545 835l-432 -891h74l432 891h-74z" />
    <glyph glyph-name="ampersand" unicode="&#x26;" horiz-adv-x="984" 
d="M975 599q26 -30 26 -83q0 -82 -56 -142q-46 -49 -120 -66q-15 -4 -99 -12q2 -9 2 -19q0 -122 -142 -207q-124 -74 -256 -74q-118 0 -204 45q-98 52 -123 149q-3 13 -3 30q0 144 186 215q-88 15 -131 78q-18 26 -25 59q-2 14 -2 27q0 91 82 148q76 54 190 58q94 4 141 -21
l-1 9q0 14 4 29q6 19 25 14q19 -6 14 -25q-8 -28 7 -49l1 1q49 -41 67.5 -74t18.5 -78q-1 -52 -35.5 -86.5t-74.5 -36.5q-42 -3 -74 26.5t-32 71.5q0 44 38 70q10 7 17 7q11 0 17 -17q10 -30 34 -29q39 3 36 38q-3 28 -27 56q-63 49 -131 49q-14 0 -30 -2
q-66 -10 -109.5 -51.5t-43.5 -98.5q-1 -47 19 -85q25 -49 74 -64q35 -11 36 -12q11 -4 11 -12q-1 -8 -6.5 -11t-20.5 -8q-49 -13 -75 -53q-24 -35 -24 -78q0 -78 80 -120q68 -35 150 -31q202 12 256 116q11 20 14 43q-102 -2 -291 36q-66 13 -76 -5q-9 -17 9.5 -21.5
t13.5 -24.5q-5 -21 -25 -15q-41 12 -41 53q0 7 2 13q12 52 90 50q16 0 74 -12q50 -10 71 -7q10 41 16 53q22 43 74 54q24 6 47 6q28 0 81 -13t92 -12q76 2 114 45q29 32 25 61q-3 26 -21 26q-2 0 -4 -2q-18 -10 -29 1q-5 6 -3 16q1 10 7 16q10 9 27 9q27 0 46 -21z" />
    <glyph glyph-name="quotesingle" unicode="'" horiz-adv-x="147" 
d="M15 687q4 -8 16 -5q36 9 71 47q45 50 45 115q0 44 -21.5 72t-55.5 28q-30 0 -50 -22.5t-20 -54.5q0 -27 16 -43t40 -16q2 0 9.5 1.5t9.5 1.5q13 0 13 -18q0 -43 -51 -80l-16 -10q-10 -8 -6 -16z" />
    <glyph glyph-name="parenleft" unicode="(" horiz-adv-x="290" 
d="M260 4q-127 183 -127 473q0 291 128 474q3 5 3 10q0 20 -19 20q-8 0 -14 -6q-231 -221 -231 -498t231 -498q6 -5 14 -5q19 0 19 19q0 6 -4 11z" />
    <glyph glyph-name="parenright" unicode=")" horiz-adv-x="297" 
d="M4 950q127 -183 127 -473t-128 -474q-3 -4 -3 -10q0 -19 19 -19q8 0 14 5q231 221 231 498t-231 498q-6 6 -14 6q-19 0 -19 -20q0 -6 4 -11z" />
    <glyph glyph-name="asterisk" unicode="*" horiz-adv-x="280" 
d="M274 762q-4 0 -98 -10l79 60q18 18 2 34q-7 7 -15 7q-10 0 -20 -10q-2 -3 -60 -75q9 81 10 96q0 26 -22 26t-22 -25q0 -3 12 -99q-52 66 -61.5 76.5t-19.5 10.5q-8 0 -15 -7q-16 -16 2 -34q2 -2 79 -61q-84 10 -99 11q-26 0 -26 -22t25 -22q3 0 100 13q-67 -53 -77 -62.5
t-10 -19.5q0 -8 7 -15q15 -16 33 2q2 2 63 81l-13 -102q0 -25 22 -25t22 26q0 4 -11 99l61 -79q18 -18 34 -2q7 7 7 15q0 10 -10 19q-3 3 -77 62l99 -12q25 0 25 22t-26 22z" />
    <glyph glyph-name="plus" unicode="+" horiz-adv-x="583" 
d="M573 548h-246v273h-81v-273h-246v-91h246v-273h81v273h246v91z" />
    <glyph glyph-name="comma" unicode="," horiz-adv-x="189" 
d="M15 -43q4 -8 16 -5q36 9 71 47q45 50 45 115q0 44 -21.5 72t-55.5 28q-30 0 -50 -22.5t-20 -54.5q0 -27 16 -43t40 -16q2 0 9.5 1.5t9.5 1.5q13 0 13 -18q0 -43 -51 -80l-16 -10q-10 -8 -6 -16z" />
    <glyph glyph-name="hyphen" unicode="&#xad;" horiz-adv-x="531" 
d="M465 510q-14 0 -15 -14q-5 -41 -20 -57.5t-51 -16.5q-23 0 -113 37t-137 37q-125 0 -129 -170q0 -16 16 -16q12 0 15 13v-1q11 83 70 83q21 0 51.5 -13.5l60.5 -27.5q90 -42 135 -42q129 0 133 172q0 16 -16 16z" />
    <glyph glyph-name="period" unicode="." horiz-adv-x="188" 
d="M69 128q-28 0 -48 -20t-20 -49q0 -28 20 -48t48 -20t48 20t20 48q0 29 -20 49t-48 20z" />
    <glyph glyph-name="slash" unicode="/" horiz-adv-x="477" 
d="M511 917h-74l-437 -900h75z" />
    <glyph glyph-name="zero" unicode="0" horiz-adv-x="686" 
d="M314 814q156 0 252 -127q85 -113 85 -264q0 -160 -76 -285q-90 -148 -244 -148q-146 0 -244 134q-87 120 -87 262q0 165 87 293q93 135 227 135zM332 50q11 -2 22 -2q65 0 107.5 73.5t42.5 195.5q0 82 -20 171q-21 97 -58 159q-46 77 -103 77q-23 0 -37 -14
q-17 -15 -17 -35q0 -13 6 -23q14 -22 32 -14q-5 12 7 21q15 12 27 -3q9 -12 4 -28q-9 -30 -45 -30q-44 0 -64 41q-9 18 -9 38q0 45 36 78q-46 -27 -73.5 -102.5t-26.5 -176.5q1 -143 46 -269q49 -142 123 -157z" />
    <glyph glyph-name="one" unicode="1" horiz-adv-x="369" 
d="M302 780q0 24 -27 24q-10 0 -22 -6.5t-24 -14.5q-80 -42 -148 -66q-26 -9 -49 -8q-27 1 -31 -16q-6 -19 21 -23q39 -6 90 12v-588q0 -44 -32 -52h-47q-28 0 -28 -21t28 -21h334q28 0 28 21t-28 21h-34q-21 4 -27 22q-5 15 -5 61z" />
    <glyph glyph-name="two" unicode="2" horiz-adv-x="600" 
d="M545 239q-17 -3 -19 -32t-15 -41q-18 -15 -66 -14l-283 3q53 60 155 135q127 94 135 101q126 111 120 211q-7 98 -97 158q-79 52 -178 52q-116 0 -199 -63q-79 -60 -82 -138q-2 -45 25.5 -76.5t70.5 -31.5q36 0 56 16q16 13 17 32q0 16 -11 26t-28 10q-11 0 -25 -12
t-21 -12q-35 0 -36 40q-1 46 36 89q45 54 123 54q61 0 105 -54.5t44 -118.5q0 -60 -47 -135q-26 -43 -88 -118l-196 -234q-41 -49 -41 -64q0 -17 19 -21q5 -1 32 -1h467q35 0 41 5.5t6 40.5v172q0 24 -20 21z" />
    <glyph glyph-name="three" unicode="3" horiz-adv-x="685" 
d="M404 461l-78 -4l102 48q67 33 101 66q45 43 45 96q0 50 -39 86q-51 47 -157 47q-115 0 -199 -55t-87 -131q-2 -44 26 -75.5t71 -32.5q36 0 56 16q16 13 16 32q1 17 -10.5 27t-27.5 9q-12 0 -25.5 -11.5t-20.5 -11.5q-36 0 -37 40q-1 41 48 83q53 45 117 45
q34 -1 59 -30.5t23 -72.5q-3 -73 -90 -140q-51 -40 -151 -87q-61 -29 -61 -49t20 -20q10 0 17 5q71 31 146 31q167 0 194 -169q3 -16 3 -33q0 -62 -33.5 -112t-79.5 -64q-28 -8 -58 -8q-87 0 -112 50q-14 27 -2 52q2 4 15 11.5t15 25.5q2 26 -26 48q-32 23 -73 19
q-45 -4 -75 -28q-36 -29 -36 -78q0 -15 4 -31q13 -63 100 -103q75 -35 148 -34q156 3 274 89q130 96 130 242q0 102 -78 162q-72 55 -174 50z" />
    <glyph glyph-name="four" unicode="4" horiz-adv-x="656" 
d="M642 331l-9 -87l-573 -1q-60 0 -60 38q0 30 28 62q265 310 307 390q11 21 11 38q0 32 -26 35q-9 0 -22.5 -7.5t-23.5 -7.5q-37 1 -37 35q0 15 12 27q17 18 51 17q97 -1 98 -90q0 -33 -30 -87q-16 -24 -50 -69q-81 -109 -238 -301zM613 21q0 -21 -28 -21h-333
q-28 0 -28 21t28 21h47q29 7 31 52q1 16 1 227q-1 200 -1 240q-1 23 4.5 31.5t20.5 15.5q64 28 92 42q2 0 29 16q13 7 21 6q23 -1 23 -30q1 -58 -1 -517q0 -46 5 -61q6 -18 27 -22h34q28 0 28 -21z" />
    <glyph glyph-name="five" unicode="5" horiz-adv-x="684" 
d="M527 626q76 24 117 85q35 51 35 108q0 30 -12 55q-16 29 -43 29q-10 0 -19 -4q-16 -8 -16 -23q0 -23 28 -17q7 1 13.5 -5.5t6.5 -16.5q0 -40 -70 -60q-48 -14 -99 -14q-22 0 -44 2q-67 6 -136 26l-78 25q-9 2 -15 2q-31 0 -39 -46q-13 -132 -33 -293q-13 -53 -11 -64
q3 -16 18 -16q5 0 12 2l46 28q44 24 99 30q12 1 24 1q158 0 172 -214q5 -74 -39 -140q-41 -61 -95 -78q-28 -8 -57 -8q-87 0 -113 50q-13 27 -2 52q2 4 17 12q12 7 14 25q2 26 -28 48.5t-72 18.5q-45 -4 -74 -30q-34 -31 -34 -86q0 -10 1 -21q7 -65 97 -105q77 -34 152 -31
q178 6 291.5 96.5t112.5 231.5q-1 129 -86 201q-71 60 -170 62q-66 1 -118 -12q-34 -8 -103 -35l18 182l116 -46q66 -21 121 -21q47 0 95 14z" />
    <glyph glyph-name="six" unicode="6" horiz-adv-x="659" 
d="M395 542q-80 0 -132.5 -36.5t-56.5 -96.5q-2 -35 26 -68.5t65 -34.5q44 -1 47 33q4 41 -36 42q-10 -2 -36 2q-15 8 -15 28q0 9 4 19q21 44 74 41q67 -4 115 -95q45 -82 40 -158q-4 -77 -33 -128q-35 -61 -93 -61q-71 0 -131 104.5t-60 227.5q0 26 3 50q23 186 130 317
q102 126 254 171q46 13 46 27q0 23 -32 23q-72 0 -202 -62q-106 -51 -188 -127q-85 -79 -134.5 -188t-49.5 -222q0 -149 86 -256q93 -116 238 -116q127 0 224 93t97 222q0 106 -70 177.5t-180 71.5z" />
    <glyph glyph-name="seven" unicode="7" horiz-adv-x="609" 
d="M633 828q-10 0 -76 -21q-176 -57 -347 -57q-36 0 -69 3q-26 2 -48 12q-31 13 -31 33q0 17 19 16q9 0 18 6.5t10 14.5q2 10 -5.5 20.5t-21.5 9.5q-45 0 -71 -67q-11 -26 -11 -60q0 -110 108 -137q40 -9 88 -9q148 0 304 71q-86 -70 -126 -114q-91 -99 -142 -221
q-23 -54 -44 -140q-19 -82 -30 -104q-19 -42 -54 -43q-8 0 -34 -1q-20 0 -20 -20t20 -20h401q20 0 20 20t-21 19.5t-31 1.5t-17 17q-22 49 -22 130q0 25 2 51q9 99 98 287q57 119 109 205q44 71 44 79q0 18 -20 18z" />
    <glyph glyph-name="eight" unicode="8" horiz-adv-x="652" 
d="M438 474q185 -89 185 -240q0 -100 -93 -173q-83 -65 -189 -75l2 -3q-130 0 -218 38q-115 50 -124 156q-12 139 167 220q-120 78 -120 192q0 18 4 36q18 78 69 117q44 33 103 33q40 0 69 -27t29 -65q0 -44 -32 -44q-29 0 -33 26q-2 12 2 23t4 16q0 4 -1 9q-5 24 -32 24
q-12 0 -24 -5q-47 -17 -42 -79q4 -44 51 -76q39 -25 170 -80q72 50 69 100q-3 41 -52 71q-65 40 -85 67q-22 31 -22 61q0 42 39 75q34 28 76 30q24 0 35 -11q14 -14 3 -27q-9 -11 -21 -2q-3 5 -14 12q-20 2 -23 -25q-2 -28 15 -43l60 -45q85 -69 85 -134q0 -18 -5 -36
q-17 -56 -107 -116zM322 33q68 4 115 31q60 35 58 99q-2 60 -94 117q-36 23 -168 83q-87 -61 -82 -155q4 -74 47.5 -123.5t105.5 -49.5q8 0 17 1z" />
    <glyph glyph-name="nine" unicode="9" horiz-adv-x="641" 
d="M293 817q-119 0 -206 -83.5t-87 -202.5q0 -95 64 -164q66 -72 174 -82q70 -6 116 32q43 35 46 91q3 77 -55 82q-19 2 -33 -7t-17 -23q-6 -31 25 -45q28 -12 28 -33q-1 -28 -34 -28q-47 1 -90 57q-37 48 -52.5 107t-15.5 109q0 134 109 148q71 9 122 -107q45 -102 45 -207
q0 -171 -100 -318q-103 -149 -264 -202q-44 -15 -44 -33q0 -25 23 -25q49 0 185 66q185 89 291 255q90 140 90 270q0 141 -88 240q-92 103 -232 103z" />
    <glyph glyph-name="colon" unicode=":" horiz-adv-x="172" 
d="M69 573q-28 0 -48 -20t-20 -49q0 -28 20 -48t48 -20t48 20t20 48q0 29 -20 49t-48 20zM69 213q-28 0 -48 -20t-20 -49q0 -28 20 -48t48 -20t48 20t20 48q0 29 -20 49t-48 20z" />
    <glyph glyph-name="semicolon" unicode=";" horiz-adv-x="167" 
d="M79 573q-28 0 -48 -20t-20 -49q0 -28 20 -48t48 -20t48 20t20 48q0 29 -20 49t-48 20zM15 -43q4 -8 16 -5q36 9 71 47q45 50 45 115q0 44 -21.5 72t-55.5 28q-30 0 -50 -22.5t-20 -54.5q0 -27 16 -43t40 -16q2 0 9.5 1.5t9.5 1.5q13 0 13 -18q0 -43 -51 -80l-16 -10
q-10 -8 -6 -16z" />
    <glyph glyph-name="less" unicode="&#x3c;" horiz-adv-x="425" 
d="M381 309l-296 151l296 151q10 5 13 16q8 25 -17 33q-10 3 -20 -2l-343 -174q-14 -8 -14 -24t15 -24h-1l343 -174q10 -5 20 -2q25 8 17 33q-3 11 -13 16z" />
    <glyph glyph-name="greater" unicode="&#x3e;" horiz-adv-x="422" 
d="M13 611l296 -151l-296 -151q-10 -5 -13 -16q-8 -25 17 -33q11 -3 20 2l343 174q14 8 14 24t-14 24v0l-343 174q-9 5 -20 2q-25 -8 -17 -33q3 -11 13 -16z" />
    <glyph glyph-name="question" unicode="?" horiz-adv-x="445" 
d="M258 63q0 29 -20 49t-49 20t-49 -20t-20 -49t20 -49t49 -20t49 20t20 49zM404 714q23 -56 27 -67q12 -37 12 -74q0 -13 -2 -26q-10 -111 -162 -181q-98 -45 -127 -83q-21 -28 -3 -49q10 -13 26 -6q7 10 28 29q11 7 23 7t21 -9t9 -21q0 -21 -17 -35q-25 -21 -57 -21
q-29 0 -55 18t-26 52q0 35 23 64q29 36 104 80t106 84q27 35 29 79q1 49 -33.5 84.5t-81.5 33.5q-30 0 -51 -17q-26 -20 -26 -48q0 -13 5 -25q2 -4 15.5 -11.5t14.5 -25.5q2 -24 -31.5 -47.5t-67.5 -19.5q-47 4 -77 39q-33 38 -30 98q4 73 64 129q65 62 161 61q39 0 75 -17
q35 -9 59.5 3t26.5 12q8 0 14.5 -8t1.5 -26q-8 -30 2 -56z" />
    <glyph glyph-name="at" unicode="@" horiz-adv-x="869" 
d="M420 811q174 0 297 -123.5t123 -296.5q0 -114 -59 -184.5t-152 -70.5q-142 0 -155 90q-60 -75 -133 -75q-58 0 -91.5 34t-33.5 92q0 53 43 96q67 67 213 121v44q0 82 -55 88q-23 2 -52 -9.5t-42 -31.5q-6 -8 -2 -37q2 -17 -1 -26q-7 -19 -26 -22q-19 -2 -30 12t-11 34
q0 30 20 56q50 65 164 65q51 -1 102 -34q64 -42 64 -113v-226q0 -43 5 -57q14 -46 65 -46q56 0 84 72q21 56 21 137q0 157 -101.5 263t-256.5 106q-156 0 -257 -105t-101 -262q0 -160 101 -273q103 -117 257 -117q136 0 241 87q16 13 29 -3q14 -16 -2 -29q-117 -96 -268 -96
q-174 0 -297 123t-123 297q0 173 123 296.5t297 123.5zM472 261v191q-42 -14 -79 -47q-55 -49 -55 -112q0 -36 17.5 -55.5t43.5 -19.5q41 0 73 43z" />
    <glyph glyph-name="A" unicode="A" horiz-adv-x="901" 
d="M881 40q20 0 20 -20t-20 -20h-337q-20 0 -20 20q0 18 20 20q82 6 60 53l-26 61q-18 -24 -51 -24q-17 0 -28.5 10t-12.5 23q0 10 9.5 19.5t21.5 9.5q6 0 13 -3q13 33 -6 61q-22 32 -73 27q-11 -1 -57 -18q-42 -17 -76 -17q-48 0 -71 19q15 -79 94 -160q20 -20 54.5 -39
t62.5 -22q23 -3 23 -20q0 -20 -20 -20h-396q-17 0 -20 16q-3 15 11 21l26 11q23 9 35 22q9 9 9 19q0 13 -14 22q-110 69 -112 174q-2 104 89 200q53 57 147 120q34 22 84 59q22 21 22 44q0 7 -17 48l-94 4q-20 1 -19 21t21 19q202 -12 257 0q16 3 23 -12l276 -681
q27 -66 92 -67zM431 321q16 5 31 5q31 0 50 -14l-124 296q-55 -36 -94 -106q-43 -76 -50 -159q9 -44 69 -51q33 -3 67 9z" />
    <glyph glyph-name="B" unicode="B" horiz-adv-x="862" 
d="M526 604q125 4 215 -65q100 -76 100 -205q0 -330 -448 -330q-106 0 -356 -7q-20 -1 -20 19q-1 20 19 21q17 0 27 1q31 2 31 45l6 678q-74 3 -97 41q-10 18 7 28t27 -7q15 -25 60 -24l73 2q268 6 300 0q120 -21 120 -105q0 -73 -64 -92zM353 47q78 0 171 86
q102 93 102 220q0 139 -100 178q-32 12 -64 13q-50 0 -109.5 -51.5t-59.5 -99.5q0 -24 15 -58q18 -40 41 -36q20 4 24 -15q4 -20 -16 -24q-48 -9 -83 52l-1 -222q0 -47 20 -47q9 0 34 2t26 2zM438 684q-9 34 -53 58q-49 26 -109 21l-1 -299q27 62 91 106q75 50 75 91
q0 10 -3 23z" />
    <glyph glyph-name="C" unicode="C" horiz-adv-x="775" 
d="M676 400q46 0 75 -36q32 -39 26 -102q-9 -101 -103 -185q-103 -92 -242 -94q-172 -3 -295 94q-128 101 -136 264q-9 173 105 315q119 149 292 156q75 3 126 -25q-1 10 -1 9q0 14 5 29q5 19 24 14q20 -6 14 -25q-3 -9 -3 -18q0 -23 20 -41l69 -63q14 -13 2 -28
q-13 -15 -28 -2q-19 16 -72 57q-61 43 -135 43q-29 0 -53 -7q-84 -23 -142 -118.5t-58 -207.5q0 -129 83 -218q87 -92 215 -88q107 3 176 43q49 28 71 69q14 28 14 58q0 52 -39 52q-7 0 -15 -4t-18 -19t-19 -19q-18 -9 -34 2t-14 33q3 22 25 40q26 22 65 22z" />
    <glyph glyph-name="D" unicode="D" horiz-adv-x="824" 
d="M788 397q0 140 -121 253q-102 96 -203 109q-64 9 -150 8q-76 -2 -151 -3l-70 -2q-43 -1 -57 23q-10 16 -26 6q-17 -10 -7 -26q22 -37 93 -40l-1 -645q0 -41 -31 -43q-8 -1 -26 -1.5t-17 -19.5q0 -19 19 -18q53 0 208 1q24 0 24 17q0 4 3 25q67 -47 163 -47q142 5 235 92
q115 106 115 311zM574 384q10 -185 -72 -260q-71 -65 -143 -61q-61 4 -65 46q-4 30 31 46q14 7 21 3q18 -8 26 9q7 16 -8 24q-11 7 -28 7q-45 0 -73 -50v35q0 57 1 164q1 408 1 381q85 7 163 -53q52 -40 90 -104q50 -85 56 -187z" />
    <glyph glyph-name="E" unicode="E" horiz-adv-x="851" 
d="M852 154q3 -59 -18 -129q-19 -61 -39 -83q-14 -14 -28 -1q-5 4 -8 21t-22.5 29.5t-42.5 12.5q-6 1 -305 -3t-311 -4l-51 -1q-20 -1 -20 19v1q0 20 19 20l48 1q25 5 26 55l3 631q0 12 -6 20.5t-9.5 8.5t-6.5 1q-35 0 -62 1q-20 1 -19 21t21 19q192 -5 328 5q47 4 78 4
q71 0 116 -18q-1 18 1 36.5t22 15.5q20 -2 17 -22q-4 -33 6 -57q15 -38 60 -48q20 -4 16 -24q-5 -19 -24 -15q-32 7 -60 32q-16 16 -44 40q-37 20 -104 20q-27 0 -72 -3l-73 -4l-3 -260l88 1q-5 75 33 113q31 31 65 29q21 -1 33 -18q8 -10 1 -22t-20.5 -9.5t-26.5 -11
t-13 -28.5q0 -26 29 -50q21 -17 175 -99l27 -14q74 -39 123 -104t53 -129zM598 44q118 0 191 86q-81 0 -164 35t-138 92q-85 89 -108 200l-94 -1l-2 -417l311 4v1h4z" />
    <glyph glyph-name="F" unicode="F" horiz-adv-x="734" 
d="M725 659v0v-1q-3 -50 -26 -85q-19 -30 -75 -81q-106 -95 -151 -185q-12 -24 -12 -46t13 -37.5t35 -15.5q12 0 18 5q16 12 28 0q14 -14 0 -29q-18 -20 -55 -21q-43 -1 -76 30q-48 46 -52 164q-6 2 -89 0l-5 -263q0 -28 1 -34q4 -21 22 -21.5t78 -0.5q20 0 20 -21
q0 -20 -20 -19l-129 1q-94 2 -170 -1q-1 0 -51 -1q-21 0 -21 19v1q0 19 20 20q-3 0 42 -1q31 0 32 57q2 607 1 626q-2 30 -22 31h-62q-20 1 -19 21t21 19q192 -5 327 5q21 2 249 4q30 0 39 36q4 12 16 14q13 2 20 -9q38 -58 53 -181zM287 496l-3 -99q85 0 92 3q12 68 51 131
q47 75 122 117q57 33 123 32q-13 34 -40 57q-22 17 -39 20q-35 5 -91 5q-60 0 -151 -7q-24 -1 -63 -3z" />
    <glyph glyph-name="G" unicode="G" horiz-adv-x="814" 
d="M796 278q2 68 -9 115q-14 60 -20 73q-10 26 -3.5 49t-8.5 31q-4 3 -9 3q-1 0 -25.5 -12.5t-59.5 -2.5q-37 16 -76 16q-97 1 -156.5 -46.5t-63.5 -118.5q-3 -60 30 -98q30 -35 77 -39q34 -4 67.5 19.5t31.5 47.5q-1 18 -13 25q-15 8 -17.5 13.5t-2.5 13.5q0 21 21 34.5
t53 13.5q56 0 93.5 -43.5t35.5 -101.5q-3 -56 -48 -104q-62 -67 -176 -67q-141 0 -247 104t-106 245q0 105 58.5 197.5t140.5 109.5q18 3 39 3q82 0 145 -45q32 -23 72 -57q15 -13 28 2t-2 28l-69 63q-20 18 -20 41q0 9 3 18q6 19 -13 25q-20 5 -25 -14q-4 -15 -4 -29
q0 1 1 -9q-52 28 -127 25q-174 -7 -289 -147q-110 -135 -101 -308q8 -162 136 -262q122 -95 295 -95q93 0 168 34q67 32 90 32q28 0 40 -28q2 -3 2 -6q4 -19 24 -15q18 4 15 23q-6 49 -63 68q84 79 88 176z" />
    <glyph glyph-name="H" unicode="H" 
d="M901 42q20 0 21 -20q0 -20 -20 -20l-340 -2q-20 0 -20 20t20 20h28q27 0 35 32q4 15 5 53v169q-47 -52 -115 -50q-48 1 -78 27.5t-31 69.5q-2 60 38 74q16 6 25 -9q12 -23 43 -23q34 -1 64 28q25 25 25 60q0 47 -32 79q-40 40 -114 40q-79 -1 -127 -58q-42 -48 -42 -106
q0 -76 45 -103q17 -10 7 -27q-10 -18 -28 -7q-17 10 -30 25v-193q1 -79 37 -79h42q20 0 21 -20q0 -20 -20 -20l-340 -2q-20 0 -20 20t20 20h29q39 0 40 71v583q0 36 -9 50t-33 14h-27q-20 0 -20 20t20 20l339 2q20 0 21 -20q0 -8 -6 -14t-14 -6h-38q-42 -1 -42 -58v-166
q61 93 175 94q134 0 175 -101v165q-1 65 -41 64q-25 1 -27 0q-20 0 -20 20t20 20l339 2q20 0 21 -20q0 -8 -6 -14t-14 -6h-43q-38 -1 -39 -61l1 -576q0 -50 9.5 -65.5t30.5 -15.5q27 -1 40 0z" />
    <glyph glyph-name="I" unicode="I" horiz-adv-x="429" 
d="M377 40q20 0 20 -20t-20 -20h-357q-20 0 -20 20t20 20h36q45 0 47 105q1 55 1 294q0 232 -1 254q-1 35 -4 43q-8 24 -35 24h-44q-20 0 -20 20t20 20h357q20 0 20 -20t-20 -20h-43q-26 0 -35 -20q-5 -12 -5 -42q-2 -466 0 -553q1 -47 5 -65q10 -40 41 -40h37v0z" />
    <glyph glyph-name="J" unicode="J" horiz-adv-x="791" 
d="M705 760h43q20 0 20 20t-20 20h-357q-20 0 -20 -20t20 -20h44q27 0 35 -24q3 -8 4 -43q5 -146 -1 -451q-2 -91 -68 -145q-45 -38 -107 -50q-15 -2 -30 -2q-68 0 -126 42q-70 51 -70 144q0 52 32.5 88t84.5 33q36 -1 65 -32t52 -32q38 -2 66 34t27 84q-2 56 -45 92
q-46 37 -122 37q-89 0 -158 -73q-74 -79 -74 -193q0 -143 123 -221q53 -33 98 -45t114 -11q191 2 333 182q41 51 68 68q23 14 23 23q-1 17 -20 17q-29 0 -77 -53q0 78 2 285q0 92 1 184q0 30 5 42q9 20 35 20z" />
    <glyph glyph-name="K" unicode="K" horiz-adv-x="976" 
d="M1018 -28q-23 12 -36 -7q-4 -6 -4 -13q0 -11 11.5 -19.5t11.5 -17.5q0 -14 -15.5 -22.5t-39.5 -8.5q-49 0 -103 34q-61 38 -104 109l-71 126q-43 68 -90 87q-34 15 -69 15q-33 0 -66 -13q-22 32 -58 109.5t-42 107.5q43 96 45 101q25 54 53 99q65 106 122 104
q34 -2 36 -35q-3 -13 -2 -48q6 -32 38 -32q23 -1 36 17.5t13 44.5q-2 37 -28 66q-31 34 -83 35q-54 2 -98 -36q-55 -48 -105 -152l-77 -179v252q0 30 5 42q9 20 35 20h43q20 0 20 20t-20 20h-356q-20 0 -20 -20t20 -20h44q27 0 35 -24q3 -8 4 -43q1 -22 1 -253
q0 -239 -1 -294q-2 -104 -47 -104h-36q-20 0 -20 -20t20 -20h356q20 0 20 20t-20 20h-37q-31 0 -40 40q-5 17 -6 64q-1 36 -1 191l21 53l55 -158q37 -100 88 -176q73 -107 189 -171t244 -64q119 0 150 73q6 16 6 32q0 35 -27 48z" />
    <glyph glyph-name="L" unicode="L" horiz-adv-x="792" 
d="M795 152q-9 161 -153 264q-42 30 -108 63q-59 30 -83 50q-32 25 -32 58q0 30 22 33q7 -1 24 -1q19 1 20 20q0 28 -38 29q-40 0 -71 -37q-37 -44 -31 -113q4 -50 33 -114q32 -71 81 -130q121 -145 273 -146q-61 -72 -184 -82t-200 -3q-27 2 -40 20q-16 23 -17 77
q-1 17 2 556q0 30 5 41q9 21 35 21h42q20 0 20 20t-20 20h-355q-20 0 -20 -20t20 -20h44q27 0 35 -24q2 -8 4 -43v-547q0 -103 -50 -103q-30 0 -33 -1q-20 0 -20 -20t20 -20h4h-1q12 1 311 0q295 -1 302 -1q24 -1 43 -13t23 -31q2 -15 7 -19q15 -14 28 1q20 22 40 85
q22 72 18 130z" />
    <glyph glyph-name="M" unicode="M" horiz-adv-x="1088" 
d="M994 40q-23 -1 -33 0q-16 3 -16 18q-1 21 44 69q71 75 71 157q0 116 -104 244l-85 96q-32 39 -33 70q-1 23 15.5 43.5t38.5 21.5h44q20 0 20 20t-20 20l-253 1q-15 0 -21 -15l-131 -232l-132 232q-5 15 -20 15l-253 -1q-20 0 -20 -20t20 -20h43q22 -1 38.5 -22t16.5 -44
q0 -25 -32 -65l-82 -95q-110 -131 -110 -250q0 -82 68 -156q47 -52 47 -70q0 -17 -19 -17h-33q-20 0 -20 -20t20 -20h436q20 0 20 20q0 21 -20 20h-33q-56 0 -131 67q-68 61 -121 148q-37 61 -37 135q0 49 18 112q12 41 42 101q9 19 25 61l241 -426q11 -19 28 -20q5 0 9 2
q11 6 18 18l241 426q7 -22 26 -61q30 -60 41 -101q18 -61 18 -110q0 -74 -38 -137q-50 -83 -128 -149t-128 -66h-33q-20 0 -20 -20t20 -20h437q20 0 20 20q0 21 -20 20z" />
    <glyph glyph-name="N" unicode="N" horiz-adv-x="835" 
d="M785 39q20 0 20 -20t-20 -20h-133q-13 0 -22 16q-2 4 -369 649q-6 -23 -25 -61q-30 -60 -42 -101q-18 -62 -18 -112q0 -75 38 -137q50 -84 123 -145q76 -64 134 -66q8 0 34 -1q20 0 20 -20t-20 -20h-440q-20 0 -20 20t20.5 19.5t32.5 1.5q16 3 16 17q0 16 -45 60
q-69 68 -69 161q0 133 109 253l51 56q66 73 65 103q-1 23 -18 44.5t-39 21.5q-28 1 -43 1q-20 0 -20 20t20 20h266q14 0 19 -13l260 -457l-1 379q0 50 -33 51h-38q-20 0 -20 20t20 20h187q20 0 20 -20t-20 -20h-38q-35 0 -37 -49v-517q0 -85 7 -116q9 -38 35 -38h33z" />
    <glyph glyph-name="O" unicode="O" horiz-adv-x="860" 
d="M827 389q1 148 -91 255q-25 29 -97 92q-38 34 -40 68q-1 15 9 25t21 10q10 0 15 -5q14 -14 28 0q14 13 -3 30t-48 16q-44 -2 -78 -32q-54 -47 -54 -122q0 -16 3 -32q10 -59 79 -111l123 -87q67 -55 73 -119q1 -12 1 -23q0 -100 -80.5 -161.5t-218.5 -61.5q-109 0 -192 67
q-91 74 -110 199q-3 25 -3 50q0 109 54 194.5t124 84.5q32 0 52 -17.5t18 -38.5q-2 -23 -21 -21t-19 -14q-1 -14 13.5 -25t34.5 -11q29 0 48 20t19 50q2 42 -34 74q-43 37 -115 33q-125 -6 -223 -105q-115 -116 -115 -302q0 -160 121 -270q125 -113 311 -112q174 0 288 129
q105 118 107 273z" />
    <glyph glyph-name="P" unicode="P" horiz-adv-x="863" 
d="M557 801q106 -11 197 -99q101 -98 100 -224t-92.5 -213t-220.5 -87q-155 0 -223 106q0 -125 -1 -115q2 -87 15 -110q10 -19 33 -19h36q20 0 20 -20t-20 -20h-356q-20 0 -20 20t20 20h36q45 0 47 105q1 54 1 293q0 232 -1 254q-2 58 -49 70q-62 16 -76 40q-10 17 7 27
q11 7 27 -7q21 -17 71 -22q21 -2 124.5 1t141.5 7q61 6 183 -7zM467 270q64 0 109 58.5t50 149.5q10 176 -95 257q-39 29 -103 29q-9 0 -70 -6q-39 -3 -40 -61v-223q26 27 56 27q25 0 44 -17q16 -16 18 -32t-10.5 -24.5t-26.5 -1.5l-11 11q-8 8 -18 8q-11 0 -23 -13
q-14 -16 -15 -36q-1 -41 35 -81q41 -45 100 -45z" />
    <glyph glyph-name="Q" unicode="Q" horiz-adv-x="849" 
d="M835 153q20 0 20 -20q0 -47 -33 -84q-38 -42 -122 -45q-73 -3 -154 29q-70 -32 -145 -33q-177 -1 -289 100.5t-112 267.5q0 177 99 298q114 138 320 142q136 3 254 -104q125 -113 126 -265q1 -102 -49 -202t-136 -164q53 -20 94 -18q43 2 71 19q36 21 36 60q0 20 20 19z
M328 656q-119 -6 -198 -85q-85 -85 -83 -219q1 -92 43 -162q16 34 59 59.5t90 23.5q77 -2 170 -66l120 -90q80 92 79 244q-2 120 -85.5 210t-194.5 85zM306 51q29 -6 58 -6q58 0 104 24q-65 32 -95 29q-18 -1 -38 -13q-24 -14 -29 -34z" />
    <glyph glyph-name="R" unicode="R" horiz-adv-x="978" 
d="M936 157q22 0 35 -16.5t12 -41.5q-1 -54 -58 -93q-64 -45 -167 -45q-76 0 -145 27q-196 75 -296 298l1 -142q1 -47 5 -65q10 -40 41 -40h36q20 0 20 -20t-20 -20h-355q-20 0 -20 20t20 20h36q45 0 47 105q1 54 1 290q-1 228 -1 250q-2 58 -50 70q-61 16 -75 40
q-10 17 7 27q11 7 27 -7q21 -17 71 -22q21 -2 124 1t141 7q29 3 58 3q150 0 262 -65q122 -71 133 -186q1 -13 1 -26q0 -107 -81.5 -168.5t-206.5 -60.5q-72 0 -136 33q-57 30 -86 73v0q31 -91 69 -154q46 33 102 33q12 0 24 -1q48 -6 105 -56l98 -95q49 -44 83 -59
q29 -12 64 -10q55 3 74 20q7 7 7 18q0 16 -9 18q-20 4 -20 20q0 20 22 20zM318 689v-12q-1 -27 -1 -85q26 28 56 28q25 0 44 -18q16 -15 18 -32q2 -16 -10 -24.5t-27 -1.5l-9.5 10t-18.5 10q-11 0 -24.5 -14.5t-13.5 -34.5q-2 -43 32 -87q39 -51 97 -51q65 0 106 50t42 133
q1 105 -98 157q-76 41 -153 33q-40 -3 -40 -61z" />
    <glyph glyph-name="S" unicode="S" horiz-adv-x="786" 
d="M551 558q92 -18 150 -88q62 -77 57 -184q-7 -129 -100 -208q-97 -81 -262 -84q-197 -4 -318 110q-85 79 -77 187q3 52 42 86q35 30 75 30q42 0 71.5 -29t29.5 -71q0 -47 -43 -73q-9 -5 -16 -5q-12 0 -17 18q-9 31 -33 31q-39 0 -38 -36q2 -37 34 -71q21 -22 67 -43
q63 -29 129 -29q108 0 179 51.5t77 135.5q4 65 -33 115q-33 44 -76 51q-12 2 -24 2q-39 0 -63 -24q-13 -13 -22 -34q-5 -15 -23 -16q-19 -1 -25 27q-8 34 13 62q-58 -8 -108 33q-54 44 -54 116q0 82 64 134q58 47 143 53q64 4 158 -37q-7 15 -7 29q0 34 25 29q20 -4 16 -24
q-7 -35 85 -100v0h1q8 -6 8 -16q0 -12 -11 -18t-21 2v0v0q-126 95 -209 95q-69 0 -115 -38t-50 -90q-4 -50 16 -84q21 -37 65 -45q10 -2 21 -2q35 0 59 23q20 18 22 37q2 21 -10 31q-15 12 -3 28q12 15 27 4q30 -22 26 -66q-1 -5 -2 -11q58 14 100 6z" />
    <glyph glyph-name="T" unicode="T" horiz-adv-x="817" 
d="M741 270q15 14 29 0t0 -29q-21 -21 -55 -21q-56 0 -102 58q-48 62 -48 144q0 20 4 40q15 95 87 159q65 58 135 58q-3 67 -85 80q-22 3 -85 3q-60 0 -74 -2q-31 -6 -31 -61v-554q-1 -58 10 -81.5t36 -23.5h37q20 0 20 -20t-20 -20h-357q-20 0 -20 20t20 20h36q45 0 47 105
q1 55 1 294q0 232 -1 255q-1 32 -3 39q-6 23 -26 27q-93 7 -161 -1q-82 -10 -85 -80q70 0 135 -58q72 -64 87 -159q4 -20 4 -40q0 -82 -48 -144q-46 -58 -102 -58q-34 0 -55 21q-14 15 0 29t29 0q5 -5 15 -5q20 0 33 23q11 19 11 41q0 70 -76 149q-49 51 -67 96
q-14 36 -16 95q-1 45 17 111q15 50 21.5 60.5t19.5 7.5q13 -2 16 -14q9 -35 24.5 -35.5t140.5 1.5h363q16 0 68 -2q39 -2 57 0q31 3 40 36q3 12 16 14q13 3 20 -7.5t20 -56.5q19 -63 21 -115q1 -52 -16 -93q-19 -46 -70 -98q-76 -79 -76 -149q0 -22 11 -41q13 -23 33 -23
q11 0 15 5z" />
    <glyph glyph-name="U" unicode="U" horiz-adv-x="741" 
d="M773 800h-358q-20 0 -20 -20t20 -20h45q27 0 35 -24q2 -9 4 -44q2 -54 1 -418q-19 15 -42 15q-14 0 -28 -6q-22 -10 -17 -26q6 -20 25 -14q7 3 14 3q21 0 36 -24q8 -14 8 -40q0 -38 -23 -70q-65 -90 -172 -81q-54 4 -110 39t-74 76q91 52 140 165q44 100 44 215
q0 114 -40 201q-42 95 -110 105q-42 6 -68 -16q-19 -16 -19 -33q-1 -15 12 -21q13 -5 23 5.5t24 10.5t25 -10q23 -19 15 -74q-12 -75 -96 -219q-67 -116 -67 -209q0 -75 45 -145q81 -123 245 -137q20 -2 41 -2q56 0 150 16q87 15 120 13q67 -5 114 -38q16 -12 28 0
q14 14 0 28q-9 6 -32 30q-19 25 -21 123q-2 75 0 544q1 29 6 41q8 21 34 21h43q21 0 21 20t-21 20z" />
    <glyph glyph-name="V" unicode="V" horiz-adv-x="869" 
d="M865 653q0 97 -54 159q-57 64 -149 59q-99 -5 -118 -73q-2 -10 -2 -19q0 -47 36 -62q17 -8 36 0q19 9 19 28q1 21 -19 21q-16 0 -19 -13q-19 6 -14 35q4 33 45 34q33 1 57 -29q30 -38 25 -109q-4 -56 -46 -134.5l-83 -156.5q-49 -101 -64 -202l-125 298l-68 152
q-8 23 -25 62q-12 25 7 40q14 12 53 14q20 1 20 20q0 20 -20 20h-337q-20 0 -20 -20q0 -21 20 -20q31 1 51.5 -7.5t35.5 -44.5l252 -619q5 -12 5 -22q0 -25 -21 -26h-30q-20 0 -20 -20t20 -20h350q20 0 22 19q1 19 -19 21q-26 1 -68 3q-37 3 -37 48q0 29 48 95l98 132
q74 100 108 164q50 96 50 173z" />
    <glyph glyph-name="W" unicode="W" horiz-adv-x="1191" 
d="M981 202q-42 -72 -43 -103q-2 -33 11 -48q9 -10 70 -12q20 -1 19 -21q-2 -19 -22 -19q-57 2 -290 1v0q-16 0 -22 -1q-20 -1 -22 19q-1 20 19 21h23v0q33 0 51 42q14 33 13 72q-2 82 -88 184l-85 -119q-57 -86 -57 -125q0 -6 2 -12q6 -22 8 -26q7 -13 20 -14q21 -1 47 -1
q20 -2 18 -22q-1 -18 -21 -18q-59 2 -321 -1q-20 0 -20 20t20 20h29q21 1 21 27q0 9 -4 21l-250 621q-8 21 -12 27q-8 15 -20 20q-21 8 -55 5q-20 0 -20 20t20 20l335 1q21 0 21 -21q0 -20 -21 -20q-36 0 -52 -15q-5 -5 -5 -16q0 -23 23 -79l192 -457l136 201
q-75 84 -103 133q-35 59 -35 116q0 26 6 55q14 57 57 91q39 32 86 32q58 0 104 -48q51 -52 51 -130q0 -75 -31 -154q88 -95 111 -157q12 30 97 187q57 108 62 166q5 71 -25 109q-24 31 -58 30q-40 -1 -45 -35q-4 -28 14 -34q4 13 19 13q20 -1 20 -21q-1 -19 -19.5 -27.5
t-36.5 -1.5q-44 19 -36 69q5 35 38.5 60.5t76.5 25.5q95 1 152 -65t49 -162q-9 -115 -93 -253zM676 599l50 -49q16 53 16 103q0 60 -30 95q-26 32 -62 32q-25 0 -39 -18t-14 -41q0 -44 79 -122z" />
    <glyph glyph-name="X" unicode="X" horiz-adv-x="874" 
d="M853 40q-53 2 -78 24q-12 11 -105 140l-213 310q99 50 136 94q28 33 55 87q21 44 37 53q24 13 44.5 12t20.5 20q0 20 -20 20h-245q-20 0 -20 -20t20 -20h25q21 -1 39.5 -20.5t18.5 -45.5q0 -25 -20 -49q-30 -35 -127 -78l-51 74l-42 62q-17 23 -5 39q12 15 52 15h34
q20 0 20 20t-20 20h-381q-20 0 -20 -20t20 -20h8h1q39 1 53 -3q20 -8 48 -49l135 -206q-59 -31 -110 -66q-136 -91 -136 -215q0 -57 29 -108q25 -43 25 -48q0 -4 -2 -8q-6 -13 -59 -14q-20 0 -20 -20t20 -20h386q20 0 20 20t-20 20h-26q-45 0 -112 61q-74 68 -78 138
q-7 102 125 196l221 -336q16 -25 16 -40t-17 -18q-1 0 -28 -1q-20 0 -20 -20t20 -20h346q20 0 20 20q0 19 -20 20z" />
    <glyph glyph-name="Y" unicode="Y" horiz-adv-x="774" 
d="M809 800h-250q-20 0 -20 -20q0 -21 20 -20q13 0 32 -0.5t37 -20.5q22 -23 22 -53q0 -21 -11 -42q-23 -43 -73 -78q-9 -7 -113 -69q-122 184 -134 207q-14 27 -5 38q13 16 52 16h53q20 -1 20 20q0 20 -20 20h-399q-20 0 -20 -20t21.5 -19.5t63.5 -6.5q18 -7 44 -46
l191 -300q-118 -94 -118 -194q0 -50 30 -102q25 -45 25 -49q0 -17 -61 -21q-20 -1 -20 -20q0 -20 20 -20h384q20 0 20 20t-20 20h-25q-47 0 -107 61q-67 70 -63 147q3 49 20 81q25 45 94 99l116 86q46 38 83 98q18 31 34 75q14 39 23 50q18 22 54 23q20 1 20 20q0 20 -20 20
z" />
    <glyph glyph-name="Z" unicode="Z" horiz-adv-x="951" 
d="M845 333q-69 77 -69 135q0 22 12.5 44.5t32.5 22.5q11 0 16 -5q14 -14 28 0t0 28q-21 21 -55 22q-56 0 -102.5 -60t-46.5 -142q0 -20 3 -40q15 -95 87 -159q65 -58 135 -58q-2 -63 -82 -72.5t-439 -9.5h-30q-13 0 -13 17q0 15 13 34l405 617q28 41 49 49l61 4q20 0 20 20
t-20 20h-617q-12 0 -17.5 -9.5t-0.5 -19.5q13 -26 13 -80q0 -50 -12 -77q-14 -30 -40 -55q-29 -27 -59 -33q-16 -3 -16 -17q-2 -29 49 -29q71 0 150 61q106 81 116 214q71 5 88 4q39 -1 51 -15q11 -14 -5 -39q-291 -456 -456 -649q-16 -17 -50 -17h-22q-20 0 -20 -20t20 -20
h346q1 0 3 1h327l124 2q31 -1 40 -36q3 -12 16 -15q13 -2 20 8.5t21 60.5q18 66 17 111q-2 55 -20 98q-21 47 -71 104z" />
    <glyph glyph-name="bracketleft" unicode="[" horiz-adv-x="246" 
d="M124 90v800q0 30 26 42.5t94 12.5q20 0 20 19q0 20 -20 20h-225q-19 0 -19 -20v-948q0 -20 20 -20h224q20 0 20 20q0 19 -19 19q-121 0 -121 55z" />
    <glyph glyph-name="backslash" unicode="\" horiz-adv-x="509" 
d="M511 17h-74l-437 900h75z" />
    <glyph glyph-name="bracketright" unicode="]" horiz-adv-x="317" 
d="M140 890v-800q0 -30 -26.5 -42.5t-93.5 -12.5q-20 0 -20 -19q0 -20 20 -20h224q20 0 20 20v948q0 20 -20 20h-224q-20 0 -20 -20q0 -19 19 -19q121 0 121 -55z" />
    <glyph glyph-name="asciicircum" unicode="^" horiz-adv-x="447" 
d="M416 467l-182 358q-8 15 -25 15t-25 -15v0l-182 -358q-6 -10 -2 -21q9 -27 35 -18q11 4 16 14l158 309l158 -309q5 -10 16 -14q27 -9 35 18q4 11 -2 21z" />
    <glyph glyph-name="grave" unicode="`" horiz-adv-x="207" 
d="M206 597l-71 202q-5 11 -17 11h-99q-19 0 -19 -19q0 -6 12 -19q7 -9 154 -188q16 -20 26 -20q5 0 9 3q13 8 5 30z" />
    <glyph glyph-name="braceleft" unicode="{" horiz-adv-x="246" 
d="M14 444q-14 -4 -14 -16q0 -13 14 -17q40 -10 62 -45q20 -30 20 -69q0 -31 -12.5 -89t-12.5 -87q0 -57 39 -106q49 -61 136 -66q7 -1 12.5 4.5t4.5 12.5q0 13 -12 16q-79 15 -79 91q0 30 11 89.5t11 90.5q0 57 -36.5 103t-97.5 66q-9 2 -9 6q0 3 8 5q62 20 98.5 66
t36.5 103q0 33 -11 92q-11 54 -11 89q0 74 79 91q12 2 12 16q1 6 -4 11.5t-13 5.5q-87 -6 -136 -67q-39 -48 -39 -105q0 -30 12.5 -88t12.5 -88q0 -40 -20 -70q-22 -34 -62 -45z" />
    <glyph glyph-name="bar" unicode="|" horiz-adv-x="110" 
d="M59 925h-59v-943h59v943z" />
    <glyph glyph-name="braceright" unicode="}" horiz-adv-x="246" 
d="M250 411q14 4 13 16q0 14 -14 17q-40 11 -62 45q-19 30 -19 70q0 30 12.5 88t12.5 88q0 57 -39 105q-49 61 -136 67q-7 0 -12.5 -5t-5.5 -13q0 -13 13 -16q78 -15 78 -90q0 -31 -11 -90.5t-11 -89.5q0 -57 36.5 -103t98.5 -66q9 -3 9 -6q0 -4 -8 -6q-62 -20 -99 -66
t-37 -103q0 -33 12 -92q10 -54 10 -88q0 -75 -79 -91q-12 -3 -12 -17q0 -6 5 -11.5t13 -4.5q87 5 136 66q39 49 39 106q0 29 -12.5 87t-12.5 89q0 39 19 69q22 34 63 45z" />
    <glyph glyph-name="cent" unicode="&#xa2;" horiz-adv-x="474" 
d="M441 278q17 -9 6 -27q-66 -106 -177 -121v-124q0 -20 -21 -20q-20 0 -20 20v121h-1q-99 -2 -163.5 66t-64.5 173q0 110 63 187.5t166 90.5v137q0 21 20 21q21 0 21 -21v-135q68 -1 110 -34t45 -83q1 -23 -12.5 -39t-35.5 -16q-33 0 -40 32q-3 9 -1 26t-2 33
q-10 38 -64 41v-416h9q73 0 135 82q12 16 27 6zM128 433q0 -75 28.5 -138t72.5 -90v394q-41 -18 -69 -58q-32 -47 -32 -108z" />
    <glyph glyph-name="sterling" unicode="&#xa3;" horiz-adv-x="668" 
d="M639 217q-41 0 -41 -42q0 -14 14.5 -42.5t14.5 -45.5q0 -26 -20.5 -44t-49.5 -18q-36 0 -83 34l-85 64q-53 34 -105 35q-18 0 -33 -2q-36 -2 -52 -10l39 41q28 31 44 63h161q20 0 20 20q0 21 -20 21h-142q20 57 20 156q0 30 -2 84t-2 76q0 33 3 54q16 114 115 115l6 -2
q53 0 64 -41q3 -15 2 -31q-2 -17 0 -27q7 -31 40 -31q22 0 35 15.5t12 38.5q-3 49 -46.5 82t-107.5 34q-79 2 -144 -39q-77 -48 -90 -131q-9 -59 -9 -119q0 -24 2 -65.5t2 -60.5q0 -58 -13 -108h-115q-21 0 -21 -21t21 -20h101q-24 -83 -59 -136q-115 -50 -115 -107
q0 -37 32 -33q38 4 84 61l50 69q16 11 56 9q37 -2 83 -38q83 -65 84 -66q55 -35 114 -35q78 0 134.5 48.5t56.5 115.5q0 35 -15.5 57t-39.5 22z" />
    <glyph glyph-name="quotedblleft" unicode="&#x201c;" horiz-adv-x="318" 
d="M303 938q-4 9 -17 6q-36 -9 -71 -48q-45 -49 -45 -114q0 -45 21.5 -72.5t56.5 -27.5q29 0 49 22t20 54q0 27 -15.5 43t-40.5 16q-2 0 -9.5 -1t-9.5 -1q-13 0 -13 17q0 44 51 80q9 5 18 11.5t5 14.5zM133 938q-4 9 -17 6q-36 -9 -71 -48q-45 -49 -45 -114
q0 -45 21.5 -72.5t56.5 -27.5q29 0 49 22t20 54q0 27 -15.5 43t-40.5 16q-2 0 -9.5 -1t-9.5 -1q-13 0 -13 17q0 44 51 80q9 5 18 11.5t5 14.5z" />
    <glyph glyph-name="quotedblright" unicode="&#x201d;" horiz-adv-x="318" 
d="M21 687q4 -8 16 -5q36 9 71 47q45 50 45 115q0 44 -21.5 72t-55.5 28q-30 0 -50 -22.5t-20 -54.5q0 -27 16 -43t40 -16q2 0 9.5 1.5t9.5 1.5q13 0 13 -18q0 -43 -51 -80l-16 -10q-10 -8 -6 -16zM191 687q4 -8 16 -5q36 9 71 47q45 50 45 115q0 44 -21.5 72t-55.5 28
q-30 0 -50 -22.5t-20 -54.5q0 -27 16 -43t40 -16q2 0 9.5 1.5t9.5 1.5q13 0 13 -18q0 -43 -51 -80l-16 -10q-10 -8 -6 -16z" />
    <glyph glyph-name="quoteleft" unicode="&#x2018;" horiz-adv-x="147" 
d="M133 938q-4 9 -17 6q-36 -9 -71 -48q-45 -49 -45 -114q0 -45 21.5 -72.5t56.5 -27.5q29 0 49 22t20 54q0 27 -15.5 43t-40.5 16q-2 0 -9.5 -1t-9.5 -1q-13 0 -13 17q0 44 51 80q9 5 18 11.5t5 14.5z" />
    <glyph glyph-name="quoteright" unicode="&#x2019;" horiz-adv-x="147" 
d="M15 687q4 -8 16 -5q36 9 71 47q45 50 45 115q0 44 -21.5 72t-55.5 28q-30 0 -50 -22.5t-20 -54.5q0 -27 16 -43t40 -16q2 0 9.5 1.5t9.5 1.5q13 0 13 -18q0 -43 -51 -80l-16 -10q-10 -8 -6 -16z" />
    <glyph glyph-name="minus" unicode="&#x2212;" horiz-adv-x="531" 
d="M465 510q-14 0 -15 -14q-5 -41 -20 -57.5t-51 -16.5q-23 0 -113 37t-137 37q-125 0 -129 -170q0 -16 16 -16q12 0 15 13v-1q11 83 70 83q21 0 51.5 -13.5l60.5 -27.5q90 -42 135 -42q129 0 133 172q0 16 -16 16z" />
    <glyph glyph-name="Adieresis" unicode="&#xc4;" horiz-adv-x="858" 
d="M880 -61q2 -7 2 -14q0 -28 -25.5 -51t-71.5 -23q-66 0 -135 52q-57 42 -102 107q-59 -21 -124 -21q-183 -1 -301.5 105t-122.5 272q-3 131 60 232q52 84 139 133q75 43 138 44q78 1 120 -40q32 -31 30 -69q-1 -29 -20.5 -48t-47.5 -19q-22 0 -36 11t-12 24q2 16 19 14
q6 -1 13 5.5t8 16.5q1 21 -19 38t-51 17q-70 1 -123.5 -80t-53.5 -187q0 -26 3 -50q25 -171 165 -246q4 26 26 45t58 20q70 1 154 -85q86 24 135.5 81.5t49.5 131.5q0 19 -4 38q-13 70 -76 123l-113 81q-62 48 -72 106q-3 16 -3 32q0 74 54 121q34 30 77 32q31 1 49 -17
q15 -15 2 -29q-14 -14 -28 0q-5 5 -15 5q-11 0 -21 -9.5t-9 -25.5q3 -34 46 -71q75 -64 97 -89q85 -98 84 -252q-1 -97 -50 -189q-50 -97 -135 -155q94 -133 148 -152q35 -13 46 2q5 6 4 14l-2 14q1 18 17 22q22 6 29 -17zM375 143q43 -14 88 -14h10q-35 52 -60 54
q-18 2 -29 -8.5t-11 -23.5q0 -4 2 -8z" />
    <glyph glyph-name="Aring" unicode="&#xc5;" horiz-adv-x="1000" 
d="M1029 -27q47 -3 42 -61q-5 -52 -76 -91q-77 -41 -182 -35q-201 11 -353 207q-65 83 -141 272q0 -169 11.5 -197t45.5 -28q21 0 21 -21q0 -20 -21 -20h-331q-20 0 -20 20q0 21 20 21h36q45 0 47 104q1 55 1 295q0 232 -1 254q-2 59 -49 71q-62 16 -76 40q-10 17 7 27
q11 7 27 -7q21 -17 71 -22q21 -2 125 1t142 7q62 6 184 -6q105 -12 200 -104q104 -102 98 -221q-7 -128 -96.5 -214.5t-218.5 -86.5q-88 0 -152 38q57 -99 83 -126q44 28 93 28q18 0 36 -4q47 -8 93 -59l85 -97q75 -76 165 -78q59 0 77 16q8 9 8 19q0 13 -9 17q-20 6 -18 22
q2 20 26 19zM319 698v-223q26 27 56 27q25 0 44 -17q16 -16 18 -32t-10 -25t-27 -1l-10 11q-9 8 -18 8q-12 0 -25 -14.5t-14 -34.5q-1 -42 35 -82q41 -45 101 -45q65 0 112 59.5t47 149.5q0 184 -96 258q-38 29 -103 29q-9 0 -70 -6q-39 -3 -40 -62z" />
    <glyph glyph-name="copyright" unicode="&#xa9;" horiz-adv-x="872" 
d="M424 797q173 0 295.5 -118.5t118.5 -292.5q-3 -171 -132 -293q-124 -117 -282 -117q-173 0 -298.5 120.5t-125.5 289.5t125.5 290t298.5 121zM424 21q143 0 242 108q96 106 96 251q0 163 -86 265q-92 107 -252 107q-153 0 -251.5 -104.5t-98.5 -257.5q0 -154 98 -260
q100 -109 252 -109zM623 286q-15 9 -27 -6q-62 -82 -134 -82q-60 0 -105 72.5t-45 169.5q0 75 48 127q42 45 87 45q24 0 44.5 -11.5t25.5 -30.5q4 -15 2 -32t0 -26q7 -32 40 -32q22 0 35.5 16t11.5 39q-2 51 -45.5 84t-113.5 33q-116 -1 -189 -80.5t-73 -198.5
q0 -103 63.5 -170t162.5 -67q140 0 217 122q11 18 -5 28z" />
    <glyph glyph-name="Euro" unicode="&#x20ac;" horiz-adv-x="625" 
d="M649 130q-14 0 -24 -11q-81 -88 -191 -88q-106 0 -174 85q-61 78 -78 207h181q20 0 20 20q0 19 -20 19h-185q-1 26 -1 51v14h186q19 0 19 20q0 19 -19 19h-184q10 135 73 211q66 82 182 82q79 0 128 -26l50 -38q19 -15 32 3t-6 34q-84 71 -204 71q-126 0 -228.5 -97.5
t-130.5 -239.5h-55q-20 0 -20 -19q0 -20 20 -20h49q-2 -23 -2 -45v-20h-47q-19 0 -19 -19q0 -20 19 -20h50q17 -156 120 -248q99 -88 244 -88q60 0 123.5 27.5t100.5 69.5q11 14 11 26q0 20 -20 20z" />
    <glyph glyph-name="a" unicode="a" horiz-adv-x="901" 
d="M881 40q20 0 20 -20t-20 -20h-337q-20 0 -20 20q0 18 20 20q82 6 60 53l-26 61q-18 -24 -51 -24q-17 0 -28.5 10t-12.5 23q0 10 9.5 19.5t21.5 9.5q6 0 13 -3q13 33 -6 61q-22 32 -73 27q-11 -1 -57 -18q-42 -17 -76 -17q-48 0 -71 19q15 -79 94 -160q20 -20 54.5 -39
t62.5 -22q23 -3 23 -20q0 -20 -20 -20h-396q-17 0 -20 16q-3 15 11 21l26 11q23 9 35 22q9 9 9 19q0 13 -14 22q-110 69 -112 174q-2 104 89 200q53 57 147 120q34 22 84 59q22 21 22 44q0 7 -17 48l-94 4q-20 1 -19 21t21 19q202 -12 257 0q16 3 23 -12l276 -681
q27 -66 92 -67zM431 321q16 5 31 5q31 0 50 -14l-124 296q-55 -36 -94 -106q-43 -76 -50 -159q9 -44 69 -51q33 -3 67 9z" />
    <glyph glyph-name="b" unicode="b" horiz-adv-x="862" 
d="M526 604q125 4 215 -65q100 -76 100 -205q0 -330 -448 -330q-106 0 -356 -7q-20 -1 -20 19q-1 20 19 21q17 0 27 1q31 2 31 45l6 678q-74 3 -97 41q-10 18 7 28t27 -7q15 -25 60 -24l73 2q268 6 300 0q120 -21 120 -105q0 -73 -64 -92zM353 47q78 0 171 86
q102 93 102 220q0 139 -100 178q-32 12 -64 13q-50 0 -109.5 -51.5t-59.5 -99.5q0 -24 15 -58q18 -40 41 -36q20 4 24 -15q4 -20 -16 -24q-48 -9 -83 52l-1 -222q0 -47 20 -47q9 0 34 2t26 2zM438 684q-9 34 -53 58q-49 26 -109 21l-1 -299q27 62 91 106q75 50 75 91
q0 10 -3 23z" />
    <glyph glyph-name="c" unicode="c" horiz-adv-x="775" 
d="M676 400q46 0 75 -36q32 -39 26 -102q-9 -101 -103 -185q-103 -92 -242 -94q-172 -3 -295 94q-128 101 -136 264q-9 173 105 315q119 149 292 156q75 3 126 -25q-1 10 -1 9q0 14 5 29q5 19 24 14q20 -6 14 -25q-3 -9 -3 -18q0 -23 20 -41l69 -63q14 -13 2 -28
q-13 -15 -28 -2q-19 16 -72 57q-61 43 -135 43q-29 0 -53 -7q-84 -23 -142 -118.5t-58 -207.5q0 -129 83 -218q87 -92 215 -88q107 3 176 43q49 28 71 69q14 28 14 58q0 52 -39 52q-7 0 -15 -4t-18 -19t-19 -19q-18 -9 -34 2t-14 33q3 22 25 40q26 22 65 22z" />
    <glyph glyph-name="d" unicode="d" horiz-adv-x="824" 
d="M788 397q0 -205 -115 -311q-93 -87 -235 -92q-96 0 -163 47q-3 -21 -3 -25q0 -17 -24 -17q-155 -1 -208 -1q-19 -1 -19 18q-1 19 17 19.5t26 1.5q31 2 31 43l1 645q-71 3 -93 40q-10 16 7 26q16 10 26 -6q14 -24 57 -23l70 2q75 1 151 3q86 1 150 -8q101 -13 203 -109
q121 -113 121 -253zM574 384q-6 102 -56 187q-38 64 -90 104q-78 60 -163 53q0 27 -1 -381q-1 -107 -1 -164v-35q28 50 73 50q17 0 28 -7q15 -8 8 -24q-8 -17 -26 -9q-7 4 -21 -3q-35 -16 -31 -46q4 -42 65 -46q72 -4 143 61q82 75 72 260z" />
    <glyph glyph-name="e" unicode="e" horiz-adv-x="851" 
d="M852 154q3 -59 -18 -129q-19 -61 -39 -83q-14 -14 -28 -1q-5 4 -8 21t-22.5 29.5t-42.5 12.5q-6 1 -305 -3t-311 -4l-51 -1q-20 -1 -20 19v1q0 20 19 20l48 1q25 5 26 55l3 631q0 12 -6 20.5t-9.5 8.5t-6.5 1q-35 0 -62 1q-20 1 -19 21t21 19q192 -5 328 5q47 4 78 4
q71 0 116 -18q-1 18 1 36.5t22 15.5q20 -2 17 -22q-4 -33 6 -57q15 -38 60 -48q20 -4 16 -24q-5 -19 -24 -15q-32 7 -60 32q-16 16 -44 40q-37 20 -104 20q-27 0 -72 -3l-73 -4l-3 -260l88 1q-5 75 33 113q31 31 65 29q21 -1 33 -18q8 -10 1 -22t-20.5 -9.5t-26.5 -11
t-13 -28.5q0 -26 29 -50q21 -17 175 -99l27 -14q74 -39 123 -104t53 -129zM598 44q118 0 191 86q-81 0 -164 35t-138 92q-85 89 -108 200l-94 -1l-2 -417l311 4v1h4z" />
    <glyph glyph-name="f" unicode="f" horiz-adv-x="734" 
d="M725 659v-1q-3 -50 -26 -85q-19 -30 -75 -81q-106 -95 -151 -185q-12 -24 -12 -46t13 -37.5t35 -15.5q12 0 18 5q16 12 28 0q14 -14 0 -29q-18 -20 -55 -21q-43 -1 -76 30q-48 46 -52 164q-6 2 -89 0l-5 -263q0 -28 1 -34q4 -21 22 -21.5t78 -0.5q20 0 20 -21
q0 -20 -20 -19l-129 1q-94 2 -170 -1q-1 0 -51 -1q-21 0 -21 19v1q0 19 20 20q-3 0 42 -1q31 0 32 57q2 607 1 626q-2 30 -22 31h-62q-20 1 -19 21t21 19q192 -5 327 5q21 2 249 4q30 0 39 36q4 12 16 14q13 2 20 -9q38 -58 53 -181zM287 496l-3 -99q85 0 92 3q12 68 51 131
q47 75 122 117q57 33 123 32q-13 34 -40 57q-22 17 -39 20q-35 5 -91 5q-60 0 -151 -7q-24 -1 -63 -3z" />
    <glyph glyph-name="g" unicode="g" horiz-adv-x="814" 
d="M796 278q-4 -97 -88 -176q57 -19 63 -68q3 -19 -15 -23q-20 -4 -24 15q0 3 -2 6q-12 28 -40 28q-23 0 -90 -32q-75 -34 -168 -34q-173 0 -295 95q-128 100 -136 262q-9 173 101 308q115 140 289 147q75 3 127 -25q-1 10 -1 9q0 14 4 29q5 19 25 14q19 -6 13 -25
q-3 -9 -3 -18q0 -23 20 -41l69 -63q15 -13 2 -28t-28 -2q-40 34 -72 57q-63 45 -145 45q-21 0 -39 -3q-82 -17 -140.5 -109.5t-58.5 -197.5q0 -141 106 -245t247 -104q114 0 176 67q45 48 48 104q2 58 -35.5 101.5t-93.5 43.5q-32 0 -53 -13.5t-21 -34.5q0 -8 2.5 -13.5
t17.5 -13.5q12 -7 13 -25q2 -24 -31.5 -47.5t-67.5 -19.5q-47 4 -77 39q-33 38 -30 98q4 71 63.5 118.5t156.5 46.5q39 0 76 -16q35 -10 59.5 2.5t25.5 12.5q5 0 9 -3q15 -8 8.5 -31t3.5 -49q6 -13 20 -73q11 -47 9 -115z" />
    <glyph glyph-name="h" unicode="h" 
d="M901 42q20 0 21 -20q0 -20 -20 -20l-340 -2q-20 0 -20 20t20 20h28q27 0 35 32q4 15 5 53v169q-47 -52 -115 -50q-48 1 -78 27.5t-31 69.5q-2 60 38 74q16 6 25 -9q12 -23 43 -23q34 -1 64 28q25 25 25 60q0 47 -32 79q-40 40 -114 40q-79 -1 -127 -58q-42 -48 -42 -106
q0 -76 45 -103q17 -10 7 -27q-10 -18 -28 -7q-17 10 -30 25v-193q1 -79 37 -79h42q20 0 21 -20q0 -20 -20 -20l-340 -2q-20 0 -20 20t20 20h29q39 0 40 71v583q0 36 -9 50t-33 14h-27q-20 0 -20 20t20 20l339 2q20 0 21 -20q0 -8 -6 -14t-14 -6h-38q-42 -1 -42 -58v-166
q61 93 175 94q134 0 175 -101v165q-1 65 -41 64q-25 1 -27 0q-20 0 -20 20t20 20l339 2q20 0 21 -20q0 -8 -6 -14t-14 -6h-43q-38 -1 -39 -61l1 -576q0 -50 9.5 -65.5t30.5 -15.5q27 -1 40 0z" />
    <glyph glyph-name="i" unicode="i" horiz-adv-x="429" 
d="M377 40q20 0 20 -20t-20 -20h-357q-20 0 -20 20t20 20h36q45 0 47 105q1 55 1 294q0 232 -1 254q-1 35 -4 43q-8 24 -35 24h-44q-20 0 -20 20t20 20h357q20 0 20 -20t-20 -20h-43q-26 0 -35 -20q-5 -12 -5 -42q-2 -466 0 -553q1 -47 5 -65q10 -40 41 -40h37v0z" />
    <glyph glyph-name="j" unicode="j" horiz-adv-x="791" 
d="M705 760q-26 0 -35 -20q-5 -12 -5 -42q-1 -92 -1 -184q-2 -207 -2 -285q48 53 77 53q19 0 20 -17q0 -9 -23 -23q-27 -17 -68 -68q-142 -180 -333 -182q-69 -1 -114 11t-98 45q-123 78 -123 221q0 114 74 193q69 73 158 73q76 0 122 -37q43 -36 45 -92q1 -48 -27 -84
t-66 -34q-23 1 -52 32t-65 32q-52 3 -84.5 -33t-32.5 -88q0 -93 70 -144q58 -42 126 -42q15 0 30 2q62 12 107 50q66 54 68 145q6 305 1 451q-1 35 -4 43q-8 24 -35 24h-44q-20 0 -20 20t20 20h357q20 0 20 -20t-20 -20h-43v0z" />
    <glyph glyph-name="k" unicode="k" horiz-adv-x="976" 
d="M1018 -28q27 -13 27 -48q0 -16 -6 -32q-31 -73 -150 -73q-128 0 -244 64t-189 171q-51 76 -88 176l-55 158l-21 -53q0 -155 1 -191q1 -47 6 -64q9 -40 40 -40h37q20 0 20 -20t-20 -20h-356q-20 0 -20 20t20 20h36q45 0 47 104q1 55 1 294q0 231 -1 253q-1 35 -4 43
q-8 24 -35 24h-44q-20 0 -20 20t20 20h356q20 0 20 -20t-20 -20h-43q-26 0 -35 -20q-5 -12 -5 -42v-252l77 179q50 104 105 152q44 38 98 36q52 -1 83 -35q26 -29 28 -66q0 -26 -13 -44.5t-36 -17.5q-32 0 -38 32q-1 35 2 48q-2 33 -36 35q-57 2 -122 -104q-28 -45 -53 -99
q-2 -5 -45 -101q6 -30 42 -107.5t58 -109.5q33 13 66 13q35 0 69 -15q47 -19 90 -87l71 -126q43 -71 104 -109q54 -34 103 -34q24 0 39.5 8.5t15.5 22.5q0 9 -11.5 17.5t-11.5 19.5q0 7 4 13q13 19 36 7z" />
    <glyph glyph-name="l" unicode="l" horiz-adv-x="792" 
d="M795 152q4 -58 -18 -130q-20 -63 -40 -85q-13 -15 -28 -1q-5 4 -7 19q-4 19 -23 31t-43 13q-7 0 -302 1q-299 1 -311 0h1h-4q-20 0 -20 20t20 20q3 1 33 1q50 0 50 103v547q-2 35 -4 43q-8 24 -35 24h-44q-20 0 -20 20t20 20h355q20 0 20 -20t-20 -20h-42q-26 0 -35 -21
q-5 -11 -5 -41q-3 -539 -2 -556q1 -54 17 -77q13 -18 40 -20q77 -7 200 3t184 82q-152 1 -273 146q-49 59 -81 130q-29 64 -33 114q-6 69 31 113q31 37 71 37q38 -1 38 -29q-1 -19 -20 -20q-17 0 -24 1q-22 -3 -22 -33q0 -33 32 -58q24 -20 83 -50q66 -33 108 -63
q144 -103 153 -264z" />
    <glyph glyph-name="m" unicode="m" horiz-adv-x="1088" 
d="M994 40q20 1 20 -20q0 -20 -20 -20h-437q-20 0 -20 20t20 20h33q50 0 128 66t128 149q38 63 38 137q0 49 -18 110q-11 41 -41 101q-19 39 -26 61l-241 -426q-7 -12 -18 -18q-4 -2 -9 -2q-17 1 -28 20l-241 426q-16 -42 -25 -61q-30 -60 -42 -101q-18 -63 -18 -112
q0 -74 37 -135q53 -87 121 -148q75 -67 131 -67h33q20 1 20 -20q0 -20 -20 -20h-436q-20 0 -20 20t20 20h33q19 0 19 17q0 18 -47 70q-68 74 -68 156q0 119 110 250l82 95q32 40 32 65q0 23 -16.5 44t-38.5 22h-43q-20 0 -20 20t20 20l253 1q15 0 20 -15l132 -232l131 232
q6 15 21 15l253 -1q20 0 20 -20t-20 -20h-44q-22 -1 -38.5 -21.5t-15.5 -43.5q1 -31 33 -70l85 -96q104 -128 104 -244q0 -82 -71 -157q-45 -48 -44 -69q0 -15 16 -18q10 -1 33 0z" />
    <glyph glyph-name="n" unicode="n" horiz-adv-x="835" 
d="M785 39q20 0 20 -20t-20 -20h-133q-13 0 -22 16q-2 4 -369 649q-6 -23 -25 -61q-30 -60 -42 -101q-18 -62 -18 -112q0 -75 38 -137q50 -84 123 -145q76 -64 134 -66q8 0 34 -1q20 0 20 -20t-20 -20h-440q-20 0 -20 20t20.5 19.5t32.5 1.5q16 3 16 17q0 16 -45 60
q-69 68 -69 161q0 133 109 253l51 56q66 73 65 103q-1 23 -18 44.5t-39 21.5q-28 1 -43 1q-20 0 -20 20t20 20h266q14 0 19 -13l260 -457l-1 379q0 50 -33 51h-38q-20 0 -20 20t20 20h187q20 0 20 -20t-20 -20h-38q-35 0 -37 -49v-517q0 -85 7 -116q9 -38 35 -38h33z" />
    <glyph glyph-name="o" unicode="o" horiz-adv-x="860" 
d="M827 389q-2 -155 -107 -273q-114 -129 -288 -129q-186 -1 -311 112q-121 110 -121 270q0 186 115 302q98 99 223 105q72 4 115 -33q36 -32 34 -74q0 -30 -19 -50t-48 -20q-20 0 -34.5 11t-13.5 25q0 16 19 14t21 21q2 21 -18 38.5t-52 17.5q-70 1 -124 -84.5t-54 -194.5
q0 -25 3 -50q19 -125 110 -199q83 -67 192 -67q138 0 218.5 61.5t80.5 161.5q0 11 -1 23q-6 64 -73 119l-123 87q-69 52 -79 111q-3 16 -3 32q0 75 54 122q34 30 78 32q31 1 48 -16t3 -30q-14 -14 -28 0q-5 5 -15 5q-11 0 -21 -10t-9 -25q2 -34 40 -68q72 -63 97 -92
q92 -107 91 -255z" />
    <glyph glyph-name="p" unicode="p" horiz-adv-x="863" 
d="M557 801q106 -11 197 -99q101 -98 100 -224t-92.5 -213t-220.5 -87q-155 0 -223 106q0 -125 -1 -115q2 -87 15 -110q10 -19 33 -19h36q20 0 20 -20t-20 -20h-356q-20 0 -20 20t20 20h36q45 0 47 105q1 54 1 293q0 232 -1 254q-2 58 -49 70q-62 16 -76 40q-10 17 7 27
q11 7 27 -7q21 -17 71 -22q21 -2 124.5 1t141.5 7q61 6 183 -7zM467 270q64 0 109 58.5t50 149.5q10 176 -95 257q-39 29 -103 29q-9 0 -70 -6q-39 -3 -40 -61v-223q26 27 56 27q25 0 44 -17q16 -16 18 -32t-10.5 -24.5t-26.5 -1.5l-11 11q-8 8 -18 8q-11 0 -23 -13
q-14 -16 -15 -36q-1 -41 35 -81q41 -45 100 -45z" />
    <glyph glyph-name="q" unicode="q" horiz-adv-x="849" 
d="M835 153q20 0 20 -20q0 -47 -33 -84q-38 -42 -122 -45q-73 -3 -154 29q-70 -32 -145 -33q-177 -1 -289 100.5t-112 267.5q0 177 99 298q114 138 320 142q136 3 254 -104q125 -113 126 -265q1 -102 -49 -202t-136 -164q53 -20 94 -18q43 2 71 19q36 21 36 60q0 20 20 19z
M328 656q-119 -6 -198 -85q-85 -85 -83 -219q1 -92 43 -162q16 34 59 59.5t90 23.5q77 -2 170 -66l120 -90q80 92 79 244q-2 120 -85.5 210t-194.5 85zM306 51q29 -6 58 -6q58 0 104 24q-65 32 -95 29q-18 -1 -38 -13q-24 -14 -29 -34z" />
    <glyph glyph-name="r" unicode="r" horiz-adv-x="978" 
d="M936 157q22 0 35 -16.5t12 -41.5q-1 -54 -58 -93q-64 -45 -167 -45q-76 0 -145 27q-196 75 -296 298l1 -142q1 -47 5 -65q10 -40 41 -40h36q20 0 20 -20t-20 -20h-355q-20 0 -20 20t20 20h36q45 0 47 105q1 54 1 290q-1 228 -1 250q-2 58 -50 70q-61 16 -75 40
q-10 17 7 27q11 7 27 -7q21 -17 71 -22q21 -2 124 1t141 7q29 3 58 3q150 0 262 -65q122 -71 133 -186q1 -13 1 -26q0 -107 -81.5 -168.5t-206.5 -60.5q-72 0 -136 33q-57 30 -86 73q31 -91 69 -154q46 33 102 33q12 0 24 -1q48 -6 105 -56l98 -95q49 -44 83 -59
q29 -12 64 -10q55 3 74 20q7 7 7 18q0 16 -9 18q-20 4 -20 20q0 20 22 20zM318 689v-12q-1 -27 -1 -85q26 28 56 28q25 0 44 -18q16 -15 18 -32q2 -16 -10 -24.5t-27 -1.5q-19 20 -28 20q-11 0 -24.5 -14.5t-13.5 -34.5q-2 -43 32 -87q39 -51 97 -51q65 0 106 50t42 133
q1 105 -98 157q-76 41 -153 33q-40 -3 -40 -61z" />
    <glyph glyph-name="s" unicode="s" horiz-adv-x="786" 
d="M551 558q92 -18 150 -88q62 -77 57 -184q-7 -129 -100 -208q-97 -81 -262 -84q-197 -4 -318 110q-85 79 -77 187q3 52 42 86q35 30 75 30q42 0 71.5 -29t29.5 -71q0 -47 -43 -73q-9 -5 -16 -5q-12 0 -17 18q-9 31 -33 31q-39 0 -38 -36q2 -37 34 -71q21 -22 67 -43
q63 -29 129 -29q108 0 179 51.5t77 135.5q4 65 -33 115q-33 44 -76 51q-12 2 -24 2q-39 0 -63 -24q-13 -13 -22 -34q-5 -15 -23 -16q-19 -1 -25 27q-8 34 13 62q-58 -8 -108 33q-54 44 -54 116q0 82 64 134q58 47 143 53q64 4 158 -37q-7 15 -7 29q0 34 25 29q20 -4 16 -24
q-7 -35 85 -100h1q8 -6 8 -16q0 -12 -11 -18t-21 2q-126 95 -209 95q-69 0 -115 -38t-50 -90q-4 -50 16 -84q21 -37 65 -45q10 -2 21 -2q35 0 59 23q20 18 22 37q2 21 -10 31q-15 12 -3 28q12 15 27 4q30 -22 26 -66q-1 -5 -2 -11q58 14 100 6z" />
    <glyph glyph-name="t" unicode="t" horiz-adv-x="817" 
d="M741 270q15 14 29 0t0 -29q-21 -21 -55 -21q-56 0 -102 58q-48 62 -48 144q0 20 4 40q15 95 87 159q65 58 135 58q-3 67 -85 80q-22 3 -85 3q-60 0 -74 -2q-31 -6 -31 -61v-554q-1 -58 10 -81.5t36 -23.5h37q20 0 20 -20t-20 -20h-357q-20 0 -20 20t20 20h36q45 0 47 105
q1 55 1 294q0 232 -1 255q-1 32 -3 39q-6 23 -26 27q-93 7 -161 -1q-82 -10 -85 -80q70 0 135 -58q72 -64 87 -159q4 -20 4 -40q0 -82 -48 -144q-46 -58 -102 -58q-34 0 -55 21q-14 15 0 29t29 0q5 -5 15 -5q20 0 33 23q11 19 11 41q0 70 -76 149q-49 51 -67 96
q-14 36 -16 95q-1 45 17 111q15 50 21.5 60.5t19.5 7.5q13 -2 16 -14q9 -35 24.5 -35.5t140.5 1.5h363q16 0 68 -2q39 -2 57 0q31 3 40 36q3 12 16 14q13 3 20 -7.5t20 -56.5q19 -63 21 -115q1 -52 -16 -93q-19 -46 -70 -98q-76 -79 -76 -149q0 -22 11 -41q13 -23 33 -23
q11 0 15 5z" />
    <glyph glyph-name="u" unicode="u" horiz-adv-x="741" 
d="M773 800q21 0 21 -20t-21 -20h-43q-26 0 -34 -21q-5 -12 -6 -41q-2 -469 0 -544q2 -98 21 -123q23 -24 32 -30q14 -14 0 -28q-12 -12 -28 0q-47 33 -114 38q-33 2 -120 -13q-94 -16 -150 -16q-21 0 -41 2q-164 14 -245 137q-45 70 -45 145q0 93 67 209q84 144 96 219
q8 55 -15 74q-11 10 -25 10t-24 -10.5t-23 -5.5q-13 6 -12 21q0 17 19 33q26 22 68 16q68 -10 110 -105q40 -87 40 -201q0 -115 -44 -215q-49 -113 -140 -165q18 -41 74 -76t110 -39q107 -9 172 81q23 32 23 70q0 26 -8 40q-15 24 -36 24q-7 0 -14 -3q-19 -6 -25 14
q-5 16 17 26q14 6 28 6q23 0 42 -15q1 364 -1 418q-2 35 -4 44q-8 24 -35 24h-45q-20 0 -20 20t20 20h358v0z" />
    <glyph glyph-name="v" unicode="v" horiz-adv-x="869" 
d="M865 653q0 -77 -50 -173q-34 -64 -108 -164l-98 -132t-48 -95q0 -45 37 -48q42 -2 68 -3q20 -2 19 -21q-2 -19 -22 -19h-350q-20 0 -20 20t20 20h30q21 1 21 26q0 10 -5 22l-252 619q-15 36 -35.5 44.5t-51.5 7.5q-20 -1 -20 20q0 20 20 20h337q20 0 20 -20
q0 -19 -20 -20q-39 -2 -53 -14q-19 -15 -7 -40q17 -39 25 -62l68 -152l125 -298q15 101 64 202l83 156.5t46 134.5q5 71 -25 109q-24 30 -57 29q-41 -1 -45 -34q-5 -29 14 -35q3 13 19 13q20 0 19 -21q0 -19 -19 -28q-19 -8 -36 0q-36 15 -36 62q0 9 2 19q19 68 118 73
q92 5 149 -59q54 -62 54 -159z" />
    <glyph glyph-name="w" unicode="w" horiz-adv-x="1191" 
d="M981 202q-42 -72 -43 -103q-2 -33 11 -48q9 -10 70 -12q20 -1 19 -21q-2 -19 -22 -19q-57 2 -290 1q-16 0 -22 -1q-20 -1 -22 19q-1 20 19 21h23q33 0 51 42q14 33 13 72q-2 82 -88 184l-85 -119q-57 -86 -57 -125q0 -6 2 -12q6 -22 8 -26q7 -13 20 -14q21 -1 47 -1
q20 -2 18 -22q-1 -18 -21 -18q-59 2 -321 -1q-20 0 -20 20t20 20h29q21 1 21 27q0 9 -4 21l-250 621q-8 21 -12 27q-8 15 -20 20q-21 8 -55 5q-20 0 -20 20t20 20l335 1q21 0 21 -21q0 -20 -21 -20q-36 0 -52 -15q-5 -5 -5 -16q0 -23 23 -79l192 -457l136 201
q-75 84 -103 133q-35 59 -35 116q0 26 6 55q14 57 57 91q39 32 86 32q58 0 104 -48q51 -52 51 -130q0 -75 -31 -154q88 -95 111 -157q12 30 97 187q57 108 62 166q5 71 -25 109q-24 31 -58 30q-40 -1 -45 -35q-4 -28 14 -34q4 13 19 13q20 -1 20 -21q-1 -19 -19.5 -27.5
t-36.5 -1.5q-44 19 -36 69q5 35 38.5 60.5t76.5 25.5q95 1 152 -65t49 -162q-9 -115 -93 -253zM676 599l50 -49q16 53 16 103q0 60 -30 95q-26 32 -62 32q-25 0 -39 -18t-14 -41q0 -44 79 -122z" />
    <glyph glyph-name="x" unicode="x" horiz-adv-x="874" 
d="M853 40q20 -1 20 -20q0 -20 -20 -20h-346q-20 0 -20 20t20 20q27 1 28 1q17 3 17 18t-16 40l-221 336q-132 -94 -125 -196q4 -70 78 -138q67 -61 112 -61h26q20 0 20 -20t-20 -20h-386q-20 0 -20 20t20 20q53 1 59 14q2 4 2 8q0 5 -25 48q-29 51 -29 108q0 124 136 215
q51 35 110 66l-135 206q-28 41 -48 49q-14 4 -53 3h-1h-8q-20 0 -20 20t20 20h381q20 0 20 -20t-20 -20h-34q-40 0 -52 -15q-12 -16 5 -39l42 -62l51 -74q97 43 127 78q20 24 20 49q0 26 -18.5 45.5t-39.5 20.5h-25q-20 0 -20 20t20 20h245q20 0 20 -20q0 -21 -20.5 -20
t-44.5 -12q-16 -9 -37 -53q-27 -54 -55 -87q-37 -44 -136 -94l213 -310q93 -129 105 -140q25 -22 78 -24z" />
    <glyph glyph-name="y" unicode="y" horiz-adv-x="774" 
d="M809 800q20 0 20 -20q0 -19 -20 -20q-36 -1 -54 -23q-9 -11 -23 -50q-16 -44 -34 -75q-37 -60 -83 -98l-116 -86q-69 -54 -94 -99q-17 -32 -20 -81q-4 -77 63 -147q60 -61 107 -61h25q20 0 20 -20t-20 -20h-384q-20 0 -20 20q0 19 20 20q61 4 61 21q0 4 -25 49
q-30 52 -30 102q0 100 118 194l-191 300q-26 39 -44 46q-42 7 -63.5 6.5t-21.5 19.5t20 20h399q20 0 20 -20q0 -21 -20 -20h-53q-39 0 -52 -16q-9 -11 5 -38q12 -23 134 -207q104 62 113 69q50 35 73 78q11 21 11 42q0 30 -22 53q-18 20 -37 20.5t-32 0.5q-20 -1 -20 20
q0 20 20 20h250v0z" />
    <glyph glyph-name="z" unicode="z" horiz-adv-x="951" 
d="M845 333q50 -57 71 -104q18 -43 20 -98q1 -45 -17 -111q-14 -50 -21 -60.5t-20 -8.5q-13 3 -16 15q-9 35 -24.5 35.5t-139.5 -1.5h-327q-2 -1 -3 -1h-346q-20 0 -20 20t20 20h22q34 0 50 17q165 193 456 649q16 25 5 39q-12 14 -51 15q-17 1 -88 -4q-10 -133 -116 -214
q-79 -61 -150 -61q-51 0 -49 29q0 14 16 17q30 6 59 33q26 25 40 55q12 27 12 77q0 54 -13 80q-5 10 0.5 19.5t17.5 9.5h617q20 0 20 -20t-20 -20l-61 -4q-21 -8 -49 -49l-405 -617q-13 -19 -13 -34q0 -17 13 -17h30q359 0 439 9.5t82 72.5q-70 0 -135 58q-72 64 -87 159
q-3 20 -3 40q0 82 46.5 142t102.5 60q34 -1 55 -22q14 -14 0 -28t-28 0q-5 5 -16 5q-20 0 -32.5 -22.5t-12.5 -44.5q0 -58 69 -135z" />
    <glyph glyph-name="afii10017" unicode="&#x410;" horiz-adv-x="910" 
d="M881 40q20 0 20 -20t-20 -20h-337q-20 0 -20 20q0 18 20 20q82 6 60 53l-26 61q-18 -24 -51 -24q-17 0 -28.5 10t-12.5 23q0 10 9.5 19.5t21.5 9.5q6 0 13 -3q13 33 -6 61q-22 32 -73 27q-11 -1 -57 -18q-42 -17 -76 -17q-48 0 -71 19q15 -79 94 -160q20 -20 54.5 -39
t62.5 -22q23 -3 23 -20q0 -20 -20 -20h-396q-17 0 -20 16q-3 15 11 21l26 11q23 9 35 22q9 9 9 19q0 13 -14 22q-110 69 -112 174q-2 104 89 200q53 57 147 120q34 22 84 59q22 21 22 44q0 7 -17 48l-94 4q-20 1 -19 21t21 19q202 -12 257 0q16 3 23 -12l276 -681
q27 -66 92 -67zM431 321q16 5 31 5q31 0 50 -14l-124 296q-55 -36 -94 -106q-43 -76 -50 -159q9 -44 69 -51q33 -3 67 9z" />
    <glyph glyph-name="afii10019" unicode="&#x412;" horiz-adv-x="862" 
d="M526 604q125 4 215 -65q100 -76 100 -205q0 -330 -448 -330q-106 0 -356 -7q-20 -1 -20 19q-1 20 19 21q17 0 27 1q31 2 31 45l6 678q-74 3 -97 41q-10 18 7 28t27 -7q15 -25 60 -24l73 2q268 6 300 0q120 -21 120 -105q0 -73 -64 -92zM353 47q78 0 171 86
q102 93 102 220q0 139 -100 178q-32 12 -64 13q-50 0 -109.5 -51.5t-59.5 -99.5q0 -24 15 -58q18 -40 41 -36q20 4 24 -15q4 -20 -16 -24q-48 -9 -83 52l-1 -222q0 -47 20 -47q9 0 34 2t26 2zM438 684q-9 34 -53 58q-49 26 -109 21l-1 -299q27 62 91 106q75 50 75 91
q0 10 -3 23z" />
    <glyph glyph-name="afii10020" unicode="&#x413;" horiz-adv-x="734" 
d="M372 357q6 58 20.5 100t34.5 74q46 75 122 117q58 33 123 32q-14 35 -40 57q-23 17 -39 20q-17 2 -40 3.5t-51 1.5q-30 0 -67.5 -1.5t-83.5 -5.5q-24 -2 -63 -3v-658q0 -30 1 -34q4 -21 22 -22h68q20 0 20 -21t-20 -19l-129 1q-48 1 -90 1t-80 -2h-13.5t-37.5 -1
q-21 0 -21 19v1q0 18 20 20q-2 0 8.5 0t33.5 -1q30 0 32 57l1.5 460t-0.5 166q-1 29 -22 31h-62q-20 2 -19 21q2 20 21 19q97 -2 178 -1t149 6q11 1 72.5 2t176.5 2q30 0 39 36q5 13 16 14q13 1 20 -9q38 -60 53 -181v-1q-3 -50 -26 -85q-20 -30 -75 -81q-105 -93 -151 -185
q-12 -24 -12 -46t13 -37.5t35 -15.5q11 0 18 5q16 12 28 0q14 -14 0 -29q-18 -20 -55 -21q-43 -1 -76 30q-48 46 -52 164z" />
    <glyph glyph-name="afii10022" unicode="&#x415;" horiz-adv-x="851" 
d="M852 154q3 -59 -18 -129q-19 -61 -39 -83q-14 -14 -28 -1q-5 4 -8 21t-22.5 29.5t-42.5 12.5q-6 1 -305 -3t-311 -4l-51 -1q-20 -1 -20 19v1q0 20 19 20l48 1q25 5 26 55l3 631q0 12 -6 20.5t-9.5 8.5t-6.5 1q-35 0 -62 1q-20 1 -19 21t21 19q192 -5 328 5q47 4 78 4
q71 0 116 -18q-1 18 1 36.5t22 15.5q20 -2 17 -22q-4 -33 6 -57q15 -38 60 -48q20 -4 16 -24q-5 -19 -24 -15q-32 7 -60 32q-16 16 -44 40q-37 20 -104 20q-27 0 -72 -3l-73 -4l-3 -260l88 1q-5 75 33 113q31 31 65 29q21 -1 33 -18q8 -10 1 -22t-20.5 -9.5t-26.5 -11
t-13 -28.5q0 -26 29 -50q21 -17 175 -99l27 -14q74 -39 123 -104t53 -129zM598 44q118 0 191 86q-81 0 -164 35t-138 92q-85 89 -108 200l-94 -1l-2 -417l311 4v1h4z" />
    <glyph glyph-name="afii10028" unicode="&#x41a;" horiz-adv-x="856" 
d="M1018 -28q27 -13 27 -48q0 -16 -6 -32q-31 -73 -150 -73q-128 0 -244 64t-189 171q-51 76 -88 176l-55 158l-21 -53q0 -155 1 -191q1 -47 6 -64q9 -40 40 -40h37q20 0 20 -20t-20 -20h-356q-20 0 -20 20t20 20h36q45 0 47 104q1 55 1 294q0 231 -1 253q-1 35 -4 43
q-8 24 -35 24h-44q-20 0 -20 20t20 20h356q20 0 20 -20t-20 -20h-43q-26 0 -35 -20q-5 -12 -5 -42v-252l77 179q50 104 105 152q44 38 98 36q52 -1 83 -35q26 -29 28 -66q0 -26 -13 -44.5t-36 -17.5q-32 0 -38 32q-1 35 2 48q-2 33 -36 35q-57 2 -122 -104q-28 -45 -53 -99
q-2 -5 -45 -101q6 -30 42 -107.5t58 -109.5q33 13 66 13q35 0 69 -15q47 -19 90 -87l71 -126q43 -71 104 -109q54 -34 103 -34q24 0 39.5 8.5t15.5 22.5q0 9 -11.5 17.5t-11.5 19.5q0 7 4 13q13 19 36 7z" />
    <glyph glyph-name="afii10029" unicode="&#x41b;" horiz-adv-x="895" 
d="M14 143q0 77 50 173q34 64 108 164l98 132t48 95q0 45 -37 48q-42 2 -68 3q-20 2 -19 21q2 19 22 19h350q20 0 20 -20t-20 -20h-30q-21 -1 -21 -26q0 -10 5 -22l252 -619q15 -36 35.5 -44.5t51.5 -7.5q20 1 20 -20q0 -20 -20 -20h-337q-20 0 -20 20q0 19 20 20
q39 2 53 14q19 15 7 40q-17 39 -25 62l-68 152l-125 298q-15 -101 -64 -202l-83 -156.5t-46 -134.5q-5 -71 25 -109q24 -30 57 -29q41 1 45 34q5 29 -14 35q-3 -13 -19 -13q-20 0 -19 21q0 19 19 28q19 8 36 0q36 -15 36 -62q0 -9 -2 -19q-19 -68 -118 -73q-92 -5 -149 59
q-54 62 -54 159z" />
    <glyph glyph-name="afii10030" unicode="&#x41c;" horiz-adv-x="1088" 
d="M994 40q20 1 20 -20q0 -20 -20 -20h-437q-20 0 -20 20t20 20h33q50 0 128 66t128 149q38 63 38 137q0 49 -18 110q-11 41 -41 101q-19 39 -26 61l-241 -426q-7 -12 -18 -18q-4 -2 -9 -2q-17 1 -28 20l-241 426q-16 -42 -25 -61q-30 -60 -42 -101q-18 -63 -18 -112
q0 -74 37 -135q53 -87 121 -148q75 -67 131 -67h33q20 1 20 -20q0 -20 -20 -20h-436q-20 0 -20 20t20 20h33q19 0 19 17q0 18 -47 70q-68 74 -68 156q0 119 110 250l82 95q32 40 32 65q0 23 -16.5 44t-38.5 22h-43q-20 0 -20 20t20 20l253 1q15 0 20 -15l132 -232l131 232
q6 15 21 15l253 -1q20 0 20 -20t-20 -20h-44q-22 -1 -38.5 -21.5t-15.5 -43.5q1 -31 33 -70l85 -96q104 -128 104 -244q0 -82 -71 -157q-45 -48 -44 -69q0 -15 16 -18q10 -1 33 0z" />
    <glyph glyph-name="afii10031" unicode="&#x41d;" 
d="M901 42q20 0 21 -20q0 -20 -20 -20l-340 -2q-20 0 -20 20t20 20h28q27 0 35 32q4 15 5 53v169q-47 -52 -115 -50q-48 1 -78 27.5t-31 69.5q-2 60 38 74q16 6 25 -9q12 -23 43 -23q34 -1 64 28q25 25 25 60q0 47 -32 79q-40 40 -114 40q-79 -1 -127 -58q-42 -48 -42 -106
q0 -76 45 -103q17 -10 7 -27q-10 -18 -28 -7q-17 10 -30 25v-193q1 -79 37 -79h42q20 0 21 -20q0 -20 -20 -20l-340 -2q-20 0 -20 20t20 20h29q39 0 40 71v583q0 36 -9 50t-33 14h-27q-20 0 -20 20t20 20l339 2q20 0 21 -20q0 -8 -6 -14t-14 -6h-38q-42 -1 -42 -58v-166
q61 93 175 94q134 0 175 -101v165q-1 65 -41 64q-25 1 -27 0q-20 0 -20 20t20 20l339 2q20 0 21 -20q0 -8 -6 -14t-14 -6h-43q-38 -1 -39 -61l1 -576q0 -50 9.5 -65.5t30.5 -15.5q27 -1 40 0z" />
    <glyph glyph-name="afii10032" unicode="&#x41e;" horiz-adv-x="860" 
d="M840 389q-2 -155 -107 -273q-114 -129 -288 -129q-186 -1 -311 112q-121 110 -121 270q0 186 115 302q98 99 223 105q72 4 115 -33q36 -32 34 -74q0 -30 -19 -50t-48 -20q-20 0 -34.5 11t-13.5 25q0 16 19 14t21 21q2 21 -18 38.5t-52 17.5q-70 1 -124 -84.5t-54 -194.5
q0 -25 3 -50q19 -125 110 -199q83 -67 192 -67q138 0 218.5 61.5t80.5 161.5q0 11 -1 23q-6 64 -73 119l-123 87q-69 52 -79 111q-3 16 -3 32q0 75 54 122q34 30 78 32q31 1 48 -16t3 -30q-14 -14 -28 0q-5 5 -15 5q-11 0 -21 -10t-9 -25q2 -34 40 -68q72 -63 97 -92
q92 -107 91 -255z" />
    <glyph glyph-name="afii10033" unicode="&#x41f;" 
d="M630 294v400q-1 65 -41 64h-267q-42 -1 -42 -58v-386v-193q1 -79 37 -79h42q20 0 21 -20q0 -20 -20 -20l-340 -2q-20 0 -20 20t20 20h29q39 0 40 71v583q0 36 -9 50t-33 14h-27q-20 0 -20 20t20 20h542l339 2q20 0 21 -20q0 -8 -6 -14t-14 -6h-43q-38 -1 -39 -61l1 -576
q0 -50 9.5 -65.5t30.5 -15.5q27 -1 40 0q20 0 21 -20q0 -20 -20 -20l-340 -2q-20 0 -20 20t20 20h28q27 0 35 32q4 15 5 53v169z" />
    <glyph glyph-name="afii10034" unicode="&#x420;" horiz-adv-x="863" 
d="M557 801q106 -11 197 -99q101 -98 100 -224t-92.5 -213t-220.5 -87q-155 0 -223 106q0 -125 -1 -115q2 -87 15 -110q10 -19 33 -19h36q20 0 20 -20t-20 -20h-356q-20 0 -20 20t20 20h36q45 0 47 105q1 54 1 293q0 232 -1 254q-2 58 -49 70q-62 16 -76 40q-10 17 7 27
q11 7 27 -7q21 -17 71 -22q21 -2 124.5 1t141.5 7q61 6 183 -7zM467 270q64 0 109 58.5t50 149.5q10 176 -95 257q-39 29 -103 29q-9 0 -70 -6q-39 -3 -40 -61v-223q26 27 56 27q25 0 44 -17q16 -16 18 -32t-10.5 -24.5t-26.5 -1.5l-11 11q-8 8 -18 8q-11 0 -23 -13
q-14 -16 -15 -36q-1 -41 35 -81q41 -45 100 -45z" />
    <glyph glyph-name="afii10035" unicode="&#x421;" horiz-adv-x="800" 
d="M684 400q46 0 75 -36q32 -39 26 -102q-9 -101 -103 -185q-103 -92 -242 -94q-172 -3 -295 94q-128 101 -136 264q-9 173 105 315q119 149 292 156q75 3 126 -25q-1 10 -1 9q0 14 5 29q5 19 24 14q20 -6 14 -25q-3 -9 -3 -18q0 -23 20 -41l69 -63q14 -13 2 -28
q-13 -15 -28 -2q-19 16 -72 57q-61 43 -135 43q-29 0 -53 -7q-84 -23 -142 -118.5t-58 -207.5q0 -129 83 -218q87 -92 215 -88q107 3 176 43q49 28 71 69q14 28 14 58q0 52 -39 52q-7 0 -15 -4t-18 -19t-19 -19q-18 -9 -34 2t-14 33q3 22 25 40q26 22 65 22z" />
    <glyph glyph-name="afii10036" unicode="&#x422;" horiz-adv-x="837" 
d="M741 270q15 14 29 0t0 -29q-21 -21 -55 -21q-56 0 -102 58q-48 62 -48 144q0 20 4 40q15 95 87 159q65 58 135 58q-3 67 -85 80q-22 3 -85 3q-60 0 -74 -2q-31 -6 -31 -61v-554q-1 -58 10 -81.5t36 -23.5h37q20 0 20 -20t-20 -20h-357q-20 0 -20 20t20 20h36q45 0 47 105
q1 55 1 294q0 232 -1 255q-1 32 -3 39q-6 23 -26 27q-93 7 -161 -1q-82 -10 -85 -80q70 0 135 -58q72 -64 87 -159q4 -20 4 -40q0 -82 -48 -144q-46 -58 -102 -58q-34 0 -55 21q-14 15 0 29t29 0q5 -5 15 -5q20 0 33 23q11 19 11 41q0 70 -76 149q-49 51 -67 96
q-14 36 -16 95q-1 45 17 111q15 50 21.5 60.5t19.5 7.5q13 -2 16 -14q9 -35 24.5 -35.5t140.5 1.5h363q16 0 68 -2q39 -2 57 0q31 3 40 36q3 12 16 14q13 3 20 -7.5t20 -56.5q19 -63 21 -115q1 -52 -16 -93q-19 -46 -70 -98q-76 -79 -76 -149q0 -22 11 -41q13 -23 33 -23
q11 0 15 5z" />
    <glyph glyph-name="afii10037" unicode="&#x423;" horiz-adv-x="798" 
d="M809 800q20 0 20 -20q0 -19 -20 -20q-36 -1 -54 -23q-9 -11 -23 -50q-16 -44 -34 -75q-37 -60 -83 -98l-116 -86q-69 -54 -94 -99q-17 -32 -20 -81q-4 -77 63 -147q60 -61 107 -61h25q20 0 20 -20t-20 -20h-384q-20 0 -20 20q0 19 20 20q61 4 61 21q0 4 -25 49
q-30 52 -30 102q0 100 118 194l-191 300q-26 39 -44 46q-42 7 -63.5 6.5t-21.5 19.5t20 20h399q20 0 20 -20q0 -21 -20 -20h-53q-39 0 -52 -16q-9 -11 5 -38q12 -23 134 -207q104 62 113 69q50 35 73 78q11 21 11 42q0 30 -22 53q-18 20 -37 20.5t-32 0.5q-20 -1 -20 20
q0 20 20 20h250v0z" />
    <glyph glyph-name="afii10039" unicode="&#x425;" horiz-adv-x="874" 
d="M853 40q20 -1 20 -20q0 -20 -20 -20h-346q-20 0 -20 20t20 20q27 1 28 1q17 3 17 18t-16 40l-221 336q-132 -94 -125 -196q4 -70 78 -138q67 -61 112 -61h26q20 0 20 -20t-20 -20h-386q-20 0 -20 20t20 20q53 1 59 14q2 4 2 8q0 5 -25 48q-29 51 -29 108q0 124 136 215
q51 35 110 66l-135 206q-28 41 -48 49q-14 4 -53 3h-1h-8q-20 0 -20 20t20 20h381q20 0 20 -20t-20 -20h-34q-40 0 -52 -15q-12 -16 5 -39l42 -62l51 -74q97 43 127 78q20 24 20 49q0 26 -18.5 45.5t-39.5 20.5h-25q-20 0 -20 20t20 20h245q20 0 20 -20q0 -21 -20.5 -20
t-44.5 -12q-16 -9 -37 -53q-27 -54 -55 -87q-37 -44 -136 -94l213 -310q93 -129 105 -140q25 -22 78 -24z" />
    <glyph glyph-name="afii10040" unicode="&#x426;" horiz-adv-x="871" 
d="M709 8q-50 13 -93 11t-85.5 -10.5l-88 -17.5t-100.5 -9q-67 0 -127 20.5t-105.5 58t-72 90t-26.5 115.5q0 94 67 209q98 169 98 244q0 29 -12 44t-30 15q-13 0 -21.5 -8.5t-19.5 -8.5q-8 0 -13 5.5t-5 13.5q0 9 5 18t14 17t21.5 13t28.5 5q36 0 66.5 -24.5t53 -66
t35.5 -97.5t13 -119q0 -60 -13 -118t-37 -108t-58 -90t-76 -64q10 -23 32.5 -44t51 -37t60 -25.5t59.5 -9.5t59 10.5t57 30t43 48t17 63.5t-14.5 49.5t-29.5 14.5q-5 0 -11 -2t-11 -2q-7 0 -12.5 5t-5.5 16q0 10 14.5 18t31.5 8q22 0 42 -15v187v154t-1 77q-1 21 -3 34.5
t-6 21t-11.5 10t-18.5 2.5h-45q-20 0 -20 20t20 20h358q21 0 21 -20t-21 -20h-43q-23 0 -30.5 -13.5t-9.5 -48.5q-1 -118 -1 -210v-161t0.5 -105t0.5 -55q1 -46 3.5 -67.5t13.5 -32.5q7 -11 17.5 -9.5t20.5 10.5t18 23.5t11 31.5l61 11q-1 -10 -16.5 -37.5l-36 -64.5
t-41 -78.5t-32.5 -78.5t-10.5 -65t25.5 -38q11 -5 18 -1t12 9q17 17 24 9t-3 -34q-3 -9 -15 -15.5t-26.5 -11t-29.5 -6.5t-25 0q-48 7 -74 26t-35 45.5t-2.5 57.5t24.5 60.5t45.5 55t60.5 41.5z" />
    <glyph glyph-name="afii10041" unicode="&#x427;" horiz-adv-x="822" 
d="M471 311q-40 -41 -84 -62.5t-87.5 -26.5t-84.5 4t-76.5 27t-62 44t-41.5 56q-17 33 -18 66.5t8.5 66t25 63.5l30 60.5t25.5 57t11 52.5q0 29 -12 44t-31 15q-14 0 -23 -8.5t-20 -8.5q-8 0 -13 5.5t-5 13.5q0 17 19.5 35t51.5 18q37 0 73.5 -19t63 -56.5t39 -92.5
t2.5 -126q-6 -33 -22 -58.5t-35.5 -44t-40.5 -32t-39 -23.5q0 -40 26 -64.5t64 -34t82.5 -4.5t82.5 23.5t63.5 50.5t25.5 77q0 32 -12.5 45.5t-25.5 13.5q-5 0 -9.5 -2t-9.5 -2q-6 0 -11 4.5t-5 14.5q0 9 12.5 16.5t27.5 7.5q16 0 36 -10v112.5t-1 62.5q-1 21 -3 34.5t-6 21
t-11.5 10t-18.5 2.5h-45q-20 0 -20 20t20 20h358q21 0 21 -20t-21 -20h-43q-23 0 -30.5 -13.5t-9.5 -48.5q-1 -118 -1 -210v-161v-117t1 -67q1 -47 5 -65q10 -40 41 -40h37q20 0 20 -20t-20 -20h-357q-20 0 -20 20t20 20h36q45 0 47 105v168z" />
    <glyph glyph-name="afii10018" unicode="&#x411;" horiz-adv-x="863" 
d="M624 207q1 8 1.5 16.5t0.5 16.5q0 41 -13 78t-34.5 65.5t-50.5 45.5t-61 17q-27 0 -51 -11t-43 -28.5t-30 -39.5t-11 -44q0 -9 3.5 -18t9 -16.5t12 -12.5t13.5 -5q10 0 18 8l11 11q6 3 12 3q10 0 17.5 -7t7.5 -18q0 -18 -18 -35.5t-44 -17.5q-31 0 -56 27v-136
q1 -58 40 -61q61 -6 70 -6q37 0 71.5 14t61 37.5t43.5 53.5t20 63zM540 800q3 -1 10.5 -1t15.5 0.5t15 1t9 0.5q14 -2 23 6t16 17.5t14 17.5t17 6q8 -1 13 -11q2 -5 -3 -19t-10.5 -33t-9.5 -41t0 -42.5t18 -38t44 -26.5q12 -4 20 -2t15 5.5t13.5 6t15.5 1.5
q12 -3 22.5 -18.5t7.5 -28.5q-7 -25 -28.5 -39.5t-49 -17.5t-56.5 4t-51 25t-31.5 45t1.5 64q3 33 -3 50t-23 24.5t-44 8t-66 0.5q-30 0 -56.5 -0.5t-33.5 -1.5q-12 0 -20.5 -4.5t-14.5 -18.5t-9 -39t-4 -67v-86q1 0 1 -116q67 106 223 106q63 0 119 -20t97.5 -56.5
t66 -87.5t24.5 -114q-5 -58 -34.5 -104t-72 -78.5t-92 -52t-92.5 -23.5q-83 -9 -137 -9q-3 0 -28 1.5l-64 4t-88.5 4t-100.5 1.5q-30 0 -50.5 -5t-34.5 -11.5t-22.5 -11.5t-14.5 -5q-8 0 -13 7t-5 12q0 14 21 27.5t59 23.5q25 6 36 27t14 59.5t1.5 97t-1.5 140.5v40v57.5
t-0.5 65t-0.5 61.5v47v22q-2 105 -47 105h-36q-20 0 -20 20t20 20h356q4 0 19.5 -0.5t36 -1l43 -1t40.5 -0.5z" />
    <glyph glyph-name="afii10021" unicode="&#x414;" horiz-adv-x="1041" 
d="M453 69h193q36 2 50.5 12t14.5 24q0 8 -4 19t-9 21.5t-10 20t-6 14.5l-69 127l-40 97.5l-35.5 91.5l-30 79.5l-23.5 61.5l-14.5 -89.5t-19.5 -94t-31.5 -100t-49.5 -107.5l-21 -40.5t-15 -31.5t-8.5 -27.5t-2.5 -29.5q0 -14 14.5 -30t50.5 -18h66zM147 90
q-14 30 -14 60.5t8 59t21 55.5t26 51q17 32 43.5 72.5t64.5 91.5l49 65.5l47.5 65.5t35.5 56.5t14 39.5q0 22 -9 32t-23 14t-30 3.5t-30 0t-23 4t-9 15.5q0 22 22 22h350q20 0 20 -20t-20 -20h-30q-21 0 -21 -26q0 -9 5 -22l252 -619q7 -17 13.5 -26t15 -13.5t18.5 -5.5
t24 -1q7 0 23 5t30 10l15 -26l-34 -24q-41 -29 -70.5 -58.5t-50 -65.5t-31.5 -81t-14 -105q-32 22 -51 64t-25 87.5t1.5 86.5t28.5 62l-535 -1q21 -21 28 -63.5t1 -89t-25 -87.5t-50 -60q-1 63 -16.5 110t-40 83t-55.5 62.5t-62 48.5l-34 24l15 26q14 -5 30 -10t23 -5
q27 0 46 9t33 43z" />
    <glyph glyph-name="afii10024" unicode="&#x416;" horiz-adv-x="1361" 
d="M496 1q-20 0 -20 20t20 20h37q31 0 40 40q4 16 6 64q1 18 1 65.5v125.5q-5 13 -9.5 29t-15.5 25q-20 -122 -70 -216t-129 -154q-28 -21 -58 -36.5t-64 -24.5q-41 -11 -80 -9.5t-70 13t-52.5 32t-27.5 49.5q-5 24 2 43.5t26 25.5q21 3 25 -15q2 -9 -1.5 -13t-8 -8t-7.5 -9
t-1 -15q5 -17 27.5 -22t61.5 6q25 6 46 25.5t41.5 48t40.5 65l44 77.5q26 40 50 59.5t52 26.5q48 12 98 -8q4 17 8.5 30t8.5 27t7 30.5t5 41.5q-43 95 -45 101l-26 51.5t-27 47.5q-64 106 -122 104q-34 -1 -36 -35q3 -15 2 -48q-6 -32 -38 -32q-23 -1 -36 17.5t-13 44.5
q1 36 28 66q31 34 83 35q54 2 98 -36q55 -48 105 -152l39 -89.5l38 -89.5v252q0 29 -5 42q-9 20 -35 20h-43q-20 0 -20 20t20 20h356q20 0 20 -20t-20 -20h-43q-26 0 -35 -20q-5 -13 -5 -42v-252l38 89.5l39 89.5q50 104 105 152q44 38 98 36q52 -1 83 -35q27 -30 28 -66
q0 -26 -13 -44.5t-36 -17.5q-32 0 -38 32q-1 33 2 48q-2 34 -36 35q-58 2 -122 -104q-14 -23 -27 -47.5l-26 -51.5q-2 -6 -45 -101q2 -25 5 -41.5t7 -30.5l8 -27l9 -30q50 20 98 8q28 -7 52 -26.5t50 -59.5l44 -77.5t40.5 -65t41.5 -48t46 -25.5q39 -11 61.5 -6t27.5 22
q2 10 -1 15t-7.5 9t-8 8t-1.5 13q4 18 25 15q19 -6 26 -25.5t2 -43.5q-6 -29 -27.5 -49.5t-52.5 -32t-70 -13t-80 9.5q-34 9 -64 24.5t-58 36.5q-79 60 -129 154t-70 216q-11 -9 -15.5 -25t-9.5 -29v-125.5t1 -65.5q2 -48 6 -64q9 -40 40 -40h37q20 0 20 -20t-20 -20h-356z
" />
    <glyph glyph-name="afii10025" unicode="&#x417;" horiz-adv-x="700" 
d="M314 56q36 0 67 15.5t53 41.5t34.5 60.5t12.5 73.5q0 105 -60 158.5t-183 53.5q-17 0 -33 -1.5t-33 -6.5q-8 -3 -13 -3q-23 0 -23 20q0 11 19.5 26t61.5 26q-2 6 -3 12.5t-1 12.5q0 25 14.5 41.5t28.5 16.5q8 0 8 -6t-3 -7.5t-6.5 -4.5t-6.5 -9.5t-3 -22.5
q0 -15 12.5 -24t37.5 -9q26 0 45.5 10.5t32.5 27t19.5 38t6.5 44.5q0 27 -9 48t-24 35.5t-35 21.5t-42 7q-38 0 -76 -19.5t-85 -57.5q-7 -5 -11 -5q-7 0 -11.5 6t-4.5 13q0 9 7 15q72 55 72 85q0 3 -1 5.5t-1 5.5q0 17 20 17q16 0 16 -26q0 -14 -6 -27q36 17 65.5 24.5
t55.5 9.5q42 3 77 -10.5t60.5 -37.5t39.5 -54.5t13 -62.5t-18.5 -61t-55.5 -50q45 -6 88 -26.5t76 -50.5t53.5 -68t20.5 -79q0 -66 -26 -121.5t-74.5 -95.5t-117.5 -62t-155 -21q-53 1 -106.5 15t-97.5 42.5t-71.5 72.5t-27.5 105q0 54 33 90t85 44q47 7 76.5 -14.5t41 -53
t6 -63.5t-28.5 -47q-6 -4 -10.5 3t-9.5 17.5t-11.5 19.5t-18.5 9q-18 0 -28 -13.5t-11 -33.5t9 -44t32 -44t57 -33.5t85 -13.5z" />
    <glyph glyph-name="afii10026" unicode="&#x418;" 
d="M630 535q-7 -27 -27.5 -52t-48 -48t-59 -45t-60 -44t-51 -45t-32.5 -47q-11 -28 2 -44.5t48 -11.5q12 36 29 44.5t28 -2t10 -35t-25 -54.5q-17 -21 -39.5 -29t-45.5 -5t-44 16t-35 34v-69q0 -57 42 -58h38q8 0 14 -6t6 -14q-2 -20 -21 -20l-339 2q-20 0 -20 20t20 20h27
q24 0 33 14t9 50v583q-2 71 -40 71h-29q-20 0 -20 20t20 20l340 -2q20 0 20 -20q-2 -20 -21 -20h-42q-36 0 -37 -79v-445q7 40 35 71t64 57.5l73 52t63 56.5q24 24 34 49.5t8 45t-15 29.5t-34 3q-13 -27 -29.5 -30t-26 9.5t-6.5 35t30 46.5q10 9 29.5 16.5t42 5.5t45 -16.5
t37.5 -48.5v59q-1 19 -2 32t-3 21q-8 32 -35 32h-28q-20 0 -20 20t20 20l340 -2q20 0 20 -20q-2 -20 -21 -20q-13 1 -40 0q-21 0 -30.5 -15.5t-9.5 -65.5l-1 -576q1 -59 39 -61h43q8 0 14 -6t6 -14q-2 -20 -21 -20l-339 2q-20 0 -20 20t20 20q1 -2 27 0q39 -1 41 64v442v-13
z" />
    <glyph glyph-name="afii10027" unicode="&#x419;" 
d="M630 526q-7 -29 -30.5 -55t-55 -51.5t-66.5 -50t-64 -48.5t-48 -49t-19 -51q0 -15 10 -24t30 -9q10 0 15 1q8 26 19.5 37t22.5 11t18 -9t7 -25q0 -15 -7.5 -31.5t-20.5 -31t-30.5 -24t-38.5 -9.5q-26 0 -51 13.5t-41 37.5v-69q0 -58 42 -58h38q8 0 14 -6t6 -14
q-2 -20 -21 -20l-339 2q-20 0 -20 20t20 20h27q24 0 33 14t9 50v583q-2 71 -40 71h-29q-20 0 -20 20t20 20l340 -2q20 0 20 -20q0 -10 -6 -15t-15 -5h-42q-36 0 -37 -79v-445q6 35 28.5 63.5t53.5 53.5t65 48.5t63 47.5t48 51t19 60q0 19 -8.5 30.5t-25.5 11.5h-7t-8 -2
q-8 -17 -17.5 -24t-18.5 -7q-11 0 -19 9.5t-8 25.5q0 8 4.5 21.5t16 26t29.5 22t45 9.5q24 0 48.5 -13.5t41.5 -51.5v59q-2 48 -9.5 66.5t-30.5 18.5h-28q-20 0 -20 20t20 20l340 -2q20 0 20 -20q0 -10 -6 -15t-15 -5q-4 0 -8 0.5t-9 0.5q-17 0 -28.5 -1t-19.5 -8.5
t-11.5 -24t-3.5 -48.5l-1 -576q2 -61 39 -61h43q8 0 14 -6t6 -14q-2 -20 -21 -20l-339 2q-20 0 -20 20t20 20q0 -1 7 -1q15 0 26.5 2t19 8.5t11.5 19.5t4 35v442v-13zM575 951q0 -39 -18.5 -66t-47 -41t-62 -15.5t-63.5 9.5t-51.5 36t-25.5 63q3 34 21 50t44 10q15 -1 21 -9
t9 -19.5t4.5 -25t7.5 -25t17.5 -20t34.5 -9.5q21 -2 36 4.5t24 16.5t13 22t4 23q0 6 -2.5 11.5t-6.5 5.5q-2 0 -4 -1.5t-4 -1.5q-7 0 -9.5 4.5t-2.5 8.5q0 11 9.5 15t13.5 4q19 0 28.5 -15t9.5 -35z" />
    <glyph glyph-name="afii10038" unicode="&#x424;" horiz-adv-x="1198" 
d="M695 523q-1 -14 -2.5 -43.5t-1.5 -58.5q25 30 56 35q24 2 43 -12.5t20 -34.5q0 -11 -7 -18.5t-18 -9.5q-7 -1 -13 2t-11.5 6.5t-9 6.5t-6.5 3q-14 -2 -26 -18.5t-12 -38.5q0 -24 11 -46.5t29 -39.5t41.5 -26.5t49.5 -6.5q66 8 98.5 63t31.5 140q-1 41 -17 76t-44.5 59.5
t-66.5 36.5t-82 7q-32 -4 -48 -17t-15 -53v-12zM421 0q-20 0 -20 20t20 20h37q15 0 24 9t13.5 31t5.5 59t1 93q-15 -21 -40 -38t-55 -27.5t-63.5 -14.5t-66.5 0q-62 7 -112 29t-85 56t-53.5 79t-17.5 99q1 73 46 127.5t116 85.5t158 35.5t171 -22.5v57q0 36 -9 49t-31 13
h-43q-20 0 -20 20t20 20h361q20 0 20 -20t-20 -20h-43q-22 0 -31 -13t-9 -49v-57q84 27 171 22.5t158 -35.5t116 -85.5t46 -127.5q1 -54 -17.5 -99t-53.5 -79t-85 -56t-112 -29q-33 -4 -66.5 0t-63.5 14.5t-55 27.5t-40 38q0 -56 1 -93t5.5 -59t13.5 -31t24 -9h37
q20 0 20 -20t-20 -20h-357h4zM500 535q1 40 -15 53t-48 17q-44 5 -82 -7t-66.5 -36.5t-44.5 -59.5t-17 -76q-1 -85 31.5 -140t98.5 -63q26 -3 49.5 6.5t41.5 26.5t29 39.5t11 46.5q0 22 -12 38.5t-26 18.5q-3 0 -6.5 -3t-9 -6.5t-11.5 -6.5t-13 -2q-11 2 -18 9.5t-7 18.5
q1 20 20 34.5t43 12.5q31 -5 56 -35q0 29 -1.5 58.5t-2.5 43.5v12z" />
    <glyph glyph-name="afii10042" unicode="&#x428;" horiz-adv-x="1271" 
d="M464 42q40 -1 41 64v400v169q-1 38 -5 53q-8 32 -35 32h-28q-20 0 -20 20t20 20l340 -2q20 0 20 -20q-1 -20 -21 -20h-42q-36 0 -37 -79v-193v-386q0 -57 42 -58h185q40 -1 41 64v400v169q-1 38 -5 53q-8 32 -35 32h-28q-20 0 -20 20t20 20l340 -2q20 0 20 -20
q-1 -20 -21 -20q-13 1 -40 0q-21 0 -30.5 -15.5t-9.5 -65.5l-1 -576q1 -60 39 -61h43q8 0 14 -6t6 -14q-1 -20 -21 -20h-460l-429 -1q-67 0 -127 20.5t-105.5 58t-72 90t-26.5 115.5q0 94 67 209q98 169 98 244q0 29 -12 44t-30 15q-13 0 -21.5 -8.5t-19.5 -8.5
q-8 0 -13 5.5t-5 13.5q0 9 5 18t14 17t21.5 13t28.5 5q36 0 66.5 -24.5t53 -66t35.5 -97.5t13 -119q0 -60 -13 -118t-37 -108t-58 -90t-76 -64q10 -23 32.5 -45t51 -39t60 -27.5t59.5 -10.5z" />
    <glyph glyph-name="afii10043" unicode="&#x429;" horiz-adv-x="1312" 
d="M1156 173q1 -46 3.5 -67.5t13.5 -32.5q7 -11 17.5 -9.5t20.5 10.5t18 23.5t11 31.5l61 11q-1 -10 -16.5 -37.5l-36 -64.5t-41 -78.5t-32.5 -78.5t-10.5 -65t25.5 -38q11 -5 18 -1t12 9q17 17 24 9t-3 -34q-3 -9 -15 -15.5t-26.5 -11t-29.5 -6.5t-25 0q-71 10 -96.5 45
t-17 77.5t43.5 84.5t85 66l-384 -1l-429 -1q-67 0 -127 20.5t-105.5 58t-72 90t-26.5 115.5q0 94 67 209q98 169 98 244q0 29 -12 44t-30 15q-13 0 -21.5 -8.5t-19.5 -8.5q-8 0 -13 5.5t-5 13.5q0 9 5 18t14 17t21.5 13t28.5 5q36 0 66.5 -24.5t53 -66t35.5 -97.5t13 -119
q0 -60 -13 -118t-37 -108t-58 -90t-76 -64q10 -23 32.5 -45t51 -39t60 -27.5t59.5 -10.5l128 1q39 -1 41 64v400v169q-1 19 -2 32t-3 21q-8 32 -35 32h-28q-20 0 -20 20t20 20l340 -2q20 0 20 -20q-2 -20 -21 -20h-42q-36 0 -37 -79v-193v-386q0 -57 42 -58h185q39 -1 41 64
v400v169q-1 19 -2 32t-3 21q-8 32 -35 32h-28q-20 0 -20 20t20 20l340 -2q20 0 20 -20q-2 -20 -21 -20q-13 1 -40 0q-21 0 -30.5 -15.5t-9.5 -65.5v-504z" />
    <glyph glyph-name="afii10046" unicode="&#x42c;" horiz-adv-x="851" 
d="M318 632q0 3 0.5 -11.5t1 -39t0.5 -55.5v-61q66 103 219 103q126 0 216 -84q47 -44 67.5 -95.5t18.5 -103.5t-24 -100.5t-60 -87.5t-90 -65t-112 -32q-119 -13 -183 -7q-19 2 -54.5 3.5t-87.5 3.5t-82.5 2t-41.5 -1q-49 -4 -71 -22q-17 -14 -27 -7q-17 11 -7 27
q13 23 76 40q48 12 49 70q1 11 1 74v180v193t-1 100q-2 105 -47 105h-36q-20 0 -20 20t20 20h354q20 0 20 -20t-20 -20h-36q-23 0 -33 -19q-7 -11 -8 -38.5t-2 -71.5zM316 104q1 -58 40 -61q61 -6 70 -6q63 0 103 29q35 27 59 70t32 92t-2.5 99.5t-44.5 94.5q-44 57 -107 57
q-57 0 -98 -44q-35 -40 -34 -78q1 -9 6 -17.5t11 -16.5q12 -13 20 -13q10 0 18 8l10 10q14 7 26.5 -1t10.5 -24q-1 -14 -18 -31q-10 -8 -20 -12t-23 -4q-32 0 -58 26z" />
    <glyph glyph-name="afii10045" unicode="&#x42b;" horiz-adv-x="1220" 
d="M318 634q0 3 0.5 -11.5t1 -39t0.5 -55.5v-61q66 103 219 103q126 0 216 -84q47 -44 67.5 -95.5t18.5 -103.5t-24 -100.5t-60 -87.5t-90 -65t-112 -32q-119 -13 -183 -7q-19 2 -54.5 3.5t-87.5 3.5t-82.5 2t-41.5 -1q-49 -4 -71 -22q-17 -14 -27 -7q-17 11 -7 27
q13 23 76 40q48 12 49 70q1 11 1 74v180v193t-1 100q-2 105 -47 105h-36q-20 0 -20 20t20 20h354q20 0 20 -20t-20 -20h-36q-23 0 -33 -19q-7 -11 -8 -38.5t-2 -71.5zM316 106q1 -58 40 -61q61 -6 70 -6q63 0 103 29q35 27 59 70t32 92t-2.5 99.5t-44.5 94.5q-44 57 -107 57
q-57 0 -98 -44q-35 -40 -34 -78q2 -18 14 -34q12 -13 23 -13q10 0 18 8l10 10q14 7 26.5 -1t10.5 -24q-1 -14 -18 -31q-10 -8 -20 -12t-23 -4q-15 0 -30.5 6.5t-28.5 19.5v-178zM1183 40q20 0 20 -20t-20 -20l-357 2q-20 0 -20 20t20 20l36 -2q45 0 47 105q1 55 1 294
q0 232 -1 254q-1 35 -4 43q-8 24 -35 24l-44 2q-20 0 -20 20t20 20l357 -2q20 0 20 -20t-20 -20h-43q-26 0 -35 -20q-5 -12 -5 -42q-2 -466 0 -553q1 -47 5 -65q10 -40 41 -40h37v0z" />
    <glyph glyph-name="afii10047" unicode="&#x42d;" horiz-adv-x="802" 
d="M455 337q-55 -4 -67 -3q-47 0 -84 31q-42 36 -56 107q-6 38 6 64q9 20 27 23q10 1 17 -3q4 -3 7 -12q4 -7 0 -11q-5 -10 -18 -4q0 -2 -1 -1t-2 1q-9 -5 -8 -22q0 -11 5.5 -18.5t16.5 -17.5q30 -24 82 -17l26 9t30 14q15 9 27 14t22 7q8 1 15.5 1.5t15.5 -0.5q34 0 54 -26
q2 -5 6.5 -14.5t10.5 -23.5q9 0 32 9q-2 54 -16 100t-42 92q-59 97 -142 119q-22 7 -53 7q-74 0 -135 -43q-53 -41 -72 -57q-14 -13 -28 2q-12 14 2 28l69 63q20 18 20 41q0 9 -3 18q-6 19 14 25q20 5 24 -14q5 -17 5 -29q0 1 0 -1.5t-1 -7.5q50 28 126 25q174 -8 292 -156
q114 -143 105 -315q-7 -163 -136 -264q-122 -97 -295 -94q-137 1 -242 94q-94 83 -103 185q-6 62 26 102q28 36 75 36q40 0 65 -22q22 -18 25 -40q2 -22 -14 -33t-34 -2q-9 4 -19 19t-18 19q-7 4 -15 4q-39 0 -39 -52q0 -28 14 -58q23 -41 71 -69q68 -40 176 -43
q127 -4 215 88q73 78 82 180q-49 -20 -93 -34t-70 -20z" />
    <glyph glyph-name="afii10048" unicode="&#x42e;" horiz-adv-x="1256" 
d="M1233 398q-2 -155 -107 -273q-114 -129 -288 -129q-186 -1 -311 112q-121 110 -121 259h-113q0 -175 1 -222t5 -65q10 -40 41 -40h37q20 0 20 -20t-20 -20h-357q-20 0 -20 20t20 20h36q45 0 47 105q1 55 1 294q0 232 -1 254q-1 35 -4 43q-8 24 -35 24h-44q-20 0 -20 20
t20 20h357q20 0 20 -20t-20 -20h-43q-26 0 -35 -20q-5 -12 -5 -42q-1 -122 -1 -211h124q25 113 104 193q98 99 223 105q72 4 115 -33q36 -32 34 -74q0 -30 -19 -50t-48 -20q-20 0 -34.5 11t-13.5 25q0 16 19 14t21 21q2 21 -18 38.5t-52 17.5q-70 1 -124 -84.5t-54 -194.5
q0 -25 3 -50q19 -125 110 -199q83 -67 192 -67q138 0 218.5 61.5t80.5 161.5q0 11 -1 23q-6 64 -73 119l-123 87q-69 52 -79 111q-3 16 -3 32q0 75 54 122q34 30 78 32q31 1 48 -16t3 -30q-14 -14 -28 0q-5 5 -15 5q-11 0 -21 -10t-9 -25q2 -34 40 -68q72 -63 97 -92
q92 -107 91 -255z" />
    <glyph glyph-name="afii10049" unicode="&#x42f;" horiz-adv-x="951" 
d="M378 7q-34 -15 -70.5 -21t-74.5 -6q-47 0 -87.5 10.5t-71.5 29t-48.5 44t-17.5 54.5q0 25 12 41.5t35 16.5q22 0 22 -20q0 -9 -4.5 -12t-10 -5t-10 -6.5t-4.5 -14.5q0 -17 23 -27.5t66 -10.5q28 0 48.5 10.5t40.5 29t43.5 45.5t58.5 60q37 32 64.5 45.5t59.5 13.5
q55 0 102 -33q19 32 36 69t33 83q-15 -23 -39.5 -42.5t-54 -33.5t-62.5 -22t-66 -8q-61 0 -113.5 15t-91.5 44.5t-61 72t-22 97.5q0 60 30.5 111t84 88t126 57.5t155.5 20.5q7 0 33 -2t65.5 -4t89 -4t104.5 -2q30 0 50.5 5t34.5 11t22.5 11t13.5 5q8 0 13.5 -6.5t5.5 -11.5
q0 -14 -20.5 -27.5t-58.5 -23.5q-50 -13 -50 -70v-17v-38t-0.5 -51.5t-0.5 -55.5v-50.5v-37.5v-39.5v-57t0.5 -64.5t0.5 -60.5v-46.5v-22q1 -105 47 -105h36q20 0 20 -20t-20 -20h-355q-20 0 -20 20t20 20h36q13 0 21 5t13.5 17t8 32t3.5 51l1 142q-25 -56 -50 -99
t-53.5 -76.5t-63 -59t-78.5 -44.5zM622 689q0 40 -16 51t-48 11q-45 0 -86 -14t-72.5 -39t-50 -59.5t-18.5 -75.5q0 -42 10.5 -76.5t30 -59t47 -37.5t60.5 -13q26 0 49.5 12t41 31.5t28 43t10.5 47.5q0 22 -12.5 37.5t-25.5 15.5q-3 0 -7 -3.5l-9 -8t-11.5 -8t-13.5 -3.5
q-10 0 -17 7t-7 18q0 20 19 37t43 17q31 0 56 -28v50t-1 35v12v0z" />
    <glyph glyph-name="afii10065" unicode="&#x430;" horiz-adv-x="910" 
d="M881 40q20 0 20 -20t-20 -20h-337q-20 0 -20 20q0 18 20 20q82 6 60 53l-26 61q-18 -24 -51 -24q-17 0 -28.5 10t-12.5 23q0 10 9.5 19.5t21.5 9.5q6 0 13 -3q13 33 -6 61q-22 32 -73 27q-11 -1 -57 -18q-42 -17 -76 -17q-48 0 -71 19q15 -79 94 -160q20 -20 54.5 -39
t62.5 -22q23 -3 23 -20q0 -20 -20 -20h-396q-17 0 -20 16q-3 15 11 21l26 11q23 9 35 22q9 9 9 19q0 13 -14 22q-110 69 -112 174q-2 104 89 200q53 57 147 120q34 22 84 59q22 21 22 44q0 7 -17 48l-94 4q-20 1 -19 21t21 19q202 -12 257 0q16 3 23 -12l276 -681
q27 -66 92 -67zM431 321q16 5 31 5q31 0 50 -14l-124 296q-55 -36 -94 -106q-43 -76 -50 -159q9 -44 69 -51q33 -3 67 9z" />
    <glyph glyph-name="afii10066" unicode="&#x431;" horiz-adv-x="863" 
d="M624 207q1 8 1.5 16.5t0.5 16.5q0 41 -13 78t-34.5 65.5t-50.5 45.5t-61 17q-27 0 -51 -11t-43 -28.5t-30 -39.5t-11 -44q0 -9 3.5 -18t9 -16.5t12 -12.5t13.5 -5q10 0 18 8l11 11q6 3 12 3q10 0 17.5 -7t7.5 -18q0 -18 -18 -35.5t-44 -17.5q-31 0 -56 27v-136
q1 -58 40 -61q61 -6 70 -6q37 0 71.5 14t61 37.5t43.5 53.5t20 63zM540 800q3 -1 10.5 -1t15.5 0.5t15 1t9 0.5q14 -2 23 6t16 17.5t14 17.5t17 6q8 -1 13 -11q2 -5 -3 -19t-10.5 -33t-9.5 -41t0 -42.5t18 -38t44 -26.5q12 -4 20 -2t15 5.5t13.5 6t15.5 1.5
q12 -3 22.5 -18.5t7.5 -28.5q-7 -25 -28.5 -39.5t-49 -17.5t-56.5 4t-51 25t-31.5 45t1.5 64q3 33 -3 50t-23 24.5t-44 8t-66 0.5q-30 0 -56.5 -0.5t-33.5 -1.5q-12 0 -20.5 -4.5t-14.5 -18.5t-9 -39t-4 -67v-86q1 0 1 -116q67 106 223 106q63 0 119 -20t97.5 -56.5
t66 -87.5t24.5 -114q-5 -58 -34.5 -104t-72 -78.5t-92 -52t-92.5 -23.5q-83 -9 -137 -9q-3 0 -28 1.5l-64 4t-88.5 4t-100.5 1.5q-30 0 -50.5 -5t-34.5 -11.5t-22.5 -11.5t-14.5 -5q-8 0 -13 7t-5 12q0 14 21 27.5t59 23.5q25 6 36 27t14 59.5t1.5 97t-1.5 140.5v40v57.5
t-0.5 65t-0.5 61.5v47v22q-2 105 -47 105h-36q-20 0 -20 20t20 20h356q4 0 19.5 -0.5t36 -1l43 -1t40.5 -0.5z" />
    <glyph glyph-name="afii10067" unicode="&#x432;" horiz-adv-x="862" 
d="M526 604q125 4 215 -65q100 -76 100 -205q0 -330 -448 -330q-106 0 -356 -7q-20 -1 -20 19q-1 20 19 21q17 0 27 1q31 2 31 45l6 678q-74 3 -97 41q-10 18 7 28t27 -7q15 -25 60 -24l73 2q268 6 300 0q120 -21 120 -105q0 -73 -64 -92zM353 47q78 0 171 86
q102 93 102 220q0 139 -100 178q-32 12 -64 13q-50 0 -109.5 -51.5t-59.5 -99.5q0 -24 15 -58q18 -40 41 -36q20 4 24 -15q4 -20 -16 -24q-48 -9 -83 52l-1 -222q0 -47 20 -47q9 0 34 2t26 2zM438 684q-9 34 -53 58q-49 26 -109 21l-1 -299q27 62 91 106q75 50 75 91
q0 10 -3 23z" />
    <glyph glyph-name="afii10068" unicode="&#x433;" horiz-adv-x="734" 
d="M372 357q6 58 20.5 100t34.5 74q46 75 122 117q58 33 123 32q-14 35 -40 57q-23 17 -39 20q-17 2 -40 3.5t-51 1.5q-30 0 -67.5 -1.5t-83.5 -5.5q-24 -2 -63 -3v-658q0 -30 1 -34q4 -21 22 -22h68q20 0 20 -21t-20 -19l-129 1q-48 1 -90 1t-80 -2h-13.5t-37.5 -1
q-21 0 -21 19v1q0 18 20 20q-2 0 8.5 0t33.5 -1q30 0 32 57l1.5 460t-0.5 166q-1 29 -22 31h-62q-20 2 -19 21q2 20 21 19q97 -2 178 -1t149 6q11 1 72.5 2t176.5 2q30 0 39 36q5 13 16 14q13 1 20 -9q38 -60 53 -181v-1q-3 -50 -26 -85q-20 -30 -75 -81q-105 -93 -151 -185
q-12 -24 -12 -46t13 -37.5t35 -15.5q11 0 18 5q16 12 28 0q14 -14 0 -29q-18 -20 -55 -21q-43 -1 -76 30q-48 46 -52 164z" />
    <glyph glyph-name="afii10069" unicode="&#x434;" horiz-adv-x="1041" 
d="M453 69h193q36 2 50.5 12t14.5 24q0 8 -4 19t-9 21.5t-10 20t-6 14.5l-69 127l-40 97.5l-35.5 91.5l-30 79.5l-23.5 61.5l-14.5 -89.5t-19.5 -94t-31.5 -100t-49.5 -107.5l-21 -40.5t-15 -31.5t-8.5 -27.5t-2.5 -29.5q0 -14 14.5 -30t50.5 -18h66zM147 90
q-14 30 -14 60.5t8 59t21 55.5t26 51q17 32 43.5 72.5t64.5 91.5l49 65.5l47.5 65.5t35.5 56.5t14 39.5q0 22 -9 32t-23 14t-30 3.5t-30 0t-23 4t-9 15.5q0 22 22 22h350q20 0 20 -20t-20 -20h-30q-21 0 -21 -26q0 -9 5 -22l252 -619q7 -17 13.5 -26t15 -13.5t18.5 -5.5
t24 -1q7 0 23 5t30 10l15 -26l-34 -24q-41 -29 -70.5 -58.5t-50 -65.5t-31.5 -81t-14 -105q-32 22 -51 64t-25 87.5t1.5 86.5t28.5 62l-535 -1q21 -21 28 -63.5t1 -89t-25 -87.5t-50 -60q-1 63 -16.5 110t-40 83t-55.5 62.5t-62 48.5l-34 24l15 26q14 -5 30 -10t23 -5
q27 0 46 9t33 43z" />
    <glyph glyph-name="afii10070" unicode="&#x435;" horiz-adv-x="851" 
d="M852 154q3 -59 -18 -129q-19 -61 -39 -83q-14 -14 -28 -1q-5 4 -8 21t-22.5 29.5t-42.5 12.5q-6 1 -305 -3t-311 -4l-51 -1q-20 -1 -20 19v1q0 20 19 20l48 1q25 5 26 55l3 631q0 12 -6 20.5t-9.5 8.5t-6.5 1q-35 0 -62 1q-20 1 -19 21t21 19q192 -5 328 5q47 4 78 4
q71 0 116 -18q-1 18 1 36.5t22 15.5q20 -2 17 -22q-4 -33 6 -57q15 -38 60 -48q20 -4 16 -24q-5 -19 -24 -15q-32 7 -60 32q-16 16 -44 40q-37 20 -104 20q-27 0 -72 -3l-73 -4l-3 -260l88 1q-5 75 33 113q31 31 65 29q21 -1 33 -18q8 -10 1 -22t-20.5 -9.5t-26.5 -11
t-13 -28.5q0 -26 29 -50q21 -17 175 -99l27 -14q74 -39 123 -104t53 -129zM598 44q118 0 191 86q-81 0 -164 35t-138 92q-85 89 -108 200l-94 -1l-2 -417l311 4v1h4z" />
    <glyph glyph-name="afii10072" unicode="&#x436;" horiz-adv-x="1361" 
d="M496 1q-20 0 -20 20t20 20h37q31 0 40 40q4 16 6 64q1 18 1 65.5v125.5q-5 13 -9.5 29t-15.5 25q-20 -122 -70 -216t-129 -154q-28 -21 -58 -36.5t-64 -24.5q-41 -11 -80 -9.5t-70 13t-52.5 32t-27.5 49.5q-5 24 2 43.5t26 25.5q21 3 25 -15q2 -9 -1.5 -13t-8 -8t-7.5 -9
t-1 -15q5 -17 27.5 -22t61.5 6q25 6 46 25.5t41.5 48t40.5 65l44 77.5q26 40 50 59.5t52 26.5q48 12 98 -8q4 17 8.5 30t8.5 27t7 30.5t5 41.5q-43 95 -45 101l-26 51.5t-27 47.5q-64 106 -122 104q-34 -1 -36 -35q3 -15 2 -48q-6 -32 -38 -32q-23 -1 -36 17.5t-13 44.5
q1 36 28 66q31 34 83 35q54 2 98 -36q55 -48 105 -152l39 -89.5l38 -89.5v252q0 29 -5 42q-9 20 -35 20h-43q-20 0 -20 20t20 20h356q20 0 20 -20t-20 -20h-43q-26 0 -35 -20q-5 -13 -5 -42v-252l38 89.5l39 89.5q50 104 105 152q44 38 98 36q52 -1 83 -35q27 -30 28 -66
q0 -26 -13 -44.5t-36 -17.5q-32 0 -38 32q-1 33 2 48q-2 34 -36 35q-58 2 -122 -104q-14 -23 -27 -47.5l-26 -51.5q-2 -6 -45 -101q2 -25 5 -41.5t7 -30.5l8 -27l9 -30q50 20 98 8q28 -7 52 -26.5t50 -59.5l44 -77.5t40.5 -65t41.5 -48t46 -25.5q39 -11 61.5 -6t27.5 22
q2 10 -1 15t-7.5 9t-8 8t-1.5 13q4 18 25 15q19 -6 26 -25.5t2 -43.5q-6 -29 -27.5 -49.5t-52.5 -32t-70 -13t-80 9.5q-34 9 -64 24.5t-58 36.5q-79 60 -129 154t-70 216q-11 -9 -15.5 -25t-9.5 -29v-125.5t1 -65.5q2 -48 6 -64q9 -40 40 -40h37q20 0 20 -20t-20 -20h-356z
" />
    <glyph glyph-name="afii10073" unicode="&#x437;" horiz-adv-x="700" 
d="M314 56q36 0 67 15.5t53 41.5t34.5 60.5t12.5 73.5q0 105 -60 158.5t-183 53.5q-17 0 -33 -1.5t-33 -6.5q-8 -3 -13 -3q-23 0 -23 20q0 11 19.5 26t61.5 26q-2 6 -3 12.5t-1 12.5q0 25 14.5 41.5t28.5 16.5q8 0 8 -6t-3 -7.5t-6.5 -4.5t-6.5 -9.5t-3 -22.5
q0 -15 12.5 -24t37.5 -9q26 0 45.5 10.5t32.5 27t19.5 38t6.5 44.5q0 27 -9 48t-24 35.5t-35 21.5t-42 7q-38 0 -76 -19.5t-85 -57.5q-7 -5 -11 -5q-7 0 -11.5 6t-4.5 13q0 9 7 15q72 55 72 85q0 3 -1 5.5t-1 5.5q0 17 20 17q16 0 16 -26q0 -14 -6 -27q36 17 65.5 24.5
t55.5 9.5q42 3 77 -10.5t60.5 -37.5t39.5 -54.5t13 -62.5t-18.5 -61t-55.5 -50q45 -6 88 -26.5t76 -50.5t53.5 -68t20.5 -79q0 -66 -26 -121.5t-74.5 -95.5t-117.5 -62t-155 -21q-53 1 -106.5 15t-97.5 42.5t-71.5 72.5t-27.5 105q0 54 33 90t85 44q47 7 76.5 -14.5t41 -53
t6 -63.5t-28.5 -47q-6 -4 -10.5 3t-9.5 17.5t-11.5 19.5t-18.5 9q-18 0 -28 -13.5t-11 -33.5t9 -44t32 -44t57 -33.5t85 -13.5z" />
    <glyph glyph-name="afii10074" unicode="&#x438;" 
d="M630 535q-7 -27 -27.5 -52t-48 -48t-59 -45t-60 -44t-51 -45t-32.5 -47q-11 -28 2 -44.5t48 -11.5q12 36 29 44.5t28 -2t10 -35t-25 -54.5q-17 -21 -39.5 -29t-45.5 -5t-44 16t-35 34v-69q0 -57 42 -58h38q8 0 14 -6t6 -14q-2 -20 -21 -20l-339 2q-20 0 -20 20t20 20h27
q24 0 33 14t9 50v583q-2 71 -40 71h-29q-20 0 -20 20t20 20l340 -2q20 0 20 -20q-2 -20 -21 -20h-42q-36 0 -37 -79v-445q7 40 35 71t64 57.5l73 52t63 56.5q24 24 34 49.5t8 45t-15 29.5t-34 3q-13 -27 -29.5 -30t-26 9.5t-6.5 35t30 46.5q10 9 29.5 16.5t42 5.5t45 -16.5
t37.5 -48.5v59q-1 19 -2 32t-3 21q-8 32 -35 32h-28q-20 0 -20 20t20 20l340 -2q20 0 20 -20q-2 -20 -21 -20q-13 1 -40 0q-21 0 -30.5 -15.5t-9.5 -65.5l-1 -576q1 -59 39 -61h43q8 0 14 -6t6 -14q-2 -20 -21 -20l-339 2q-20 0 -20 20t20 20q1 -2 27 0q39 -1 41 64v442v-13
z" />
    <glyph glyph-name="afii10075" unicode="&#x439;" 
d="M630 526q-7 -29 -30.5 -55t-55 -51.5t-66.5 -50t-64 -48.5t-48 -49t-19 -51q0 -15 10 -24t30 -9q10 0 15 1q8 26 19.5 37t22.5 11t18 -9t7 -25q0 -15 -7.5 -31.5t-20.5 -31t-30.5 -24t-38.5 -9.5q-26 0 -51 13.5t-41 37.5v-69q0 -58 42 -58h38q8 0 14 -6t6 -14
q-2 -20 -21 -20l-339 2q-20 0 -20 20t20 20h27q24 0 33 14t9 50v583q-2 71 -40 71h-29q-20 0 -20 20t20 20l340 -2q20 0 20 -20q0 -10 -6 -15t-15 -5h-42q-36 0 -37 -79v-445q6 35 28.5 63.5t53.5 53.5t65 48.5t63 47.5t48 51t19 60q0 19 -8.5 30.5t-25.5 11.5h-7t-8 -2
q-8 -17 -17.5 -24t-18.5 -7q-11 0 -19 9.5t-8 25.5q0 8 4.5 21.5t16 26t29.5 22t45 9.5q24 0 48.5 -13.5t41.5 -51.5v59q-2 48 -9.5 66.5t-30.5 18.5h-28q-20 0 -20 20t20 20l340 -2q20 0 20 -20q0 -10 -6 -15t-15 -5q-4 0 -8 0.5t-9 0.5q-17 0 -28.5 -1t-19.5 -8.5
t-11.5 -24t-3.5 -48.5l-1 -576q2 -61 39 -61h43q8 0 14 -6t6 -14q-2 -20 -21 -20l-339 2q-20 0 -20 20t20 20q0 -1 7 -1q15 0 26.5 2t19 8.5t11.5 19.5t4 35v442v-13zM575 951q0 -39 -18.5 -66t-47 -41t-62 -15.5t-63.5 9.5t-51.5 36t-25.5 63q3 34 21 50t44 10q15 -1 21 -9
t9 -19.5t4.5 -25t7.5 -25t17.5 -20t34.5 -9.5q21 -2 36 4.5t24 16.5t13 22t4 23q0 6 -2.5 11.5t-6.5 5.5q-2 0 -4 -1.5t-4 -1.5q-7 0 -9.5 4.5t-2.5 8.5q0 11 9.5 15t13.5 4q19 0 28.5 -15t9.5 -35z" />
    <glyph glyph-name="afii10076" unicode="&#x43a;" horiz-adv-x="856" 
d="M1018 -28q27 -13 27 -48q0 -16 -6 -32q-31 -73 -150 -73q-128 0 -244 64t-189 171q-51 76 -88 176l-55 158l-21 -53q0 -155 1 -191q1 -47 6 -64q9 -40 40 -40h37q20 0 20 -20t-20 -20h-356q-20 0 -20 20t20 20h36q45 0 47 104q1 55 1 294q0 231 -1 253q-1 35 -4 43
q-8 24 -35 24h-44q-20 0 -20 20t20 20h356q20 0 20 -20t-20 -20h-43q-26 0 -35 -20q-5 -12 -5 -42v-252l77 179q50 104 105 152q44 38 98 36q52 -1 83 -35q26 -29 28 -66q0 -26 -13 -44.5t-36 -17.5q-32 0 -38 32q-1 35 2 48q-2 33 -36 35q-57 2 -122 -104q-28 -45 -53 -99
q-2 -5 -45 -101q6 -30 42 -107.5t58 -109.5q33 13 66 13q35 0 69 -15q47 -19 90 -87l71 -126q43 -71 104 -109q54 -34 103 -34q24 0 39.5 8.5t15.5 22.5q0 9 -11.5 17.5t-11.5 19.5q0 7 4 13q13 19 36 7z" />
    <glyph glyph-name="afii10077" unicode="&#x43b;" horiz-adv-x="895" 
d="M14 143q0 77 50 173q34 64 108 164l98 132t48 95q0 45 -37 48q-42 2 -68 3q-20 2 -19 21q2 19 22 19h350q20 0 20 -20t-20 -20h-30q-21 -1 -21 -26q0 -10 5 -22l252 -619q15 -36 35.5 -44.5t51.5 -7.5q20 1 20 -20q0 -20 -20 -20h-337q-20 0 -20 20q0 19 20 20
q39 2 53 14q19 15 7 40q-17 39 -25 62l-68 152l-125 298q-15 -101 -64 -202l-83 -156.5t-46 -134.5q-5 -71 25 -109q24 -30 57 -29q41 1 45 34q5 29 -14 35q-3 -13 -19 -13q-20 0 -19 21q0 19 19 28q19 8 36 0q36 -15 36 -62q0 -9 -2 -19q-19 -68 -118 -73q-92 -5 -149 59
q-54 62 -54 159z" />
    <glyph glyph-name="afii10078" unicode="&#x43c;" horiz-adv-x="1088" 
d="M994 40q20 1 20 -20q0 -20 -20 -20h-437q-20 0 -20 20t20 20h33q50 0 128 66t128 149q38 63 38 137q0 49 -18 110q-11 41 -41 101q-19 39 -26 61l-241 -426q-7 -12 -18 -18q-4 -2 -9 -2q-17 1 -28 20l-241 426q-16 -42 -25 -61q-30 -60 -42 -101q-18 -63 -18 -112
q0 -74 37 -135q53 -87 121 -148q75 -67 131 -67h33q20 1 20 -20q0 -20 -20 -20h-436q-20 0 -20 20t20 20h33q19 0 19 17q0 18 -47 70q-68 74 -68 156q0 119 110 250l82 95q32 40 32 65q0 23 -16.5 44t-38.5 22h-43q-20 0 -20 20t20 20l253 1q15 0 20 -15l132 -232l131 232
q6 15 21 15l253 -1q20 0 20 -20t-20 -20h-44q-22 -1 -38.5 -21.5t-15.5 -43.5q1 -31 33 -70l85 -96q104 -128 104 -244q0 -82 -71 -157q-45 -48 -44 -69q0 -15 16 -18q10 -1 33 0z" />
    <glyph glyph-name="afii10079" unicode="&#x43d;" 
d="M901 42q20 0 21 -20q0 -20 -20 -20l-340 -2q-20 0 -20 20t20 20h28q27 0 35 32q4 15 5 53v169q-47 -52 -115 -50q-48 1 -78 27.5t-31 69.5q-2 60 38 74q16 6 25 -9q12 -23 43 -23q34 -1 64 28q25 25 25 60q0 47 -32 79q-40 40 -114 40q-79 -1 -127 -58q-42 -48 -42 -106
q0 -76 45 -103q17 -10 7 -27q-10 -18 -28 -7q-17 10 -30 25v-193q1 -79 37 -79h42q20 0 21 -20q0 -20 -20 -20l-340 -2q-20 0 -20 20t20 20h29q39 0 40 71v583q0 36 -9 50t-33 14h-27q-20 0 -20 20t20 20l339 2q20 0 21 -20q0 -8 -6 -14t-14 -6h-38q-42 -1 -42 -58v-166
q61 93 175 94q134 0 175 -101v165q-1 65 -41 64q-25 1 -27 0q-20 0 -20 20t20 20l339 2q20 0 21 -20q0 -8 -6 -14t-14 -6h-43q-38 -1 -39 -61l1 -576q0 -50 9.5 -65.5t30.5 -15.5q27 -1 40 0z" />
    <glyph glyph-name="afii10080" unicode="&#x43e;" horiz-adv-x="860" 
d="M840 389q-2 -155 -107 -273q-114 -129 -288 -129q-186 -1 -311 112q-121 110 -121 270q0 186 115 302q98 99 223 105q72 4 115 -33q36 -32 34 -74q0 -30 -19 -50t-48 -20q-20 0 -34.5 11t-13.5 25q0 16 19 14t21 21q2 21 -18 38.5t-52 17.5q-70 1 -124 -84.5t-54 -194.5
q0 -25 3 -50q19 -125 110 -199q83 -67 192 -67q138 0 218.5 61.5t80.5 161.5q0 11 -1 23q-6 64 -73 119l-123 87q-69 52 -79 111q-3 16 -3 32q0 75 54 122q34 30 78 32q31 1 48 -16t3 -30q-14 -14 -28 0q-5 5 -15 5q-11 0 -21 -10t-9 -25q2 -34 40 -68q72 -63 97 -92
q92 -107 91 -255z" />
    <glyph glyph-name="afii10081" unicode="&#x43f;" 
d="M630 294v400q-1 65 -41 64h-267q-42 -1 -42 -58v-386v-193q1 -79 37 -79h42q20 0 21 -20q0 -20 -20 -20l-340 -2q-20 0 -20 20t20 20h29q39 0 40 71v583q0 36 -9 50t-33 14h-27q-20 0 -20 20t20 20h542l339 2q20 0 21 -20q0 -8 -6 -14t-14 -6h-43q-38 -1 -39 -61l1 -576
q0 -50 9.5 -65.5t30.5 -15.5q27 -1 40 0q20 0 21 -20q0 -20 -20 -20l-340 -2q-20 0 -20 20t20 20h28q27 0 35 32q4 15 5 53v169z" />
    <glyph glyph-name="afii10082" unicode="&#x440;" horiz-adv-x="863" 
d="M557 801q106 -11 197 -99q101 -98 100 -224t-92.5 -213t-220.5 -87q-155 0 -223 106q0 -125 -1 -115q2 -87 15 -110q10 -19 33 -19h36q20 0 20 -20t-20 -20h-356q-20 0 -20 20t20 20h36q45 0 47 105q1 54 1 293q0 232 -1 254q-2 58 -49 70q-62 16 -76 40q-10 17 7 27
q11 7 27 -7q21 -17 71 -22q21 -2 124.5 1t141.5 7q61 6 183 -7zM467 270q64 0 109 58.5t50 149.5q10 176 -95 257q-39 29 -103 29q-9 0 -70 -6q-39 -3 -40 -61v-223q26 27 56 27q25 0 44 -17q16 -16 18 -32t-10.5 -24.5t-26.5 -1.5l-11 11q-8 8 -18 8q-11 0 -23 -13
q-14 -16 -15 -36q-1 -41 35 -81q41 -45 100 -45z" />
    <glyph glyph-name="afii10083" unicode="&#x441;" horiz-adv-x="800" 
d="M684 400q46 0 75 -36q32 -39 26 -102q-9 -101 -103 -185q-103 -92 -242 -94q-172 -3 -295 94q-128 101 -136 264q-9 173 105 315q119 149 292 156q75 3 126 -25q-1 10 -1 9q0 14 5 29q5 19 24 14q20 -6 14 -25q-3 -9 -3 -18q0 -23 20 -41l69 -63q14 -13 2 -28
q-13 -15 -28 -2q-19 16 -72 57q-61 43 -135 43q-29 0 -53 -7q-84 -23 -142 -118.5t-58 -207.5q0 -129 83 -218q87 -92 215 -88q107 3 176 43q49 28 71 69q14 28 14 58q0 52 -39 52q-7 0 -15 -4t-18 -19t-19 -19q-18 -9 -34 2t-14 33q3 22 25 40q26 22 65 22z" />
    <glyph glyph-name="afii10084" unicode="&#x442;" horiz-adv-x="837" 
d="M741 270q15 14 29 0t0 -29q-21 -21 -55 -21q-56 0 -102 58q-48 62 -48 144q0 20 4 40q15 95 87 159q65 58 135 58q-3 67 -85 80q-22 3 -85 3q-60 0 -74 -2q-31 -6 -31 -61v-554q-1 -58 10 -81.5t36 -23.5h37q20 0 20 -20t-20 -20h-357q-20 0 -20 20t20 20h36q45 0 47 105
q1 55 1 294q0 232 -1 255q-1 32 -3 39q-6 23 -26 27q-93 7 -161 -1q-82 -10 -85 -80q70 0 135 -58q72 -64 87 -159q4 -20 4 -40q0 -82 -48 -144q-46 -58 -102 -58q-34 0 -55 21q-14 15 0 29t29 0q5 -5 15 -5q20 0 33 23q11 19 11 41q0 70 -76 149q-49 51 -67 96
q-14 36 -16 95q-1 45 17 111q15 50 21.5 60.5t19.5 7.5q13 -2 16 -14q9 -35 24.5 -35.5t140.5 1.5h363q16 0 68 -2q39 -2 57 0q31 3 40 36q3 12 16 14q13 3 20 -7.5t20 -56.5q19 -63 21 -115q1 -52 -16 -93q-19 -46 -70 -98q-76 -79 -76 -149q0 -22 11 -41q13 -23 33 -23
q11 0 15 5z" />
    <glyph glyph-name="afii10085" unicode="&#x443;" horiz-adv-x="798" 
d="M809 800q20 0 20 -20q0 -19 -20 -20q-36 -1 -54 -23q-9 -11 -23 -50q-16 -44 -34 -75q-37 -60 -83 -98l-116 -86q-69 -54 -94 -99q-17 -32 -20 -81q-4 -77 63 -147q60 -61 107 -61h25q20 0 20 -20t-20 -20h-384q-20 0 -20 20q0 19 20 20q61 4 61 21q0 4 -25 49
q-30 52 -30 102q0 100 118 194l-191 300q-26 39 -44 46q-42 7 -63.5 6.5t-21.5 19.5t20 20h399q20 0 20 -20q0 -21 -20 -20h-53q-39 0 -52 -16q-9 -11 5 -38q12 -23 134 -207q104 62 113 69q50 35 73 78q11 21 11 42q0 30 -22 53q-18 20 -37 20.5t-32 0.5q-20 -1 -20 20
q0 20 20 20h250v0z" />
    <glyph glyph-name="afii10086" unicode="&#x444;" horiz-adv-x="1198" 
d="M695 523q-1 -14 -2.5 -43.5t-1.5 -58.5q25 30 56 35q24 2 43 -12.5t20 -34.5q0 -11 -7 -18.5t-18 -9.5q-7 -1 -13 2t-11.5 6.5t-9 6.5t-6.5 3q-14 -2 -26 -18.5t-12 -38.5q0 -24 11 -46.5t29 -39.5t41.5 -26.5t49.5 -6.5q66 8 98.5 63t31.5 140q-1 41 -17 76t-44.5 59.5
t-66.5 36.5t-82 7q-32 -4 -48 -17t-15 -53v-12zM421 0q-20 0 -20 20t20 20h37q15 0 24 9t13.5 31t5.5 59t1 93q-15 -21 -40 -38t-55 -27.5t-63.5 -14.5t-66.5 0q-62 7 -112 29t-85 56t-53.5 79t-17.5 99q1 73 46 127.5t116 85.5t158 35.5t171 -22.5v57q0 36 -9 49t-31 13
h-43q-20 0 -20 20t20 20h361q20 0 20 -20t-20 -20h-43q-22 0 -31 -13t-9 -49v-57q84 27 171 22.5t158 -35.5t116 -85.5t46 -127.5q1 -54 -17.5 -99t-53.5 -79t-85 -56t-112 -29q-33 -4 -66.5 0t-63.5 14.5t-55 27.5t-40 38q0 -56 1 -93t5.5 -59t13.5 -31t24 -9h37
q20 0 20 -20t-20 -20h-357h4zM500 535q1 40 -15 53t-48 17q-44 5 -82 -7t-66.5 -36.5t-44.5 -59.5t-17 -76q-1 -85 31.5 -140t98.5 -63q26 -3 49.5 6.5t41.5 26.5t29 39.5t11 46.5q0 22 -12 38.5t-26 18.5q-3 0 -6.5 -3t-9 -6.5t-11.5 -6.5t-13 -2q-11 2 -18 9.5t-7 18.5
q1 20 20 34.5t43 12.5q31 -5 56 -35q0 29 -1.5 58.5t-2.5 43.5v12z" />
    <glyph glyph-name="afii10087" unicode="&#x445;" horiz-adv-x="874" 
d="M853 40q20 -1 20 -20q0 -20 -20 -20h-346q-20 0 -20 20t20 20q27 1 28 1q17 3 17 18t-16 40l-221 336q-132 -94 -125 -196q4 -70 78 -138q67 -61 112 -61h26q20 0 20 -20t-20 -20h-386q-20 0 -20 20t20 20q53 1 59 14q2 4 2 8q0 5 -25 48q-29 51 -29 108q0 124 136 215
q51 35 110 66l-135 206q-28 41 -48 49q-14 4 -53 3h-1h-8q-20 0 -20 20t20 20h381q20 0 20 -20t-20 -20h-34q-40 0 -52 -15q-12 -16 5 -39l42 -62l51 -74q97 43 127 78q20 24 20 49q0 26 -18.5 45.5t-39.5 20.5h-25q-20 0 -20 20t20 20h245q20 0 20 -20q0 -21 -20.5 -20
t-44.5 -12q-16 -9 -37 -53q-27 -54 -55 -87q-37 -44 -136 -94l213 -310q93 -129 105 -140q25 -22 78 -24z" />
    <glyph glyph-name="afii10088" unicode="&#x446;" horiz-adv-x="871" 
d="M709 8q-50 13 -93 11t-85.5 -10.5l-88 -17.5t-100.5 -9q-67 0 -127 20.5t-105.5 58t-72 90t-26.5 115.5q0 94 67 209q98 169 98 244q0 29 -12 44t-30 15q-13 0 -21.5 -8.5t-19.5 -8.5q-8 0 -13 5.5t-5 13.5q0 9 5 18t14 17t21.5 13t28.5 5q36 0 66.5 -24.5t53 -66
t35.5 -97.5t13 -119q0 -60 -13 -118t-37 -108t-58 -90t-76 -64q10 -23 32.5 -44t51 -37t60 -25.5t59.5 -9.5t59 10.5t57 30t43 48t17 63.5t-14.5 49.5t-29.5 14.5q-5 0 -11 -2t-11 -2q-7 0 -12.5 5t-5.5 16q0 10 14.5 18t31.5 8q22 0 42 -15v187v154t-1 77q-1 21 -3 34.5
t-6 21t-11.5 10t-18.5 2.5h-45q-20 0 -20 20t20 20h358q21 0 21 -20t-21 -20h-43q-23 0 -30.5 -13.5t-9.5 -48.5q-1 -118 -1 -210v-161t0.5 -105t0.5 -55q1 -46 3.5 -67.5t13.5 -32.5q7 -11 17.5 -9.5t20.5 10.5t18 23.5t11 31.5l61 11q-1 -10 -16.5 -37.5l-36 -64.5
t-41 -78.5t-32.5 -78.5t-10.5 -65t25.5 -38q11 -5 18 -1t12 9q17 17 24 9t-3 -34q-3 -9 -15 -15.5t-26.5 -11t-29.5 -6.5t-25 0q-48 7 -74 26t-35 45.5t-2.5 57.5t24.5 60.5t45.5 55t60.5 41.5z" />
    <glyph glyph-name="afii10089" unicode="&#x447;" horiz-adv-x="822" 
d="M471 311q-40 -41 -84 -62.5t-87.5 -26.5t-84.5 4t-76.5 27t-62 44t-41.5 56q-17 33 -18 66.5t8.5 66t25 63.5l30 60.5t25.5 57t11 52.5q0 29 -12 44t-31 15q-14 0 -23 -8.5t-20 -8.5q-8 0 -13 5.5t-5 13.5q0 17 19.5 35t51.5 18q37 0 73.5 -19t63 -56.5t39 -92.5
t2.5 -126q-6 -33 -22 -58.5t-35.5 -44t-40.5 -32t-39 -23.5q0 -40 26 -64.5t64 -34t82.5 -4.5t82.5 23.5t63.5 50.5t25.5 77q0 32 -12.5 45.5t-25.5 13.5q-5 0 -9.5 -2t-9.5 -2q-6 0 -11 4.5t-5 14.5q0 9 12.5 16.5t27.5 7.5q16 0 36 -10v112.5t-1 62.5q-1 21 -3 34.5t-6 21
t-11.5 10t-18.5 2.5h-45q-20 0 -20 20t20 20h358q21 0 21 -20t-21 -20h-43q-23 0 -30.5 -13.5t-9.5 -48.5q-1 -118 -1 -210v-161v-117t1 -67q1 -47 5 -65q10 -40 41 -40h37q20 0 20 -20t-20 -20h-357q-20 0 -20 20t20 20h36q45 0 47 105v168z" />
    <glyph glyph-name="afii10090" unicode="&#x448;" horiz-adv-x="1271" 
d="M464 42q40 -1 41 64v400v169q-1 38 -5 53q-8 32 -35 32h-28q-20 0 -20 20t20 20l340 -2q20 0 20 -20q-1 -20 -21 -20h-42q-36 0 -37 -79v-193v-386q0 -57 42 -58h185q40 -1 41 64v400v169q-1 38 -5 53q-8 32 -35 32h-28q-20 0 -20 20t20 20l340 -2q20 0 20 -20
q-1 -20 -21 -20q-13 1 -40 0q-21 0 -30.5 -15.5t-9.5 -65.5l-1 -576q1 -60 39 -61h43q8 0 14 -6t6 -14q-1 -20 -21 -20h-460l-429 -1q-67 0 -127 20.5t-105.5 58t-72 90t-26.5 115.5q0 94 67 209q98 169 98 244q0 29 -12 44t-30 15q-13 0 -21.5 -8.5t-19.5 -8.5
q-8 0 -13 5.5t-5 13.5q0 9 5 18t14 17t21.5 13t28.5 5q36 0 66.5 -24.5t53 -66t35.5 -97.5t13 -119q0 -60 -13 -118t-37 -108t-58 -90t-76 -64q10 -23 32.5 -45t51 -39t60 -27.5t59.5 -10.5z" />
    <glyph glyph-name="afii10091" unicode="&#x449;" horiz-adv-x="1312" 
d="M1156 173q1 -46 3.5 -67.5t13.5 -32.5q7 -11 17.5 -9.5t20.5 10.5t18 23.5t11 31.5l61 11q-1 -10 -16.5 -37.5l-36 -64.5t-41 -78.5t-32.5 -78.5t-10.5 -65t25.5 -38q11 -5 18 -1t12 9q17 17 24 9t-3 -34q-3 -9 -15 -15.5t-26.5 -11t-29.5 -6.5t-25 0q-71 10 -96.5 45
t-17 77.5t43.5 84.5t85 66l-384 -1l-429 -1q-67 0 -127 20.5t-105.5 58t-72 90t-26.5 115.5q0 94 67 209q98 169 98 244q0 29 -12 44t-30 15q-13 0 -21.5 -8.5t-19.5 -8.5q-8 0 -13 5.5t-5 13.5q0 9 5 18t14 17t21.5 13t28.5 5q36 0 66.5 -24.5t53 -66t35.5 -97.5t13 -119
q0 -60 -13 -118t-37 -108t-58 -90t-76 -64q10 -23 32.5 -45t51 -39t60 -27.5t59.5 -10.5l128 1q39 -1 41 64v400v169q-1 19 -2 32t-3 21q-8 32 -35 32h-28q-20 0 -20 20t20 20l340 -2q20 0 20 -20q-2 -20 -21 -20h-42q-36 0 -37 -79v-193v-386q0 -57 42 -58h185q39 -1 41 64
v400v169q-1 19 -2 32t-3 21q-8 32 -35 32h-28q-20 0 -20 20t20 20l340 -2q20 0 20 -20q-2 -20 -21 -20q-13 1 -40 0q-21 0 -30.5 -15.5t-9.5 -65.5v-504z" />
    <glyph glyph-name="afii10092" unicode="&#x44a;" horiz-adv-x="1083" 
d="M538 104q6 -58 45 -61q61 -6 70 -6q62 0 103 29q35 27 59 70t32 92t-2.5 99.5t-44.5 94.5q-44 57 -107 57q-57 0 -98 -44q-35 -42 -34 -78q1 -17 14 -34q12 -13 23 -13q10 0 18 8l10 10q14 7 26.5 -1t10.5 -24q-2 -15 -18 -31q-19 -16 -43 -16q-15 0 -32.5 6.5
t-30.5 19.5zM624 801q20 0 20 -20t-20 -20h-36q-23 0 -33 -19q-7 -11 -8 -38t-2 -72q0 3 0.5 -11.5t0.5 -39t0.5 -55.5t0.5 -61q66 103 219 103q126 0 216 -84q47 -44 67.5 -95.5t18.5 -103.5t-24 -100.5t-60 -87.5t-89.5 -65t-112.5 -32q-116 -13 -183 -7q-19 2 -54.5 3.5
t-87.5 3.5t-82.5 2t-41.5 -1q-49 -4 -71 -22q-17 -14 -27 -7q-17 11 -7 27q14 24 76 40q48 12 49 70q1 11 1 73.5v180.5v125v121v97.5v55.5q-17 1 -30 -4q-10 -133 -116 -214q-79 -61 -150 -61q-51 0 -49 29q0 14 16 17q30 6 59 33q26 25 40 55q12 27 12 77q0 54 -13 80
q-5 10 0.5 19.5t17.5 9.5z" />
    <glyph glyph-name="afii10093" unicode="&#x44b;" horiz-adv-x="1220" 
d="M318 634q0 3 0.5 -11.5t1 -39t0.5 -55.5v-61q66 103 219 103q126 0 216 -84q47 -44 67.5 -95.5t18.5 -103.5t-24 -100.5t-60 -87.5t-90 -65t-112 -32q-119 -13 -183 -7q-19 2 -54.5 3.5t-87.5 3.5t-82.5 2t-41.5 -1q-49 -4 -71 -22q-17 -14 -27 -7q-17 11 -7 27
q13 23 76 40q48 12 49 70q1 11 1 74v180v193t-1 100q-2 105 -47 105h-36q-20 0 -20 20t20 20h354q20 0 20 -20t-20 -20h-36q-23 0 -33 -19q-7 -11 -8 -38.5t-2 -71.5zM316 106q1 -58 40 -61q61 -6 70 -6q63 0 103 29q35 27 59 70t32 92t-2.5 99.5t-44.5 94.5q-44 57 -107 57
q-57 0 -98 -44q-35 -40 -34 -78q2 -18 14 -34q12 -13 23 -13q10 0 18 8l10 10q14 7 26.5 -1t10.5 -24q-1 -14 -18 -31q-10 -8 -20 -12t-23 -4q-15 0 -30.5 6.5t-28.5 19.5v-178zM1183 40q20 0 20 -20t-20 -20l-357 2q-20 0 -20 20t20 20l36 -2q45 0 47 105q1 55 1 294
q0 232 -1 254q-1 35 -4 43q-8 24 -35 24l-44 2q-20 0 -20 20t20 20l357 -2q20 0 20 -20t-20 -20h-43q-26 0 -35 -20q-5 -12 -5 -42q-2 -466 0 -553q1 -47 5 -65q10 -40 41 -40h37v0z" />
    <glyph glyph-name="afii10094" unicode="&#x44c;" horiz-adv-x="851" 
d="M318 632q0 3 0.5 -11.5t1 -39t0.5 -55.5v-61q66 103 219 103q126 0 216 -84q47 -44 67.5 -95.5t18.5 -103.5t-24 -100.5t-60 -87.5t-90 -65t-112 -32q-119 -13 -183 -7q-19 2 -54.5 3.5t-87.5 3.5t-82.5 2t-41.5 -1q-49 -4 -71 -22q-17 -14 -27 -7q-17 11 -7 27
q13 23 76 40q48 12 49 70q1 11 1 74v180v193t-1 100q-2 105 -47 105h-36q-20 0 -20 20t20 20h354q20 0 20 -20t-20 -20h-36q-23 0 -33 -19q-7 -11 -8 -38.5t-2 -71.5zM316 104q1 -58 40 -61q61 -6 70 -6q63 0 103 29q35 27 59 70t32 92t-2.5 99.5t-44.5 94.5q-44 57 -107 57
q-57 0 -98 -44q-35 -40 -34 -78q1 -9 6 -17.5t11 -16.5q12 -13 20 -13q10 0 18 8l10 10q14 7 26.5 -1t10.5 -24q-1 -14 -18 -31q-10 -8 -20 -12t-23 -4q-32 0 -58 26z" />
    <glyph glyph-name="afii10095" unicode="&#x44d;" horiz-adv-x="802" 
d="M455 337q-55 -4 -67 -3q-47 0 -84 31q-42 36 -56 107q-6 38 6 64q9 20 27 23q10 1 17 -3q4 -3 7 -12q4 -7 0 -11q-5 -10 -18 -4q0 -2 -1 -1t-2 1q-9 -5 -8 -22q0 -11 5.5 -18.5t16.5 -17.5q30 -24 82 -17l26 9t30 14q15 9 27 14t22 7q8 1 15.5 1.5t15.5 -0.5q34 0 54 -26
q2 -5 6.5 -14.5t10.5 -23.5q9 0 32 9q-2 54 -16 100t-42 92q-59 97 -142 119q-22 7 -53 7q-74 0 -135 -43q-53 -41 -72 -57q-14 -13 -28 2q-12 14 2 28l69 63q20 18 20 41q0 9 -3 18q-6 19 14 25q20 5 24 -14q5 -17 5 -29q0 1 0 -1.5t-1 -7.5q50 28 126 25q174 -8 292 -156
q114 -143 105 -315q-7 -163 -136 -264q-122 -97 -295 -94q-137 1 -242 94q-94 83 -103 185q-6 62 26 102q28 36 75 36q40 0 65 -22q22 -18 25 -40q2 -22 -14 -33t-34 -2q-9 4 -19 19t-18 19q-7 4 -15 4q-39 0 -39 -52q0 -28 14 -58q23 -41 71 -69q68 -40 176 -43
q127 -4 215 88q73 78 82 180q-49 -20 -93 -34t-70 -20z" />
    <glyph glyph-name="afii10096" unicode="&#x44e;" horiz-adv-x="1256" 
d="M1233 398q-2 -155 -107 -273q-114 -129 -288 -129q-186 -1 -311 112q-121 110 -121 259h-113q0 -175 1 -222t5 -65q10 -40 41 -40h37q20 0 20 -20t-20 -20h-357q-20 0 -20 20t20 20h36q45 0 47 105q1 55 1 294q0 232 -1 254q-1 35 -4 43q-8 24 -35 24h-44q-20 0 -20 20
t20 20h357q20 0 20 -20t-20 -20h-43q-26 0 -35 -20q-5 -12 -5 -42q-1 -122 -1 -211h124q25 113 104 193q98 99 223 105q72 4 115 -33q36 -32 34 -74q0 -30 -19 -50t-48 -20q-20 0 -34.5 11t-13.5 25q0 16 19 14t21 21q2 21 -18 38.5t-52 17.5q-70 1 -124 -84.5t-54 -194.5
q0 -25 3 -50q19 -125 110 -199q83 -67 192 -67q138 0 218.5 61.5t80.5 161.5q0 11 -1 23q-6 64 -73 119l-123 87q-69 52 -79 111q-3 16 -3 32q0 75 54 122q34 30 78 32q31 1 48 -16t3 -30q-14 -14 -28 0q-5 5 -15 5q-11 0 -21 -10t-9 -25q2 -34 40 -68q72 -63 97 -92
q92 -107 91 -255z" />
    <glyph glyph-name="afii10097" unicode="&#x44f;" horiz-adv-x="951" 
d="M378 7q-34 -15 -70.5 -21t-74.5 -6q-47 0 -87.5 10.5t-71.5 29t-48.5 44t-17.5 54.5q0 25 12 41.5t35 16.5q22 0 22 -20q0 -9 -4.5 -12t-10 -5t-10 -6.5t-4.5 -14.5q0 -17 23 -27.5t66 -10.5q28 0 48.5 10.5t40.5 29t43.5 45.5t58.5 60q37 32 64.5 45.5t59.5 13.5
q55 0 102 -33q19 32 36 69t33 83q-15 -23 -39.5 -42.5t-54 -33.5t-62.5 -22t-66 -8q-61 0 -113.5 15t-91.5 44.5t-61 72t-22 97.5q0 60 30.5 111t84 88t126 57.5t155.5 20.5q7 0 33 -2t65.5 -4t89 -4t104.5 -2q30 0 50.5 5t34.5 11t22.5 11t13.5 5q8 0 13.5 -6.5t5.5 -11.5
q0 -14 -20.5 -27.5t-58.5 -23.5q-50 -13 -50 -70v-17v-38t-0.5 -51.5t-0.5 -55.5v-50.5v-37.5v-39.5v-57t0.5 -64.5t0.5 -60.5v-46.5v-22q1 -105 47 -105h36q20 0 20 -20t-20 -20h-355q-20 0 -20 20t20 20h36q13 0 21 5t13.5 17t8 32t3.5 51l1 142q-25 -56 -50 -99
t-53.5 -76.5t-63 -59t-78.5 -44.5zM622 689q0 40 -16 51t-48 11q-45 0 -86 -14t-72.5 -39t-50 -59.5t-18.5 -75.5q0 -42 10.5 -76.5t30 -59t47 -37.5t60.5 -13q26 0 49.5 12t41 31.5t28 43t10.5 47.5q0 22 -12.5 37.5t-25.5 15.5q-3 0 -7 -3.5l-9 -8t-11.5 -8t-13.5 -3.5
q-10 0 -17 7t-7 18q0 20 19 37t43 17q31 0 56 -28v50t-1 35v12v0z" />
    <glyph glyph-name="afii10071" unicode="&#x451;" horiz-adv-x="851" 
d="M852 154q3 -59 -18 -129q-19 -61 -39 -83q-14 -14 -28 -1q-5 4 -8 21t-22.5 29.5t-42.5 12.5q-6 1 -305 -3t-311 -4l-51 -1q-20 -1 -20 19v1q0 20 19 20l48 1q25 5 26 55l3 631q0 12 -6 20.5t-9.5 8.5t-6.5 1q-35 0 -62 1q-20 1 -19 21t21 19q192 -5 328 5q47 4 78 4
q71 0 116 -18q-1 18 1 36.5t22 15.5q20 -2 17 -22q-4 -33 6 -57q15 -38 60 -48q20 -4 16 -24q-5 -19 -24 -15q-32 7 -60 32q-16 16 -44 40q-37 20 -104 20q-27 0 -72 -3l-73 -4l-3 -260l88 1q-5 75 33 113q31 31 65 29q21 -1 33 -18q8 -10 1 -22t-20.5 -9.5t-26.5 -11
t-13 -28.5q0 -26 29 -50q21 -17 175 -99l27 -14q74 -39 123 -104t53 -129zM598 44q118 0 191 86q-81 0 -164 35t-138 92q-85 89 -108 200l-94 -1l-2 -417l311 4v1h4zM219 1006q28 0 48 -20t20 -49q0 -28 -20 -48t-48 -20t-48 20t-20 48q0 29 20 49t48 20zM433 1005
q28 0 48 -20t20 -49q0 -28 -20 -48t-48 -20t-48 20t-20 48q0 29 20 49t48 20z" />
    <glyph glyph-name="afii10023" unicode="&#x401;" horiz-adv-x="851" 
d="M852 154q3 -59 -18 -129q-19 -61 -39 -83q-14 -14 -28 -1q-5 4 -8 21t-22.5 29.5t-42.5 12.5q-6 1 -305 -3t-311 -4l-51 -1q-20 -1 -20 19v1q0 20 19 20l48 1q25 5 26 55l3 631q0 12 -6 20.5t-9.5 8.5t-6.5 1q-35 0 -62 1q-20 1 -19 21t21 19q192 -5 328 5q47 4 78 4
q71 0 116 -18q-1 18 1 36.5t22 15.5q20 -2 17 -22q-4 -33 6 -57q15 -38 60 -48q20 -4 16 -24q-5 -19 -24 -15q-32 7 -60 32q-16 16 -44 40q-37 20 -104 20q-27 0 -72 -3l-73 -4l-3 -260l88 1q-5 75 33 113q31 31 65 29q21 -1 33 -18q8 -10 1 -22t-20.5 -9.5t-26.5 -11
t-13 -28.5q0 -26 29 -50q21 -17 175 -99l27 -14q74 -39 123 -104t53 -129zM598 44q118 0 191 86q-81 0 -164 35t-138 92q-85 89 -108 200l-94 -1l-2 -417l311 4v1h4zM219 1006q28 0 48 -20t20 -49q0 -28 -20 -48t-48 -20t-48 20t-20 48q0 29 20 49t48 20zM433 1005
q28 0 48 -20t20 -49q0 -28 -20 -48t-48 -20t-48 20t-20 48q0 29 20 49t48 20z" />
    <glyph glyph-name="afii10053" unicode="&#x404;" horiz-adv-x="802" 
d="M339 337q-26 6 -70 20t-93 34q9 -102 82 -180q88 -92 215 -88q108 3 176 43q48 28 71 69q14 30 14 58q0 52 -39 52q-8 0 -15 -4q-8 -4 -18 -19t-19 -19q-18 -9 -34 2t-14 33q3 22 25 40q25 22 65 22q47 0 75 -36q32 -40 26 -102q-9 -102 -103 -185q-105 -93 -242 -94
q-173 -3 -295 94q-129 101 -136 264q-9 172 105 315q118 148 292 156q76 3 126 -25q-1 5 -1 7.5t0 1.5q0 12 5 29q4 19 24 14q20 -6 14 -25q-3 -9 -3 -18q0 -23 20 -41l69 -63q14 -14 2 -28q-14 -15 -28 -2q-19 16 -72 57q-61 43 -135 43q-31 0 -53 -7q-83 -22 -142 -119
q-28 -46 -42 -92t-16 -100q23 -9 32 -9q6 14 10.5 23.5t6.5 14.5q20 26 54 26q8 1 15.5 0.5t15.5 -1.5q10 -2 22 -7t27 -14q16 -9 30 -14l26 -9q52 -7 82 17q11 10 16.5 17.5t5.5 18.5q1 17 -8 22q-1 0 -2 -1t-1 1q-13 -6 -18 4q-4 4 0 11q3 9 7 12q7 4 17 3q18 -3 27 -23
q12 -26 6 -64q-14 -71 -56 -107q-37 -31 -84 -31q-12 -1 -67 3z" />
    <glyph glyph-name="afii10101" unicode="&#x454;" horiz-adv-x="802" 
d="M339 337q-26 6 -70 20t-93 34q9 -102 82 -180q88 -92 215 -88q108 3 176 43q48 28 71 69q14 30 14 58q0 52 -39 52q-8 0 -15 -4q-8 -4 -18 -19t-19 -19q-18 -9 -34 2t-14 33q3 22 25 40q25 22 65 22q47 0 75 -36q32 -40 26 -102q-9 -102 -103 -185q-105 -93 -242 -94
q-173 -3 -295 94q-129 101 -136 264q-9 172 105 315q118 148 292 156q76 3 126 -25q-1 5 -1 7.5t0 1.5q0 12 5 29q4 19 24 14q20 -6 14 -25q-3 -9 -3 -18q0 -23 20 -41l69 -63q14 -14 2 -28q-14 -15 -28 -2q-19 16 -72 57q-61 43 -135 43q-31 0 -53 -7q-83 -22 -142 -119
q-28 -46 -42 -92t-16 -100q23 -9 32 -9q6 14 10.5 23.5t6.5 14.5q20 26 54 26q8 1 15.5 0.5t15.5 -1.5q10 -2 22 -7t27 -14q16 -9 30 -14l26 -9q52 -7 82 17q11 10 16.5 17.5t5.5 18.5q1 17 -8 22q-1 0 -2 -1t-1 1q-13 -6 -18 4q-4 4 0 11q3 9 7 12q7 4 17 3q18 -3 27 -23
q12 -26 6 -64q-14 -71 -56 -107q-37 -31 -84 -31q-12 -1 -67 3z" />
    <glyph glyph-name="afii10062" unicode="&#x40e;" horiz-adv-x="798" 
d="M809 800q20 0 20 -20q0 -19 -20 -20q-36 -1 -54 -23q-9 -11 -23 -50q-16 -44 -34 -75q-37 -60 -83 -98l-116 -86q-69 -54 -94 -99q-17 -32 -20 -81q-4 -77 63 -147q60 -61 107 -61h25q20 0 20 -20t-20 -20h-384q-20 0 -20 20q0 19 20 20q61 4 61 21q0 4 -25 49
q-30 52 -30 102q0 100 118 194l-191 300q-26 39 -44 46q-42 7 -63.5 6.5t-21.5 19.5t20 20h399q20 0 20 -20q0 -21 -20 -20h-53q-39 0 -52 -16q-9 -11 5 -38q12 -23 134 -207q104 62 113 69q50 35 73 78q11 21 11 42q0 30 -22 53q-18 20 -37 20.5t-32 0.5q-20 -1 -20 20
q0 20 20 20h250v0zM575 951q0 -39 -18.5 -66t-47 -41t-62 -15.5t-63.5 9.5t-51.5 36t-25.5 63q3 34 21 50t44 10q15 -1 21 -9t9 -19.5t4.5 -25t7.5 -25t17.5 -20t34.5 -9.5q21 -2 36 4.5t24 16.5t13 22t4 23q0 6 -2.5 11.5t-6.5 5.5q-2 0 -4 -1.5t-4 -1.5q-7 0 -9.5 4.5
t-2.5 8.5q0 11 9.5 15t13.5 4q19 0 28.5 -15t9.5 -35z" />
    <glyph glyph-name="afii10110" unicode="&#x45e;" horiz-adv-x="798" 
d="M809 800q20 0 20 -20q0 -19 -20 -20q-36 -1 -54 -23q-9 -11 -23 -50q-16 -44 -34 -75q-37 -60 -83 -98l-116 -86q-69 -54 -94 -99q-17 -32 -20 -81q-4 -77 63 -147q60 -61 107 -61h25q20 0 20 -20t-20 -20h-384q-20 0 -20 20q0 19 20 20q61 4 61 21q0 4 -25 49
q-30 52 -30 102q0 100 118 194l-191 300q-26 39 -44 46q-42 7 -63.5 6.5t-21.5 19.5t20 20h399q20 0 20 -20q0 -21 -20 -20h-53q-39 0 -52 -16q-9 -11 5 -38q12 -23 134 -207q104 62 113 69q50 35 73 78q11 21 11 42q0 30 -22 53q-18 20 -37 20.5t-32 0.5q-20 -1 -20 20
q0 20 20 20h250v0zM575 951q0 -39 -18.5 -66t-47 -41t-62 -15.5t-63.5 9.5t-51.5 36t-25.5 63q3 34 21 50t44 10q15 -1 21 -9t9 -19.5t4.5 -25t7.5 -25t17.5 -20t34.5 -9.5q21 -2 36 4.5t24 16.5t13 22t4 23q0 6 -2.5 11.5t-6.5 5.5q-2 0 -4 -1.5t-4 -1.5q-7 0 -9.5 4.5
t-2.5 8.5q0 11 9.5 15t13.5 4q19 0 28.5 -15t9.5 -35z" />
    <glyph glyph-name="afii10056" unicode="&#x407;" horiz-adv-x="429" 
d="M377 40q20 0 20 -20t-20 -20h-357q-20 0 -20 20t20 20h36q45 0 47 105q1 55 1 294q0 232 -1 254q-1 35 -4 43q-8 24 -35 24h-44q-20 0 -20 20t20 20h357q20 0 20 -20t-20 -20h-43q-26 0 -35 -20q-5 -12 -5 -42q-2 -466 0 -553q1 -47 5 -65q10 -40 41 -40h37v0zM98 1011
q28 0 48 -20t20 -49q0 -28 -20 -48t-48 -20t-48 20t-20 48q0 29 20 49t48 20zM312 1010q28 0 48 -20t20 -49q0 -28 -20 -48t-48 -20t-48 20t-20 48q0 29 20 49t48 20z" />
    <glyph glyph-name="afii10104" unicode="&#x457;" horiz-adv-x="429" 
d="M377 40q20 0 20 -20t-20 -20h-357q-20 0 -20 20t20 20h36q45 0 47 105q1 55 1 294q0 232 -1 254q-1 35 -4 43q-8 24 -35 24h-44q-20 0 -20 20t20 20h357q20 0 20 -20t-20 -20h-43q-26 0 -35 -20q-5 -12 -5 -42q-2 -466 0 -553q1 -47 5 -65q10 -40 41 -40h37v0zM98 1011
q28 0 48 -20t20 -49q0 -28 -20 -48t-48 -20t-48 20t-20 48q0 29 20 49t48 20zM312 1010q28 0 48 -20t20 -49q0 -28 -20 -48t-48 -20t-48 20t-20 48q0 29 20 49t48 20z" />
    <glyph glyph-name="uni0406" unicode="&#x406;" horiz-adv-x="429" 
d="M377 40q20 0 20 -20t-20 -20h-357q-20 0 -20 20t20 20h36q45 0 47 105q1 55 1 294q0 232 -1 254q-1 35 -4 43q-8 24 -35 24h-44q-20 0 -20 20t20 20h357q20 0 20 -20t-20 -20h-43q-26 0 -35 -20q-5 -12 -5 -42q-2 -466 0 -553q1 -47 5 -65q10 -40 41 -40h37v0z" />
    <glyph glyph-name="afii10103" unicode="&#x456;" horiz-adv-x="429" 
d="M377 40q20 0 20 -20t-20 -20h-357q-20 0 -20 20t20 20h36q45 0 47 105q1 55 1 294q0 232 -1 254q-1 35 -4 43q-8 24 -35 24h-44q-20 0 -20 20t20 20h357q20 0 20 -20t-20 -20h-43q-26 0 -35 -20q-5 -12 -5 -42q-2 -466 0 -553q1 -47 5 -65q10 -40 41 -40h37v0z" />
    <glyph glyph-name="afii10044" unicode="&#x42a;" horiz-adv-x="1083" 
d="M538 104q6 -58 45 -61q61 -6 70 -6q62 0 103 29q35 27 59 70t32 92t-2.5 99.5t-44.5 94.5q-44 57 -107 57q-57 0 -98 -44q-35 -42 -34 -78q1 -17 14 -34q12 -13 23 -13q10 0 18 8l10 10q14 7 26.5 -1t10.5 -24q-2 -15 -18 -31q-19 -16 -43 -16q-15 0 -32.5 6.5
t-30.5 19.5zM624 801q20 0 20 -20t-20 -20h-36q-23 0 -33 -19q-7 -11 -8 -38t-2 -72q0 3 0.5 -11.5t0.5 -39t0.5 -55.5t0.5 -61q66 103 219 103q126 0 216 -84q47 -44 67.5 -95.5t18.5 -103.5t-24 -100.5t-60 -87.5t-89.5 -65t-112.5 -32q-116 -13 -183 -7q-19 2 -54.5 3.5
t-87.5 3.5t-82.5 2t-41.5 -1q-49 -4 -71 -22q-17 -14 -27 -7q-17 11 -7 27q14 24 76 40q48 12 49 70q1 11 1 73.5v180.5v125v121v97.5v55.5q-17 1 -30 -4q-10 -133 -116 -214q-79 -61 -150 -61q-51 0 -49 29q0 14 16 17q30 6 59 33q26 25 40 55q12 27 12 77q0 54 -13 80
q-5 10 0.5 19.5t17.5 9.5z" />
    <glyph glyph-name="afii61352" unicode="&#x2116;" horiz-adv-x="1280" 
d="M785 39q20 0 20 -20t-20 -20h-133q-13 0 -22 16q-2 4 -369 649q-6 -23 -25 -61q-30 -60 -42 -101q-18 -62 -18 -112q0 -75 38 -137q50 -84 123 -145q76 -64 134 -66q8 0 34 -1q20 0 20 -20t-20 -20h-440q-20 0 -20 20t20.5 19.5t32.5 1.5q16 3 16 17q0 16 -45 60
q-69 68 -69 161q0 133 109 253l51 56q66 73 65 103q-1 23 -18 44.5t-39 21.5q-28 1 -43 1q-20 0 -20 20t20 20h266q14 0 19 -13l260 -457l-1 379q0 50 -33 51h-38q-20 0 -20 20t20 20h187q20 0 20 -20t-20 -20h-38q-35 0 -37 -49v-517q0 -85 7 -116q9 -38 35 -38h33z
M1267 369h-432v-91h432v91zM1049 795q77 0 127 -49t50 -124q0 -79 -53.5 -132t-134.5 -53q-77 0 -126.5 49t-49.5 125q0 79 53.5 131.5t133.5 52.5zM1059 473q34 0 57 28t23 75q0 79 -33 136.5t-76 57.5q-78 0 -78 -113q0 -64 29 -121q33 -63 78 -63z" />
    <glyph glyph-name="glyph180" unicode="-" horiz-adv-x="583" 
d="M573 457h-573v91h573v-91z" />
    </font>
</defs>
</svg>
