<?xml version="1.0" encoding="UTF-8" standalone="no"?>
<svg
   xmlns:dc="http://purl.org/dc/elements/1.1/"
   xmlns:cc="http://creativecommons.org/ns#"
   xmlns:rdf="http://www.w3.org/1999/02/22-rdf-syntax-ns#"
   xmlns:svg="http://www.w3.org/2000/svg"
   xmlns="http://www.w3.org/2000/svg"
   version="1.1"
   id="svg4791"
   viewBox="0 0 104.81845 57.999997"
   height="58"
   width="104.81845">
  <defs
     id="defs4793" />
  <metadata
     id="metadata4796">
    <rdf:RDF>
      <cc:Work
         rdf:about="">
        <dc:format>image/svg+xml</dc:format>
        <dc:type
           rdf:resource="http://purl.org/dc/dcmitype/StillImage" />
        <dc:title></dc:title>
      </cc:Work>
    </rdf:RDF>
  </metadata>
  <g
     transform="translate(-206.8235,-959.25067)"
     id="layer1">
    <path
       id="path6086"
       d="m 227.5771,1015.5436 c -3.12464,-1.7598 -5.76257,-6.2535 -5.76257,-9.8164 0,-1.9156 0.65607,-2.5559 3.125,-3.0497 5.92184,-1.1843 6.875,-0.8632 6.875,2.316 0,2.8043 1.50803,4.8844 2.68663,3.7058 2.68882,-2.6889 -8.33319,-15.05624 -17.68663,-19.84554 -5.18207,-2.65339 -5.29354,-2.78617 -1.92849,-2.29687 4.8696,0.70807 5.46333,-0.32493 2.19249,-3.81462 -2.3534,-2.51087 -2.43952,-2.78113 -0.57974,-1.81933 6.09658,3.1529 7.65575,-0.0602 3.18588,-6.56539 -3.60118,-5.24095 -3.96493,-5.2508 4.33588,0.11739 3.37494,2.18259 5.1145,1.21485 4.56359,-2.53879 -0.38531,-2.62526 -0.27645,-2.74727 1.23262,-1.38158 3.083,2.79008 4.30564,1.86978 3.65611,-2.75202 l -0.59728,-4.25 2.52031,5.5 c 1.38617,3.025 3.83866,6.86237 5.44997,8.52748 1.61131,1.66512 3.20691,4.41377 3.54578,6.10811 0.52814,2.64072 0.28104,3.17032 -1.7305,3.70886 -5.40242,1.44635 -7.65286,0.81423 -8.34662,-2.34445 -0.3624,-1.65 -1.02501,-3 -1.47247,-3 -0.70956,0 -2.02753,2.34469 -2.02753,3.60701 0,0.24389 2.64011,3.28136 5.86691,6.74993 8.65134,9.29951 10.1819,16.43021 4.64348,21.63331 -3.05552,2.8705 -9.97485,3.6259 -13.74782,1.5008 z m -20.12309,-30.1849 c -1.12618,-1.12619 -0.68589,-2.30615 0.86052,-2.30615 0.825,0 1.5,0.42344 1.5,0.94098 0,1.26098 -1.56159,2.1641 -2.36052,1.36517 z m 4.36052,-6.80615 c 0,-0.91667 0.48375,-1.50542 1.075,-1.30833 0.59125,0.19708 1.075,0.78583 1.075,1.30833 0,0.5225 -0.48375,1.11125 -1.075,1.30833 -0.59125,0.19709 -1.075,-0.39166 -1.075,-1.30833 z m 2.63948,-9.19385 c -1.12618,-1.12619 -0.68589,-2.30615 0.86052,-2.30615 0.825,0 1.5,0.42344 1.5,0.94098 0,1.26098 -1.56159,2.1641 -2.36052,1.36517 z m 10.55219,-3.38115 c 0.19708,-0.59125 0.78583,-1.075 1.30833,-1.075 0.5225,0 1.11125,0.48375 1.30833,1.075 0.19709,0.59125 -0.39166,1.075 -1.30833,1.075 -0.91667,0 -1.50542,-0.48375 -1.30833,-1.075 z m 5.50218,-3.56448 c -0.79893,-0.79893 0.10419,-2.36052 1.36517,-2.36052 0.51754,0 0.94098,0.675 0.94098,1.5 0,1.54641 -1.17996,1.9867 -2.30615,0.86052 z"
       style="fill:#fee931" />
    <text
       transform="scale(1.0202565,0.98014571)"
       id="text6062"
       y="1029.2252"
       x="244.16957"
       style="font-style:normal;font-weight:normal;font-size:36.38806534px;line-height:73.00000191%;font-family:sans-serif;letter-spacing:0px;word-spacing:0.06964096px;fill:#000000;fill-opacity:1;stroke:none;stroke-width:1px;stroke-linecap:butt;stroke-linejoin:miter;stroke-opacity:1"
       xml:space="preserve"><tspan
         id="tspan6082"
         dx="0 0 0 0 0 0 0 0"
         style="font-style:normal;font-variant:normal;font-weight:bold;font-stretch:normal;font-size:8.08332539px;line-height:73.00000191%;font-family:Oswald;-inkscape-font-specification:'Oswald Bold';letter-spacing:0px;word-spacing:0px;fill:#ffffff"
         y="1029.2252"
         x="244.16957"><tspan
           style="font-style:normal;font-variant:normal;font-weight:bold;font-stretch:normal;font-size:27.29105186px;line-height:73.00000191%;font-family:Oswald;-inkscape-font-specification:'Oswald Bold';letter-spacing:0px;word-spacing:0px;fill:#ffffff"
           id="tspan6109"
           dx="0 0 0 0 0">M A K</tspan></tspan></text>
    <text
       id="text6103"
       y="1017.2507"
       x="250.5126"
       style="font-style:normal;font-weight:normal;font-size:40px;line-height:125%;font-family:sans-serif;letter-spacing:0px;word-spacing:0px;fill:#000000;fill-opacity:1;stroke:none;stroke-width:1px;stroke-linecap:butt;stroke-linejoin:miter;stroke-opacity:1"
       xml:space="preserve"><tspan
         style="font-style:normal;font-variant:normal;font-weight:bold;font-stretch:normal;font-size:8.125px;font-family:Oswald;-inkscape-font-specification:'Oswald Bold';letter-spacing:0px;fill:#ffffff"
         y="1017.2507"
         x="250.5126"
         id="tspan6105">T      H      E      M      E</tspan></text>
    <text
       id="text6111"
       y="1012.8312"
       x="277.78671"
       style="font-style:normal;font-weight:normal;font-size:40px;line-height:125%;font-family:sans-serif;letter-spacing:0px;word-spacing:0px;fill:#000000;fill-opacity:1;stroke:none;stroke-width:1px;stroke-linecap:butt;stroke-linejoin:miter;stroke-opacity:1"
       xml:space="preserve"><tspan
         y="1012.8312"
         x="277.78671"
         id="tspan6113"> </tspan></text>
    <text
       id="text6115"
       y="1013.5889"
       x="282.83746"
       style="font-style:normal;font-weight:normal;font-size:40px;line-height:125%;font-family:sans-serif;letter-spacing:0px;word-spacing:0px;fill:#000000;fill-opacity:1;stroke:none;stroke-width:1px;stroke-linecap:butt;stroke-linejoin:miter;stroke-opacity:1"
       xml:space="preserve"><tspan
         y="1013.5889"
         x="282.83746"
         id="tspan6117">   </tspan></text>
  </g>
</svg>
