<?xml version="1.0" encoding="UTF-8" standalone="no"?>
<svg
   xmlns:dc="http://purl.org/dc/elements/1.1/"
   xmlns:cc="http://creativecommons.org/ns#"
   xmlns:rdf="http://www.w3.org/1999/02/22-rdf-syntax-ns#"
   xmlns:svg="http://www.w3.org/2000/svg"
   xmlns="http://www.w3.org/2000/svg"
   version="1.1"
   id="svg2"
   viewBox="0 0 399.14401 241.38654"
   height="68.124649mm"
   width="112.64731mm">
  <defs
     id="defs4" />
  <metadata
     id="metadata7">
    <rdf:RDF>
      <cc:Work
         rdf:about="">
        <dc:format>image/svg+xml</dc:format>
        <dc:type
           rdf:resource="http://purl.org/dc/dcmitype/StillImage" />
        <dc:title></dc:title>
      </cc:Work>
    </rdf:RDF>
  </metadata>
  <g
     transform="translate(-105.84173,-273.98213)"
     id="layer1">
    <path
       id="path3386"
       d="m 367.45104,514.86143 c -4.09824,-1.05751 -8.43347,-4.20271 -12.76012,-9.25743 -5.83947,-6.82211 -6.60456,-10.64422 -6.60456,-32.99408 0,-18.53905 0.12196,-19.85194 1.93426,-20.82186 2.36289,-1.26458 3.13914,-1.27357 5.06574,-0.0587 1.22169,0.7704 1.59277,4.61755 2,20.73469 0.57131,22.61099 1.3195,25.2157 8.91581,31.03878 7.69965,5.90231 15.89125,3.86781 22.54703,-5.59987 l 3.03716,-4.32023 0.28409,-53.12385 c 0.25306,-47.32321 0.46107,-53.31942 1.90498,-54.91492 3.32402,-3.673 7.31093,-1.52421 7.31093,3.9403 0,1.83605 0.59222,3.55865 1.31938,3.83768 0.72566,0.27846 3.76316,-0.63126 6.75,-2.02161 4.93347,-2.29649 6.6294,-2.52881 18.52563,-2.53768 11.42388,-0.009 13.30622,0.22361 14.75,1.81897 0.91025,1.00581 1.65499,2.49081 1.65499,3.3 0,3.27595 -2.28523,3.87106 -14.95,3.89322 -14.32018,0.0251 -19.13093,1.47421 -23.01859,6.93394 -4.06938,5.71491 -5.03141,11.20906 -5.03141,28.73442 0,18.53039 0.28077,19.16322 6.72462,15.15693 3.42672,-2.13048 5.12277,-2.37851 18.36544,-2.68576 12.55637,-0.29132 14.82144,-0.10713 16.25,1.32143 2.07979,2.07979 2.10729,3.92687 0.0885,5.94565 -1.25705,1.25707 -4.01536,1.57143 -13.7881,1.57143 -10.68283,0 -12.77587,0.2825 -16.6705,2.25 -8.03746,4.0604 -10.96996,11.46955 -10.96996,27.71632 0,6.57243 -0.50514,10.04631 -1.95147,13.42047 -2.22622,5.19356 -9.0865,13.06437 -13.27485,15.23025 -3.39596,1.75611 -14.04113,2.6186 -18.409,1.49151 z M 131.58636,477.99469 c -9.67744,-1.22176 -25.28798,-9.17628 -25.65844,-13.07455 -0.44496,-4.68213 0.83598,-7.11155 3.77094,-7.15195 0.61187,-0.008 2.86187,1.3936 5,3.11561 13.37652,10.7732 28.8953,10.53607 41.25522,-0.63038 2.24874,-2.0316 5.04216,-5.2367 6.20762,-7.12245 4.66555,-7.54902 4.90017,-10.65625 4.91279,-65.06299 0.007,-30.80617 0.40015,-52.20617 0.98712,-53.75 1.20341,-3.1652 4.91915,-3.44425 7.52475,-0.5651 2.27561,2.51452 4.06792,2.51452 9,0 8.13005,-4.14493 20.37223,-1.96211 27.56918,4.91568 3.92855,3.75433 4.90157,3.81351 8.00651,0.487 3.6176,-3.87576 9.59701,-6.56327 15.85192,-7.12481 14.57035,-1.30807 27.26343,8.36548 28.79395,21.94422 0.39386,3.49425 0.0848,4.64314 -1.67793,6.23843 -2.93803,2.65888 -5.11873,1.17085 -7.04908,-4.81 -5.07145,-15.71307 -22.04452,-19.84699 -30.95937,-7.54038 -2.6377,3.64123 -2.75189,4.33369 -3.29488,19.98082 -0.73821,21.27287 -0.14526,22.83211 5.12882,13.48695 6.24374,-11.06329 18.82744,-16.82369 37.13088,-16.99729 l 8.5,-0.0806 0.61611,-6 c 0.88176,-8.58706 2.37139,-12.54126 6.5743,-17.45142 11.83068,-13.82149 35.1322,-11.50904 43.60344,4.32721 2.08876,3.90476 2.22276,5.53258 2.51826,30.59221 0.28637,24.28566 0.16755,26.57371 -1.44113,27.75 -2.85052,2.08435 -3.9966,1.58515 -11.0631,-4.81879 -19.50324,-17.67462 -37.44621,-25.73864 -55.05608,-24.7436 -9.26617,0.52359 -19.18767,5.27926 -22.98499,11.0174 -3.67574,5.55441 -4.27661,13.9273 -1.40362,19.55882 5.48813,10.75762 20.12232,15.64422 28.05023,9.36645 1.42262,-1.12651 5.96158,-3.90899 10.08658,-6.1833 7.44247,-4.10337 7.58469,-4.13616 18.54084,-4.27504 10.91138,-0.1383 11.1322,-0.0949 18.83148,3.70495 4.28485,2.1147 9.77897,5.75006 12.20916,8.07859 l 4.41852,4.23369 0,14.69285 0,14.69286 -2.61747,1.1926 c -2.31016,1.05257 -2.8385,0.91964 -4.5,-1.13222 -1.60568,-1.98293 -1.88253,-4.06025 -1.88253,-14.12515 l 0,-11.80032 -2.97448,-2.50286 c -5.50304,-4.6305 -13.64769,-7.91691 -20.81423,-8.39864 -10.18318,-0.68451 -10.26146,-0.56427 -10.57745,16.24813 -0.28149,14.9766 -1.77203,20.69205 -6.48866,24.88057 -1.17985,1.04774 -2.14518,2.4368 -2.14518,3.0868 0,1.37424 12.17565,9.93007 16.3151,11.46462 1.5483,0.57397 5.69797,1.04359 9.22149,1.04359 12.92801,0 23.72594,-7.87263 29.35984,-21.40586 l 3.10357,-7.4551 0,-52.86952 c 0,-55.67732 -0.0332,-55.26952 4.5,-55.26952 4.16676,0 4.49973,1.51128 4.50558,20.45 0.003,9.9275 0.45777,19.67793 1.01045,21.66763 2.12271,7.64191 7.84806,13.49922 14.20313,14.53051 5.07463,0.8235 8.12849,-0.13647 12.41948,-3.90401 7.26265,-6.37669 7.31476,-6.71988 7.3394,-48.33758 0.0204,-34.45229 0.16432,-37.50724 2.02137,-42.90484 4.88031,-14.18486 14.7457,-20.56464 29.29093,-18.94195 4.65903,0.51977 6.7379,1.39498 10.6402,4.47957 10.49066,8.29239 15.36271,27.96067 6.92616,27.96067 -2.33311,0 -4.8567,-3.77869 -4.8567,-7.27217 0,-3.94996 -2.19174,-7.76489 -6.91005,-12.0276 -4.56653,-4.12559 -7.65354,-5.19501 -12.65374,-4.38359 -4.81868,0.78196 -8.95339,4.00584 -12.18235,9.49871 l -2.75386,4.68465 -0.5,40 c -0.4764,38.11185 -0.60007,40.21242 -2.62,44.5 -1.166,2.475 -3.5285,5.82169 -5.25,7.43709 -1.7215,1.6154 -3.13,3.43996 -3.13,4.05458 0,0.61462 1.55612,2.81638 3.45804,4.89279 6.4646,7.0577 7.54196,12.01092 7.54196,34.67449 l 0,19.98393 -2.49594,1.13722 c -2.06233,0.93966 -2.84409,0.82215 -4.5,-0.67642 -1.86692,-1.68954 -2.00406,-3.07123 -2.00406,-20.19079 0,-20.0155 -0.6506,-23.22782 -5.80305,-28.65217 -9.19698,-9.68233 -21.11245,-6.89637 -27.11292,6.33928 -1.71079,3.7736 -2.0454,6.59849 -2.07289,17.5 -0.0433,17.15159 -1.86774,23.25718 -10.22454,34.21615 -12.85456,16.85727 -36.45771,20.2704 -54.52581,7.8847 -2.70789,-1.85626 -5.5188,-4.84549 -6.51866,-6.93219 -0.96683,-2.01776 -1.92275,-3.66866 -2.12427,-3.66866 -0.20153,0 -2.27956,0.675 -4.61786,1.5 -8.90012,3.14015 -17.65859,0.75122 -25.66391,-7 -4.05787,-3.92907 -5.51846,-6.23031 -6.81925,-10.74413 -1.81644,-6.30313 -1.39815,-9.21384 1.55088,-10.79212 3.18241,-1.70317 5.58276,0.41084 6.95328,6.1238 1.53151,6.38404 5.69409,11.25632 11.51638,13.47988 5.40303,2.06343 10.78963,1.41344 14.10602,-1.70214 3.10138,-2.9136 2.97311,-3.86529 -0.52096,-3.86529 -4.59923,0 -5.62984,-2.23014 -5.56288,-12.03762 l 0.0596,-8.72381 -7.05955,-0.4612 c -10.81398,-0.70647 -19.80198,-6.21577 -25.21813,-15.45774 -3.90615,-6.66533 -4.89485,-5.22268 -4.50172,6.56862 0.37775,11.33122 -0.91383,15.11175 -5.16281,15.11175 -4.64253,0 -4.67695,-0.28619 -4.67695,-38.88428 0,-40.84389 -4.6e-4,-40.84688 -7.45707,-48.07411 -2.88208,-2.79342 -4.41729,-3.44957 -8.95054,-3.82551 -6.92025,-0.57388 -11.43719,1.96273 -15.35124,8.62093 l -2.74115,4.66297 -0.55133,44 c -0.61482,49.06751 -0.61202,49.04587 -7.76558,60.07407 -4.37861,6.75024 -10.30135,12.42529 -16.00364,15.33438 -5.97412,3.04777 -15.99573,5.05092 -21.67945,4.33336 z m 140.10858,-34.76718 c 1.28053,-1.95433 1.62428,-4.71366 1.52019,-12.20287 -0.074,-5.32262 -0.52967,-10.07266 -1.01266,-10.55565 -0.84472,-0.84472 -9.11611,2.6907 -9.11611,3.89648 0,0.31458 0.9,1.71612 2,3.11454 1.36112,1.73038 2,4.05678 2,7.28273 0,5.88958 0.97552,10.99014 2.10195,10.99014 0.46857,0 1.59655,-1.13642 2.50663,-2.52537 z m 45.3863,-73.22463 c -0.005,-15.59638 -0.15974,-17.00305 -2.25,-20.4241 -6.90197,-11.29616 -20.6225,-12.40825 -28.335,-2.29663 -1.99205,2.61171 -2.85492,5.21496 -3.39301,10.23657 -0.39688,3.70379 -0.37712,7.67314 0.0439,8.82079 0.4825,1.31521 4.23944,3.8107 10.16229,6.75013 5.16823,2.56493 11.76907,6.68845 14.66852,9.16337 8.91755,7.61189 9.10929,7.35387 9.1033,-12.25013 z m 103.66525,104.26728 c -4.30953,-4.30954 -0.76236,-6.86863 10.4838,-7.5635 8.39652,-0.5188 9.02088,-0.71962 12.43584,-4 7.77933,-7.47273 7.42023,-4.31423 7.42023,-65.26472 0,-37.43928 0.34769,-55.38801 1.11562,-57.59088 0.61359,-1.76015 0.84136,-3.47453 0.50616,-3.80974 -0.33521,-0.3352 -3.15393,-0.04 -6.26383,0.65593 -3.14118,0.70297 -11.06557,1.19983 -17.82895,1.11789 -12.78899,-0.15495 -16.45997,0.61151 -20.37632,4.25435 -4.75467,4.42262 -6.50547,9.50393 -6.95432,20.18339 -0.45074,10.72434 -1.13055,12.5 -4.78562,12.5 -3.75265,0 -4.67513,-3.14478 -4.22017,-14.38673 0.46298,-11.44009 2.64467,-17.74974 8.10865,-23.4509 6.35686,-6.63279 9.35407,-7.50338 28.33438,-8.23016 15.51766,-0.5942 17.53933,-0.88163 21.41142,-3.04418 5.12323,-2.86131 7.37538,-5.72146 9.75461,-12.38803 1.33976,-3.75399 2.34815,-5.08143 4.04645,-5.32676 8.89661,-1.28519 5.62881,13.92807 -4.94934,23.04169 l -5.39325,4.64656 2.53835,0.96508 c 4.55511,1.73185 4.80892,2.80751 5.14051,21.78622 0.31222,17.86973 0.34568,18.10936 3.07939,22.05022 3.27265,4.71778 9.23576,8.33699 13.73626,8.33699 7.05756,0 15.15303,-7.43978 17.06665,-15.68435 1.15173,-4.96206 1.15453,-69.65729 0.003,-74.61697 -2.60996,-11.24343 -14.38451,-18.69006 -22.72932,-14.37479 -4.80791,2.48627 -10.15476,9.09027 -10.82197,13.36645 -1.3262,8.49962 -5.76179,11.9205 -9.01622,6.95362 -2.12889,-3.2491 -1.23882,-8.28122 2.83786,-16.04409 4.28226,-8.1539 10.70025,-13.12457 18.14776,-14.05507 13.25134,-1.65565 22.03129,3.14803 28.7561,15.733 2.23745,4.18722 2.25614,4.56599 2.25614,45.7222 0,41.15621 -0.0187,41.53498 -2.25614,45.7222 -1.24088,2.3222 -3.60338,5.75661 -5.25,7.63201 -3.76092,4.28346 -3.74742,5.5557 0.0977,9.2087 6.62185,6.29094 7.25797,8.84824 7.69554,30.93709 0.41399,20.8987 -0.22198,25.51308 -3.51237,25.48469 -4.55929,-0.0393 -4.74873,-0.84251 -5.27475,-22.36384 l -0.5,-20.45662 -3.03716,-4.31732 c -7.45869,-10.60255 -17.43815,-11.8417 -25.65979,-3.18619 -5.09897,5.36805 -5.80305,8.71986 -5.80305,27.62566 0,19.50417 -0.95732,24.44967 -6.25932,32.33543 -1.8303,2.72222 -5.38082,6.13823 -8.15814,7.84905 -4.42619,2.72652 -5.88375,3.06298 -14.58987,3.36784 -7.98695,0.27969 -9.96169,0.0494 -11.33254,-1.32142 z M 259.12154,406.81862 c -0.56935,-1.06384 -1.03518,-7.26371 -1.03518,-13.77749 0,-12.1659 1.13889,-16.28825 4.5,-16.28825 3.36111,0 4.5,4.12235 4.5,16.28825 0,12.93069 -0.79652,15.71175 -4.5,15.71175 -1.37865,0 -2.87742,-0.8367 -3.46482,-1.93426 z m 16.5532,-6.38645 c -2.2407,-2.2407 -2.5864,-3.434 -2.57364,-8.88384 0.017,-7.24574 1.60328,-11.16128 4.70256,-11.60744 3.46216,-0.49839 5.58575,4.71171 5.09051,12.4893 -0.30442,4.7808 -0.93104,6.89037 -2.51815,8.47748 l -2.11289,2.11289 -2.58839,-2.58839 z"
       style="fill:#ababab" />
  </g>
</svg>
