<?xml version="1.0" encoding="UTF-8" standalone="no"?>
<!-- Created with Inkscape (http://www.inkscape.org/) -->

<svg
   xmlns:dc="http://purl.org/dc/elements/1.1/"
   xmlns:cc="http://creativecommons.org/ns#"
   xmlns:rdf="http://www.w3.org/1999/02/22-rdf-syntax-ns#"
   xmlns:svg="http://www.w3.org/2000/svg"
   xmlns="http://www.w3.org/2000/svg"
   xmlns:sodipodi="http://sodipodi.sourceforge.net/DTD/sodipodi-0.dtd"
   xmlns:inkscape="http://www.inkscape.org/namespaces/inkscape"
   width="281.57605mm"
   height="169.29791mm"
   viewBox="0 0 997.71042 599.87446"
   id="svg2"
   version="1.1"
   inkscape:version="0.91 r13725"
   sodipodi:docname="logo.svg">
  <defs
     id="defs4" />
  <sodipodi:namedview
     id="base"
     pagecolor="#ffffff"
     bordercolor="#666666"
     borderopacity="1.0"
     inkscape:pageopacity="0.0"
     inkscape:pageshadow="2"
     inkscape:zoom="0.7"
     inkscape:cx="79.132311"
     inkscape:cy="212.33297"
     inkscape:document-units="px"
     inkscape:current-layer="layer1"
     showgrid="false"
     fit-margin-top="0"
     fit-margin-left="0"
     fit-margin-right="0"
     fit-margin-bottom="0"
     showborder="false"
     inkscape:window-width="1366"
     inkscape:window-height="716"
     inkscape:window-x="-8"
     inkscape:window-y="1192"
     inkscape:window-maximized="1" />
  <metadata
     id="metadata7">
    <rdf:RDF>
      <cc:Work
         rdf:about="">
        <dc:format>image/svg+xml</dc:format>
        <dc:type
           rdf:resource="http://purl.org/dc/dcmitype/StillImage" />
        <dc:title></dc:title>
      </cc:Work>
    </rdf:RDF>
  </metadata>
  <g
     inkscape:label="Layer 1"
     inkscape:groupmode="layer"
     id="layer1"
     transform="translate(-1587.994,2222.1568)">
    <path
       style="fill:#ffffff"
       d="m 2238.9917,-1623.1611 c -4.9572,-1.1714 -16.6721,-9.5034 -24.6671,-17.5439 -7.533,-7.576 -12.0897,-15.1843 -17.6803,-29.5212 l -3.2902,-8.4373 -0.2998,-46.7518 c -0.2726,-42.4864 -0.1434,-47.0816 1.4161,-50.368 3.0928,-6.5175 11.899,-9.5041 17.1594,-5.8196 5.1317,3.5945 5.2168,4.3658 5.2168,47.3173 0,41.3758 0.7142,51.9566 4.0291,59.69 4.7269,11.0275 14.8818,22.1233 25.3994,27.7528 3.4416,1.8421 5.6958,2.1793 14.5715,2.1793 9.1506,0 11.0757,-0.3069 14.9798,-2.3876 6.9691,-3.7143 11.8023,-8.0334 17.0258,-15.2152 10.0692,-13.8438 9.3587,-9.8772 10.1013,-56.3972 0.36,-22.5501 0.678,-81.3514 0.7066,-130.6697 0.056,-97.2083 -0.2159,-92.3303 5.4481,-97.62 3.725,-3.4788 8.5212,-3.858 12.7384,-1.0071 4.017,2.7155 5.8613,7.0945 5.9435,14.1125 0.031,2.6486 0.5223,5.6861 1.0917,6.75 1.7032,3.1825 6.8282,2.4684 13.5735,-1.8913 11.2192,-7.2513 12.386,-7.4556 46.3913,-8.1258 33.6565,-0.6632 38.8077,-0.1361 42.6815,4.3674 1.2261,1.4255 2.5321,4.2055 2.9021,6.1777 0.7971,4.2492 -1.361,7.7684 -6.6881,10.9062 -3.1969,1.883 -4.89,1.9822 -28.9432,1.6956 -28.3285,-0.3375 -35.6257,0.4136 -43.8869,4.5175 -7.1227,3.5382 -16.7998,13.2264 -20.2639,20.2869 -4.9243,10.037 -5.7939,15.6419 -5.8893,37.9601 -0.048,11.297 -0.4249,29.5399 -0.8368,40.5399 -0.8069,21.548 -0.2176,25.6854 3.842,26.9738 1.3855,0.4398 3.5429,-0.1884 6.3412,-1.8464 16.9017,-10.0142 20.1643,-10.6274 56.5483,-10.6274 26.9816,0 28.8019,0.1164 32.9046,2.1025 6.9122,3.3461 9.0558,9.4871 5.4028,15.4776 -3.6542,5.9924 -6.0103,6.4199 -35.379,6.4199 -14.5543,0 -28.8533,0.4535 -31.7757,1.0077 -8.0159,1.5202 -15.354,5.3063 -21.4398,11.062 -6.5889,6.2315 -9.6441,11.2273 -12.8673,21.0402 -2.2182,6.7533 -2.4747,9.5014 -2.977,31.8902 -0.3022,13.475 -1.0723,26.975 -1.7112,30 -1.9323,9.1493 -10.9917,26.6482 -17.5042,33.8108 -6.7498,7.4236 -20.3006,18.0055 -25.3848,19.8231 -4.023,1.4383 -39.1828,1.7267 -44.9302,0.3685 z m -591.6452,-91.9341 c -9.0179,-1.4702 -27.8675,-7.9577 -34.6377,-11.9214 -10.0877,-5.9059 -22.8552,-16.0033 -24.0076,-18.9867 -0.5652,-1.4631 -0.851,-5.5329 -0.6352,-9.0439 0.478,-7.7777 2.631,-10.1164 9.3135,-10.1164 3.3942,0 5.2323,0.7261 8.6393,3.4123 12.9915,10.2435 20.5454,15.051 29.2105,18.5902 20.9134,8.542 36.3896,8.0521 56.96,-1.8031 16.1324,-7.7289 28.6721,-19.1064 37.693,-34.1994 4.7712,-7.9828 6.4104,-12.4876 9.5302,-26.1904 l 2.434,-10.6905 0,-126.0393 c 0,-113.6503 0.1586,-126.4357 1.6138,-130.0724 2.0201,-5.0489 6.0546,-8.0074 10.9196,-8.0074 3.2075,0 4.4584,0.7637 9.0092,5.5 6.6407,6.9113 9.1087,7.1233 18.4342,1.5831 8.5772,-5.0956 17.3328,-7.4005 28.0232,-7.377 17.2666,0.038 31.1886,5.8125 44.7029,18.5421 4.5263,4.2635 9.0773,7.7518 10.1133,7.7518 2.1866,0 8.3845,-4.3584 12.6322,-8.883 4.3269,-4.609 14.1891,-10.6832 21.0668,-12.9753 25.5423,-8.5125 53.1267,-2.0783 71.1348,16.5925 10.9214,11.3234 17.727,26.337 17.8088,39.2876 0.037,5.7754 -0.3833,7.235 -3.6682,12.7535 l -13.3058,8.2521 11.9287,-0.4921 c 3.5634,-0.147 13.1869,3.6623 17.0865,2.8596 5.7965,-1.1931 6.4973,-2.6704 6.3049,-13.2903 -0.1579,-8.7168 0.1798,-10.6676 3.654,-21.1046 8.1739,-24.5564 23.1715,-39.7337 46.0411,-46.593 22.9938,-6.8966 48.8551,-0.3473 65.6218,16.6184 10.6263,10.7525 15.8076,21.0667 17.8204,35.4746 0.5379,3.85 1.0366,32.3061 1.1083,63.2357 0.1279,55.204 0.092,56.2971 -1.9355,59.5783 -3.4575,5.5944 -9.3608,7.1452 -15.4146,4.0495 -1.7602,-0.9001 -7.4753,-5.776 -12.7003,-10.8354 -5.225,-5.0593 -11.0099,-10.2372 -12.8554,-11.5065 -1.8454,-1.2693 -5.8954,-4.5591 -9,-7.3107 -9.9617,-8.8291 -44.6047,-30.5484 -52.2004,-32.7269 -1.8871,-0.5412 -4.879,-0.984 -6.6487,-0.984 -1.7697,0 -4.0227,-0.801 -5.0066,-1.78 -3.7008,-3.6824 -5.3399,-4.3068 -17.9054,-6.8205 -8.0772,-1.6159 -17.93,-2.7799 -26.4109,-3.1203 -12.4042,-0.4978 -14.4385,-0.3173 -24.5,2.174 -13.5972,3.3667 -29.4515,11.5316 -36.9844,19.0468 -8.3449,8.3254 -14.4318,22.6409 -14.4735,34.0399 -0.019,5.3401 2.2539,13.8425 5.6393,21.0897 3.8242,8.1869 14.6707,18.8179 24.3459,23.8622 7.3024,3.8073 7.821,3.9213 19.6808,4.3277 15.3988,0.5276 23.9848,-1.6509 29.7011,-7.5361 1.9944,-2.0533 3.8716,-4.5066 4.1716,-5.4518 0.3327,-1.0482 2.743,-2.3572 6.1803,-3.3565 8.028,-2.3338 20.6876,-8.924 23.1456,-12.0489 2.3635,-3.0046 2.0274,-4.0034 -2.6653,-7.9211 -5.6712,-4.7347 -6.3814,-7.2334 -6.7911,-23.8939 -0.3955,-16.0792 0.2972,-20.7144 3.7518,-25.1063 2.8995,-3.686 9.2629,-6.4823 12.6751,-5.5697 2.2179,0.5931 3.094,1.9837 5.4407,8.6359 2.6675,7.5613 2.7768,8.578 2.358,21.9289 -0.354,11.2873 -0.8569,15.0455 -2.595,19.3955 -1.1858,2.9674 -10.9399,9.9335 -10.654,10.6786 0.6555,1.7083 15.9105,-2.1599 28.6628,-3.7384 8.9644,-1.1095 10.4071,-1.0179 23.072,1.4658 19.6168,3.8469 35.1841,11.3107 54.8979,26.321 15.0021,11.4227 14.334,9.2589 15.0904,48.8775 0.6876,36.0203 0.4891,37.7426 -4.7451,41.1723 -3.7985,2.4888 -10.5316,2.4033 -13.3749,-0.1699 -5.3042,-4.8002 -5.5012,-6.0314 -5.5218,-34.5024 -0.01,-14.575 -0.123,-27.2862 -0.25,-28.2471 -0.941,-7.121 -25.8303,-23.5969 -41.7309,-27.6244 -20.3622,-5.1576 -32.6828,-4.7371 -39.3162,1.3419 l -3.5417,3.2458 -0.138,29.3919 c -0.1907,40.6364 -1.7145,46.8908 -15.5647,63.8839 -3.3913,4.1609 -5.9394,8.2668 -5.9394,9.5708 0,1.6979 1.7314,3.4648 6.75,6.8884 3.7125,2.5325 10.2134,7.0884 14.4463,10.124 5.1476,3.6916 11.2739,6.8719 18.5,9.6037 9.6398,3.6442 11.9888,4.135 21.8037,4.5551 10.8319,0.4636 11.1687,0.4102 22.0366,-3.4955 14.1984,-5.1026 16.3424,-6.2405 25.9635,-13.7794 15.3773,-12.0493 18.1814,-16.1785 29.7505,-43.8098 l 4.2495,-10.1493 0.085,-130.0254 c 0.047,-71.5139 0.3803,-131.2013 0.741,-132.6386 0.9822,-3.9133 7.0909,-8.8367 10.9585,-8.8322 3.929,0 8.9863,2.954 11.4109,6.6548 1.6677,2.5456 1.7847,5.4834 1.5449,38.7978 -0.1426,19.824 0.1006,41.9251 0.5405,49.1137 0.7919,12.9406 0.8474,13.1659 5.6083,22.759 5.2292,10.5366 10.3266,15.9755 19.996,21.3357 4.7855,2.6528 5.8547,2.8352 16.6146,2.8352 10.9068,0 11.758,-0.1509 16.5,-2.9256 8.9245,-5.2219 17.1581,-14.0799 21.8075,-23.4613 l 4.1926,-8.4596 0.5149,-95.5767 0.5149,-95.5768 3.1332,-8.5 c 4.9202,-13.3483 5.8639,-15.1889 12.0961,-23.5931 6.3892,-8.6158 12.4484,-14.3767 21.4285,-20.3734 7.154,-4.7772 11.5677,-5.3774 35.9228,-4.8851 19.9985,0.4043 20.3245,0.518 33.8071,11.7827 12.1998,10.1929 16.5182,16.6003 23.6056,35.0243 5.9283,15.4108 5.4659,27.7617 -1.2366,33.0339 -5.2171,4.1037 -13.3053,1.7426 -16.7324,-4.8846 -0.7733,-1.4954 -1.9067,-6.5181 -2.5186,-11.1618 -1.9497,-14.7933 -9.8968,-27.6598 -21.8657,-35.4007 -8.6869,-5.6182 -13.0869,-6.853 -22.7679,-6.3893 -9.9142,0.4748 -15.3327,2.9799 -24.0174,11.104 -6.7768,6.3394 -12.0029,14.0749 -15.0272,22.2431 -1.7401,4.6995 -1.8816,10.7398 -2.3543,100.5 l -0.503,95.5 -3.1348,8.7612 c -4.1114,11.4911 -8.3816,18.3733 -16.6152,26.779 -8.9083,9.0944 -9.0469,11.2599 -1.2154,18.994 10.8717,10.7365 18.1166,24.8985 20.4455,39.9658 0.5564,3.5994 1.0081,25.8149 1.0123,49.7822 0.01,46.4536 -0.1567,48.1182 -5.1093,51.5872 -3.3177,2.3237 -10.0195,2.0978 -13.2546,-0.4469 -5.1714,-4.0679 -5.0959,-3.35 -5.6285,-53.5007 l -0.5,-47.0783 -4.2012,-8.4755 c -5.111,-10.3109 -10.538,-16.6686 -18.0945,-21.1975 -13.3678,-8.0119 -23.5164,-8.6666 -36.3006,-2.3421 -10.367,5.1287 -15.2035,10.1643 -20.7818,21.6372 -4.5487,9.3553 -4.6101,9.6176 -5.2704,22.5 -0.3675,7.169 -0.712,21.3594 -0.7656,31.5344 -0.054,10.175 -0.5367,21.2 -1.0734,24.5 -1.8009,11.0722 -8.8062,30.8376 -13.9817,39.4488 -10.7175,17.8321 -28.1757,34.6885 -44.5308,42.9954 -11.8326,6.0099 -31.4429,11.0579 -42.9205,11.0483 -23.0517,-0.019 -45.0356,-7.303 -63.6111,-21.0759 -8.9549,-6.6397 -10.9529,-8.9866 -13.9623,-16.4014 -3.132,-7.7167 -5.1534,-8.1161 -17.5062,-3.4585 -8.8297,3.3292 -23.9346,3.0969 -35,-0.5383 -11.1278,-3.6557 -20.7819,-9.6276 -29,-17.9389 -8.829,-8.9293 -12.5444,-15.3475 -16.5788,-28.6394 -4.0041,-13.192 -3.65,-18.1446 1.6784,-23.4729 2.8097,-2.8098 4.2317,-3.4672 7.4995,-3.4672 2.2178,0 4.8626,0.4443 5.8773,0.9874 2.9442,1.5757 5.5957,6.8836 7.8947,15.8036 4.1636,16.1553 11.0643,25.1025 24.4713,31.7286 15.6083,7.714 32.8018,2.2381 40.7652,-5.3025 11.7816,-11.1561 7.7438,-11.9257 -6.0576,-5.616 -5.3066,2.4261 -9.3066,-4.205 -11.1651,-10.8965 -1.3877,-4.9964 -1.6652,-25.6358 -0.463,-34.4274 0.8322,-6.0856 6.6032,-8.1383 4.1131,-9.085 -1.4005,-0.5325 -13.9078,0.9418 -20.6949,0.9614 -10.9465,0.032 -13.1871,-0.2697 -19.8401,-2.6676 -11.2082,-4.0397 -19.9239,-8.9111 -27.6198,-15.4374 -7.4291,-6.3 -10.9981,-10.8121 -16.7233,-21.1425 -2.0099,-3.6266 -4.569,-7.4215 -5.6868,-8.4331 -1.9213,-1.7388 -2.1263,-1.7454 -3.7512,-0.121 -1.8702,1.8695 -1.9268,3.3595 -1.3631,35.8822 0.2705,15.6075 0.1441,16.9937 -1.8771,20.59 -3.9363,7.0036 -13.2689,9.9382 -17.9972,5.6591 -5.4022,-4.889 -5.1694,-0.6138 -5.3314,-97.8768 l -0.1501,-90.1065 -4.7229,-9.5132 c -7.7399,-15.5901 -18.8309,-25.0893 -32.7888,-28.0827 -8.8262,-1.8929 -20.6299,1.3578 -28.5067,7.8505 -5.1017,4.2052 -12.3965,13.9535 -15.5242,20.7454 -2.4226,5.2609 -2.8529,7.7247 -3.4924,20 -0.4012,7.7 -0.6461,51.125 -0.5442,96.5 0.1171,52.2145 -0.2021,86.171 -0.8697,92.5 -1.2784,12.1205 -6.0545,31.0925 -10.0939,40.0955 -6.6084,14.7289 -19.5538,31.6999 -31.5289,41.3333 -11.6124,9.3418 -20.0818,13.8707 -34.1642,18.2691 -11.6112,3.6266 -13.9383,4.0182 -25.7641,4.3361 -7.15,0.1922 -15.25,-0.017 -18,-0.4656 z m 350.7585,-80.2929 c 5.0215,-3.9499 9.1312,-13.9468 8.9323,-37.7421 -0.1627,-19.4575 -0.3537,-21.6408 -2.0404,-23.3275 -1.6509,-1.6509 -2.355,-1.7278 -6.2389,-0.682 -6.0801,1.6372 -12.1311,6.4877 -15.034,7.4979 -20.0603,5.7626 -0.3856,3.3118 4.5518,10.4082 2.6902,3.8665 2.9942,5.2039 3.7264,16.39 0.4385,6.699 1.2985,15.2175 1.9111,18.93 1.2411,7.5207 -0.4574,12.1825 4.1917,8.5255 m 117.6398,-148.5854 c 1.5708,-2.935 0.3104,-76.5349 -1.4164,-82.7097 -3.8819,-13.881 -18.3219,-26.5265 -33.8313,-29.6271 -16.3251,-3.2635 -36.9784,7.8501 -44.3661,23.8736 -2.3214,5.035 -4.511,20.9609 -4.7121,34.2731 -0.116,7.6768 2.0787,9.5919 22.6472,19.7621 21.1003,10.4331 26.5445,13.8198 40.8549,25.4145 5.734,4.6459 11.3256,8.9681 12.4256,9.6048 3.0582,1.7704 7.2939,1.4722 8.3982,-0.5913 z m -225.1788,-11.1901 c 6.7422,-11.0469 11.5253,-16.6034 19.7805,-22.9788 6.4117,-4.9516 16.3341,-10.5452 22.3149,-12.5796 4.8458,-1.6483 24.1553,-5.7636 32.3534,-6.8952 7.0153,-0.9684 9.9051,-3.4769 3.8644,-8.9894 -1.7349,-3.0321 -4.1816,-9.2353 -5.4372,-13.7849 -3.065,-11.1054 -5.8372,-16.205 -12.1704,-22.3882 -21.0734,-20.5743 -52.8332,-16.3089 -66.8568,8.9789 -1.8719,3.3755 -3.8593,7.9372 -4.4164,10.1372 -0.5578,2.2025 -1.1565,20.2204 -1.3324,40.0959 -0.2648,29.9127 -0.078,36.3865 1.0886,37.7928 0.7744,0.9334 2.0819,1.5653 2.9055,1.4042 0.8236,-0.1611 4.3813,-5.0179 7.9059,-10.7929 z m 494.2806,235.2375 c -8.6376,-1.2056 -13,-4.9766 -13,-11.2375 0,-4.5329 3.0046,-8.6861 7.7044,-10.6498 2.2827,-0.9538 8.967,-1.5495 20.7343,-1.8478 13.199,-0.3346 18.4088,-0.8501 21.7135,-2.1484 5.4004,-2.1218 14.6276,-9.0654 18.1048,-13.6243 3.5824,-4.6968 9.6286,-15.8442 10.7912,-19.8961 0.591,-2.0597 0.8858,-52.821 0.7714,-132.8336 -0.1019,-71.225 -0.1632,-131.525 -0.1362,-134 0.027,-2.475 1.056,-7.7724 2.2869,-11.7721 1.8795,-6.1074 4.5256,-11.1886 3.4123,-12.53 -1.8284,-2.2032 -12.8135,2.4204 -21.9114,5.8634 -6.2478,2.3645 -7.8532,2.5748 -15.4712,2.0267 -20.8207,-1.4979 -36.3633,-1.7404 -47.2894,-0.7376 -10.5463,0.9679 -12.5271,1.4696 -18.7855,4.7583 -11.5314,6.0596 -18.1418,14.8031 -23.423,30.9815 -2.3202,7.1078 -2.5021,9.076 -2.5021,27.0696 0,20.8636 -0.6919,24.6101 -5.1169,27.7095 -3.3756,2.3644 -10.0201,2.0974 -13.3694,-0.5372 -4.8586,-3.8217 -5.5137,-7.0523 -5.5137,-27.1895 0,-24.178 2.296,-36.4866 9.4704,-50.7706 5.7389,-11.4259 19.9721,-24.8245 32.877,-30.949 8.5174,-4.0423 15.4394,-4.745 52.6526,-5.345 35.8989,-0.5788 39.1795,-0.9849 49.7518,-6.1574 7.4055,-3.6231 17.2192,-13.4512 20.5784,-20.6083 1.4682,-3.1282 3.8265,-9.2749 5.2407,-13.6593 2.8593,-8.8649 4.5978,-11.0015 9.5551,-11.7436 7.0586,-1.0567 13.874,5.6829 13.874,13.7197 0,4.6822 -3.3753,15.671 -7.1786,23.3709 -4.4438,8.9966 -9.7932,15.4898 -16.889,20.5 -8.1774,5.7741 -17.3626,10.1326 -16.5463,11.4533 0.3533,0.5718 6.6316,2.5196 8.9317,3.6739 2.3002,1.1542 5.2374,3.0602 6.5272,4.2357 5.1684,4.7102 5.155,4.5835 5.155,48.8001 l 0,41.2624 4.1878,8.4537 c 4.8762,9.8435 12.467,18.0982 20.8122,22.6325 5.1595,2.8034 6.1809,2.9884 16.5,2.9884 10.3397,0 11.3284,-0.1801 16.4713,-3 9.1501,-5.0171 17.3546,-13.9048 22.2585,-24.1118 l 4.2702,-8.8882 0,-94.5 0,-94.5 -2.6905,-5.7409 c -5.0005,-10.6698 -9.8124,-16.7696 -18.0434,-22.8724 -4.312,-3.1972 -9.5109,-6.2772 -11.5531,-6.8443 -5.3935,-1.498 -17.3078,-1.2731 -22.0983,0.4171 -9.0005,3.1756 -18.1837,11.3797 -23.7015,21.1744 -4.0516,7.1921 -5.7399,12.1903 -7.47,22.1149 -2.0945,12.0157 -5.9639,16.0074 -14.4417,14.8981 -11.2518,-1.4723 -13.1702,-16.9527 -4.719,-38.079 5.6877,-14.2179 11.6943,-22.2523 24.3836,-32.615 6.0242,-4.9196 12.1638,-9.284 13.6435,-9.6988 1.4797,-0.4148 12.631,-0.7541 24.7806,-0.7541 l 22.0903,0 5.2489,3.2641 c 14.733,9.1619 26.886,22.4837 33.9694,37.2359 l 3.6012,7.5 0.2879,100.5 c 0.2013,70.2779 -0.046,102.4983 -0.8227,107.145 -1.4612,8.7435 -7.8212,19.6128 -17.3782,29.6994 -3.9895,4.2106 -7.5416,8.4485 -7.8935,9.4175 -0.8557,2.3564 1.0671,6.3513 3.9737,8.2558 3.4071,2.2324 13.623,15.3952 18.0413,23.2456 l 3.7915,6.7367 0.2971,54.5611 c 0.1888,34.6774 -0.067,55.5191 -0.7024,57.1899 -1.7457,4.5915 -11.9916,5.5673 -16.778,1.598 -4.3812,-3.6335 -4.5975,-6.1178 -4.3884,-50.4199 0.2254,-47.7804 -0.1034,-50.7433 -6.9287,-62.4297 -5.4113,-9.2655 -11.281,-14.853 -20.5397,-19.5525 -7.1517,-3.63 -8.4256,-3.9469 -15.8679,-3.9469 -7.2466,0 -8.8756,0.3776 -15.592,3.6142 -10.2789,4.9533 -16.2261,11.1061 -21.6378,22.3858 -2.3748,4.95 -4.7038,11.5493 -5.1754,14.6651 -0.4715,3.1158 -0.9566,23.8158 -1.0779,46 -0.2386,43.6526 -0.4538,45.8148 -5.9927,60.1974 -6.5628,17.0415 -19.0914,30.8476 -35.5619,39.188 -8.955,4.5346 -9.4354,4.6556 -20.1142,5.0636 -22.0905,0.844 -27.9937,0.9649 -30.4401,0.6234 z m -409.7015,-168.197 c -6.2591,-3.8164 -6.4131,-4.7879 -6.0899,-38.4084 l 0.2913,-30.3073 2.8229,-4.0712 c 3.0814,-4.4442 7.3782,-6.8006 10.5595,-5.7909 2.9347,0.9314 6.9111,6.0426 8.0388,10.3328 0.5355,2.0375 1.0851,16.0795 1.2212,31.2045 l 0.2474,27.5 -2.6396,5.75 c -2.6176,5.7023 -2.6752,5.75 -6.9448,5.7463 -2.5042,0 -5.6447,-0.8204 -7.5068,-1.9558 z"
       id="path3425"
       inkscape:connector-curvature="0"
       sodipodi:nodetypes="csccsscssssscssssscsscccscccscssssssssssscccscsscsssscscssssssssscscsssssscscsscscssssssccssssccsscccscscssscsccsccssscsssssscscccssssssscccsssssssscssscsccssccccscsssssccsscsssssscsccsssssccsssscscsscssssssssssscccssscsssccssssssccssssccsscscsscssscsssssccsssssscssssssssssccccscssssscccsccsscssssscsscscscsscsccsssssccsssscssccscscccs" />
  </g>
</svg>
