<?xml version="1.0" encoding="UTF-8" standalone="no"?>
<svg
   xmlns:dc="http://purl.org/dc/elements/1.1/"
   xmlns:cc="http://creativecommons.org/ns#"
   xmlns:rdf="http://www.w3.org/1999/02/22-rdf-syntax-ns#"
   xmlns:svg="http://www.w3.org/2000/svg"
   xmlns="http://www.w3.org/2000/svg"
   version="1.1"
   id="svg2"
   viewBox="0 0 799.05468 252.05134"
   height="71.134491mm"
   width="225.51099mm">
  <defs
     id="defs4" />
  <metadata
     id="metadata7">
    <rdf:RDF>
      <cc:Work
         rdf:about="">
        <dc:format>image/svg+xml</dc:format>
        <dc:type
           rdf:resource="http://purl.org/dc/dcmitype/StillImage" />
        <dc:title></dc:title>
      </cc:Work>
    </rdf:RDF>
  </metadata>
  <g
     transform="translate(925.34131,-0.78701723)"
     id="layer1">
    <path
       id="path3347"
       d="m -888.38502,252.06161 c -4.35672,-1.27755 -10.14655,-9.3015 -10.95202,-15.17809 -0.82809,-6.04152 0.78259,-10.37084 6.2347,-16.75814 3.97706,-4.65925 4.5036,-5.80497 4.09568,-8.91202 -0.83104,-6.32994 3.61373,-23.39905 8.47998,-32.56542 3.18127,-5.99242 8.44189,-13.0686 16.46826,-22.15184 8.78293,-9.93943 11.56031,-15.10678 11.72234,-21.80961 0.10666,-4.41226 -0.14073,-5.07602 -1.99029,-5.34003 -1.16166,-0.16581 -3.41166,0.7567 -5,2.05003 -1.58835,1.29332 -9.79079,6.78916 -18.22765,12.21296 -13.14403,8.44989 -15.67811,9.73098 -17.7036,8.94997 -3.62473,-1.39766 -28.84483,-25.45066 -29.7979,-28.41896 -1.00978,-3.1449 0.53325,-6.80383 6.60838,-15.67016 4.68512,-6.83769 20.08548,-30.598931 29.37476,-45.322361 17.33693,-27.4789 25.92755,-40.30138 28.38709,-42.37094 1.50349,-1.2651 9.19954,-5.11084 17.10232,-8.54608 7.90278,-3.4352304 16.8142,-7.4467304 19.80317,-8.9144304 4.88533,-2.39890003 6.43279,-2.65065003 15.31409,-2.49140003 20.07978,0.36004003 42.87052,9.82370043 59.34069,24.64071043 5.17061,4.65163 14.55862,17.31069 16.36907,22.07254 0.54704,1.43882 1.8803,4.56023 2.96279,6.93646 4.14133,9.09078 5.07888,20.92469 5.07888,64.106611 l 0,40.455 -2.41308,2.80577 c -2.3462,2.72799 -2.70627,2.80908 -12.99081,2.92569 -6.8405,0.0776 -11.11095,0.56246 -12.08692,1.37245 -3.2941,2.73385 -0.3155,23.81642 4.98596,35.29075 4.78154,10.34902 7.75876,13.71687 12.12586,13.71687 5.1987,0 9.59634,2.26772 13.70417,7.06679 4.11795,4.8109 6.06543,10.42003 5.08498,14.64574 -0.90457,3.89868 -4.72054,10.3209 -7.89518,13.28747 l -2.67534,2.5 -79.16982,0.17172 c -46.4142,0.10068 -80.48168,-0.21296 -82.34056,-0.75805 z m 156.59093,-14.05395 c 2.80763,-2.6157 2.61686,-5.29211 -0.55505,-7.78714 -2.61107,-2.05387 -3.29525,-2.07258 -75.77749,-2.07258 -62.72044,0 -73.44157,0.20938 -75.24051,1.46941 -3.03484,2.12568 -3.47394,5.09967 -1.18299,8.01214 l 1.9707,2.50534 72.18257,0.25655 c 39.70042,0.14111 73.15917,0.0985 74.35277,-0.0948 1.19361,-0.19323 3.10611,-1.22326 4.25,-2.28896 z m -128.95537,-27.79398 c 0.56935,-1.06384 1.03518,-4.23081 1.03518,-7.0377 0,-11.02779 10.73727,-32.42227 22.37878,-44.59071 6.57143,-6.86887 9.19546,-7.8247 13.39871,-4.88063 4.08795,2.86331 2.94469,6.379 -5.14494,15.82142 -8.0389,9.38321 -13.1,18.7476 -16.61333,30.73909 -3.78572,12.92124 -7.54768,11.88279 43.04735,11.88279 48.91342,0 46.15462,0.56155 41.58436,-8.46442 -1.45801,-2.87947 -2.6558,-6.09045 -2.66175,-7.13549 -0.006,-1.04505 -0.75399,-4.15009 -1.66229,-6.90009 -2.06858,-6.26288 -2.26353,-34.36178 -0.37813,-54.5 0.69515,-7.425 1.29183,-21.6 1.32595,-31.5 0.058,-16.834191 -0.11472,-18.582911 -2.66701,-27.000001 -1.50096,-4.95 -3.90772,-11.025 -5.34835,-13.5 -3.84468,-6.60517 -12.91732,-15.70373 -19.51444,-19.5702 -12.8048,-7.50469 -32.14088,-12.4298 -48.79961,-12.4298 -8.78742,0 -10.10092,0.23941 -12.34443,2.25 -1.38087,1.2375 -12.42676,17.775 -24.54643,36.75 -17.40932,27.25668 -22.03772,35.203341 -22.0451,37.850001 -0.009,3.20867 -2.11465,5.9547 -8.39529,10.9482 -2.20299,1.75151 -1.23593,3.33176 6.70206,10.9518 4.19735,4.02923 7.34101,6.24944 8.84734,6.24842 1.2851,-8.7e-4 7.73655,-3.62582 14.33655,-8.05544 15.78554,-10.59456 17.6751,-11.51419 26.44451,-12.87027 13.15828,-2.03477 19.21426,-5.72663 23.90448,-14.57271 2.47035,-4.659261 2.65101,-5.874111 2.65101,-17.826461 0,-11.54122 0.19451,-12.9691 1.94113,-14.25 8.9858,-6.58979 15.40393,9.88372 11.04835,28.35794 -2.7749,11.769781 -8.73031,20.079881 -18.23392,25.443381 -5.76971,3.25623 -7.25556,5.17944 -7.25556,9.3913 0,1.5112 -0.95674,6.29335 -2.12608,10.627 -2.25419,8.35416 -4.77593,12.2571 -16.96482,26.25684 -8.13547,9.34412 -13.03531,18.07203 -16.42305,29.25379 -2.30714,7.61508 -2.60221,9.69584 -1.66627,11.75 1.02833,2.25696 1.71111,2.49621 7.1236,2.49621 4.89498,0 6.17496,-0.35261 7.02144,-1.93426 z m -5.43483,-129.032601 c -2.74574,-3.03402 -2.20739,-6.73902 1.54118,-10.60657 4.00628,-4.13343 7.61046,-4.45881 10.87682,-0.98193 2.90079,3.08775 2.19077,6.68918 -2.11102,10.70765 -3.59008,3.35364 -7.74759,3.70894 -10.30698,0.88085 z m 126.1247,68.838481 c 1.07972,-0.89609 1.34531,-7.95787 1.34531,-35.7703 0,-19.059581 -0.46504,-38.362561 -1.03342,-42.895501 -1.84803,-14.73828 -9.79672,-28.89749 -21.76388,-38.76856 -11.28689,-9.30995 -24.96407,-15.07397 -43.70673,-18.41946 -6.03642,-1.07748 -7.52152,-1.03396 -10.75,0.31498 -4.67002,1.95126 -5.21666,5.33879 -0.99597,6.17199 33.35467,6.58446 53.71936,23.25539 62.90496,51.49523 2.67148,8.21308 2.76616,9.24262 2.80493,30.500001 0.0221,12.1 -0.18489,27.60683 -0.45989,34.45962 l -0.5,12.45963 2.5,1.31623 c 2.66505,1.40312 7.43769,0.97609 9.65469,-0.86386 z m 479.37075,71.15382 c -1.08601,-1.08601 -2.28611,-3.22351 -2.66688,-4.75 -0.92998,-3.72826 -8.18005,-12.01756 -11.5333,-13.18651 -5.72642,-1.99624 -7.51864,-11.54372 -2.04556,-10.89707 1.99437,0.23564 3.32711,1.61011 5.66416,5.84151 1.68088,3.04335 4.06696,7.09335 5.3024,9 1.23545,1.90665 2.24795,3.74788 2.25,4.09163 0.002,0.34375 1.42335,0.90892 3.15843,1.25594 1.73508,0.34701 3.76008,1.13336 4.5,1.74744 1.90282,1.5792 1.73315,7.50881 -0.23648,8.26463 -2.19087,0.84072 -2.18159,0.84361 -4.39277,-1.36757 z m -358.27094,-1.77544 c -1.65142,-3.77624 -8.74384,-14.47115 -10.61053,-16 -0.83943,-0.6875 -2.54939,-1.25 -3.79992,-1.25 -4.60251,0 -6.08713,-9.1815 -1.58792,-9.82035 1.6711,-0.23729 2.70833,0.50041 4,2.8449 3.11511,5.65418 11.08989,15.72962 14.2068,17.94905 5.52601,3.93487 6.32058,9.0264 1.40864,9.0264 -1.67573,0 -2.7824,-0.84138 -3.61707,-2.75 z m 16.34436,0.14855 c -4.36971,-5.55519 -4.23031,-18.91529 0.25877,-24.80078 1.50928,-1.97877 3.62125,-3.59777 4.69326,-3.59777 2.68198,0 2.46393,0.91975 -1.30089,5.48713 -2.9511,3.58019 -3.25,4.55912 -3.25,10.64406 0,5.38106 0.44326,7.3008 2.25,9.74454 1.2375,1.67381 2.25,3.51151 2.25,4.08378 0,1.95335 -2.85103,1.04533 -4.90114,-1.56096 z m 11.90114,1.61723 c 0,-1.86976 5.6581,-7.34512 6.83722,-6.61638 1.74538,1.0787 1.40453,3.35885 -0.83722,5.6006 -2.07434,2.07434 -6,2.73894 -6,1.01578 z m 18.23832,-0.17746 c -1.27046,-1.27046 -1.66947,-6.55119 -0.68822,-9.10828 0.66846,-1.74198 4.85666,-1.14977 6.58346,0.93089 1.82491,2.19888 -0.0764,8.75921 -2.64524,9.12739 -1.10642,0.15858 -2.56892,-0.26892 -3.25,-0.95 z m 17.73902,-0.88066 c -0.60116,-1.12328 -0.95449,-3.71078 -0.78518,-5.75 0.28008,-3.37327 0.57503,-3.70766 3.27041,-3.70766 2.4885,0 3.11271,0.52349 3.90079,3.27136 1.79429,6.25633 -3.56831,11.45124 -6.38602,6.1863 z m 51.02266,1.19733 c 0,-0.46476 0.9,-1.6595 2,-2.65499 1.1,-0.99549 2,-2.41523 2,-3.15499 0,-0.73975 0.45,-1.34501 1,-1.34501 1.51323,0 1.19791,3.27243 -0.5567,5.77749 -1.51583,2.16415 -4.4433,3.07171 -4.4433,1.3775 z m 45.03069,-0.92905 c -3.02345,-2.44825 -3.75231,-7.15162 -2.55233,-16.47035 0.82523,-6.40844 1.47551,-8.30111 3.38242,-9.84466 2.19022,-1.77286 5.13922,-2.57752 5.13922,-1.40227 0,0.27976 -1.35,2.37228 -3,4.65004 -4.00417,5.5276 -4.21691,13.34889 -0.52609,19.3413 1.35502,2.2 2.47772,4.3375 2.49488,4.75 0.0564,1.35636 -2.70583,0.78352 -4.9381,-1.02406 z m 14.27612,-2.47594 c 2.81504,-4.76672 5.33916,-5.66185 4.93472,-1.75 -0.27961,2.70445 -3.54981,6 -5.95386,6 -1.16114,0 -0.93581,-0.93969 1.01914,-4.25 z m 14.69319,2.25 c -1.99089,-1.99089 -2.89345,-9 -1.15893,-9 0.79,0 6.15893,9.05321 6.15893,10.38533 0,1.35825 -3.12119,0.49348 -5,-1.38533 z m 13,0.92807 c 0,-0.58956 1.18865,-3.1002 2.64144,-5.57921 2.46782,-4.21101 2.5997,-5.05023 2.00648,-12.76788 -0.6482,-8.43278 -0.37952,-9.79895 1.76525,-8.97593 0.87097,0.33423 1.17637,3.73219 1.07272,11.93518 -0.1333,10.54875 -0.33286,11.66797 -2.48972,13.96384 -2.419,2.57492 -4.99617,3.30945 -4.99617,1.424 z m 33.2,-0.12807 c -0.66,-0.66 -1.2,-1.97724 -1.2,-2.9272 0,-0.94995 -1.67753,-3.10995 -3.72784,-4.8 -5.93764,-4.8943 -8.85583,-3.83179 -9.44765,3.43988 -0.26145,3.21248 -0.71316,3.98732 -2.32451,3.98732 -1.42857,0 -1.97959,-0.64286 -1.92857,-2.25 0.0393,-1.2375 0.15178,-7.43465 0.25,-13.77144 0.17477,-11.27613 0.23238,-11.54595 2.7057,-12.67287 4.09773,-1.86706 5.21131,0.26343 2.46245,4.71117 l -2.26401,3.66325 2.57433,2.57434 c 1.91491,1.91491 3.51673,2.53891 6.25333,2.43603 6.60309,-0.24824 8.15936,-3.68338 4.41415,-9.74327 -2.44803,-3.96099 -1.24923,-5.16144 2.97361,-2.97773 5.76104,2.97916 6.57043,7.7083 2.05901,12.03052 -3.75844,3.60082 -3.92987,7.6062 -0.5,11.68237 1.375,1.63409 2.5,3.61155 2.5,4.39436 0,1.73229 -3.14471,1.87856 -4.8,0.22327 z m 46.1655,-2.2345 -3.43449,-3.43449 0.28449,-10.80365 c 0.25425,-9.65489 0.48442,-10.84195 2.16467,-11.1639 2.91478,-0.55848 3.37112,1.26341 2.84342,11.35204 -0.42759,8.17463 -0.22129,9.87634 1.62732,13.42297 2.59486,4.97834 1.12952,5.24196 -3.48541,0.62703 z m 13.6345,2.10881 c 0,-0.72912 1.07753,-2.33797 2.3945,-3.5752 2.9827,-2.8021 4.49182,-1.10075 2.16864,2.44487 -1.71854,2.62283 -4.56314,3.32746 -4.56314,1.13033 z m -314,-7.11529 c 0,-10.76058 2.87271,-11.07515 4.40742,-0.48264 0.79743,5.50381 0.0295,7.92362 -2.51441,7.92362 -1.68774,0 -1.89301,-0.80685 -1.89301,-7.44098 z m 109.75226,5.69098 c -0.20117,-0.4125 -0.31502,-6.375 -0.25301,-13.25 0.091,-10.08579 0.38735,-12.5 1.5345,-12.5 1.14476,0 1.47093,2.5814 1.67419,13.25 0.20773,10.90291 7e-4,13.25 -1.16873,13.25 -0.78165,0 -1.58577,-0.3375 -1.78695,-0.75 z m 219.61745,-1.5 c 0.33164,-1.2375 0.60913,-2.61406 0.61664,-3.05902 0.008,-0.44496 0.46365,-0.5309 1.01365,-0.19098 1.68783,1.04313 1.18815,5.5 -0.61663,5.5 -1.1885,0 -1.45695,-0.59587 -1.01366,-2.25 z m 15.28499,-1.50494 c -3.3258,-5.26841 -6.79029,-6.99848 -10.39616,-5.19155 -1.5172,0.76027 -3.09604,1.54675 -3.50854,1.74774 -0.90171,0.43933 -1.01935,-9.19857 -0.12322,-10.0947 0.34474,-0.34473 1.99915,0.0829 3.67648,0.95027 2.22631,1.15127 4.48698,1.40813 8.37322,0.95138 2.92793,-0.34412 5.32352,-0.46389 5.32352,-0.26616 0,0.19773 -0.47702,1.72789 -1.06004,3.40034 -0.87176,2.50073 -0.70126,3.71023 0.9599,6.8096 3.3658,6.27985 0.57085,7.73804 -3.24516,1.69308 z m 14.01197,3.08827 c -1.00056,-1.00055 -0.80299,-11.33333 0.2167,-11.33333 1.16763,0 2.08605,3.60298 2.10298,8.25 0.0128,3.52986 -0.79687,4.60615 -2.31968,3.08333 z m -76.66667,-2.33333 c 0,-1.1 0.45,-2 1,-2 0.55,0 1,0.9 1,2 0,1.1 -0.45,2 -1,2 -0.55,0 -1,-0.9 -1,-2 z m -150.33618,-7.07572 c -5.98753,-1.81619 -9.66382,-4.28002 -9.66382,-6.47662 0,-1.97038 13.11148,2.8346 14.84048,5.4386 0.79152,1.1921 1.26372,2.31165 1.04933,2.48788 -0.2144,0.17623 -3.01609,-0.47621 -6.22599,-1.44986 z m 29.02651,0.32572 c -0.23523,-0.4125 -1.00506,-2.55 -1.71072,-4.75 -0.70566,-2.2 -2.38966,-5.45791 -3.74222,-7.23979 -3.05383,-4.02318 -2.45142,-7.66886 0.78346,-4.74134 1.08853,0.98511 1.97915,2.56626 1.97915,3.51367 0,2.26733 1.96721,3.8109 5.84531,4.58652 2.50558,0.50112 3.15469,1.13315 3.15469,3.07168 0,3.50503 -1.76726,6.30926 -3.97617,6.30926 -1.04819,0 -2.09826,-0.3375 -2.3335,-0.75 z m -98.10738,-2.11579 c -0.43077,-0.697 -0.51316,-1.53733 -0.18309,-1.86741 0.89497,-0.89496 1.87077,0.4213 1.38739,1.87145 -0.33872,1.01617 -0.57427,1.01538 -1.2043,-0.004 z m 318.12786,-3.80128 c -0.39949,-0.64189 -1.00901,-3.22939 -1.3545,-5.75 -0.52943,-3.86261 -0.3661,-4.58293 1.03915,-4.58293 0.91702,0 1.87829,0.5625 2.13616,1.25 0.71729,1.91236 -0.98832,10.42059 -1.82081,9.08293 z m -304.74026,-2.6603 c -2.00362,-0.9989 -2.47055,-1.97953 -2.47055,-5.18847 0,-3.11664 0.41062,-4.03585 1.9339,-4.32921 2.36993,-0.4564 4.57139,2.34269 4.55079,5.78618 -0.0248,4.13652 -1.13382,5.1675 -4.01414,3.7315 z m 117.74031,-4.11417 c -2.04098,-2.44166 -3.71086,-4.72106 -3.71086,-5.06534 0,-0.34428 1.2155,-0.48357 2.7011,-0.30954 3.24973,0.38069 6.9379,5.85217 5.58017,8.27829 -0.696,1.24369 -1.56568,0.69121 -4.57041,-2.90341 z m 12.44922,2.20162 c -0.63804,-0.63804 -1.16008,-2.42008 -1.16008,-3.96008 0,-2.13333 0.47619,-2.8 2,-2.8 1.61251,0 2,0.66667 2,3.44098 0,3.82068 -1.07821,5.08081 -2.83992,3.3191 z m 140.08992,-3.30274 c -4.38647,-4.14106 -4.32656,-6.57516 0.11984,-4.86891 1.35574,0.52024 4.37614,7.23954 3.47982,7.74133 -0.19231,0.10767 -1.81216,-1.18492 -3.59966,-2.87242 z m -297.80881,-0.70734 c -2.33634,-2.77464 -2.48841,-3.29868 -1.03973,-3.58279 2.46855,-0.48414 6.59854,2.55511 6.59854,4.85584 0,2.9562 -2.47491,2.38941 -5.55881,-1.27305 z m 281.24631,2.60417 c -2.30384,-2.30385 1.78414,-8.15463 4.87025,-6.97038 1.46751,0.56313 1.42598,0.9521 -0.41149,3.85419 -2.16459,3.41874 -3.3369,4.23805 -4.45876,3.11619 z m -238.51871,-2.50499 c 0.184,-1.29371 1.14511,-2.48395 2.16242,-2.67793 1.41772,-0.27033 1.75642,0.17665 1.5,1.97957 -0.184,1.29371 -1.14511,2.48395 -2.16242,2.67793 -1.41772,0.27033 -1.75642,-0.17665 -1.5,-1.97957 z m 188.40466,-0.37743 c -2.18441,-3.33382 -1.29744,-4.47175 3.48557,-4.47175 3.16396,0 3.94098,0.36377 3.94098,1.84501 0,1.94993 -2.93071,5.15499 -4.71373,5.15499 -0.58094,0 -1.80171,-1.13771 -2.71282,-2.52825 z m -110.18044,-0.0535 c 0.33385,-0.86998 0.60699,-1.76998 0.60699,-2 0,-0.23001 0.45,-0.41821 1,-0.41821 0.55,0 1,0.9 1,2 0,1.17029 -0.66667,2 -1.60699,2 -1.05452,0 -1.39831,-0.5438 -1,-1.58179 z m -46.75464,-1.91825 c 0.31659,-0.825 1.20246,-1.5 1.96862,-1.5 1.89454,0 1.76491,1.64331 -0.18878,2.39301 -2.25844,0.86665 -2.42333,0.78392 -1.77984,-0.89301 z m 10.37145,0.0118 c -0.99821,-1.20277 -0.93499,-1.60332 0.32967,-2.08861 1.9566,-0.75082 3.66051,0.24336 3.66051,2.1358 0,1.87963 -2.41476,1.85108 -3.99018,-0.0472 z m 265.30764,-25.92702 c -8.73581,-1.72281 -17.31746,-8.00188 -17.31746,-12.67092 0,-2.35093 4.89115,-6.91715 7.38636,-6.89566 1.1625,0.01 4.06047,1.33758 6.43992,2.95016 8.00543,5.42538 18.89798,5.24072 24.55497,-0.41627 3.5677,-3.56771 6.96597,-12.66147 6.44143,-17.23725 -0.43127,-3.76214 -3.52372,-4.13606 -8.16391,-0.98715 -7.158,4.85755 -19.75095,4.26553 -27.26861,-1.28195 -2.13959,-1.57886 -5.46516,-5.47986 -7.39016,-8.6689 l -3.5,-5.79824 0,-18.539301 c 0,-17.58909 0.124,-18.79123 2.41926,-23.45468 3.53389,-7.18002 9.08427,-12.14609 15.22049,-13.61814 7.61307,-1.82635 17.09579,-0.76825 21.69803,2.4211 2.07334,1.43683 4.24129,2.61242 4.81766,2.61242 0.57636,0 2.46058,-1.35 4.18714,-3 3.94371,-3.76881 6.52307,-3.7882 10.23434,-0.0769 l 2.92308,2.92307 0,38.418001 c 0,42.70622 -0.23653,44.65741 -6.31229,52.07208 -5.00895,6.11277 -10.73371,9.70732 -17.91285,11.24741 -7.49532,1.60792 -10.30911,1.60809 -18.4574,0.001 z m 18.73059,-48.83818 c 1.8391,-1.23937 4.16684,-3.6626 5.17275,-5.38496 3.88065,-6.64459 3.89185,-25.070001 0.0193,-31.681751 -4.07828,-6.96292 -11.10591,-9.15986 -18.64004,-5.82716 -6.79245,3.00462 -8.98785,8.25476 -9.05207,21.64727 -0.0419,8.741141 0.26676,10.620811 2.45205,14.931551 4.1704,8.22663 13.05746,11.02601 20.04805,6.31505 z m 37.4065,45.79885 c -4.57515,-4.57515 -2.67422,-8.84431 4.92131,-11.05239 6.29863,-1.83106 8.42956,-4.00616 11.53,-11.76903 2.63004,-6.58507 2.48005,-8.90316 -1.24387,-19.22403 -6.52314,-18.07897 -10.83925,-30.386361 -12.0989,-34.500001 -0.75787,-2.475 -2.5446,-7.39783 -3.97052,-10.93961 -4.0374,-10.02839 -3.19753,-14.57567 3.04252,-16.47303 5.01659,-1.52534 10.64857,5.22553 12.85814,15.41264 0.41753,1.925 2.08869,7.1 3.71369,11.5 1.625,4.4 3.35231,10.40973 3.83846,13.354951 0.9399,5.69403 2.32369,8.14505 4.5985,8.14505 1.52568,0 2.1983,-1.45128 4.8664,-10.500001 9.482,-32.15776 13.25298,-39.39735 19.83567,-38.08081 1.70035,0.34007 3.55561,1.08458 4.1228,1.65447 1.6335,1.64128 1.06452,13.01574 -0.83419,16.67615 -1.80308,3.47605 -6.84146,16.84815 -9.13706,24.250191 -0.76757,2.475 -3.4681,10.125 -6.00116,17 -2.53306,6.875 -4.95962,13.85 -5.39236,15.5 -0.43274,1.65 -2.46954,7.275 -4.52621,12.5 -5.6602,14.37977 -10.90624,19 -21.57356,19 -5.13803,0 -6.48055,-0.38543 -8.54966,-2.45455 z M -624.32898,136.6291 c -8.5073,-1.5574 -14.5582,-4.42029 -19.6353,-9.29013 -4.4046,-4.22481 -4.86929,-7.79089 -1.43555,-11.01672 3.31358,-3.11294 6.34002,-2.72848 16.33951,2.07569 8.49424,4.08098 9.22385,4.25 18.34604,4.25 8.59496,0 9.95199,-0.26569 14.24443,-2.78889 6.12288,-3.59918 8.11218,-7.39728 7.53293,-14.38237 -0.31963,-3.85431 -1.11701,-6.068491 -2.86027,-7.942531 -3.12975,-3.36453 -4.97298,-4.0225 -16.68259,-5.95516 -17.70747,-2.92258 -22.72033,-4.8524 -29.24318,-11.25787 -5.46375,-5.36542 -5.84465,-6.05955 -7.02156,-12.79547 -2.42212,-13.86272 1.51932,-24.49002 11.67403,-31.47664 7.02099,-4.83057 11.22304,-5.92141 23.181,-6.01773 14.39747,-0.11596 22.33239,2.17081 30.04168,8.65776 3.83161,3.22408 4.14507,7.15998 0.81908,10.28459 -3.25857,3.06126 -7.67964,2.74371 -14.97651,-1.07569 -5.67794,-2.97201 -6.98553,-3.25 -15.28688,-3.25 -8.47011,0 -9.33164,0.19358 -12.86884,2.89153 -4.63882,3.5382 -7.96199,10.47133 -7.03722,14.68176 0.7346,3.34464 4.63832,8.4038 7.78315,10.08686 1.14594,0.61329 7.0599,1.96281 13.14214,2.99894 17.38907,2.96228 22.02945,4.55963 27.47864,9.45892 12.46541,11.20748 12.7761,30.619201 0.6836,42.711701 -4.9419,4.9419 -10.33005,7.52298 -19.27897,9.23519 -8.90089,1.70302 -15.29648,1.68155 -24.93936,-0.0837 z m 117.89748,-0.12049 c -1.76946,-0.8683 -3.50372,-2.48141 -3.85389,-3.58471 -1.16863,-3.68204 -0.71384,-66.375001 0.49793,-68.639221 2.61342,-4.88322 7.80533,-5.36577 12.2306,-1.13674 1.72656,1.65 3.61078,3 4.18714,3 0.57637,0 2.74432,-1.17559 4.81766,-2.61242 7.30257,-5.06069 22.17746,-4.20175 27.9958,1.61659 3.70958,3.70958 3.68322,7.30843 -0.0811,11.07275 -3.49695,3.49695 -4.85416,3.5952 -10.36676,0.75043 -6.15906,-3.17836 -12.54788,-2.95124 -17.21975,0.61216 -6.06776,4.62811 -6.49041,6.71014 -6.49041,31.972611 0,21.90882 -0.0568,22.53885 -2.25,24.9513 -3.03329,3.33655 -5.62408,3.88312 -9.46722,1.99725 z m 67.04362,0.65571 c -11.54905,-2.45172 -18.3264,-10.59004 -18.3264,-22.00656 0,-7.14292 2.28495,-12.38608 7.20615,-16.535571 5.99869,-5.05801 9.20104,-5.87466 23.45337,-5.981 14.50225,-0.10819 16.34048,-0.74552 16.34048,-5.66536 0,-11.61407 -14.3531,-16.74356 -27.5,-9.82789 -6.5298,3.43487 -10.47122,3.79427 -12.84501,1.17126 -3.83017,-4.23229 0.20302,-11.83514 8.23654,-15.52649 3.93691,-1.80899 6.43002,-2.11062 17.10847,-2.06992 13.56114,0.0517 16.87613,0.90966 22.79385,5.8994 1.81162,1.52753 4.28662,4.63323 5.5,6.90154 2.12219,3.96726 2.20615,5.17617 2.20615,31.766121 0,25.26933 -0.15534,27.81383 -1.80984,29.64486 -2.96645,3.28298 -6.29493,3.30877 -10.35748,0.0803 -1.98423,-1.57691 -3.95428,-2.86707 -4.3779,-2.86707 -0.42361,0 -2.95136,1.13162 -5.61722,2.51472 -5.4642,2.83493 -15.21883,3.94358 -22.01116,2.50166 z m 21.6892,-14.85119 c 6.21296,-3.2716 9.58335,-14.70391 5.05014,-17.13001 -2.46438,-1.31889 -19.10124,-1.35238 -22.53895,-0.0454 -6.00384,2.28266 -9.00503,8.37955 -6.46297,13.12944 3.07498,5.74564 16.43743,8.00283 23.95178,4.04594 z m 106.74787,14.43786 c -10.44869,-2.40329 -16.54809,-8.00124 -21.48274,-19.71659 -2.40466,-5.70889 -2.68628,-7.60655 -2.65445,-17.886461 0.0319,-10.29074 0.33339,-12.22462 2.86748,-18.39108 3.90536,-9.50328 11.31401,-16.91575 19.19774,-19.20761 6.74042,-1.9595 18.73564,-1.50316 24.57034,0.93473 5.04117,2.10634 12.78882,10.05978 15.74573,16.16396 2.44179,5.04077 3.79869,15.15146 2.64845,19.73437 -0.31553,1.25718 -1.89915,3.068751 -3.51915,4.025711 -2.53292,1.49623 -5.732,1.73992 -22.84116,1.73992 -14.14111,0 -20.2428,0.34709 -21.09571,1.2 -2.72794,2.72794 -0.69218,9.11096 4.46072,13.98638 6.55169,6.19888 15.43642,6.58531 26.08634,1.13458 8.18761,-4.19049 11.45804,-3.99135 14.18306,0.86362 1.27497,2.27151 1.2936,3.02888 0.12804,5.20676 -1.70798,3.19137 -7.62139,7.34263 -13.25354,9.30408 -5.90425,2.05621 -18.12218,2.49906 -25.04115,0.90763 z m 24.03653,-44.803051 c 3.22881,-3.22881 -1.26593,-13.36962 -7.16702,-16.16988 -4.68537,-2.22335 -13.37697,-2.11545 -16.90338,0.20984 -6.65967,4.39134 -10.11136,13.67341 -5.9796,16.07994 2.55845,1.49016 28.54362,1.38648 30.05,-0.1199 z m -255.16274,43.735191 c -2.12451,-0.75737 -5.21743,-2.65012 -6.87316,-4.20611 -5.36984,-5.04637 -5.7641,-7.19156 -5.7641,-31.3627 0,-13.065911 -0.41568,-22.874561 -1.01701,-23.998161 -0.55935,-1.04516 -2.82935,-2.38831 -5.04445,-2.98477 -7.56643,-2.03743 -7.87249,-10.15481 -0.43549,-11.55 5.57454,-1.04579 6.49695,-2.58886 6.49695,-10.86852 0,-6.5456 0.26992,-7.56212 2.63636,-9.92857 3.27257,-3.27257 6.42327,-3.3493 10.03299,-0.24435 2.52,2.16761 2.81681,3.12918 3.16395,10.25 0.21069,4.32189 0.83948,8.42049 1.39733,9.10799 0.55784,0.6875 3.10903,1.25 5.66931,1.25 5.88416,0 9.10006,2.13225 9.10006,6.03365 0,3.76478 -3.45201,6.09448 -9.64955,6.5123 -2.55495,0.17225 -5.02211,0.90738 -5.48259,1.63362 -0.46048,0.72623 -0.84413,10.85027 -0.85255,22.49785 l -0.0153,21.177421 2.46533,1.93923 c 1.35593,1.06657 4.20501,2.21741 6.33129,2.55742 3.87778,0.62008 6.3363,2.56631 7.55003,5.97678 0.44704,1.25615 -0.26365,2.74257 -2.27108,4.75 -2.51453,2.51453 -3.66413,2.91561 -8.24865,2.87784 -2.9298,-0.0241 -7.06515,-0.66356 -9.18966,-1.42092 z m 181.04772,0.49969 c -4.43668,-1.41325 -9.24214,-5.5819 -11.20644,-9.72136 -1.59462,-3.3604 -1.77875,-6.42319 -1.59373,-26.509441 0.19986,-21.69774 0.11794,-22.80133 -1.83781,-24.75708 -1.12585,-1.12585 -2.84687,-2.047 -3.82449,-2.047 -3.19119,0 -6.22251,-2.92292 -6.22251,-6 0,-3.2308 3.06969,-6 6.65108,-6 3.9173,0 5.65147,-2.79766 5.02307,-8.10352 -0.99794,-8.42601 2.3142,-14.89648 7.62528,-14.89648 1.01993,0 3.1698,1.31538 4.77749,2.92308 2.71399,2.71398 2.92308,3.46254 2.92308,10.46481 0,8.71019 0.7914,9.61211 8.43426,9.61211 9.72557,0 11.7237,8.70825 2.77848,12.10922 -1.3623,0.51794 -3.3395,0.66794 -4.39378,0.33332 -1.05537,-0.33496 -3.01847,0.11339 -4.36792,0.99758 l -2.45104,1.60599 0,21.0224 c 0,20.586501 0.0476,21.069961 2.29376,23.316161 1.26156,1.26156 4.09102,2.58115 6.28768,2.93241 7.40276,1.18375 10.81313,7.20588 6.36196,11.23414 -2.338,2.11586 -12.5246,2.99158 -17.25842,1.48366 z"
       style="fill:#ffffff" />
  </g>
</svg>
