<?xml version="1.0" encoding="UTF-8" standalone="no"?>
<svg
   xmlns:dc="http://purl.org/dc/elements/1.1/"
   xmlns:cc="http://creativecommons.org/ns#"
   xmlns:rdf="http://www.w3.org/1999/02/22-rdf-syntax-ns#"
   xmlns:svg="http://www.w3.org/2000/svg"
   xmlns="http://www.w3.org/2000/svg"
   version="1.1"
   id="svg2"
   viewBox="0 0 798.77705 176.91267"
   height="49.928688mm"
   width="225.43263mm">
  <defs
     id="defs4" />
  <metadata
     id="metadata7">
    <rdf:RDF>
      <cc:Work
         rdf:about="">
        <dc:format>image/svg+xml</dc:format>
        <dc:type
           rdf:resource="http://purl.org/dc/dcmitype/StillImage" />
        <dc:title></dc:title>
      </cc:Work>
    </rdf:RDF>
  </metadata>
  <g
     transform="translate(-13.950513,-544.8415)"
     id="layer1">
    <path
       id="path3399"
       d="m 85.301543,721.20026 c -16.13364,-2.1672 -38.1221,-14.96902 -50.40457,-29.34579 -6.61638,-7.74457 -13.86683,-20.22032 -17.67842,-30.41906 l -3.26804,-8.74433 0,-19.5 0,-19.5 3.26804,-8.74433 c 10.30457,-27.57212 30.40506,-47.41676 58.18519,-57.44461 7.01711,-2.53297 8.34982,-2.66987 25.897797,-2.66022 18.42071,0.0101 18.53748,0.0242 27.24433,3.27219 32.31501,12.0549 54.09749,38.08357 59.83224,71.49569 1.47611,8.60021 0.67445,26.89965 -1.53414,35.01978 -8.11448,29.83382 -28.62489,52.35836 -57.57991,63.23428 -8.37255,3.1449 -10.04408,3.4181 -23.24194,3.7991 -7.821317,0.2257 -17.145577,0.018 -20.720577,-0.4627 z m 21.599997,-13.40918 3.4,-3.4 0,-23.02857 c 0,-26.709 0.17741,-26.17143 -8.63717,-26.17143 -9.860127,0 -9.362827,-1.3616 -9.362827,25.63518 l 0,23.56482 3.4,3.4 c 1.87,1.87 4.389997,3.4 5.599997,3.4 1.21,0 3.73,-1.53 5.6,-3.4 z M 81.090403,697.34036 c 0.18643,-6.03498 -0.12294,-9.84689 -0.87245,-10.75 -0.73859,-0.88994 -3.20973,-1.40727 -6.78886,-1.42124 -7.07739,-0.0276 -12.5446,-2.46425 -17.25686,-7.69103 -4.30699,-4.77727 -6.30966,-10.19456 -5.53452,-14.97113 0.90335,-5.56672 5.40036,-12.19284 10.44724,-15.39348 l 4.60815,-2.9224 35.466357,0 35.46636,0 4.22947,2.47863 c 2.32621,1.36325 5.66404,4.62575 7.4174,7.25 2.92341,4.37546 3.15853,5.31987 2.83359,11.38172 -0.28822,5.37691 -0.87794,7.29684 -3.16045,10.28936 -4.69079,6.14995 -9.91457,8.9616 -17.51086,9.42507 -3.64839,0.22259 -7.19593,0.85818 -7.88343,1.41241 -0.84762,0.68332 -1.25,4.18731 -1.25,10.88525 0,9.64395 0.0545,9.87756 2.3029,9.87756 3.83322,0 17.75876,-7.35505 25.1971,-13.30836 11.51383,-9.21514 20.54461,-22.15183 25.24976,-36.17056 2.48945,-7.41718 2.69231,-9.26335 2.69441,-24.52108 0.002,-15.19984 -0.20602,-17.11723 -2.64111,-24.33304 -4.25931,-12.62147 -1.3223,-11.66696 -35.89903,-11.66696 -20.79931,0 -29.99359,0.33589 -30.47405,1.11329 -0.37842,0.61231 -0.68805,6.93957 -0.68805,14.0606 0,12.6174 0.067,13.01723 2.62904,15.69143 2.78219,2.90398 3.42716,6.93655 1.42903,8.93468 -1.62069,1.62069 -17.979307,1.62069 -19.599997,0 -2.01839,-2.01839 -1.39002,-6.54154 1.25164,-9.00953 2.34291,-2.18888 2.46033,-2.88258 2.64751,-15.64029 0.15411,-10.5038 -0.10206,-13.53846 -1.20164,-14.23468 -0.76863,-0.48668 -14.49027,-0.89177 -30.49252,-0.90019 -26.45418,-0.0139 -29.23806,0.14353 -30.67098,1.73469 -4.09162,4.54345 -8.74569,23.01401 -8.72087,34.61047 0.0192,8.95532 3.24838,23.17227 7.21177,31.75052 4.75527,10.29214 12.84432,21.07728 20.61681,27.48839 7.83649,6.4639 22.6599,14.47734 26.15828,14.14098 2.44807,-0.23537 2.506,-0.43461 2.78886,-9.59108 z m -20.28886,-64.35583 c -3.40076,-1.18875 -8.91323,-5.09076 -12.25,-8.67119 -3.46506,-3.7181 -2.8883,-6.8535 2.1485,-11.6796 5.43087,-5.20369 12.86,-7.9309 19.06828,-6.99991 7.60062,1.13978 17.53322,9.27547 17.53322,14.36128 0,2.81508 -9.89803,11.54924 -14.72825,12.99641 -4.73841,1.41966 -7.69541,1.4179 -11.77175,-0.007 z m 68.999997,-0.0182 c -7.07575,-2.51633 -14.5,-9.51218 -14.5,-13.66332 0,-4.73523 9.94929,-12.44092 17.65358,-13.67264 6.20134,-0.99143 13.39047,1.76267 18.84855,7.22075 2.47383,2.47383 4.49787,5.36105 4.49787,6.41605 0,2.9825 -6.96685,9.98897 -12.5,12.57108 -5.37579,2.50868 -9.24187,2.82019 -14,1.12807 z m -49.749997,38.97994 c 0.76213,-0.60974 1.25,-3.46131 1.25,-7.30619 0,-7.35781 -1.43992,-9.44898 -6.50633,-9.44898 -10.26597,0 -15.84989,7.98663 -10.18691,14.57024 3.41763,3.97323 11.73681,5.15024 15.44324,2.18493 z m 57.326917,-1.67825 c 3.87251,-3.8725 3.8722,-7.79342 -9.1e-4,-11.5041 -3.32719,-3.18765 -10.40876,-4.53547 -13.92958,-2.65118 -1.8705,1.00106 -2.14643,2.01836 -2.14643,7.91354 0,3.92819 0.50318,7.268 1.2,7.96482 0.66,0.66 3.61962,1.2 6.57692,1.2 4.60958,0 5.79408,-0.41715 8.3,-2.92308 z m 22.45026,-85.1209 c 1.07924,-1.74624 -2.01636,-5.38186 -10.21347,-11.99521 -27.28582,-22.01394 -62.480307,-23.60511 -91.313707,-4.12836 -10.37039,7.00512 -16.92705,13.85854 -15.48723,16.18822 0.86295,1.39628 116.150867,1.33259 117.014407,-0.0647 z m -78.162627,-8.1254 c -5.27703,-2.55523 -5.50804,-9.67082 -0.39972,-12.31243 3.88438,-2.00869 5.25705,-1.9181 8.40031,0.55439 4.15607,3.26916 3.44546,8.93976 -1.43666,11.4644 -3.24881,1.68003 -3.66255,1.69854 -6.56393,0.29364 z m 31.270307,-0.9032 c -3.64388,-2.86628 -3.64388,-7.98856 0,-10.85484 1.44917,-1.13992 3.50879,-2.07258 4.57692,-2.07258 2.36989,0 7.78822,5.21781 7.78822,7.5 0,2.28219 -5.41833,7.5 -7.78822,7.5 -1.06813,0 -3.12775,-0.93266 -4.57692,-2.07258 z m 171.86514,98.45434 c -17.9882,-2.50243 -31.5,-13.10575 -31.5,-24.7195 0,-4.22438 1.87634,-5.8949 6.15579,-5.48051 2.82058,0.27312 3.71891,1.09432 6.33738,5.79326 5.04449,9.05254 11.24143,12.02562 25.00683,11.99743 14.40723,-0.0295 23.7,-6.58362 23.7,-16.7154 0,-2.55711 -0.86086,-4.34368 -3.31115,-6.87174 -3.85238,-3.97464 -8.7962,-5.61964 -23.88885,-7.9487 -17.95982,-2.77152 -26.04753,-6.68914 -30.06445,-14.56294 -7.34306,-14.39361 1.3833,-31.0303 19.02403,-36.26904 7.84264,-2.32901 21.14641,-2.11311 28.78704,0.46717 7.73269,2.61137 14.31586,8.31263 17.78428,15.40181 2.96594,6.06218 2.69807,8.67502 -1.14771,11.19487 -3.55643,2.33026 -6.74764,0.51922 -9.84074,-5.58472 -1.84798,-3.64682 -3.81126,-5.74532 -7.28603,-7.78785 -4.35961,-2.56267 -5.59067,-2.79437 -14.75642,-2.77729 -10.94582,0.0204 -13.778,0.96501 -18.83019,6.28051 -5.68033,5.97639 -3.98638,14.92463 3.49761,18.47602 1.87194,0.88829 8.11257,2.34385 13.86806,3.23458 5.75548,0.89072 14.02512,2.55944 18.37697,3.70826 6.69404,1.76713 8.64302,2.79659 12.65682,6.68538 5.70483,5.52718 7.36621,10.59059 6.67567,20.34555 -0.57452,8.11601 -3.42324,13.04649 -10.50987,18.19014 -6.95157,5.04563 -21.21368,8.26728 -30.73507,6.94271 z m 65.6457,-0.90546 c -8.42338,-2.34205 -13.65689,-6.80257 -16.99966,-14.48878 -1.64999,-3.79389 -2.06144,-7.90928 -2.6619,-26.6245 -0.69538,-21.67406 -0.66605,-22.18113 1.40281,-24.25 2.66934,-2.66933 6.10817,-2.69788 8.92449,-0.0741 2.11506,1.9705 2.18866,2.73433 2.19226,22.75 0,23.1192 0.4965,25.10663 7.2372,29.21645 4.6935,2.86169 13.3655,2.72801 17.8612,-0.27533 6.3208,-4.22256 6.8946,-6.71232 6.8964,-29.92337 0,-20.24939 0.049,-20.72669 2.224,-22.25 2.9353,-2.05592 6.0924,-1.97125 8.0722,0.21649 1.3659,1.50929 1.6494,5.53844 1.905,27.07151 0.2785,23.46248 0.4355,25.37389 2.1631,26.33965 5.5744,3.11608 6.9483,6.97492 3.847,10.80487 -2.2627,2.79434 -8.1348,2.97114 -11.9827,0.36078 -4.5129,-3.06145 -5.4686,-3.12819 -10.7017,-0.74738 -6.7495,3.07073 -13.7573,3.71502 -20.3798,1.8737 z m 173.3543,0.9561 c -1.1,-0.24866 -4.475,-0.95147 -7.5,-1.56181 -13.8635,-2.79717 -25,-13.13555 -25,-23.20833 0,-4.23138 1.8763,-5.89406 6.1847,-5.48051 2.7898,0.26779 3.7134,1.05654 5.8271,4.97624 1.3814,2.56191 3.3552,5.58998 4.386,6.72905 5.59,6.1769 24.5153,8.22918 34.2192,3.71078 6.8103,-3.17102 10.383,-7.90097 10.383,-13.74606 0,-7.6031 -7.0688,-12.63511 -20,-14.23714 -19.1847,-2.37679 -31.3571,-6.98145 -35.7288,-13.51568 -3.6471,-5.45126 -4.7083,-10.73891 -3.4171,-17.02614 2.0347,-9.90717 8.6021,-16.85492 19.943,-21.09811 6.9041,-2.58313 21.0619,-2.81626 28.9088,-0.47603 15.189,4.52994 26.6872,23.73998 16.5227,27.60449 -3.4566,1.31423 -6.626,-0.95244 -9.076,-6.49107 -1.4471,-3.27148 -3.2019,-5.14271 -6.8,-7.25136 -4.3516,-2.55019 -5.774,-2.84301 -13.8511,-2.85139 -11.1971,-0.0116 -13.5527,0.63867 -18.4984,5.10685 -8.5903,7.76081 -5.4356,18.06221 6.4969,21.21483 2.2,0.58125 8.95,1.80785 15,2.72577 13.7977,2.09342 20.6658,4.63305 26.1162,9.6571 14.4659,13.3342 6.3836,37.31383 -14.557,43.18945 -6.0687,1.70281 -16.3049,2.76471 -19.5592,2.02907 z m 114.5453,-0.48337 c -11.2627,-2.31247 -20.2682,-9.73763 -25.4078,-20.94905 -3.1476,-6.86627 -2.995,-20.75748 0.3017,-27.45652 8.4281,-17.12638 26.6721,-24.36872 45.305,-17.98485 6.7251,2.30408 14.0555,9.27343 17.8403,16.96148 3.0333,6.16141 3.1307,6.75763 2.7265,16.68482 -0.4898,12.0257 -2.0237,15.80018 -9.57,23.54766 -7.4335,7.63163 -20.3178,11.42992 -31.1957,9.19646 z m 16.7445,-13.85747 c 8.0348,-4.13291 12.2244,-11.28593 12.1882,-20.80946 -0.04,-10.50901 -5.598,-17.7503 -16.303,-21.23986 -9.5986,-3.12892 -23.1803,3.21165 -26.6849,12.45774 -1.4824,3.91105 -1.4901,14.18419 -0.014,17.99557 1.9137,4.93929 5.6746,9.12278 10.2271,11.37624 5.6621,2.80269 15.3633,2.90625 20.5861,0.21977 z m 122.2102,13.81524 c -12.1093,-2.07342 -22.2087,-9.99778 -25.5455,-20.04379 -1.1252,-3.38766 -1.6308,-8.18559 -1.5826,-15.01806 0.059,-8.38916 0.464,-10.88727 2.4623,-15.19251 3.0829,-6.64233 8.7505,-12.25854 15.6658,-15.52393 4.6623,-2.20154 6.8707,-2.59493 14.5,-2.583 10.2665,0.0161 16.5602,2.20339 22.316,7.75569 6.3014,6.07873 7.5184,9.085 7.6053,18.78624 0.053,5.96466 -0.3392,9.21822 -1.2191,10.10485 -0.9661,0.97345 -7.3561,1.43549 -25,1.80769 l -23.7022,0.5 -0.2958,2.53668 c -0.4263,3.65493 4.7457,10.27657 10.0217,12.83061 5.9978,2.90353 18.4683,2.96068 26.5458,0.12168 5.5909,-1.96503 5.7791,-1.96848 8.225,-0.15111 3.3632,2.49881 3.6939,6.16995 0.7988,8.86438 -4.383,4.07904 -20.9836,6.88463 -30.7955,5.20458 z m 22.8,-42.10682 c 2.0484,-2.04843 1.3407,-4.63854 -2.3985,-8.7773 -5.07,-5.61189 -13.6271,-7.53915 -22.3573,-5.03536 -6.5508,1.87874 -14.1999,11.52359 -11.3775,14.34599 1.257,1.25701 34.8386,0.76134 36.1333,-0.53333 z m -397.3864,40.10455 c -1.7222,-1.90303 -1.9431,-4.36722 -2.405,-26.83422 l -0.5086,-24.73875 -3.75,-3.53387 c -4.2338,-3.98974 -4.5648,-5.56997 -1.865,-8.90401 2.5992,-3.20986 8.9942,-2.94243 14.0904,0.58923 l 3.7211,2.57876 4.9018,-2.53027 c 14.4661,-7.4674 31.8714,-2.2068 39.1432,11.83073 2.5952,5.00975 2.6717,5.67854 3.0691,26.82428 l 0.4074,21.68644 -2.5635,2.56356 c -3.0792,3.07914 -5.9519,3.2662 -8.6545,0.56357 -1.8712,-1.87122 -2.0002,-3.33607 -2.0037,-22.75 0,-18.94125 -0.177,-21.03409 -1.9909,-24.00914 -7.1155,-11.67038 -25.3131,-9.92609 -30.4527,2.91897 -1.3821,3.45428 -1.6319,7.41898 -1.4598,23.17282 0.2038,18.65091 0.1655,19.03972 -2.0534,20.83645 -2.9585,2.39568 -5.2917,2.31474 -7.6259,-0.26455 z m 184.9869,-0.29858 c -9.7452,-4.53768 -11.4821,-9.39752 -11.9062,-33.31272 -0.1775,-10.01371 -0.6129,-18.67621 -0.9676,-19.25 -0.3546,-0.57379 -2.3181,-1.04325 -4.3632,-1.04325 -4.9374,0 -8.1635,-2.34517 -8.1635,-5.93426 0,-3.61417 1.8641,-5.11113 7.2108,-5.79069 6.139,-0.78026 6.7892,-1.62541 6.7892,-8.82491 0,-5.63367 0.2829,-6.52752 2.6571,-8.39508 2.8845,-2.26892 5.9494,-1.98979 8.0929,0.73704 0.6901,0.87784 1.25,4.32668 1.25,7.69903 0,3.41801 0.5286,6.63745 1.2,7.30887 0.7299,0.72992 4.2813,1.2 9.0657,1.2 9.8225,0 13.6797,1.75721 13.719,6.25 0.01,0.9625 -0.8847,2.65 -1.9847,3.75 -1.697,1.69697 -3.3333,2 -10.8,2 -5.5111,0 -9.2485,0.44849 -10,1.2 -0.8354,0.83537 -1.2,6.16269 -1.2,17.53212 0,17.62393 0.9302,22.0898 5.0618,24.30094 2.1076,1.12796 3.504,1.06459 14.0649,-0.6383 3.0309,-0.4887 3.8935,-0.20399 5.25,1.73273 3.7998,5.42497 1.2205,8.8236 -8.1759,10.77308 -7.7695,1.61193 -11.1112,1.35442 -16.8003,-1.2946 z m 100.7881,0.35507 c -2.1383,-1.9921 -2.1886,-2.61131 -2.1886,-26.9491 l 0,-24.91016 -3.4608,-2.63967 c -4.304,-3.28281 -5.1812,-5.83339 -3.0991,-9.01107 2.3188,-3.53882 10.1454,-3.51217 14.3775,0.049 3.5621,2.99727 4.566,3.07399 8.028,0.61348 8.7789,-6.23931 24.8309,-5.01432 33.1842,2.53241 2.1509,1.94316 5.0075,5.85526 6.348,8.69356 2.2852,4.83822 2.4708,6.52549 2.9718,27.01402 l 0.5344,21.85347 -2.3966,2.39653 c -2.7269,2.72691 -5.2345,3.03215 -8.0463,0.97943 -1.7943,-1.30993 -1.9789,-3.11896 -2.4411,-23.92213 -0.4953,-22.29575 -0.5232,-22.53027 -3,-25.21874 -6.0932,-6.61409 -15.9748,-7.95528 -23.1227,-3.13835 -6.6598,4.48804 -7.1644,6.53816 -7.1212,28.92877 0.038,19.75556 0,20.09984 -2.3133,22.41563 -2.8899,2.88995 -5.3866,2.98462 -8.2542,0.31296 z"
       style="fill:#ffffff" />
  </g>
</svg>
