<?xml version="1.0" encoding="UTF-8" standalone="no"?>
<svg
   xmlns:dc="http://purl.org/dc/elements/1.1/"
   xmlns:cc="http://creativecommons.org/ns#"
   xmlns:rdf="http://www.w3.org/1999/02/22-rdf-syntax-ns#"
   xmlns:svg="http://www.w3.org/2000/svg"
   xmlns="http://www.w3.org/2000/svg"
   xmlns:sodipodi="http://sodipodi.sourceforge.net/DTD/sodipodi-0.dtd"
   xmlns:inkscape="http://www.inkscape.org/namespaces/inkscape"
   version="1.1"
   id="svg2"
   viewBox="0 0 815.18772 159.33453"
   height="44.967747mm"
   width="230.06409mm"
   inkscape:version="0.91 r13725"
   sodipodi:docname="project_item6.svg">
  <sodipodi:namedview
     pagecolor="#ffffff"
     bordercolor="#666666"
     borderopacity="1"
     objecttolerance="10"
     gridtolerance="10"
     guidetolerance="10"
     inkscape:pageopacity="0"
     inkscape:pageshadow="2"
     inkscape:window-width="1920"
     inkscape:window-height="1178"
     id="namedview16"
     showgrid="false"
     inkscape:zoom="0.46615031"
     inkscape:cx="407.59385"
     inkscape:cy="79.667268"
     inkscape:window-x="-8"
     inkscape:window-y="-8"
     inkscape:window-maximized="1"
     inkscape:current-layer="layer1" />
  <defs
     id="defs4" />
  <metadata
     id="metadata7">
    <rdf:RDF>
      <cc:Work
         rdf:about="">
        <dc:format>image/svg+xml</dc:format>
        <dc:type
           rdf:resource="http://purl.org/dc/dcmitype/StillImage" />
        <dc:title />
      </cc:Work>
    </rdf:RDF>
  </metadata>
  <g
     transform="translate(-236.97376,-753.4049)"
     id="layer1">
    <path
       id="path3412"
       d="m 359.30763,912.25069 c -6.8233,-0.9129 -14.1175,-3.6246 -23.4093,-8.70257 l -6.4094,-3.50273 -6.5906,1.54635 c -17.7436,4.16315 -39.2559,6.03725 -52.441,4.56865 -12.9696,-1.44456 -20.5576,-4.19025 -26.604,-9.62651 -6.0385,-5.42908 -7.5569,-9.8626 -6.6277,-19.35115 0.5591,-5.70868 1.2996,-7.48282 6.0826,-14.57299 7.1259,-10.56336 22.0784,-24.90709 36.8518,-35.35123 6.5188,-4.60853 12.6957,-9.28441 13.7265,-10.39084 1.0308,-1.10643 2.5994,-4.50645 3.4858,-7.55561 4.5613,-15.69022 17.0481,-32.36253 31.4894,-42.04458 17.1955,-11.52854 29.7752,-14.81234 52.2481,-13.63886 12.6756,0.66189 20.6981,3.05126 32.5703,9.70051 l 5.3725,3.00899 6.6275,-1.57922 c 20.7703,-4.94921 48.3405,-6.40261 61.3988,-3.23672 25.5732,6.20002 31.8557,23.33712 16.4552,44.88568 -7.6902,10.76023 -24.0787,25.59644 -40.4649,36.63224 -8.4694,5.70395 -9.8443,7.38384 -12.3081,15.0388 -3.2127,9.98154 -8.4851,19.26755 -15.3088,26.96245 -10.1107,11.40155 -19.1876,17.74731 -33.6859,23.55014 -8.5768,3.4328 -9.8382,3.6571 -22.7693,4.048 -7.5292,0.2277 -16.3895,0.053 -19.6895,-0.3888 z m 26.4026,-9.12193 c 13.6522,-2.21515 28.5389,-9.75526 38.6932,-19.59809 5.7339,-5.55799 16.4042,-20.9018 16.4042,-23.58904 0,-2.71504 -3.3502,-2.14496 -9.2306,1.57071 -4.7982,3.03188 -21.7149,11.26911 -34.2694,16.68678 -8.4536,3.64799 -34.2608,12.9103 -41.7674,14.99048 -3.9103,1.08362 -7.568,2.42858 -8.1283,2.98881 -1.9322,1.93221 2.0878,4.22767 10.557,6.0281 9.7504,2.07281 18.7968,2.37355 27.7413,0.92225 z m -86.9026,-7.02062 c 41.0366,-3.8102 103.2432,-26.19207 146.3656,-52.66222 31.6538,-19.43033 52.9948,-39.92689 56.8246,-54.57609 1.131,-4.32624 1.0586,-5.18531 -0.716,-8.49611 -4.4766,-8.35185 -18.7542,-12.01834 -41.9742,-10.77897 -7.15,0.38163 -16.375,1.23255 -20.5,1.89093 -6.5077,1.03868 -7.5412,1.48637 -7.8113,3.38385 -0.2101,1.47643 0.5529,2.75297 2.3487,3.92969 2.3365,1.53092 3.3547,1.59941 8.3715,0.5632 3.1413,-0.64883 10.8836,-1.17969 17.205,-1.17969 10.4164,0 11.9896,0.24727 16.7889,2.63885 10.6671,5.31562 11.8679,13.323 3.7121,24.7524 -5.4976,7.70414 -7.8114,9.29586 -11.2414,7.73307 -3.5981,-1.63943 -2.9138,-4.56264 2.6265,-11.22004 8.7177,-10.47534 6.2359,-14.08312 -10.14,-14.74086 -11.2923,-0.45357 -16.4239,0.25767 -17.242,2.38977 -0.3164,0.82434 0.9754,4.42164 2.8706,7.99401 2.9316,5.52607 3.2923,6.90236 2.4173,9.224 -2.7467,7.28717 -16.6489,16.84687 -42.9059,29.50372 -36.8006,17.73926 -73.5712,30.22221 -92.6897,31.46647 -8.0542,0.52418 -8.2389,0.48383 -11.1598,-2.43705 -1.6335,-1.63353 -3.5121,-4.95777 -4.1745,-7.3872 -0.6624,-2.42943 -1.3678,-4.98985 -1.5675,-5.68982 -1.2655,-4.43554 -6.7292,-0.84307 -17.7028,11.63988 -7.2663,8.26571 -7.3553,10.60547 -0.5276,13.86855 4.8564,2.32098 6.7951,5.38674 4.8718,7.70417 -1.9717,2.37577 -4.813,2.39493 -9.8389,0.0664 -9.9992,-4.6327 -11.7391,-11.77021 -5.461,-22.4029 3.4702,-5.87724 6.3267,-8.73747 23.0736,-23.10376 2.5636,-2.19915 3.2496,-3.49501 3,-5.66684 -0.1965,-1.70976 -1.0047,-2.94487 -2.0577,-3.14453 -2.4038,-0.45581 -19.6392,12.96982 -28.8587,22.47974 -9.0968,9.38336 -14.3635,17.12544 -16.0849,23.64487 -1.1449,4.33637 -1.0753,5.17637 0.7035,8.48407 5.1002,9.48406 22.1923,12.84722 51.4742,10.12844 z m -3.4286,-9.49684 c -1.9834,-1.98344 -1.9961,-3.86103 -0.039,-5.81786 1.5482,-1.54819 3.5685,-2.019 13.3676,-3.11523 22.0733,-2.46938 69.3141,-18.5611 101.4996,-34.57402 13.5832,-6.75793 16.4525,-7.85047 18.3507,-6.98739 2.7588,1.25441 2.9893,5.08686 0.4445,7.38992 -2.1975,1.98874 -27.7045,14.30306 -39.8661,19.24669 -30.2434,12.29378 -49.1094,18.0418 -76.6292,23.34712 -12.9494,2.49643 -15.0786,2.55993 -17.1278,0.51077 z m 148.6786,-54.52775 c -3.7422,-1.39105 -2.9064,-5.23646 2,-9.20168 6.1267,-4.95149 8.3869,-5.96381 10.6324,-4.7621 4.5431,2.43142 3.3834,6.43207 -3.1474,10.85688 -5.4579,3.69795 -6.7534,4.1223 -9.485,3.1069 z m -121.9474,25.5239 c 40.7418,-8.91707 116.6974,-43.90323 116.6974,-53.75235 0,-1.20655 -2.0993,-5.323 -4.665,-9.14768 -24.2426,-36.13717 -73.2571,-43.10533 -106.1898,-15.09651 -7.9671,6.77584 -13.1515,13.63686 -18.2252,24.11909 -6.535,13.5014 -8.2246,26.52441 -5.471,42.1706 2.4844,14.11665 3.5752,14.83193 17.8536,11.70685 z m 90.6217,-60.03611 c -4.7039,-5.06694 -14.5279,-10.90578 -23.4243,-13.92218 -8.6529,-2.93385 -9.0121,-3.17523 -9.3134,-6.25962 -0.2591,-2.65202 0.1235,-3.37419 2.207,-4.16634 5.5295,-2.10233 24.8915,6.61869 34.1661,15.38908 5.7797,5.46552 6.8681,8.73597 3.506,10.53527 -2.9826,1.59624 -4.509,1.25934 -7.1414,-1.57621 z m -60.8253,-14.76932 c -2.4002,-2.89212 -0.5488,-6.28208 4.4798,-8.20253 8.284,-3.16368 12.3697,-2.04911 12.4059,3.38427 0.011,1.7171 -0.9363,2.70315 -3.7347,3.88567 -5.7371,2.42435 -11.5697,2.83796 -13.151,0.93259 z m 246.401,88.7535 c -10.3216,-2.59646 -17.6268,-8.69316 -20.0026,-16.69359 -3.1412,-10.57734 -1.1844,-14.6792 7.0026,-14.6792 5.8757,0 8.5,2.19275 8.5,7.10216 0,10.01661 13.4482,13.3168 17.7244,4.34956 2.8431,-5.962 1.1771,-9.99864 -7.409,-17.95172 -23.0054,-21.3094 -25.7515,-25.11699 -25.6769,-35.60211 0.1545,-21.69888 26.1951,-32.74219 43.2544,-18.34338 6.5875,5.56016 10.4236,18.9861 6.5357,22.87406 -2.1454,2.14536 -11.7118,2.14536 -13.8572,0 -0.8643,-0.86428 -1.5714,-3.1489 -1.5714,-5.07692 0,-4.37063 -4.5274,-9.35165 -8.5,-9.35165 -3.654,0 -8.5,4.98946 -8.5,8.75163 0,4.52762 5.3181,11.47098 13.8285,18.05452 10.2667,7.94223 14.8114,13.12301 18.3415,20.9085 1.6471,3.63249 3.4297,6.2521 4.1021,6.02797 1.3775,-0.45914 1.1049,0.73338 7.7127,-33.74262 2.7936,-14.575 5.5632,-27.72254 6.1547,-29.21675 1.3079,-3.30343 2.4797,-3.71351 11.1386,-3.89793 8.0973,-0.17245 10.2531,1.25755 11.2368,7.45374 0.8735,5.50223 4.3194,22.70438 10.5489,52.66094 6.9521,33.43156 6.8797,32.68661 3.3136,34.06411 -3.7101,1.43312 -12.0871,0.65479 -14.047,-1.30514 -0.8361,-0.83615 -1.8404,-4.23537 -2.2317,-7.55382 -0.9734,-8.25537 -1.969,-9.20515 -9.6497,-9.20515 -7.7853,0 -8.8776,0.96914 -10.3197,9.15645 -0.6048,3.43335 -1.7194,6.86221 -2.4769,7.6197 -1.9088,1.90884 -8.5683,2.61895 -12.0348,1.28329 -2.7262,-1.05041 -2.8495,-1.35086 -2.2751,-5.54153 0.3524,-2.57117 0.1862,-4.69115 -0.396,-5.05097 -0.5518,-0.34104 -3.012,1.61413 -5.4672,4.34482 -2.4551,2.73069 -6.2663,5.68609 -8.4693,6.56756 -4.3192,1.72821 -13.2688,2.80881 -16.51,1.99347 z m 62.015,-36.03062 c 1.0859,-1.08591 1.4607,-2.5521 1.0864,-4.25 -0.3143,-1.4257 -1.0454,-6.19217 -1.6247,-10.59217 -1.3154,-9.99174 -1.7714,-11.5 -3.4767,-11.5 -1.7014,0 -2.0492,1.16295 -3.9594,13.23923 -1.8819,11.8968 -1.8833,11.27517 0.031,13.18934 2.0469,2.04698 5.8515,2.0056 7.9435,-0.0864 z m 92.2025,35.62047 c -7.9359,-1.98244 -14.5613,-6.88894 -18.0113,-13.33843 -2.1257,-3.97376 -2.211,-5.22664 -2.3378,-34.34456 -0.072,-16.62119 -0.3838,-30.8774 -0.692,-31.68046 -0.7255,-1.89066 -13.7334,-1.62666 -16.0868,0.32648 -1.4001,1.16197 -1.5896,5.70829 -1.5896,38.14007 l 0,36.82085 -2.2225,1.55671 c -1.2224,0.85618 -4.2723,1.5567 -6.7775,1.5567 -2.5052,0 -5.5551,-0.70052 -6.7775,-1.5567 l -2.2225,-1.55671 0,-36.88659 0,-36.88659 -2.2284,-1.56085 c -1.6261,-1.13898 -3.4874,-1.39384 -6.8863,-0.94296 -6.0651,0.80457 -8.8853,-1.63154 -8.8853,-7.67534 0,-8.48887 -2.3252,-7.98497 36.2951,-7.86571 21.9543,0.0678 34.6526,0.47644 35.4549,1.14098 0.9587,0.79411 1.25,9.63882 1.25,37.95837 l 0,36.92301 2.4546,2.45454 c 3.2924,3.2925 8.3482,3.29347 11.8994,0.002 l 2.646,-2.45195 0,-36.92531 c 0,-31.94192 0.2067,-37.09686 1.5317,-38.19648 2.3142,-1.92064 13.6367,-1.36953 15.2183,0.74074 1.627,2.17081 1.7824,68.70444 0.178,76.18569 -0.5896,2.74922 -2.3568,6.77224 -3.9272,8.94005 -5.2129,7.19618 -18.6478,11.52946 -28.2833,9.12245 z m 42.5325,-1.9938 c -1.2375,-0.49742 -2.301,-1.48139 -2.3634,-2.18662 -0.062,-0.70522 -0.07,-21.27622 -0.016,-45.71333 0.076,-34.64823 0.3762,-44.6159 1.3634,-45.27038 0.6963,-0.4616 8.9915,-0.7176 18.4338,-0.56889 l 17.1677,0.27038 4.3238,3.04159 c 7.3283,5.15518 8.805,8.96646 8.8243,22.77415 0.017,12.38554 -0.47,14.30013 -4.8277,18.97063 -2.8047,3.00598 -2.8905,2.66646 2.3441,9.2729 2.982,3.76354 3.0006,3.8664 3.0925,17.17814 0.084,12.11304 0.2889,13.58838 2.1496,15.44909 1.9862,1.98627 2.0873,1.99265 2.9322,0.18533 0.4825,-1.03205 0.6397,-20.01468 0.3504,-42.31167 -0.3428,-26.4232 -0.1728,-41.14399 0.4906,-42.4714 1.3854,-2.77226 8.5005,-4.17013 12.1973,-2.39636 1.4989,0.71918 3.7444,3.1076 4.99,5.3076 2.589,4.57252 10.0879,21.98069 14.8541,34.48267 3.3892,8.88999 5.7187,11.69119 7.4989,9.01733 0.5493,-0.825 0.7697,-2.75241 0.4899,-4.28313 -0.9027,-4.93843 -1.8669,-38.30012 -1.1854,-41.01561 1.0838,-4.31803 11.0083,-5.89211 15.3899,-2.44093 0.9668,0.76147 1.25,11.14049 1.25,45.80541 l 0,44.82085 -2.2225,1.55671 c -3.0409,2.12993 -8.0022,1.95438 -10.9808,-0.38855 -2.6686,-2.09914 -7.1764,-10.88011 -14.9155,-29.05475 -6.2029,-14.56703 -8.3347,-18.5 -10.0278,-18.5 -1.1093,0 -1.2839,4.07808 -0.968,22.61458 0.3815,22.37998 0.3621,22.63797 -1.8695,24.86954 -1.976,1.97597 -2.8279,2.15865 -6.8854,1.47653 -5.0304,-0.84567 -7.5517,-0.82757 -16.5093,0.11849 -11.2287,1.18592 -13.6212,-2.22489 -13.6212,-19.41833 0,-6.61684 -0.4471,-13.20667 -0.9936,-14.64408 -1.8053,-4.7481 -10.4803,-6.62966 -14.8097,-3.21212 -0.9911,0.78232 -1.2591,4.98644 -1.1185,17.54634 0.1794,16.01559 0.1168,16.5727 -2.0574,18.33329 -2.4148,1.95538 -8.8712,2.35205 -12.7708,0.7846 z m 28.1151,-54.04142 c 2.5097,-1.97408 2.6349,-2.51538 2.6349,-11.38922 0,-11.15015 -1.2046,-13.35357 -7.7827,-14.23587 -3.2634,-0.43773 -4.7256,-0.15232 -6.2397,1.21798 -1.7448,1.57896 -1.9776,3.10181 -1.9776,12.93468 0,7.33501 0.4102,11.55524 1.2,12.34501 1.9739,1.97387 9.2059,1.45513 12.1651,-0.87258 z"
       style="fill:#ffffff" />
    <flowRoot
       transform="translate(13.950513,544.8415)"
       style="font-style:normal;font-weight:normal;font-size:40px;line-height:125%;font-family:sans-serif;letter-spacing:0px;word-spacing:0px;fill:#ffffff;fill-opacity:1;stroke:none;stroke-width:1px;stroke-linecap:butt;stroke-linejoin:miter;stroke-opacity:1;"
       id="flowRoot3414"
       xml:space="preserve"><flowRegion
         id="flowRegion3416"><rect
           y="231.19839"
           x="914.28571"
           height="94.285713"
           width="120"
           id="rect3418"
           style="fill:#ffffff;" /></flowRegion><flowPara
         id="flowPara3420">sixth</flowPara><flowPara
         id="flowPara3422">ppl</flowPara></flowRoot>    <flowRoot
       transform="translate(13.950513,544.8415)"
       style="font-style:normal;font-weight:normal;font-size:40px;line-height:125%;font-family:sans-serif;letter-spacing:0px;word-spacing:0px;fill:#ffffff;fill-opacity:1;stroke:none;stroke-width:1px;stroke-linecap:butt;stroke-linejoin:miter;stroke-opacity:1;"
       id="flowRoot3424"
       xml:space="preserve"><flowRegion
         id="flowRegion3426"><rect
           y="279.76984"
           x="914.28571"
           height="74.285713"
           width="168.57149"
           id="rect3428"
           style="fill:#ffffff;" /></flowRegion><flowPara
         id="flowPara3430">planet</flowPara></flowRoot>  </g>
</svg>
