<?xml version="1.0" encoding="UTF-8" standalone="no"?>
<svg
   xmlns:dc="http://purl.org/dc/elements/1.1/"
   xmlns:cc="http://creativecommons.org/ns#"
   xmlns:rdf="http://www.w3.org/1999/02/22-rdf-syntax-ns#"
   xmlns:svg="http://www.w3.org/2000/svg"
   xmlns="http://www.w3.org/2000/svg"
   version="1.1"
   id="svg2"
   viewBox="0 0 799.53598 285.53623"
   height="80.584671mm"
   width="225.64682mm">
  <defs
     id="defs4" />
  <metadata
     id="metadata7">
    <rdf:RDF>
      <cc:Work
         rdf:about="">
        <dc:format>image/svg+xml</dc:format>
        <dc:type
           rdf:resource="http://purl.org/dc/dcmitype/StillImage" />
        <dc:title></dc:title>
      </cc:Work>
    </rdf:RDF>
  </metadata>
  <g
     transform="translate(907.19845,-384.94456)"
     id="layer1">
    <path
       id="path3373"
       d="m -349.75224,670.03416 c -13.90643,-1.96358 -32.58354,-16.21941 -40.10668,-30.61255 -5.35941,-10.25352 -6.83953,-16.30796 -6.83953,-27.97705 0,-19.2419 4.80596,-29.13187 23.56822,-48.5 10.5318,-10.8719 13.95952,-15.15473 17.60745,-22 2.49136,-4.675 15.00522,-28.75 27.80856,-53.5 12.80335,-24.75 25.98595,-50.175 29.29466,-56.5 3.30872,-6.325 9.39693,-18.025 13.52936,-26 9.97173,-19.24399 10.52879,-20 14.73679,-20 4.58793,0 5.45692,1.52004 12.10236,21.16936 3.03767,8.98185 6.28021,17.11365 7.20563,18.07067 0.92542,0.95701 8.87457,3.99702 17.66477,6.75557 8.79021,2.75855 17.1072,5.8313 18.4822,6.82833 1.9392,1.40615 3.84591,5.80313 8.5,19.60147 4.99877,14.82025 6.41718,18.00337 8.5,19.07529 1.375,0.70764 9.06903,3.39023 17.09785,5.96132 21.02812,6.7339 19.72078,5.53505 25.27887,23.18123 2.57372,8.17122 5.33692,16.32419 6.14043,18.11771 1.75354,3.91408 3.57233,4.7864 22.11604,10.60726 17.1267,5.37604 18.0331,5.83594 18.8521,9.56482 1.3562,6.17459 8.369203,2.21003 -109.9351,62.14746 l -55.94981,28.34628 -11.55019,11.05136 c -14.66653,14.03312 -18.14957,16.72219 -27.19064,20.99243 -6.82806,3.225 -8.22616,3.50951 -19.35955,3.93963 -6.6,0.25498 -14.49921,0.11071 -17.55379,-0.32059 z m 26.3724,-15.10629 c 3.5911,-1.10918 9.01628,-3.69668 12.05596,-5.75 5.48794,-3.70714 21.62543,-18.79863 21.62543,-20.22372 0,-0.40922 -11.3625,-11.93552 -25.25,-25.61398 -13.8875,-13.67846 -27.97323,-27.68821 -31.30162,-31.13277 -3.60304,-3.7288 -6.8915,-6.26284 -8.12738,-6.26284 -1.32199,0 -5.54192,3.61124 -11.62089,9.94465 -12.7787,13.31358 -15.93444,19.66065 -16.51297,33.2121 -0.3424,8.02024 -0.0404,10.77433 1.78228,16.25136 7.82632,23.51809 33.72236,36.87278 57.34919,29.5752 z m 57.54439,-39.85104 c 6.46294,-3.64246 109.39046,-56.25922 126.137,-64.4815 1.375,-0.6751 2.5,-2.07429 2.5,-3.10931 0,-1.47105 -1.63719,-2.38315 -7.5,-4.17834 l -7.5,-2.2965 -4.75425,2.47854 c -2.61484,1.36319 -10.71484,6.12793 -18,10.5883 -19.66425,12.03952 -81.07972,48.77383 -90.00019,53.83162 -9.59711,5.44145 -14.32634,9.28618 -13.35525,10.85744 1.24749,2.01848 3.55467,1.33586 12.47269,-3.69025 z M -273.83623,597.57 c 7.50078,-4.59316 32.08778,-19.49044 54.63778,-33.10505 54.59885,-32.96418 55.93277,-33.81352 56.328,-35.86579 0.18816,-0.977 -0.32975,-3.21147 -1.1509,-4.96549 -0.82116,-1.75401 -2.73649,-7.20367 -4.2563,-12.11036 -1.51982,-4.90669 -3.51859,-9.67654 -4.44172,-10.59967 -1.94363,-1.94363 -25.82505,-9.97908 -29.6579,-9.97908 -1.95843,0 -5.65711,3.01762 -15.32118,12.5 -8.42462,8.26623 -13.47642,12.5 -14.91521,12.5 -1.19663,0 -3.28024,-1.10455 -4.63024,-2.45455 -4.57357,-4.57356 -3.61071,-6.49618 10.49518,-20.95642 l 12.94974,-13.27504 -4.85104,-14.27258 c -2.66807,-7.84993 -5.45795,-14.86887 -6.19973,-15.59765 -1.51936,-1.49273 -25.12504,-9.44376 -28.03743,-9.44376 -1.821,0 -5.39536,5.0747 -17.43715,24.75644 -28.03808,45.82693 -33.20401,53.24356 -37.0859,53.24356 -1.81097,0 -7.28865,-5.39206 -7.28698,-7.17308 10e-4,-1.21867 6.98597,-12.71284 37.83397,-62.2592 6.14063,-9.86276 11.16479,-18.72909 11.16479,-19.70295 0,-0.97387 -0.43464,-2.80434 -0.96586,-4.06772 -0.53122,-1.26338 -1.44856,-4.20955 -2.03854,-6.54705 -1.98309,-7.857 -3.88841,-6.10068 -13.56049,12.5 -4.79037,9.2125 -14.78426,28.45 -22.20865,42.75 -19.38467,37.33651 -31.9338,60.91544 -36.90009,69.33263 -4.68363,7.93813 -5.18181,9.90188 -2.74883,10.8355 2.14485,0.82306 3.20849,-0.46224 10.89715,-13.16813 7.09754,-11.72903 8.67726,-13.5 12.04213,-13.5 2.77331,0 6.73318,4.24696 6.73318,7.22133 0,2.05333 -5.46238,11.39628 -14.35782,24.55791 -1.5907,2.35358 -2.89218,5.09687 -2.89218,6.09621 0,2.72494 12.62232,15.32772 14.96404,14.94088 1.05319,-0.17398 14.80527,-12.91633 30.56019,-28.31633 15.75492,-15.4 29.36817,-28.5625 30.25167,-29.25 0.8835,-0.6875 2.60535,-1.25 3.82634,-1.25 2.47538,0 7.39665,5.20526 7.39971,7.82673 10e-4,0.9203 -13.72602,15.17327 -30.50465,31.67327 -16.77863,16.5 -30.50451,30.48645 -30.50195,31.081 0.003,0.59455 3.38086,4.35473 7.50734,8.35596 5.17735,5.02019 8.00154,7.08352 9.11222,6.65732 0.88524,-0.3397 7.74653,-4.37568 15.24731,-8.96884 z m -621.86222,9.99942 c -6.58676,-1.90494 -10.98403,-4.43707 -11.11515,-6.40054 -0.37445,-5.60694 1.88977,-9.22432 5.77376,-9.22432 1.29175,0 4.02784,0.9 6.0802,2 6.5422,3.50641 12.26119,2.12247 12.26119,-2.96709 0,-3.24879 -1.75603,-4.75209 -11.62355,-9.95066 -3.36795,-1.77436 -7.64295,-4.79373 -9.5,-6.70972 -3.21421,-3.31623 -3.37645,-3.83744 -3.37645,-10.84751 0,-6.46471 0.30527,-7.69516 2.5,-10.0768 3.43973,-3.73268 11.6695,-7.42669 16.57186,-7.43845 8.37366,-0.0201 19.42814,5.2821 19.42814,9.31854 0,2.66802 -4.43274,7.67328 -6.79047,7.6675 -0.94024,-0.002 -3.86481,-1.09769 -6.49905,-2.4342 -3.95277,-2.00549 -5.29958,-2.25221 -7.70914,-1.41223 -3.52449,1.22864 -4.82956,4.45097 -2.67522,6.60532 0.84243,0.84242 5.50118,3.61647 10.35278,6.16455 10.5394,5.53533 15.3211,11.30853 15.3211,18.49798 0,12.40074 -14.94937,21.2712 -29,17.20763 z m 122.18261,-0.52665 c -6.38002,-2.20351 -11.33524,-6.75675 -14.69868,-13.50629 -2.38522,-4.78653 -2.48393,-5.74555 -2.48393,-24.13328 0,-21.82322 0.21989,-22.45864 7.77204,-22.45864 6.6392,0 7.03225,1.24822 6.4489,20.48007 -0.54989,18.12881 0.0422,21.14701 4.8155,24.54588 4.04948,2.88348 8.8552,2.54492 13.00133,-0.91595 l 3.46223,-2.88999 0.19213,-19.3311 c 0.21502,-21.63494 0.30023,-21.88891 7.34401,-21.88891 6.62574,0 6.96386,1.11003 6.96386,22.86198 0,18.3383 -0.10926,19.42012 -2.42232,23.98472 -3.28634,6.48528 -9.30508,11.6979 -15.69959,13.59686 -6.59028,1.95711 -8.134,1.92083 -14.69548,-0.34535 z m -80.18261,0.1729 c -0.825,-0.31405 -1.83061,-1.06602 -2.23469,-1.67105 -0.40407,-0.60503 -0.74158,-13.57173 -0.75,-28.81488 -0.0146,-26.38577 0.0774,-27.76445 1.91895,-28.75 2.76769,-1.48122 8.35354,-1.27712 10.62461,0.38821 1.71529,1.2578 1.90714,2.4735 1.64899,10.44934 -0.27412,8.46937 -0.1508,9.11782 2,10.51587 3.0778,2.00061 17.38284,1.96418 20.5899,-0.0524 2.19545,-1.38052 2.2677,-1.8152 1.6228,-9.76331 -0.6201,-7.6423 -0.50205,-8.49136 1.45224,-10.44565 2.73879,-2.73879 9.11365,-2.90464 11.47221,-0.29846 1.45433,1.60702 1.65499,5.11624 1.65499,28.9433 0,26.88579 -0.0187,27.12769 -2.22251,28.67126 -3.2024,2.24305 -8.36411,1.97008 -10.91122,-0.57703 -1.93436,-1.93436 -2.08197,-2.88879 -1.57983,-10.2149 0.79592,-11.61222 0.75628,-11.65141 -11.78644,-11.65141 -12.63688,0 -12.73687,0.10248 -12.31289,12.61932 0.25396,7.49763 0.0507,8.73364 -1.63974,9.9697 -1.93171,1.4125 -6.72836,1.75519 -9.54737,0.68209 z m 136.47495,-0.66577 c -1.78553,-1.30561 -1.88793,-2.68101 -1.60388,-21.54236 0.35921,-23.85161 0.005,-25.06298 -7.33742,-25.06298 -4.76829,0 -7.53365,-2.38594 -7.53365,-6.5 0,-1.13024 0.70052,-3.05512 1.5567,-4.27749 1.50956,-2.1552 2.09603,-2.22251 19.36515,-2.22251 16.29424,0 18.02462,0.17005 20.35102,2 1.39842,1.1 2.96437,2 3.47987,2 0.51551,0 1.75177,-0.9 2.74726,-2 1.68003,-1.85642 3.07997,-2 19.5,-2 15.86782,0 17.8605,0.18837 19.34501,1.82874 1.8732,2.06986 2.1609,6.35744 0.61981,9.237 -0.7606,1.42119 -2.10431,1.93426 -5.06575,1.93426 -8.12124,0 -7.89907,-0.66036 -7.89907,23.47848 0,20.98892 -0.0435,21.43859 -2.22251,22.96482 -1.22237,0.85618 -3.37225,1.5567 -4.77749,1.5567 -1.40524,0 -3.55512,-0.70052 -4.77749,-1.5567 -2.17402,-1.52275 -2.22284,-2.00816 -2.23782,-22.25 -0.008,-11.38132 -0.41046,-21.31725 -0.89341,-22.07985 -0.48296,-0.7626 -3.21005,-1.61062 -6.0602,-1.88449 -3.59791,-0.34571 -5.53826,-1.06823 -6.34714,-2.36345 -1.4965,-2.39627 -2.92722,-2.35915 -5.18394,0.13449 -1.13603,1.2553 -3.07997,2 -5.22073,2 -7.41592,0 -7.27927,-0.44075 -7.27927,23.47848 0,20.98892 -0.0435,21.43859 -2.22251,22.96482 -2.7598,1.93304 -7.77273,2.01189 -10.30254,0.16204 z m 81.74756,-0.16204 c -2.20239,-1.54262 -2.22251,-1.79861 -2.22251,-28.2775 0,-30.41183 0.16609,-31.1658 6.86557,-31.1658 2.0637,0 4.62268,0.63654 5.68665,1.41452 1.82177,1.33212 1.91609,2.59923 1.619,21.75 -0.39122,25.21861 -0.73044,24.45714 10.71305,24.04798 6.9844,-0.24972 8.30841,-0.0198 10.07823,1.75 2.60834,2.60834 2.62642,7.44858 0.0375,10.0375 -1.81323,1.81323 -3.33333,2 -16.27749,2 -11.30378,0 -14.7404,-0.32423 -16.5,-1.5567 z m 44.50124,0.3067 c -1.46882,-1.10703 -1.67529,-4.44453 -1.80519,-29.18001 -0.13585,-25.869 -0.0135,-28.02742 1.65851,-29.25 1.32049,-0.96557 6.18418,-1.31999 18.11406,-1.31999 14.97554,0 16.47238,0.16351 18.30887,2 2.51652,2.51652 2.5565,6.09118 0.10204,9.12232 -1.77806,2.19581 -2.47841,2.32544 -11.08587,2.05203 -10.41653,-0.33088 -14.01617,1.03686 -14.01617,5.32565 0,4.12982 3.79634,5.78809 11.38937,4.97494 6.13616,-0.65712 6.62517,-0.55131 9.1582,1.98172 2.15685,2.15685 2.55658,3.27259 2.06072,5.75191 -0.95216,4.76079 -3.09188,5.7652 -12.03092,5.64746 -6.57649,-0.0866 -8.14816,0.20409 -9.25,1.71094 -1.86074,2.54472 -1.65279,5.10761 0.597,7.3574 1.71764,1.71764 2.93813,1.86388 11.36134,1.36134 8.71391,-0.51987 9.60085,-0.39915 11.57564,1.57564 2.70831,2.70831 2.77388,7.50342 0.13865,10.13865 -1.83649,1.83649 -3.33333,2 -18.30887,2 -11.49589,0 -16.79832,-0.36889 -17.96738,-1.25 z m 96.77625,-96.15573 c -7.15016,-1.76701 -10.71057,-3.89053 -15.33872,-9.14839 -6.28161,-7.13628 -8.481,-12.51917 -8.51804,-20.84748 -0.0532,-11.96695 6.86378,-22.75377 18.14232,-28.29225 7.61418,-3.73904 18.3465,-3.97303 25.29001,-0.55138 19.24938,9.48578 24.90913,31.46583 12.34414,47.93938 -3.63029,4.75956 -10.44942,9.07854 -17.04717,10.79703 -6.7395,1.75542 -8.14694,1.76518 -14.87254,0.10309 z m 13.81574,-14.71646 c 9.79484,-5.0322 13.2284,-14.86084 8.19311,-23.45293 -6.04292,-10.31145 -18.23542,-11.93361 -26.6265,-3.54253 -6.32763,6.32763 -7.00131,13.92874 -1.87282,21.13103 4.17223,5.85936 14.50675,8.84397 20.30621,5.86443 z m -422.09323,13.56549 c -2.20435,-1.54399 -2.22251,-1.77967 -2.22251,-28.84502 0,-25.16647 0.1422,-27.41699 1.82874,-28.94329 1.4726,-1.33268 4.01058,-1.65499 13.03212,-1.65499 12.57531,0 16.62695,1.15389 21.8703,6.22859 6.33688,6.13304 6.42904,13.36956 0.24573,19.29356 -3.80565,3.64603 -3.74317,4.7916 0.43519,7.97859 1.87664,1.43138 4.14008,4.42198 5.02986,6.64577 1.56004,3.89891 1.53206,4.23053 -0.78374,9.2889 -4.14803,9.0605 -9.89569,11.55012 -26.68569,11.55901 -7.91676,0.004 -11.07866,-0.38047 -12.75,-1.55112 z m 24.25815,-13.83306 c 2.97562,-2.97561 2.37521,-6.11629 -1.5581,-8.15029 -4.23779,-2.19144 -7.62943,-1.83696 -9.48244,0.99109 -1.61095,2.45862 -1.29969,5.6686 0.80471,8.29896 1.72097,2.15108 7.59958,1.4965 10.23583,-1.13976 z m -1.23066,-23.34314 c 3.93715,-3.54811 0.57414,-9.2671 -5.44945,-9.2671 -5.27804,0 -7.48944,8.28189 -2.93894,11.00654 2.01637,1.20731 6.04567,0.37179 8.38839,-1.73944 z m 23,38.07062 c -2.22571,-0.8981 -1.34508,-4.47346 3.63394,-14.75374 2.68616,-5.54619 8.36615,-17.50898 12.6222,-26.58398 4.25604,-9.075 8.32338,-17.12403 9.03852,-17.88674 1.77298,-1.89091 4.23905,-0.74296 5.60405,2.60868 0.62228,1.52793 3.70565,8.17806 6.85193,14.77806 18.36436,38.52311 18.40896,38.62684 17.34027,40.33265 -0.64475,1.02912 -2.67877,1.78732 -5.31381,1.98076 -3.94626,0.28971 -4.5907,-0.0318 -8.51887,-4.25 l -4.24965,-4.56341 -9.8388,0 -9.83881,0 -4.13145,4.5 c -3.59292,3.91344 -4.64098,4.48971 -8.04048,4.42105 -2.14997,-0.0434 -4.47154,-0.30592 -5.15904,-0.58333 z m 30.16821,-20.94471 c 2.24344,-0.86089 1.97487,-5.59396 -0.46608,-8.21402 -2.52989,-2.71552 -5.08326,-1.69085 -6.93667,2.7837 -1.00436,2.42474 -1.00734,3.34217 -0.0147,4.53821 1.28521,1.54859 4.6516,1.95347 7.41746,0.89211 z m 34.69433,19.71953 c -2.04513,-2.04513 -2.11254,-2.96917 -2.11254,-28.95755 0,-25.28063 0.11284,-26.94713 1.9363,-28.59734 1.69196,-1.53121 3.6794,-1.70814 15.75,-1.40214 13.08579,0.33173 14.09317,0.50485 19.11725,3.28541 6.06497,3.35663 11.11273,8.55218 14.34408,14.76402 3.51336,6.75397 3.26057,17.50266 -0.59038,25.10284 -3.41204,6.73395 -8.87674,12.04507 -15.43485,15.00106 -3.70979,1.67215 -7.21615,2.1657 -17.75986,2.49987 -12.3331,0.39088 -13.2668,0.28703 -15.25,-1.69617 z m 27.85341,-13.59493 c 1.69042,-0.87415 4.41461,-3.44073 6.05377,-5.70352 8.26849,-11.41432 -0.7435,-26.81409 -15.69169,-26.81409 -5.78627,0 -6.32803,1.49823 -6.32803,17.5 0,17.11443 0.45732,18.07973 8.13464,17.17046 2.61681,-0.30992 6.1409,-1.27871 7.83131,-2.15285 z m 31.53157,13.47965 c -1.54612,-1.70844 -1.65187,-2.55339 -0.71964,-5.75 0.60105,-2.06099 2.7262,-13.87226 4.72256,-26.24726 4.13812,-25.65131 4.60322,-27.26977 7.70683,-26.81828 2.18507,0.31786 3.06267,1.76777 15.70156,25.94102 4.02998,7.70777 6.15136,9.73737 7.91003,7.56782 0.90971,-1.12226 7.735,-13.82434 14.61046,-27.19056 2.46472,-4.79153 3.56635,-6 5.46953,-6 1.31075,0 2.71821,0.675 3.12769,1.5 0.85987,1.73239 9.00183,51.36586 8.98481,54.77144 -0.015,3.00258 -3.78139,4.68188 -8.51073,3.79465 -4.77046,-0.89494 -6.50062,-4.86369 -6.50062,-14.91153 0,-8.66987 -1.58708,-11.24321 -5.01876,-8.13758 -1.08968,0.98615 -1.98124,2.31841 -1.98124,2.96059 0,1.75944 -8.65935,19.19386 -9.9203,19.97318 -2.7813,1.71893 -5.21058,-0.98344 -10.78767,-12.00037 -3.83912,-7.58376 -6.34601,-11.44302 -7.43504,-11.44595 -2.14994,-0.006 -2.85174,2.02283 -2.88085,8.32736 -0.0323,6.99763 -1.50059,12.84731 -3.6123,14.39143 -2.72935,1.99575 -8.76832,1.5923 -10.86632,-0.72596 z m 80.15747,0.174 c -1.45428,-1.60696 -1.65499,-5.11522 -1.65499,-28.92857 0,-23.30288 0.22017,-27.32001 1.57143,-28.67126 2.0355,-2.0355 9.74559,-2.09929 11.4095,-0.0944 0.90024,1.08471 1.23736,8.82889 1.26925,29.15607 0.0404,25.73989 -0.0853,27.77319 -1.79451,29.02297 -2.69511,1.97072 -8.82757,1.69545 -10.80068,-0.48481 z m 28.93937,0.52139 c -1.64562,-1.2033 -1.78791,-3.60126 -1.78791,-30.13117 0,-29.5038 0.22461,-31.25427 3.83262,-29.86974 0.72624,0.27869 7.96705,6.98866 16.09069,14.91105 18.89512,18.42705 18.89586,18.4271 18.42139,1.31749 -0.40818,-14.71931 0.14984,-15.92028 7.39723,-15.92028 7.06581,0 7.15314,0.36654 7.38561,31 0.11061,14.575 -0.10243,27.2875 -0.47343,28.25 -1.60468,4.16313 -5.02116,1.85635 -20.3646,-13.75 -8.38139,-8.525 -15.88173,-15.5 -16.66742,-15.5 -1.75648,0 -1.73327,-0.23702 -1.4497,14.80478 0.19895,10.55299 -0.0186,12.58172 -1.52842,14.25 -2.06047,2.2768 -8.12721,2.63326 -10.85606,0.63787 z m 74.89116,-0.0796 c -1.7733,-1.29667 -1.87822,-2.73384 -1.61229,-22.08414 0.32858,-23.90839 0.13872,-24.52891 -7.50516,-24.52891 -3.50324,0 -4.63136,-0.4722 -5.95525,-2.49272 -1.67932,-2.56295 -1.32586,-6.70221 0.79002,-9.25169 1.6568,-1.99632 37.1404,-1.7695 39.16022,0.25033 2.37292,2.37291 2.87268,5.22924 1.43962,8.22799 -1.11791,2.33929 -2.09189,2.84599 -6.31228,3.28391 -2.74472,0.28479 -5.5529,0.87385 -6.2404,1.30901 -0.93607,0.5925 -1.25,6.13704 -1.25,22.0772 0,19.35153 -0.1662,21.4364 -1.82874,22.94098 -2.22622,2.01471 -8.0957,2.16195 -10.68574,0.26806 z m 104.59951,-0.36305 c -2.10348,-1.72293 -2.13226,-2.19081 -1.86078,-30.25 l 0.27575,-28.5 2.68431,0 c 2.10449,0 5.83463,3.07801 17.26914,14.25 8.578,8.38106 15.38036,14.25 16.51639,14.25 1.83445,0 1.90135,-0.60049 1.33087,-11.94663 -0.74312,-14.77976 0.19912,-17.05337 7.06736,-17.05337 7.68754,0 7.63193,-0.22681 7.63193,31.12874 0,27.49878 -0.2794,29.87126 -3.51786,29.87126 -0.61482,0 -8.04625,-6.975 -16.51429,-15.5 -8.46804,-8.525 -16.1802,-15.5 -17.13813,-15.5 -1.59878,0 -1.69218,1.09572 -1.13816,13.35245 0.57591,12.74109 0.50521,13.45078 -1.54401,15.5 -2.64705,2.64705 -8.07788,2.84222 -11.06252,0.39755 z"
       style="fill:#ffffff" />
  </g>
</svg>
