<?xml version="1.0" encoding="UTF-8" standalone="no"?>
<svg
   xmlns:dc="http://purl.org/dc/elements/1.1/"
   xmlns:cc="http://creativecommons.org/ns#"
   xmlns:rdf="http://www.w3.org/1999/02/22-rdf-syntax-ns#"
   xmlns:svg="http://www.w3.org/2000/svg"
   xmlns="http://www.w3.org/2000/svg"
   version="1.1"
   id="svg2"
   viewBox="0 0 798.6481 177.33896"
   height="50.048996mm"
   width="225.39624mm">
  <defs
     id="defs4" />
  <metadata
     id="metadata7">
    <rdf:RDF>
      <cc:Work
         rdf:about="">
        <dc:format>image/svg+xml</dc:format>
        <dc:type
           rdf:resource="http://purl.org/dc/dcmitype/StillImage" />
        <dc:title></dc:title>
      </cc:Work>
    </rdf:RDF>
  </metadata>
  <g
     transform="translate(819.12702,-424.39134)"
     id="layer1">
    <path
       id="path3360"
       d="m -771.87702,601.14905 c -1.62963,-0.42586 -1.75,-3.18995 -1.75,-40.18399 0,-40.90494 -0.11712,-42.15348 -3.95,-42.10848 -0.8525,0.01 -3.53022,1.36001 -5.95049,3 -4.9765,3.37212 -8.34742,3.69128 -15.75437,1.49166 -6.85665,-2.03621 -12.31616,-6.23123 -16.40787,-12.60761 l -3.43727,-5.35653 0,-31.02286 0,-31.02286 2.71178,-4.61285 c 2.94547,-5.01038 7.94817,-9.83999 13.05171,-12.60015 2.44893,-1.32446 5.54826,-1.74383 12.73651,-1.72337 11.16908,0.0318 13.85289,1.31919 23.05277,11.05819 7.26608,7.69189 11.31297,13.7187 15.91737,23.70488 6.75589,14.6524 7.02986,16.97815 7.02986,59.67848 0,41.75611 -0.0888,42.43804 -5.92219,45.45458 -5.80418,3.00146 -5.81689,3.04865 -5.28497,19.62015 0.44773,13.94869 0.33388,15.35426 -1.34295,16.58039 -1.74362,1.27496 -10.77995,1.67476 -14.69989,0.65037 z m 81,0 c -0.9625,-0.25152 -1.7724,-1.21182 -1.79978,-2.13399 -0.0274,-0.92218 -0.007,-7.77476 0.0449,-15.22796 0.0521,-7.45321 -0.19784,-14.31349 -0.55532,-15.24509 -0.35749,-0.93159 -2.38638,-2.66972 -4.50865,-3.8625 -2.12227,-1.19278 -4.49747,-3.55749 -5.27822,-5.25491 -1.63835,-3.56195 -2.89429,-25.319 -1.5109,-26.17398 0.49662,-0.30693 3.25533,0.24239 6.13047,1.22071 6.66307,2.26722 22.29661,2.26902 28.49514,0.003 6.91835,-2.52886 7.13888,-2.14993 6.51091,11.1878 -0.63417,13.4695 -1.7169,16.33864 -7.22642,19.14939 -2.14867,1.09617 -4.20253,2.9252 -4.56414,4.0645 -0.3616,1.1393 -0.51682,8.59445 -0.34494,16.56699 0.25744,11.9414 0.0521,14.66018 -1.16526,15.43 -1.48847,0.94124 -10.97745,1.12516 -14.22776,0.27576 z m 356.45,-13.51067 c -1.72764,-1.72764 -1.72764,-92.87236 0,-94.6 0.66,-0.66 2.7806,-1.2 4.71244,-1.2 2.62682,0 4.07225,0.69337 5.73274,2.75 1.91294,2.3693 2.47189,2.57496 4.03757,1.48558 6.55428,-4.56038 8.12919,-5.22836 12.33512,-5.23184 5.7583,-0.005 11.14464,3.50822 14.22917,9.2803 2.16125,4.04435 2.25296,5.21322 2.25296,28.71596 0,24.27397 -0.023,24.54011 -2.48925,28.84806 -2.68132,4.68353 -9.08055,9.15194 -13.10656,9.15194 -1.33106,0 -4.52894,-1.12262 -7.1064,-2.49471 -3.56205,-1.89623 -4.8792,-2.1961 -5.49037,-1.25 -0.44225,0.68459 -0.64348,6.08973 -0.44718,12.01143 0.24931,7.52112 -0.0142,11.21385 -0.87412,12.25 -1.5195,1.83088 -12.02269,2.04671 -13.78612,0.28328 z m 25.72742,-37.43486 c 1.93358,-2.45815 2.07258,-3.92458 2.07258,-21.86514 0,-17.94056 -0.139,-19.40699 -2.07258,-21.86514 -2.5407,-3.22998 -5.8895,-3.37874 -8.66368,-0.38486 -2.56669,2.76996 -2.51932,2.28591 -2.37889,24.31144 0.10651,16.70608 0.26816,18.22567 2.15411,20.25 2.76142,2.96404 6.34753,2.78398 8.88846,-0.4463 z m -174.17945,15.2653 c -5.88497,-2.18984 -10.79627,-6.504 -13.11681,-11.52197 -1.96092,-4.24035 -2.13116,-6.28593 -2.13116,-25.60847 0,-19.61163 0.1427,-21.26445 2.15842,-25 7.38183,-13.68009 25.18737,-16.90644 35.02951,-6.34732 4.4482,4.77224 6.2666,10.70307 6.29011,20.51553 0.0121,5.04252 -0.25118,9.88002 -0.58503,10.75 -0.50757,1.32271 -2.60406,1.58179 -12.8,1.58179 -8.15012,0 -12.5909,0.39789 -13.39301,1.2 -0.74161,0.74161 -1.2,4.38788 -1.2,9.54545 0,7.52728 0.24064,8.5861 2.45455,10.8 3.19722,3.19723 5.05771,3.09614 8.62237,-0.46853 2.24903,-2.24903 2.92308,-3.83852 2.92308,-6.89301 0,-4.5271 0.94511,-5.18391 7.45934,-5.18391 2.60873,0 4.7873,0.59225 5.54736,1.50807 1.7888,2.15538 0.71855,9.60761 -2.19206,15.26348 -4.42235,8.59347 -16.1119,13.19105 -25.06667,9.85889 z m 13.15515,-45.44943 c 1.49108,-2.7861 -0.2297,-13.21542 -2.44812,-14.83757 -2.65819,-1.94372 -5.49537,-1.65414 -8.14055,0.83087 -1.93339,1.81633 -2.31445,3.18836 -2.31445,8.33334 0,3.38746 0.3,6.45902 0.66667,6.82568 0.36666,0.36667 3.05083,0.66667 5.96481,0.66667 4.09895,0 5.5185,-0.41172 6.27164,-1.81899 z m 32.59688,45.45612 c -3.75718,-1.74529 -8.04366,-6.26609 -9.43638,-9.95223 -1.76652,-4.67548 -1.30024,-14.30077 0.90189,-18.61729 2.89069,-5.66623 9.33255,-10.67621 16.92314,-13.16151 3.63624,-1.19057 7.39885,-2.85124 8.36135,-3.69038 3.07929,-2.68461 1.97463,-13.03037 -1.6497,-15.45041 -3.73189,-2.49184 -8.6003,1.0941 -8.6003,6.33475 0,3.6106 -2.02296,5.01553 -7.52215,5.22405 -5.95014,0.22562 -7.87698,-1.95845 -6.90263,-7.82411 1.79035,-10.77797 8.43053,-16.70893 19.40099,-17.32881 9.67852,-0.54689 16.15374,3.11138 20.40682,11.52915 1.34778,2.66755 1.61807,6.99597 1.62356,26 0.006,21.06967 0.15734,23.02729 1.99341,25.79966 2.38743,3.6049 2.58988,8.76727 0.42857,10.92857 -2.69111,2.69111 -6.42756,1.65929 -11.65977,-3.21984 -2.99594,-2.79376 -4.43702,-2.5192 -9.90456,1.88705 -3.28798,2.64976 -10.34737,3.40727 -14.36424,1.54135 z m 16.56162,-14.44259 c 1.70793,-2.17129 1.96975,-3.78346 1.72587,-10.62706 -0.28144,-7.89783 -0.34318,-8.07393 -2.93587,-8.3741 -1.95535,-0.22638 -3.72168,0.7144 -6.75,3.59517 -3.67188,3.49297 -4.10162,4.39637 -4.10162,8.62236 0,5.52366 1.29203,8.39164 4.27808,9.49625 3.01087,1.1138 5.43943,0.26743 7.78354,-2.71262 z m 40.30658,14.7667 c -1.72249,-0.52644 -4.71891,-2.71392 -6.65872,-4.86105 -5.1035,-5.64897 -5.9493,-11.12784 -5.54586,-35.92477 0.33552,-20.62242 0.34363,-20.68776 3.16526,-25.48809 1.55588,-2.64697 4.25588,-5.68278 6,-6.74626 4.19343,-2.55695 10.65315,-2.52965 13.94399,0.0589 2.8719,2.25904 5.67708,2.62003 5.82804,0.75 0.0555,-0.6875 0.0156,-7.00588 -0.0885,-14.04084 -0.13026,-8.79469 0.18889,-13.24672 1.02154,-14.25 1.50066,-1.80819 12.01905,-2.00621 13.7661,-0.25916 0.90052,0.90052 1.2,13.36996 1.2,49.96482 0,47.18888 -0.0625,48.79827 -1.93426,49.8 -3.29513,1.7635 -6.94861,1.18511 -9.25269,-1.46482 -2.73723,-3.14809 -3.90668,-3.13354 -7.74518,0.0963 -3.44308,2.89717 -8.88464,3.83652 -13.69967,2.3649 z m 14.17725,-14.41579 c 2.4443,-2.44429 2.45455,-2.53905 2.45455,-22.68554 0,-19.39534 -0.0898,-20.32661 -2.17431,-22.54546 -2.8686,-3.05348 -6.19499,-2.93171 -8.75311,0.32041 -1.93762,2.46329 -2.07258,3.91887 -2.07258,22.35398 0,19.54532 0.0216,19.74244 2.45225,22.36514 3.04792,3.28876 4.9509,3.33378 8.0932,0.19147 z m 156.33962,14.07493 c -5.97677,-2.13586 -9.61933,-5.37788 -12.37844,-11.0173 -2.61398,-5.34279 -2.61652,-5.37266 -2.31174,-27.22587 l 0.30511,-21.87721 2.75616,-4.23989 c 4.11081,-6.32379 9.68392,-9.59783 17.14634,-10.073 9.85512,-0.62753 17.45401,3.72139 21.48444,12.29575 1.93909,4.12523 2.11306,6.20905 2.11306,25.3099 0,20.27025 -0.0662,20.94748 -2.53311,25.89784 -4.82393,9.68037 -16.56682,14.50875 -26.58182,10.92978 z m 11.25031,-14.60191 2.98153,-2.98154 -0.30845,-20.1087 c -0.30299,-19.75239 -0.35029,-20.14254 -2.66924,-22.01846 -3.29099,-2.66226 -6.611,-2.39675 -9.06664,0.72509 -1.93,2.4536 -2.07258,3.92939 -2.07258,21.45295 0,19.7145 0.56215,22.90167 4.36408,24.7426 3.16401,1.53204 3.52352,1.43584 6.7713,-1.81194 z m 98.896236,14.72734 c -5.047286,-1.68864 -12.606306,-9.42114 -13.926186,-14.24581 -0.62134,-2.27123 -1.08719,-12.42774 -1.07789,-23.5 0.0141,-16.80774 0.27077,-20.05226 1.85889,-23.5 3.8545,-8.36792 11.49782,-13.5 20.105846,-13.5 6.30563,0 10.57573,1.78003 14.70704,6.13076 4.60708,4.85177 6.33316,9.84261 6.89539,19.93754 0.72787,13.0689 0.87171,12.9317 -13.55847,12.9317 -14.79123,0 -15.03624,0.17351 -15.03624,10.64835 0,6.96221 0.21159,7.71708 2.92308,10.42857 3.46891,3.46892 4.92659,3.61577 8.44206,0.8505 2.10411,-1.6551 2.63486,-2.92412 2.63486,-6.3 0,-5.50728 1.29548,-6.62742 7.66482,-6.62742 6.80445,0 7.95108,1.71623 6.338,9.4864 -2.14719,10.343 -9.324,17.12201 -19.00282,17.94955 -3.025,0.25864 -7.06077,-0.0519 -8.96838,-0.69014 z m 13.20307,-45.12144 c 0.40408,-0.6184 0.74158,-3.42618 0.75,-6.23951 0.0262,-8.75929 -5.49993,-13.02723 -11.04934,-8.53359 -1.79559,1.45398 -2.3784,3.1258 -2.71581,7.79038 -0.45032,6.22562 0.24694,7.63371 4.28046,8.64417 2.72933,0.68374 7.83713,-0.28783 8.73469,-1.66145 z m 38.75884,45.49633 c -8.30629,-2.70905 -13.04085,-7.53004 -15.15391,-15.43054 -1.78669,-6.68023 -0.65097,-8.19016 6.16038,-8.19016 5.58059,0 5.96613,0.30097 7.6463,5.96907 1.9286,6.50618 10.31951,7.17568 13.25195,1.05735 2.10316,-4.3881 -0.73921,-8.8662 -9.39825,-14.80681 -10.10529,-6.93281 -15.08014,-12.14836 -16.53121,-17.33107 -6.46376,-23.0863 24.30055,-36.90335 37.78121,-16.96852 6.15673,9.1044 3.67291,15.8199 -5.23324,14.1491 -3.08444,-0.57864 -3.91596,-1.33461 -5.4791,-4.98127 -1.84516,-4.30457 -3.49061,-5.58785 -7.1649,-5.58785 -2.29607,0 -6.87276,4.24711 -6.87276,6.37782 0,2.69399 5.28167,7.7921 13.69675,13.22074 11.1832,7.21438 14.30325,11.96087 14.30325,21.75936 0,8.65458 -2.92766,14.3433 -9.30511,18.08074 -4.60177,2.69681 -13.51518,4.04734 -17.70136,2.68204 z m -517.936566,-1.79336 c -2.02687,-1.41967 -2.05696,-2.13581 -2.05696,-48.94978 0,-30.83684 0.36327,-48.18783 1.03518,-49.4433 0.87762,-1.63985 2.14095,-1.93426 8.3,-1.93426 4.31708,0 7.75173,0.48691 8.46482,1.2 0.85028,0.85028 1.2,6.8144 1.2,20.46482 0,22.40209 -0.54067,21.33518 10.81181,21.33518 5.03979,0 7.2946,-0.42328 8.2247,-1.54399 0.95641,-1.15241 1.22429,-6.08326 1.05623,-19.44202 -0.14523,-11.54406 0.16584,-18.62863 0.87623,-19.95601 0.95684,-1.78787 2.04833,-2.05597 8.31621,-2.04267 3.96815,0.008 7.78637,0.37808 8.48494,0.82146 1.67704,1.0644 1.93067,97.86244 0.26079,99.53232 -1.68607,1.68607 -13.16476,1.65111 -15.85838,-0.0483 -2.31473,-1.46038 -2.326,-1.56804 -2.06087,-19.68408 0.14662,-10.01862 -0.0701,-18.76041 -0.48155,-19.42619 -1.01288,-1.63887 -16.79275,-1.64788 -18.43011,-0.0105 -0.84796,0.84796 -1.2,6.698 -1.2,19.94098 0,13.18045 -0.34552,18.95453 -1.16452,19.4607 -2.29347,1.41744 -13.64495,1.22008 -15.77852,-0.27434 z m 287.94304,0.94377 c -0.825,-0.31405 -1.83061,-1.06602 -2.23469,-1.67105 -0.40408,-0.60503 -0.74158,-22.72256 -0.75,-49.15006 -0.0115,-36.05632 0.28422,-48.34953 1.18469,-49.25 1.36317,-1.36317 11.60929,-1.60723 13.63244,-0.32472 1.02468,0.64956 1.30724,4.43965 1.22336,16.40921 -0.0607,8.66686 0.3038,15.81972 0.82257,16.14034 0.51241,0.31669 2.81698,-0.99935 5.12126,-2.92452 5.01039,-4.18607 10.52311,-4.69833 15.8184,-1.4699 6.51152,3.96994 7.01686,6.77369 7.27518,40.36488 0.21607,28.09762 0.11849,29.97674 -1.62279,31.25 -2.30626,1.68638 -8.17016,1.73021 -11.42042,0.0854 l -2.44999,-1.23986 -0.05,-27.71498 c -0.0488,-27.0279 -0.10352,-27.76857 -2.20902,-29.87664 -2.87625,-2.87976 -6.75127,-1.89924 -9.39655,2.37767 -1.868,3.02021 -1.98448,4.85565 -1.84985,29.14947 0.13279,23.96221 0.007,26.02659 -1.66658,27.25 -1.80768,1.3218 -8.59074,1.67484 -11.428,0.5948 z m 109.22251,-0.82781 c -2.22149,-1.55599 -2.22251,-1.57207 -2.22251,-35.06575 0,-21.18628 0.38068,-34.22035 1.03518,-35.44329 0.80111,-1.49688 2.11263,-1.93426 5.8,-1.93426 5.05721,0 7.16482,1.24471 7.16482,4.23139 0,3.52517 2.93,3.08785 7.49326,-1.11841 3.80841,-3.51047 5.10287,-4.11298 8.83651,-4.11298 5.5123,0 10.25657,3.08229 13.08324,8.5 1.95623,3.74939 2.10607,5.86024 2.39145,33.69127 l 0.30446,29.69126 -2.57405,1.68658 c -2.75777,1.80696 -10.77556,1.5902 -12.70937,-0.34361 -0.62442,-0.62442 -0.95344,-11.15552 -0.87521,-28.0133 l 0.12535,-27.01273 -2.43373,-2.82938 c -2.12104,-2.46586 -2.78598,-2.70352 -5.17535,-1.84974 -1.50789,0.53881 -3.59111,2.55465 -4.62936,4.47965 -1.71905,3.18724 -1.87726,5.77385 -1.7705,28.94617 0.10753,23.33974 -0.0304,25.55409 -1.66586,26.75 -2.44365,1.78684 -9.47467,1.64084 -12.17833,-0.25287 z m -524.72251,-40.46531 c -11.42746,-2.29372 -19.81717,-7.45013 -28.5787,-17.56479 -5.19536,-5.99772 -8.52217,-13.03431 -10.43843,-22.07841 -1.81364,-8.55981 -1.81002,-11.1188 0.0281,-19.83479 3.24437,-15.38457 13.27568,-28.43527 27.73929,-36.08873 l 7.24979,-3.83626 13.01294,-0.0208 c 12.14461,-0.0195 13.37908,0.15959 18.5,2.68303 33.0476,16.28491 40.81064,57.67996 15.55362,82.93698 -3.54089,3.54089 -8.70323,7.67088 -11.47187,9.17777 -8.63683,4.70075 -21.69616,6.61287 -31.59469,4.62604 z"
       style="fill:#ffffff" />
  </g>
</svg>
