<?xml version="1.0" encoding="UTF-8" standalone="no"?>
<svg
   xmlns:dc="http://purl.org/dc/elements/1.1/"
   xmlns:cc="http://creativecommons.org/ns#"
   xmlns:rdf="http://www.w3.org/1999/02/22-rdf-syntax-ns#"
   xmlns:svg="http://www.w3.org/2000/svg"
   xmlns="http://www.w3.org/2000/svg"
   version="1.1"
   id="svg2"
   viewBox="0 0 798.38858 268.65359"
   height="75.820015mm"
   width="225.323mm">
  <defs
     id="defs4" />
  <metadata
     id="metadata7">
    <rdf:RDF>
      <cc:Work
         rdf:about="">
        <dc:format>image/svg+xml</dc:format>
        <dc:type
           rdf:resource="http://purl.org/dc/dcmitype/StillImage" />
        <dc:title></dc:title>
      </cc:Work>
    </rdf:RDF>
  </metadata>
  <g
     transform="translate(472.41273,-258.82317)"
     id="layer1">
    <path
       id="path3386"
       d="m -452.64206,527.14336 c -3.12897,-0.6163 -10.07504,-9.0235 -11.40616,-13.8054 -0.73692,-2.6474 -0.93901,-11.011 -0.5976,-24.7326 l 0.51585,-20.7327 -4.14138,-4.7057 -4.14138,-4.7058 0,-21.56159 0,-21.56164 3.59803,-5.5 c 12.23714,-18.70584 34.9934,-27.3063 46.6065,-17.61439 5.56069,4.64077 8.7265,5.61439 18.2556,5.61439 8.06431,0 9.2506,0.2362 10.79966,2.15028 3.47814,4.29775 5.27026,5.84972 6.75491,5.84972 2.37138,0 5.4774,-6.02957 5.48156,-10.64112 0.003,-3.38404 -0.74059,-5.0294 -4.06767,-9 -5.54687,-6.61971 -10.48171,-16.63142 -12.83005,-26.02933 -2.85923,-11.44251 -2.83647,-43.31017 0.0392,-54.81013 4.37854,-17.51029 15.27422,-31.47806 31.7447,-40.69524 9.71854,-5.43868 16.47425,-6.53459 33.76173,-5.47685 11.56153,0.7074 13.05815,1.21882 23.1055,7.89555 10.53257,6.99916 13.63379,10.0213 19.81241,19.3072 8.58814,12.90717 10.2616,20.29559 10.37095,45.78842 0.0745,17.35995 -0.20294,21.31552 -1.96728,28.05157 -2.50885,9.5785 -6.27927,17.21611 -12.35877,25.03472 -5.1889,6.67324 -5.85929,10.56414 -2.85538,16.57227 2.11314,4.22648 4.53873,4.89531 6.95296,1.91722 4.81564,-5.94039 4.75083,-5.91428 14.68154,-5.91428 9.24003,0 9.47727,-0.0606 15.25,-3.89821 8.43722,-5.60886 12.8138,-6.70404 20.37686,-5.09905 12.00617,2.54788 23.40274,11.55068 29.63471,23.41014 l 3.70734,7.05507 0.4381,15.51602 c 0.51314,18.17349 -0.19142,21.63852 -5.76959,28.37486 l -4.02347,4.8589 0,23.1954 0,23.1953 -2.9373,4.6317 c -5.75336,9.072 6.15363,8.2439 -120.51839,8.3821 -61.62437,0.067 -113.04751,-0.075 -114.27364,-0.3168 z m 24.04813,-10.5554 c 1.20677,-1.9893 1.51662,-10.5612 0.81056,-22.4233 -0.20786,-3.4921 -4.81597,-8.0827 -14.39511,-14.3403 -8.31072,-5.4291 -11.61371,-6.4436 -11.8167,-3.6294 -0.45483,6.3056 0.001,36.7025 0.56428,37.6136 2.08968,3.3811 7.0669,5.0219 15.24512,5.0256 7.46264,0 8.35375,-0.2053 9.59185,-2.2462 z m 39.06572,0.7226 c 0.84006,-0.8401 3.00971,-4.3276 4.82143,-7.75 4.72508,-8.9259 14.53344,-18.3419 24.19524,-23.2274 7.64752,-3.867 8.27108,-4.0062 19.42253,-4.3355 10.60739,-0.3133 12.07011,-0.125 18.43906,2.3738 12.54425,4.9215 25.37495,17.1752 30.28247,28.9205 0.7983,1.9106 2.32261,3.9401 3.38736,4.5099 1.06475,0.5698 7.07075,1.0361 13.34666,1.0361 14.88956,0 14.55572,0.3595 14.39096,-15.5 -0.10611,-10.214 0.1624,-12.4802 1.80401,-15.2261 1.47288,-2.4636 1.70382,-3.8024 0.97722,-5.6647 -0.85999,-2.2043 -13.05922,-16.1605 -31.95146,-36.55326 -3.85,-4.15578 -7.94803,-7.69214 -9.10673,-7.85857 -1.35106,-0.19405 -4.04125,1.36062 -7.5,4.33428 -7.20691,6.19616 -27.02597,15.96235 -32.39327,15.96235 -5.47246,0 -25.73632,-9.98693 -32.55918,-16.04659 -3.49927,-3.10784 -5.85856,-4.46362 -7.4035,-4.25445 -1.48972,0.2017 -9.17428,7.95106 -22.40243,22.59134 -11.07419,12.2564 -20.13489,22.5118 -20.13489,22.7898 0,0.2781 0.9,2.2697 2,4.4259 1.66298,3.2597 2,5.8937 2,15.6314 0,15.6645 -0.29041,15.3686 15.08356,15.3686 9.22588,0 12.1041,-0.3305 13.30096,-1.5274 z m 86.03369,0.9204 c 3.2806,-1.2589 1.63318,-5.1354 -5.36871,-12.6329 -5.16632,-5.5321 -8.56757,-8.1892 -13.25,-10.3513 -5.74923,-2.6547 -7.26221,-2.9088 -17.32053,-2.9088 -10.43584,0 -11.36504,0.1724 -17.5,3.2478 -11.96728,5.9989 -22.99826,18.8996 -19.3123,22.5855 0.83301,0.833 70.58714,0.8902 72.75154,0.06 z m 73.60181,-0.9034 c 1.60638,-0.8307 3.34218,-2.2979 3.85733,-3.2605 0.72851,-1.3612 1.71368,-31.9324 1.2239,-37.9791 -0.16747,-2.0675 -4.75594,-1.4104 -7.77452,1.1133 -1.5547,1.2998 -4.65743,3.2923 -6.89494,4.4276 -4.58103,2.3244 -11.34976,9.3103 -11.59022,11.962 -0.0871,0.9609 -0.26785,6.0221 -0.40158,11.2471 -0.33953,13.2652 0.21853,14 10.63272,14 5.20335,0 9.05393,-0.5313 10.94731,-1.5104 z m -195.67002,-44.7565 c 19.49175,-20.215 38.65,-42.08936 38.65,-44.12951 0,-0.66828 -1.16105,-2.76499 -2.58011,-4.65934 -1.41906,-1.89435 -3.90904,-6.04861 -5.53328,-9.23168 -3.34462,-6.55455 -5.40188,-7.74699 -12.06904,-6.99551 -5.57209,0.62806 -10.49485,-0.86432 -18.02914,-5.46571 -6.49294,-3.96542 -10.86896,-4.3818 -18.70328,-1.77966 -6.33528,2.10424 -12.2088,7.26667 -16.27869,14.30788 l -3.30646,5.7204 -0.33306,16.07456 -0.33307,16.07456 2.66193,3.16352 c 1.46406,1.73989 6.78894,5.61959 11.83306,8.62139 5.04413,3.0018 11.19614,6.8303 13.67114,8.5076 2.475,1.6774 5.1075,3.0517 5.85,3.0541 0.7425,0 2.7675,-1.4658 4.5,-3.2626 z m 189.00848,-3.6728 c 16.99947,-10.5884 18.66445,-11.87096 20.2085,-15.5664 1.67069,-3.99852 1.96627,-22.40912 0.48517,-30.21896 -2.58536,-13.63255 -15.86047,-24.93189 -28.85855,-24.56345 -1.85011,0.0524 -5.46303,1.39737 -8.02872,2.98873 -7.6497,4.74469 -12.68818,6.33416 -19.60337,6.18422 -3.48865,-0.0756 -6.8486,0.17493 -7.46655,0.55684 -0.61795,0.38191 -2.07097,2.57636 -3.22894,4.87654 -1.15797,2.30018 -3.62654,6.32069 -5.48571,8.93446 -4.00871,5.63577 -4.208,7.87909 -0.97343,10.95722 1.32378,1.25976 4.36128,4.57459 6.75,7.36629 11.44312,13.3736 32.38731,35.42421 33.64677,35.42421 0.77732,0 6.427,-3.1229 12.55483,-6.9397 z m -97.1455,-22.10164 c 13.05536,-5.04066 21.59357,-10.65255 31.53702,-20.72828 3.46337,-3.50945 5.25,-6.1554 5.25,-7.77513 0,-3.60567 -1.58596,-3.06023 -8.3891,2.88512 -8.91389,7.78998 -13.21967,10.30356 -21.5908,12.60404 -9.45753,2.59903 -15.61428,2.59483 -25.03972,-0.0171 -8.74694,-2.4239 -12.08848,-4.34324 -21.17104,-12.16036 -3.68531,-3.17184 -7.17503,-5.76698 -7.75495,-5.76698 -0.57991,0 -1.05439,1.03517 -1.05439,2.30038 0,3.33709 8.55685,12.45218 17.481,18.62143 6.22599,4.30403 21.73801,11.85227 24.73198,12.03474 0.39214,0.0239 3.09214,-0.87514 6,-1.99786 z m 6.09191,-22.30262 c 12.32753,-3.91472 21.72232,-11.90849 21.91388,-18.64591 0.20763,-7.30262 -6.13253,-7.71007 -9.18445,-0.59024 -3.34063,7.79338 -15.60253,15.58008 -24.53432,15.58008 -5.15923,0 -14.27116,-3.79846 -18.69128,-7.79177 -2.16129,-1.9526 -4.91492,-5.61074 -6.11917,-8.12921 -1.86084,-3.89159 -2.62742,-4.57902 -5.10622,-4.57902 -4.01187,0 -5.53887,4.27299 -3.24558,9.08208 2.4902,5.222 12.01885,12.08977 20.66225,14.89231 9.49987,3.08024 15.0467,3.1217 24.30489,0.18168 z m -6.19304,-13.21391 c 1.88671,-0.97566 2.89189,-2.19021 2.68973,-3.25 -0.26068,-1.36658 -1.66757,-1.74164 -7.31218,-1.94933 -7.5114,-0.27638 -9.90382,0.51363 -8.96493,2.96034 1.39125,3.62555 8.60678,4.81456 13.58738,2.23899 z m -11.14703,-16.37642 c 1.84648,-3.45018 1.27174,-11.82918 -0.96482,-14.06574 -2.36563,-2.36563 -6.25078,-2.60768 -8.00126,-0.49848 -1.80563,2.17565 -0.80152,11.95394 1.48724,14.48298 2.31265,2.55545 6.13247,2.59695 7.47884,0.0812 z m 18.31321,0.17953 c 2.13278,-2.35669 3.27718,-11.33933 1.79702,-14.10505 -1.57033,-2.93417 -6.43847,-2.88715 -8.51835,0.0823 -1.86807,2.66704 -2.11645,12.81774 -0.3567,14.57749 1.74412,1.74412 5.24598,1.46966 7.07803,-0.55473 z m -37.47912,-8.80972 c 0.54261,-5.53322 -1.28378,-8.23296 -7.39935,-10.93755 -7.21511,-3.19086 -9.39956,-3.22724 -9.39956,-0.15651 0,1.57469 2.12587,4.38286 6.49151,8.57496 7.16082,6.87617 9.81648,7.52521 10.3074,2.5191 z m 60.95109,-3.76597 c 3.31216,-3.21832 5.25,-5.94437 5.25,-7.38542 0,-3.0083 -2.22835,-2.95761 -9.39956,0.21384 -5.92562,2.62059 -7.60044,4.93077 -7.60044,10.48377 0,5.55883 3.69114,4.51834 11.75,-3.31219 z m -42.32143,-14.24101 c 3.15216,-3.15216 0.92586,-7.18231 -4.43185,-8.02275 -4.76758,-0.74787 -7.5301,1.33287 -6.61426,4.98188 1.05904,4.21957 7.966,6.12098 11.04611,3.04087 z m 20.04835,0.39999 c 3.37769,-1.53897 4.46866,-5.66397 1.97941,-7.48415 -4.14273,-3.02924 -11.45633,-0.37188 -11.45633,4.1626 0,3.99344 4.52302,5.5787 9.47692,3.32155 z m -41.67692,-3.02856 c 1.71159,-1.71159 1.48319,-4.23377 -0.55,-6.07358 -2.4298,-2.19869 -18.9542,-8.05391 -20.76665,-7.3584 -4.31071,1.65417 1.51464,8.98704 8.85321,11.14428 2.83989,0.83482 5.83844,1.95418 6.66344,2.48746 2.04482,1.32179 4.35812,1.24212 5.8,-0.19976 z m 65.39898,-1.48907 c 5.50564,-1.86428 8.70129,-3.59213 10.41886,-5.63335 5.40641,-6.42515 0.9402,-7.78911 -10.97293,-3.35109 -9.72822,3.62408 -12.84174,7.07668 -9.44491,10.47351 1.52609,1.52609 0.75577,1.64081 9.99898,-1.48907 z m -5.80811,-17.26072 c 14.67528,-4.54199 18.64798,-7.47907 18.57733,-13.73447 -0.0356,-3.15317 -1.30152,-5.10342 -4.94071,-7.61163 -2.23664,-1.54155 -6.62732,-1.70411 -46.02749,-1.70411 -48.28031,0 -46.76452,-0.20118 -49.59907,6.58286 -2.85284,6.82782 2.01373,11.66055 15.99461,15.88338 12.6947,3.83434 18.84851,4.47775 38.60446,4.03627 16.09365,-0.35964 18.29486,-0.63708 27.39087,-3.4523 z m 18.42313,-34.41585 c 0.40926,-2.00397 -4.3287,-15.10484 -7.09482,-19.61778 -3.00964,-4.91024 -10.45498,-12.73606 -15.26997,-16.0503 -4.82892,-3.32385 -15.9009,-7.96628 -18.99917,-7.96628 -4.3063,0 -4.80505,2.03487 -4.13093,16.85395 0.7074,15.55089 -0.0441,18.14605 -5.25449,18.14605 -4.48999,0 -5.44399,-3.73232 -4.8291,-18.89291 0.28774,-7.09454 0.10598,-13.53238 -0.40799,-14.4508 -1.26173,-2.25459 -4.95158,-2.07972 -11.14215,0.52804 -11.25798,4.74239 -21.12972,12.80206 -26.28364,21.45898 -4.76193,7.9985 -8.61135,19.81418 -6.98493,21.44002 0.22925,0.22917 22.84175,0.34285 50.25,0.25262 43.94786,-0.14467 49.87027,-0.34563 50.14719,-1.70159 z m 145.02178,183.10927 c -1.69911,-0.6286 -1.96096,-1.3891 -1.54953,-4.5 0.4341,-3.2824 13.28259,-55.59294 18.7269,-76.24363 1.08751,-4.125 2.67151,-10.425 3.52001,-14 2.642,-11.13161 -5.68247,-10.08038 79.532479,-10.04357 68.82146,0.0297 74.52862,0.1601 75.68436,1.72899 1.59293,2.16236 1.57097,3.29412 -0.14441,7.44246 -0.76692,1.85466 -2.8549,9.44712 -4.63994,16.87212 -1.78505,7.425 -6.06707,24.75 -9.5156,38.5 -3.44854,13.75003 -6.78955,27.57343 -7.42447,30.71873 -0.6349204,3.1454 -1.9129204,6.6554 -2.8399904,7.8001 -1.67727,2.071 -2.04981,2.0823 -75.4953896,2.2812 -40.595389,0.11 -74.729879,-0.1404 -75.854419,-0.5564 z m 222.085899,-14.0174 c -4.99641,-3.3671 -7.92168,-8.2674 -7.92168,-13.2701 0,-8.3549 6.98895,-42.00719 10.75683,-51.79496 4.41646,-11.47254 9.60509,-16.73169 17.14526,-17.37824 5.363811,-0.45994 9.446941,1.64424 13.354281,6.88193 3.46347,4.64269 3.80296,7.96503 1.71008,16.73525 -0.99748,4.17994 -2.14009,10.52489 -2.53912,14.09989 -0.39904,3.575 -1.55843,8.93295 -2.57643,11.90655 -1.01799,2.9736 -1.8509,6.70062 -1.8509,8.28226 0,4.47652 -5.69603,18.15262 -8.750851,21.01072 -6.4993,6.0808 -13.61164,7.3786 -19.32747,3.5267 z m 11.05468,-6.7136 c 4.27803,-2.2895 8.06067,-12.1833 11.474641,-30.01263 0.78985,-4.125 2.12985,-10.425 2.97777,-14 2.03909,-8.59721 2.04595,-18.87724 0.0145,-21.77749 -1.65897,-2.36851 -5.303101,-2.9031 -8.419661,-1.23516 -4.40321,2.35653 -8.57308,13.67165 -11.6131,31.51265 -0.74973,4.4 -2.04179,10.7 -2.87123,14 -2.24182,8.91933 -2.03772,18.00163 0.46069,20.50003 2.18303,2.183 5.098,2.5531 7.97636,1.0126 z m 30.975591,6.734 c -4.18505,-2.8203 -6.9803,-7.5093 -7.0844,-11.8839 -0.12077,-5.0752 1.96813,-19.7601 3.55276,-24.97567 0.77084,-2.53711 1.71372,-7.26211 2.0953,-10.5 0.38157,-3.23788 2.04558,-10.02571 3.6978,-15.08407 5.46665,-16.73651 14.82685,-23.69944 25.22554,-18.76494 7.3473,3.48652 10.03726,12.30672 7.76532,25.46195 -2.59882,15.04804 -4.4815,24.10088 -6.2537,30.07095 -1.07281,3.61398 -1.95057,7.25948 -1.95057,8.10108 0,2.271 -4.77952,10.9147 -7.8338,14.1672 -5.72305,6.0946 -13.24682,7.4288 -19.21425,3.4074 z m 12.35324,-7.7097 c 2.59067,-2.2747 3.9768,-4.8886 5.96578,-11.25 3.77646,-12.07851 6.33007,-23.65286 8.29495,-37.59718 1.70987,-12.1346 1.70609,-12.34862 -0.26455,-15 -1.1276,-1.51711 -3.19351,-2.83142 -4.7387,-3.01471 -6.85242,-0.81281 -11.39839,9.04733 -16.74744,36.32496 -5.40949,27.58583 -5.40729,27.31593 -0.25505,31.36873 3.47086,2.7301 3.71845,2.7035 7.74501,-0.8318 z m 55.22294,7.6345 c -1.57178,-1.171 -1.92726,-2.4943 -1.75202,-6.5219 0.19195,-4.4114 5.71225,-31.51266 6.76626,-33.21808 0.21462,-0.34728 1.29394,-6.44518 2.39848,-13.55089 2.14695,-13.81181 5.0005,-23.55328 7.80823,-26.65579 1.48445,-1.6403 2.84349,-1.86422 9.48418,-1.56265 7.6107,0.34562 7.8287,0.42936 12.0091,4.61251 l 4.2576,4.26049 -0.1366,7.81281 c -0.1502,8.59534 -1.384,11.90089 -7.0552,18.90246 -3.6987,4.56641 -3.7583,6.6273 -0.2826,9.77271 4.8905,4.4259 -0.4525,24.55233 -8.6562,32.60673 l -4.45117,4.3702 -9.2091,0.3202 c -6.93307,0.2411 -9.69644,-0.043 -11.18096,-1.1488 z m 20.26392,-9.8976 c 4.03931,-3.7158 6.16161,-9.5315 6.18601,-16.95125 0.02,-6.03563 -0.2313,-6.87662 -2.6129,-8.75 -3.10698,-2.44393 -7.60078,-2.6941 -9.75199,-0.54289 -2.31581,2.3158 -6.61317,19.77504 -6.61317,26.86784 0,4.0488 8.14457,3.6517 12.79205,-0.6237 z m 6.19731,-38.60931 c 3.0143,-3.01434 6.0106,-11.38432 6.0106,-16.79026 0,-4.27874 -3.6979,-8.62426 -7.339,-8.62426 -4.31376,0 -6.46359,2.7326 -7.16033,9.10132 -0.33988,3.10678 -1.26656,7.46372 -2.0593,9.68211 -0.79273,2.21839 -1.44133,4.71589 -1.44133,5.55 0,4.71423 7.66506,5.40539 11.98936,1.08109 z m 55.1151,48.19611 c -2.2604,-1.5832 -2.3163,-1.9499 -1.6324,-10.6925 0.3895,-4.9791 1.5099,-12.2289 2.4897,-16.11056 0.9798,-3.88166 2.0894,-9.30757 2.4659,-12.05757 0.3765,-2.75 1.5308,-8.825 2.5652,-13.5 1.0344,-4.675 2.3714,-11.54311 2.971,-15.26246 0.5997,-3.71935 1.5965,-7.8732 2.215,-9.23078 1.4632,-3.21136 4.57,-4.18649 6.6646,-2.09184 1.494,1.49398 1.4344,2.49736 -0.7636,12.85278 -1.3113,6.17777 -2.7983,13.9323 -3.3045,17.2323 -0.5062,3.3 -1.6148,8.7 -2.4635,12 -0.8488,3.3 -1.8755,8.7 -2.2817,12 -0.4061,3.30003 -1.3289,8.06813 -2.0505,10.59583 -1.9855,6.9551 -1.2149,7.9042 6.4175,7.9042 4.5394,0 6.9272,0.4672 8.0314,1.5714 1.8591,1.8591 1.8751,1.9927 0.5363,4.4943 -0.9089,1.6982 -2.1634,1.9343 -10.2775,1.9343 -6.9463,0 -9.8238,-0.4073 -11.5829,-1.6394 z m 33.2247,0.1646 c -3.3064,-2.3269 -3.7183,-6.4919 -1.4561,-14.7209 1.1045,-4.0174 2.3039,-9.55433 2.6654,-12.30433 0.3615,-2.75 1.4692,-8.375 2.4615,-12.5 0.9923,-4.125 2.1054,-9.75 2.4734,-12.5 0.368,-2.75 1.537,-8.44998 2.5979,-12.66661 1.0608,-4.21664 1.9287,-8.797 1.9287,-10.17857 0,-5.11422 6.7622,-7.83631 9.0141,-3.62859 0.8298,1.55056 0.6151,3.60465 -0.9146,8.75 -1.8176,6.11369 -3.5018,13.94437 -6.2854,29.22377 -0.551,3.025 -2.0846,10.25662 -3.408,16.07026 -1.3233,5.81367 -2.4061,11.75057 -2.4061,13.19327 0,3.655 3.1979,5.6537 8.0124,5.008 2.1267,-0.2853 5.0464,-0.2226 6.488,0.1392 2.2433,0.563 2.5764,1.1216 2.3104,3.8736 l -0.3108,3.2157 -10.5,0.2764 c -8.1437,0.2145 -10.9871,-0.066 -12.6708,-1.2512 z m -267.372771,-1.0778 c -1.05688,-1.2735 -1.00509,-2.4868 0.28812,-6.75 0.86714,-2.8586 1.8863,-7.8814 2.26479,-11.1618 0.37849,-3.2804 1.51751,-8.68035 2.53115,-11.99996 1.01363,-3.31962 2.1571,-8.96067 2.54104,-12.53567 0.38393,-3.575 1.09438,-7.56604 1.57877,-8.86898 0.48439,-1.30294 1.315,-5.35294 1.8458,-9 1.39564,-9.58922 2.73838,-13.67385 5.62126,-17.09997 2.5379,-3.01611 2.60159,-3.03105 12.92639,-3.03105 9.31237,0 10.48438,0.20265 11.43402,1.97708 0.8421,1.57347 0.63843,2.39676 -0.9977,4.03289 -1.70185,1.70185 -3.18084,2.02485 -8.59031,1.87603 -4.47704,-0.12317 -6.97638,0.26209 -7.93787,1.22358 -1.43209,1.43209 -6.46185,19.65974 -6.46185,23.41749 0,3.20535 1.98372,4.47293 7,4.47293 4.80688,0 7,1.26732 7,4.04501 0,3.13854 -3.363,4.95499 -9.17375,4.95499 -6.85255,0 -8.44472,1.52862 -9.3791,9.00473 -0.75478,6.0391 -4.94703,24.377 -5.94027,25.9841 -0.9554,1.5459 -5.10269,1.2031 -6.55049,-0.5414 z m 125.243611,0.3526 c -1.7493,-1.7493 -1.4645,-5.1502 1.31875,-15.7472 1.36469,-5.196 2.48125,-10.62373 2.48125,-12.06169 0,-1.43796 0.85009,-5.96172 1.88909,-10.0528 1.039,-4.09109 2.17354,-10.13834 2.5212,-13.43834 0.34766,-3.3 1.32887,-8.12286 2.18047,-10.71747 2.40404,-7.32449 1.69624,-9.89541 -3.09076,-11.22648 -3.03498,-0.84391 -4.08142,-1.68131 -4.33749,-3.47105 -0.18562,-1.29735 0.2437,-2.71802 0.95405,-3.15704 0.71035,-0.43902 6.03723,-0.83799 11.8375,-0.8866 5.80027,-0.0486 11.40748,-0.10019 12.46047,-0.11463 2.57193,-0.0352 5.00345,2.54164 4.25028,4.50438 -0.63467,1.65392 -3.34772,3.04598 -7.75324,3.97818 -3.33989,0.70672 -5.52246,5.66006 -6.86964,15.59071 -0.5596,4.125 -1.69795,9.70902 -2.52969,12.40893 -0.83173,2.69991 -1.51224,6.11543 -1.51224,7.59004 0,1.47461 -0.89287,6.17218 -1.98415,10.43904 -1.09128,4.26682 -2.39958,11.10422 -2.90734,15.19412 -1.29726,10.449 -4.99358,15.0828 -8.90851,11.1679 z m 61.80376,-2.05 c 0,-1.7875 0.8336,-4.6108 1.8478,-6.274 1.0143,-1.6632 2.4128,-4.8132 3.1077,-7 0.695,-2.1868 1.8146,-4.876 2.488,-5.976 0.6734,-1.1 1.7815,-4.24405 2.4625,-6.98673 0.681,-2.74269 1.6267,-5.45471 2.1014,-6.02671 0.4747,-0.57201 2.4118,-5.31822 4.3045,-10.54714 1.8928,-5.22892 5.015,-12.6419 6.9381,-16.47329 1.9232,-3.83139 3.8089,-8.40753 4.1906,-10.1692 0.8877,-4.09744 4.1806,-8.29696 6.5058,-8.29696 4.3954,0 4.5468,1.31227 4.605,39.90373 0.03,20.1279 -0.1308,37.3689 -0.358,38.3131 -0.5414,2.2502 -3.9047,3.2708 -5.7451,1.7433 -1.0571,-0.8772 -1.4521,-3.4744 -1.4521,-9.5474 0,-9.7804 -0.5715,-10.4127 -9.4112,-10.4127 -6.3986,0 -7.0192,0.6156 -11.0898,11.0027 -2.936,7.4916 -4.9796,9.9973 -8.1539,9.9973 -1.9798,0 -2.3445,-0.5062 -2.3413,-3.25 z m 29.9962,-27.34991 c 1.8661,-1.82652 3.2691,-22.84362 1.7251,-25.84107 -0.9555,-1.85488 -1.103,-1.821 -3.3265,0.76396 -1.2796,1.4877 -2.8298,4.61113 -3.4447,6.94095 -0.6149,2.32982 -1.9811,6.49474 -3.0359,9.25537 -2.3802,6.229 -2.4261,9.07832 -0.168,10.42475 2.0971,1.2504 6.1749,0.48725 8.25,-1.54396 z m -155.684721,-72.502 c -4.28326,-1.23934 -9.01157,-6.15318 -10.28586,-10.68945 -1.08748,-3.87127 -0.36249,-11.02004 2.65794,-26.20867 0.8203,-4.125 1.90567,-9.975 2.41193,-13 5.11705,-30.57535 21.291441,-43.84737 34.752311,-28.51629 5.15128,5.86699 3.95222,14.22534 -1.91415,13.34305 -1.59185,-0.23941 -2.69441,-1.7298 -4.12431,-5.57509 -2.3295,-6.26451 -5.34715,-7.69854 -9.65015,-4.58589 -3.32593,2.40587 -7.79674,11.35012 -8.65726,17.31963 -0.35793,2.48302 -1.28713,6.76459 -2.064881,9.51459 -1.36854,4.83897 -5.10038,24.12865 -6.13748,31.72434 -0.43271,3.16918 -0.0575,4.17534 2.51716,6.75 1.66411,1.66411 3.78822,3.02566 4.720231,3.02566 1.7448,0 7.54653,-5.58402 10.79951,-10.39427 2.56062,-3.78644 6.04866,-3.24621 6.46244,1.00091 0.52263,5.36444 -11.76251,17.63132 -17.30267,17.27695 -0.55,-0.0352 -2.433141,-0.47864 -4.184761,-0.98547 z m -103.6895504,-0.8415 c -5.5526896,-0.77025 -8.0304696,-3.19391 -7.2142196,-7.05662 0.29056,-1.375 1.44375,-7.53823 2.56265,-13.69606 1.1189,-6.15783 2.5131096,-12.45525 3.0982396,-13.99427 0.58514,-1.53901 1.41877,-5.50079 1.85253,-8.80394 2.45144,-18.66812 6.40511997,-33.92665 9.6252,-37.14673 2.1592,-2.1592 3.1929,-2.359 12.2044604,-2.359 10.06688,0 12.24545,0.72543 12.24545,4.07755 0,3.16674 -2.96102,4.43641 -9.67565,4.14887 -8.5749904,-0.3672 -9.9334004,0.53388 -11.3373404,7.52047 -0.63584,3.16421 -1.84066,8.16961 -2.67738,11.1231 -2.11843,7.47772 -0.87877,10.13001 4.73467,10.13001 7.1774204,0 10.5447804,3.41092 6.9330204,7.02268 -1.52866,1.52866 -3.33351,1.97732 -7.9542704,1.97732 -7.20720003,0 -8.497,1.42989 -9.34486,10.3599 -0.306,3.22295 -1.36407,8.10605 -2.35126,10.85133 l -1.79489,4.99142 2.36936,1.91859 c 1.76257,1.42724 3.22934997,1.75726 5.72741,1.28862 7.28124,-1.36597 12.3565704,2.60476 8.3941104,6.56722 -2.1571204,2.15712 -7.3196704,2.47747 -17.3972304,1.07954 z M -114.71273,376.63793 c -1.72616,-1.72616 -1.48379,-4.37557 0.78692,-8.60188 3.42211,-6.36932 6.05308,-12.38871 9.48385,-21.69812 6.973639,-18.92297 14.226959,-36.42033 19.276029,-46.5 1.95486,-3.90259 5.13059,-4.97975 7.54961,-2.56074 1.97961,1.97962 2.27443,9.49589 1.86516,47.55202 -0.1996,18.55972 -0.70439,29.95785 -1.36181,30.75 -1.68164,2.02624 -4.62541,1.45445 -6.3919,-1.24155 -1.27723,-1.94932 -1.4853,-3.72436 -0.9442,-8.05519 1.03521,-8.2855 -0.69381,-10.44454 -8.36427,-10.44454 -3.48352,0 -6.25955,0.50623 -6.85466,1.25 -0.550079,0.6875 -2.655929,5.075 -4.679649,9.75 -4.47437,10.33622 -7.22664,12.93844 -10.36508,9.8 z m 28.799999,-29.8 c 1.58027,-1.58027 2,-3.33333 2,-8.35331 0,-3.49432 0.28911,-9.11932 0.64246,-12.5 0.60209,-5.76055 0.5121,-6.14669 -1.43262,-6.14669 -1.28386,0 -2.33423,0.8579 -2.75476,2.25 -0.37383,1.2375 -2.47908,7.09373 -4.67834,13.01385 -3.2488,8.74538 -3.76735,11.04254 -2.76525,12.25 1.75665,2.11662 6.63704,1.83762 8.98851,-0.51385 z m 54.79699,30.26088 c -2.61616,-0.59824 -3.0662,-3.69126 -1.38012,-9.48513 0.84442,-2.90166 2.21821,-8.65075 3.05287,-12.77575 0.83465,-4.125 2.39773,-11.325 3.4735,-16 2.3085,-10.03211 2.52728,-13.32351 0.84839,-12.76388 -1.42721,0.47574 -7.65923,10.41045 -12.70684,20.25649 -2.10337,4.10289 -4.32783,7.1331 -5.38283,7.33257 -3.20195,0.60542 -4.70196,-1.73137 -4.70196,-7.32496 0,-7.52635 -2.86113,-19.50022 -4.65953,-19.50022 -2.11914,0 -4.34047,6.18281 -4.34047,12.08121 0,2.83 -0.85909,8.80695 -1.90908,13.28212 -1.04999,4.47517 -2.20921,10.73885 -2.57603,13.9193 -0.81557,7.0711 -4.26009,11.90741 -7.2043,10.11524 -2.64636,-1.61087 -2.74446,-4.72164 -0.46825,-14.84849 1.11871,-4.97716 2.45787,-11.97438 2.97589,-15.54938 1.12821,-7.78589 3.66708,-19.90647 6.1793,-29.5 1.00819,-3.85 2.09007,-9.15565 2.40417,-11.79032 0.75006,-6.29148 2.14135,-8.70968 5.01104,-8.70968 3.5214,0 4.7198,2.21393 5.64001,10.41939 0.4597,4.09921 1.27998,9.16929 1.82283,11.26685 0.54285,2.09757 1.29793,6.87535 1.67794,10.61729 0.62621,6.16618 0.88782,6.7751 2.79249,6.5 1.43885,-0.20781 3.21351,-2.40797 5.62777,-6.97709 8.48866,-16.06523 15.41916,-28.45708 16.82113,-30.07644 1.89563,-2.18958 6.06438,-2.28025 6.88196,-0.14968 0.33776,0.88018 -0.58642,7.74268 -2.05373,15.25 -1.4673,7.50733 -2.65635,14.99968 -2.64232,16.64968 0.014,1.65 -0.84024,6.15 -1.89838,10 -1.05815,3.85 -2.85003,11.95 -3.98197,18 -3.42795,18.32182 -4.61069,20.83398 -9.30348,19.76088 z m 151.453011,0.0768 c -1.86151,-0.75113 -1.51109,-6.16833 0.62872,-9.71969 1.0333,-1.71491 2.44194,-4.91803 3.13032,-7.11803 0.68839,-2.2 1.59373,-4.45 2.01189,-5 0.41815,-0.55 2.11804,-4.825 3.77753,-9.5 3.60609,-10.15883 5.91829,-15.88304 12.35163,-30.57838 2.66745,-6.09307 4.84991,-11.57104 4.84991,-12.17324 0,-1.68075 5.00618,-7.24834 6.51747,-7.24834 3.07285,0 4.19369,2.87023 4.55982,11.67666 0.65925,15.85693 -0.22546,65.73167 -1.19822,67.54931 -1.09187,2.04016 -3.92643,2.32667 -5.67907,0.57403 -0.72631,-0.72631 -1.2,-4.25079 -1.2,-8.92857 0,-5.69264 -0.41396,-8.14253 -1.57143,-9.3 -2.07359,-2.07359 -11.70722,-2.14992 -13.74821,-0.10893 -0.80438,0.80437 -2.8952,4.96687 -4.64627,9.25 -1.75107,4.28312 -4.09994,8.575 -5.21971,9.5375 -2.12422,1.82588 -2.50824,1.91739 -4.56438,1.08772 z m 27.41569,-29.81612 c 1.87017,-1.30991 2.1936,-2.85798 2.83808,-13.58442 1.03747,-17.26692 -1.15744,-18.35063 -6.87519,-3.39454 -1.88344,4.92655 -4.0054,10.38378 -4.71548,12.12719 -1.05886,2.59973 -1.05519,3.45403 0.0204,4.75 1.64933,1.98732 5.96836,2.03766 8.73222,0.10177 z M 22.425049,375.2758 c -0.74614,-1.94443 1.14614,-13.80762 4.28072,-26.83684 1.30983,-5.44443 2.3815,-10.86239 2.3815,-12.0399 0,-1.17751 0.6854,-4.77237 1.52312,-7.98858 0.83771,-3.2162 1.973,-9.04825 2.52286,-12.9601 1.1858,-8.43611 3.52414,-15.25698 6.29505,-18.36245 1.71359,-1.9205 3.01447,-2.25 8.88294,-2.25 7.73206,0 11.24629,1.39329 15.11712,5.99352 3.40079,4.04161 4.12295,8.49661 2.71237,16.73261 -1.42605,8.32633 -3.91902,13.32838 -9.76434,19.59178 -3.70122,3.96596 -4.39188,5.29219 -3.90576,7.5 1.77555,8.06406 3.67308,23.12885 3.4143,27.10665 -0.26889,4.13326 -0.55738,4.60544 -2.98504,4.88582 -4.47081,0.51636 -5.67645,-2.68814 -6.61495,-17.58197 -0.66739,-10.59145 -1.18891,-13.56125 -2.66857,-15.19626 -4.48702,-4.9581 -8.18106,-1.25536 -9.53714,9.55962 -0.92583,7.38359 -4.01521,20.0188 -5.47043,22.3734 -0.99195,1.605 -5.51346,1.21944 -6.18375,-0.5273 z m 29.04414,-43.74762 c 3.03022,-3.2165 7.61808,-15.71047 7.61808,-20.74609 0,-3.41036 -5.28938,-7.94416 -9.26809,-7.94416 -4.65688,0 -6.68096,2.56488 -7.69708,9.75357 -0.46338,3.27831 -1.63308,8.46853 -2.59933,11.53382 -1.65006,5.23457 -1.6545,5.72943 -0.0731,8.14294 2.56612,3.91639 7.94472,3.58522 12.01953,-0.74008 z m 14.01109,42.73948 c -0.39551,-1.57582 -0.008,-4.81419 0.93583,-7.8108 0.8863,-2.81541 2.08265,-8.49393 2.65855,-12.61893 0.5759,-4.125 1.66698,-9.75 2.42462,-12.5 0.75764,-2.75 1.66633,-7.475 2.01931,-10.5 0.35298,-3.025 1.27912,-7.525 2.05808,-10 0.77896,-2.475 1.88278,-7.98603 2.45293,-12.24672 0.57015,-4.2607 1.60275,-8.65323 2.29467,-9.76118 2.70011,-4.32356 7.763,-3.18593 7.763,1.74434 0,1.37035 -1.06975,7.05275 -2.37722,12.62756 -1.30747,5.5748 -2.85548,12.836 -3.44002,16.136 -0.58455,3.3 -1.56119,8.475 -2.17033,11.5 -0.60913,3.025 -1.53612,7.8625 -2.05997,10.75 -1.9079,10.51646 -3.22543,16.83454 -4.32705,20.75 -0.98178,3.48951 -1.5358,4.03967 -4.3411,4.3108 -2.77096,0.26782 -3.30912,-0.0615 -3.8913,-2.38107 z m 99.856991,1.90799 c -1.8543,-0.74823 -1.55694,-9.98879 0.66451,-20.64978 1.05298,-5.05336 2.65212,-13.01294 3.55364,-17.68794 0.90152,-4.675 2.55445,-12.55 3.67318,-17.5 1.11873,-4.95 2.67672,-12.12784 3.46219,-15.95077 1.48559,-7.23038 2.5494,-8.73511 5.87145,-8.30496 3.07642,0.39835 4.49293,4.54788 4.52507,13.25573 0.0162,4.4 0.65338,10.7 1.41587,14 0.76249,3.3 1.70169,9.26428 2.08711,13.25395 0.67972,7.03616 1.76833,9.38872 3.52092,7.60892 0.75597,-0.76771 2.87272,-10.94692 7.42479,-35.70491 0.79302,-4.31312 2.15185,-8.92562 3.01962,-10.25 1.77379,-2.70715 4.68291,-3.1356 6.49171,-0.9561 1.2812,1.54377 0.9754,3.75898 -2.97491,21.54814 -1.03814,4.675 -2.1684,10.525 -2.51169,13 -0.34329,2.475 -1.46267,7.65 -2.4875,11.5 -1.02484,3.85 -2.81735,11.95 -3.98336,18 -2.68398,13.92619 -3.32962,15.5 -6.35872,15.5 -3.73978,0 -4.69045,-2.12617 -5.21027,-11.65286 -0.26551,-4.86593 -1.14515,-12.89714 -1.95477,-17.84714 -0.80961,-4.95 -1.81437,-11.24448 -2.23281,-13.98773 -0.52933,-3.47028 -1.26959,-5.08571 -2.43317,-5.30979 -1.31275,-0.25282 -1.80591,0.71224 -2.29333,4.48772 -0.34153,2.64539 -1.49058,9.0848 -2.55345,14.3098 -1.06287,5.225 -2.41852,12.69027 -3.01256,16.58948 -1.00925,6.62463 -3.94792,13.5113 -5.68882,13.33157 -0.42059,-0.0434 -1.3272,-0.30592 -2.0147,-0.58333 z"
       style="fill:#ffffff" />
  </g>
</svg>
