<?xml version="1.0" standalone="no"?>
<!DOCTYPE svg PUBLIC "-//W3C//DTD SVG 20010904//EN"
 "http://www.w3.org/TR/2001/REC-SVG-20010904/DTD/svg10.dtd">
<svg version="1.0" xmlns="http://www.w3.org/2000/svg"
 width="689.000000pt" height="689.000000pt" viewBox="0 0 689.000000 689.000000"
 preserveAspectRatio="xMidYMid meet">
<metadata>
Created by potrace 1.11, written by Peter Selinger 2001-2013
</metadata>
<g transform="translate(0.000000,689.000000) scale(0.100000,-0.100000)"
fill="#000000" stroke="none">
<path d="M3038 6126 c-258 -87 -422 -319 -422 -596 0 -209 142 -433 336 -531
l47 -24 -87 -90 c-244 -250 -534 -624 -815 -1050 -44 -66 -89 -134 -100 -151
l-21 -32 -23 87 c-34 128 -37 142 -26 150 50 32 194 291 219 391 41 169 45
198 44 325 -1 154 -25 287 -70 390 -71 163 -150 284 -246 379 -72 70 -189 157
-270 199 -72 37 -221 91 -284 102 -19 4 -48 9 -65 12 -49 8 -257 10 -295 2
-19 -4 -53 -10 -75 -13 -179 -23 -411 -149 -565 -305 -153 -155 -245 -321
-297 -541 -21 -91 -24 -343 -4 -435 46 -219 146 -408 299 -561 181 -183 405
-292 657 -320 256 -28 521 36 732 179 29 20 55 32 57 29 4 -8 18 -68 22 -97 1
-11 5 -42 9 -69 17 -116 8 -236 -26 -351 -20 -67 -81 -238 -100 -280 -56 -124
-165 -483 -193 -635 -3 -19 -8 -44 -10 -56 -2 -12 -7 -45 -11 -75 -3 -30 -8
-70 -10 -89 -3 -19 -7 -84 -10 -145 -26 -550 -48 -713 -137 -1007 l-42 -138
-503 0 -503 0 0 -25 0 -25 3320 0 3320 0 0 25 0 25 -575 0 -576 0 6 43 c4 23
8 58 11 77 3 19 9 60 14 90 5 30 12 75 15 100 3 25 8 56 10 70 2 14 7 45 10
70 4 25 12 81 20 125 7 44 16 100 20 125 3 25 8 52 10 60 2 8 7 35 10 60 3 25
10 70 15 100 5 30 12 80 15 110 3 30 8 62 10 70 2 8 7 38 10 65 3 28 10 75 15
105 10 57 13 75 25 172 8 62 25 84 71 97 67 18 61 72 -14 126 -47 33 -254 195
-262 205 -3 3 -18 16 -35 29 -118 90 -279 249 -354 347 -102 137 -202 385
-192 480 1 6 22 11 50 11 160 2 277 118 286 285 5 89 -14 142 -71 200 -68 70
-122 92 -219 93 -93 0 -151 -22 -207 -77 -60 -57 -86 -124 -91 -229 -2 -31 -6
-34 -102 -73 -149 -62 -293 -159 -432 -292 -63 -61 -92 -93 -166 -184 -72 -87
-152 -245 -176 -347 -18 -77 -18 -78 -51 -81 -42 -4 -110 21 -140 53 -59 63
-62 284 -5 445 24 67 40 80 100 80 38 0 68 8 113 30 156 79 208 241 127 400
-29 57 -90 113 -140 130 -33 11 -36 15 -23 24 119 87 201 211 223 338 7 37 8
149 2 188 -18 116 -99 248 -204 328 -200 153 -496 133 -678 -46 -54 -53 -111
-137 -122 -182 -11 -40 -6 -38 -163 -88 -69 -22 -172 -61 -228 -87 -57 -26
-106 -45 -109 -42 -7 7 138 209 269 377 148 190 128 175 233 176 57 0 112 7
150 19 33 10 62 19 65 20 3 0 34 16 70 35 128 68 254 226 290 360 19 71 21 81
24 155 20 423 -401 736 -806 601z m172 -1768 c0 -92 68 -235 150 -316 86 -86
221 -150 322 -154 l36 -1 -27 -38 c-40 -54 -57 -136 -45 -210 6 -32 8 -63 5
-68 -4 -4 -23 -14 -44 -20 -20 -7 -59 -30 -86 -52 l-50 -38 -36 49 c-73 99
-181 179 -302 221 -42 15 -90 22 -173 24 -115 4 -174 -5 -255 -39 -19 -8 -38
-15 -40 -15 -10 -1 -102 -66 -136 -96 -152 -134 -233 -363 -197 -554 l8 -45
-47 -40 c-62 -52 -249 -238 -296 -295 -41 -50 -42 -54 10 124 61 211 154 462
257 692 69 155 254 517 306 600 28 43 236 152 485 254 145 59 155 60 155 17z
m1816 -1320 c56 -43 76 -63 142 -143 115 -137 179 -206 250 -262 26 -21 49
-41 52 -44 3 -3 49 -40 102 -83 l97 -78 -6 -43 c-5 -43 -5 -44 28 -53 19 -5
41 -5 51 -1 43 22 118 0 118 -36 0 -12 -4 -46 -9 -76 -6 -30 -13 -76 -16 -103
-3 -27 -8 -52 -9 -55 -2 -3 -7 -31 -10 -61 -4 -30 -11 -80 -16 -110 -5 -30
-12 -77 -15 -105 -3 -27 -8 -61 -10 -75 -2 -14 -6 -46 -9 -72 -6 -44 -9 -66
-21 -155 -3 -21 -8 -56 -11 -78 -4 -36 -17 -119 -28 -185 -7 -36 -27 -171 -31
-200 -1 -14 -6 -54 -11 -90 -4 -36 -8 -69 -9 -75 -1 -5 -3 -25 -3 -42 l-2 -33
-240 0 c-205 0 -240 2 -240 15 0 23 -49 42 -121 49 -82 7 -97 12 -114 45 -15
30 -58 187 -74 271 -5 30 -22 116 -36 190 -14 74 -28 146 -30 160 -4 20 -35
166 -70 331 -2 9 -6 32 -9 50 -3 19 -8 45 -11 59 -3 14 -10 54 -15 90 -6 36
-13 76 -16 90 -10 45 -13 305 -4 345 5 22 11 56 14 75 17 110 122 338 198 428
25 30 93 82 107 82 4 0 20 -10 37 -22z m-2484 -360 c61 -50 115 -82 173 -103
28 -10 53 -21 58 -25 4 -3 -13 -52 -38 -108 -64 -145 -148 -414 -170 -542 -3
-19 -9 -44 -12 -55 -3 -11 -8 -30 -10 -42 -1 -13 -5 -33 -7 -45 -5 -33 -26
-158 -31 -188 -4 -26 -8 -96 -6 -117 1 -9 33 -13 109 -15 l107 -3 -2 -35 c-3
-69 -13 -216 -18 -255 -3 -22 -7 -63 -9 -91 -3 -28 -8 -80 -12 -115 -9 -80
-12 -108 -13 -136 -1 -21 -6 -23 -53 -23 l-53 0 -45 66 c-155 228 -260 402
-345 573 -179 356 -228 592 -161 786 56 164 181 354 354 536 l64 68 38 -48
c21 -27 58 -64 82 -83z m1171 -1 c12 -6 43 -31 68 -54 28 -25 64 -46 90 -53
84 -22 94 -26 91 -41 -8 -32 -9 -241 -1 -291 4 -29 10 -71 13 -93 2 -22 12
-74 20 -115 29 -139 35 -282 22 -505 -13 -228 -13 -222 -32 -360 -23 -163 -75
-307 -119 -327 -36 -16 -102 -2 -179 40 -81 43 -104 71 -111 132 -3 25 -9 70
-15 100 -5 30 -11 69 -13 85 -3 17 -8 41 -11 55 -17 73 -34 184 -29 193 2 4
20 7 40 7 l35 0 -6 49 c-3 27 -17 102 -32 167 -14 66 -30 142 -35 169 -6 28
-13 61 -15 75 -26 125 -35 327 -19 426 17 109 63 259 95 312 31 51 85 62 143
29z m704 -1124 c3 -10 25 -62 49 -115 38 -84 86 -226 98 -292 2 -11 13 -57 24
-101 20 -79 26 -111 37 -190 4 -22 8 -48 11 -57 5 -16 -3 -18 -80 -18 -66 0
-87 3 -93 15 -5 8 -38 23 -73 31 -93 24 -120 39 -115 66 3 13 7 34 10 48 2 14
6 36 9 50 9 61 19 117 22 135 24 124 65 351 70 393 7 52 20 67 31 35z m-1208
-119 c4 -5 34 -92 65 -194 32 -102 77 -246 101 -320 l43 -135 -131 -3 c-120
-2 -131 -1 -144 17 -8 12 -43 29 -86 42 -89 26 -141 54 -158 85 -13 24 -14 18
73 294 12 36 34 100 50 142 26 67 33 77 56 80 50 6 122 2 131 -8z"/>
<path d="M2194 5777 c-162 -61 -216 -259 -107 -387 51 -59 104 -84 183 -85 78
0 130 21 181 76 88 92 86 238 -4 338 -54 59 -175 87 -253 58z"/>
<path d="M4053 5438 c-187 -69 -218 -322 -53 -432 133 -88 315 -25 366 126 19
58 15 135 -10 184 -56 110 -190 164 -303 122z"/>
<path d="M2415 5127 c-187 -89 -185 -352 2 -442 54 -27 155 -25 209 3 149 77
181 278 63 392 -50 47 -86 63 -159 67 -54 3 -74 0 -115 -20z"/>
<path d="M1346 3419 c-203 -77 -216 -355 -22 -445 170 -79 351 41 348 231 -4
157 -177 272 -326 214z"/>
</g>
</svg>
